<?xml version="1.0" encoding="UTF-8"?><svg id="Layer_1_1:1_" xmlns="http://www.w3.org/2000/svg" viewBox="0 0 34 21.76"><rect x="0" width="33.81" height="21.76" rx="2" ry="2" fill="#fff"/><path d="M31.16,19.38l-1.51-1.68-1.57,1.68h-9.69v-7.83h-3.08l3.83-8.76h3.71l1.33,3.02V2.78h4.64l.81,2.26,.81-2.26h3.54V1.45c0-.81-.64-1.45-1.45-1.45H1.45C.64,0,0,.64,0,1.45V20.31c0,.81,.64,1.45,1.45,1.45h31.1c.81,0,1.45-.64,1.45-1.45v-.93h-2.84Z" fill="#0071ce"/><polygon points="31.56 18.45 34 18.45 30.81 15.03 34 11.66 31.62 11.66 29.59 13.87 27.62 11.66 25.18 11.66 28.43 15.09 25.18 18.45 27.56 18.45 29.59 16.25 31.56 18.45" fill="#0071ce"/><polygon points="21.29 16.88 21.29 15.84 25.12 15.84 25.12 14.27 21.29 14.27 21.29 13.23 25.18 13.23 25.18 11.66 19.44 11.66 19.44 18.45 25.18 18.45 25.18 16.88 21.29 16.88" fill="#0071ce"/><polygon points="32.2 10.68 33.94 10.68 33.94 3.83 31.16 3.89 29.65 8.12 28.08 3.89 25.18 3.89 25.18 10.68 27.04 10.68 27.04 5.92 28.78 10.68 30.4 10.68 32.2 5.92 32.2 10.68" fill="#0071ce"/><path d="M22.22,3.89h-2.38l-3.02,6.79h2.03l.58-1.33h3.13l.58,1.33h2.09l-3.02-6.79Zm-2.15,3.89l.93-2.2,.93,2.2h-1.86Z" fill="#0071ce"/><polygon points="32.32 14.85 34 16.71 34 13 32.32 14.85" fill="#0071ce"/></svg>