<?xml version="1.0" encoding="UTF-8"?><svg id="Layer_1" xmlns="http://www.w3.org/2000/svg" viewBox="0 0 34.02 23.73"><g><path d="M.69,15.12c0-.65-.33-.6-.66-.61v-.19c.28,.01,.57,.01,.85,.01,.3,0,.71-.01,1.25-.01,1.86,0,2.87,1.25,2.87,2.52,0,.71-.41,2.51-2.96,2.51-.37,0-.7-.01-1.05-.01s-.65,0-.97,.01v-.19c.43-.04,.63-.06,.66-.55v-3.49h.01Zm.7,3.38c0,.56,.4,.62,.75,.62,1.56,0,2.06-1.17,2.06-2.24,0-1.35-.86-2.32-2.25-2.32-.29,0-.43,.02-.56,.03v3.91h0Z" fill="#fff"/><path d="M5.25,19.15h.13c.2,0,.35,0,.35-.23v-1.95c0-.31-.11-.36-.38-.5v-.11c.33-.1,.75-.23,.77-.26,.06-.03,.09-.03,.13-.03s.04,.04,.04,.1v2.76c0,.23,.16,.23,.36,.23h.12v.19c-.25,0-.5-.01-.76-.01s-.51,0-.78,.01v-.19h.01Zm.77-4.22c-.19,0-.36-.18-.36-.36s.17-.35,.36-.35,.36,.16,.36,.35-.16,.36-.36,.36" fill="#fff"/><path d="M7.48,17.01c0-.27-.08-.33-.41-.48v-.13c.31-.1,.6-.19,.95-.35,.02,0,.04,.01,.04,.07v.47c.41-.3,.77-.53,1.25-.53,.61,0,.82,.45,.82,1v1.86c0,.23,.16,.23,.36,.23h.13v.19c-.26,0-.5-.01-.76-.01s-.52,0-.78,.01v-.19h.13c.2,0,.35,0,.35-.23v-1.86c0-.41-.26-.61-.66-.61-.23,0-.6,.19-.84,.35v2.13c0,.23,.16,.23,.36,.23h.13v.19c-.26,0-.5-.01-.77-.01s-.51,0-.78,.01v-.19h.13c.2,0,.35,0,.35-.23v-1.9h-.01Z" fill="#fff"/><path d="M11.15,17.36c-.01,.07-.01,.17,0,.41,.04,.68,.48,1.25,1.06,1.25,.4,0,.7-.21,.97-.48l.1,.1c-.33,.43-.74,.81-1.33,.81-1.15,0-1.37-1.1-1.37-1.57,0-1.41,.95-1.83,1.45-1.83,.58,0,1.21,.37,1.21,1.13v.13l-.07,.04h-2.03Zm1.27-.23c.18,0,.2-.09,.2-.18,0-.37-.22-.66-.62-.66-.43,0-.74,.32-.82,.85h1.25Z" fill="#fff"/><path d="M13.41,19.15h.19c.2,0,.35,0,.35-.23v-2.02c0-.22-.27-.27-.38-.32v-.11c.52-.22,.81-.41,.88-.41,.04,0,.07,.02,.07,.09v.65h.01c.18-.28,.48-.74,.92-.74,.18,0,.41,.12,.41,.38,0,.19-.13,.37-.33,.37-.22,0-.22-.18-.48-.18-.12,0-.52,.17-.52,.6v1.69c0,.23,.14,.23,.35,.23h.4v.19c-.4,0-.7-.01-1-.01s-.6,0-.86,.01c0,0,0-.19,0-.19Z" fill="#fff"/><path d="M16.19,18.34c.09,.48,.38,.88,.9,.88,.42,0,.58-.26,.58-.51,0-.85-1.57-.58-1.57-1.74,0-.4,.32-.92,1.11-.92,.23,0,.53,.07,.82,.21l.06,.74h-.17c-.07-.46-.32-.71-.78-.71-.29,0-.56,.17-.56,.48,0,.85,1.67,.58,1.67,1.72,0,.48-.38,.98-1.24,.98-.29,0-.62-.1-.88-.25l-.08-.82,.13-.03h-.01Z" fill="#fff"/><path d="M24.74,15.62h-.18c-.13-.85-.74-1.18-1.54-1.18s-2.03,.56-2.03,2.28c0,1.46,1.04,2.5,2.14,2.5,.71,0,1.3-.49,1.45-1.25l.17,.04-.17,1.05c-.3,.19-1.11,.38-1.59,.38-1.68,0-2.75-1.08-2.75-2.71,0-1.47,1.31-2.53,2.73-2.53,.58,0,1.15,.19,1.69,.38l.07,1.02h.01Z" fill="#fff"/><path d="M25,19.15h.13c.2,0,.35,0,.35-.23v-4c0-.47-.11-.48-.38-.56v-.11c.29-.09,.59-.22,.75-.31,.08-.04,.13-.08,.16-.08,.04,0,.06,.04,.06,.1v4.97c0,.23,.16,.23,.36,.23h.12v.19c-.25,0-.5-.01-.76-.01s-.51,0-.78,.01v-.19h0Z" fill="#fff"/><path d="M29.62,18.94c0,.13,.08,.13,.2,.13h.29v.16c-.31,.03-.9,.18-1.04,.22l-.03-.02v-.58c-.43,.36-.76,.6-1.27,.6-.39,0-.79-.26-.79-.86v-1.84c0-.19-.03-.37-.43-.4v-.13c.26,0,.84-.04,.92-.04,.08,0,.08,.04,.08,.21v1.86c0,.21,0,.84,.62,.84,.25,0,.57-.19,.87-.43v-1.94c0-.14-.35-.22-.6-.29v-.13c.65-.04,1.05-.1,1.13-.1,.06,0,.06,.04,.06,.13v2.62Z" fill="#fff"/><path d="M31.05,16.57c.29-.25,.68-.51,1.07-.51,.84,0,1.34,.72,1.34,1.52,0,.95-.69,1.88-1.72,1.88-.53,0-.81-.17-1-.26l-.21,.17-.16-.08c.07-.42,.1-.85,.1-1.28v-3.1c0-.47-.11-.48-.38-.56v-.11c.29-.09,.59-.22,.75-.31,.08-.04,.13-.08,.16-.08,.04,0,.06,.04,.06,.1v2.63h0Zm0,1.95c0,.28,.26,.74,.75,.74,.77,0,1.09-.76,1.09-1.39,0-.78-.59-1.43-1.15-1.43-.27,0-.49,.18-.68,.33v1.75h-.01Z" fill="#fff"/><path d="M.02,23.52h.06c.14,0,.29-.02,.29-.22v-2.05c0-.2-.14-.22-.29-.22H.02v-.12c.16,0,.39,.01,.58,.01s.43-.01,.61-.01v.12h-.06c-.14,0-.29,.02-.29,.22v2.05c0,.2,.14,.22,.29,.22h.06v.12c-.19,0-.42-.01-.61-.01s-.42,.01-.58,.01c0,0,0-.12,0-.12Z" fill="#fff"/><path d="M1.21,23.65c-.19,0-.42-.01-.61-.01s-.42,.01-.58,.01H0v-.16H.07c.14,0,.27-.01,.27-.21v-2.05c0-.19-.13-.2-.27-.21h-.07v-.16H.02c.16,0,.39,.01,.58,.01s.42-.01,.61-.01h.02v.16h-.07c-.14,0-.27,.01-.28,.21v2.05c0,.19,.13,.2,.28,.21h.07v.16s-.02,0-.02,0Zm-.02-.03v-.08h-.03c-.14,0-.31-.02-.31-.25v-2.05c0-.21,.17-.25,.31-.25h.03v-.08c-.18,0-.41,.01-.6,.01s-.41-.01-.56-.01v.08h.03c.14,0,.3,.02,.3,.25v2.05c0,.21-.17,.25-.3,.25H.03v.08c.16,0,.37-.01,.56-.01s.41,.01,.6,.01" fill="#fff"/><path d="M3.9,22.87h0v-1.47c0-.32-.22-.37-.35-.37h-.09v-.12c.18,0,.37,.01,.55,.01,.16,0,.32-.01,.48-.01v.12h-.06c-.17,0-.35,.03-.35,.5v1.78c0,.13,0,.28,.02,.39h-.14l-2.02-2.25v1.62c0,.35,.07,.46,.37,.46h.07v.12c-.17,0-.33-.01-.5-.01s-.36,.01-.53,.01v-.12h.06c.27,0,.36-.18,.36-.5v-1.65c0-.22-.18-.36-.36-.36h-.06v-.12c.14,0,.3,.01,.45,.01,.12,0,.23-.01,.35-.01l1.74,1.96h.02Z" fill="#fff"/><path d="M4.12,23.72h-.16l-1.98-2.22v1.57c0,.35,.06,.43,.36,.45h.09v.16h-.02c-.17,0-.33-.01-.5-.01s-.36,.01-.53,.01h-.02v-.16h.08c.26,0,.33-.17,.33-.48v-1.65c0-.21-.17-.33-.33-.33h-.07v-.16h.02c.14,0,.3,.01,.45,.01,.11,0,.23-.01,.36,0l1.72,1.94v-1.44c0-.31-.21-.35-.32-.36h-.1v-.16h.02c.19,0,.37,.01,.55,.01,.16,0,.32-.01,.48-.01h.02v.16h-.08c-.17,0-.32,.02-.33,.48v1.78c0,.13,0,.27,.02,.39v.02h-.03Zm-.14-.04h.13c-.02-.12-.02-.25-.02-.38v-1.78c0-.47,.2-.51,.37-.51h.04v-.08c-.16,0-.31,.01-.47,.01-.18,0-.36-.01-.53-.01v.08h.07c.12,0,.36,.06,.36,.39v1.48h-.02l-1.74-1.96c-.11,0-.23,.01-.35,.01-.14,0-.29-.01-.43-.01v.08h.03c.18,0,.37,.14,.37,.37v1.65c0,.31-.09,.51-.37,.51h-.03v.08c.17,0,.35-.01,.51-.01s.32,.01,.49,.01v-.08h-.04c-.31,0-.39-.13-.39-.48v-1.66l2.03,2.27v.02Zm-.08-.81h0Zm0,0h0Z" fill="#fff"/><path d="M5.09,21.1c-.29,0-.3,.07-.37,.36h-.12c.01-.11,.03-.22,.04-.33,.01-.11,.02-.22,.02-.33h.09c.03,.12,.13,.11,.23,.11h2.02c.1,0,.2,0,.21-.12h.09c-.01,.12-.03,.22-.04,.33v.31l-.12,.04c0-.14-.03-.38-.29-.38h-.65v2.08c0,.3,.13,.33,.32,.33h.08v.12c-.16,0-.42-.01-.63-.01-.23,0-.51,.01-.66,.01v-.12h.08c.21,0,.32-.02,.32-.32v-2.09h-.62Z" fill="#fff"/><path d="M6.64,23.65c-.16,0-.42-.01-.63-.01-.23,0-.51,.01-.66,.01h-.01v-.16h.09c.21,0,.3,0,.31-.31v-2.07h-.62v-.02h.66s0,2.09,0,2.09c0,.31-.12,.35-.35,.35h-.06v.08c.16,0,.41-.01,.65-.01,.2,0,.47,.01,.62,.01v-.08h-.06c-.19,0-.35-.04-.35-.36v-2.09h.66c.27,0,.3,.22,.3,.37l.09-.03v-.31c.01-.1,.02-.2,.04-.3h-.06c-.02,.1-.13,.11-.22,.11h-2.04c-.09,0-.19,0-.22-.11h-.07c0,.11,0,.21-.02,.32-.01,.11-.03,.21-.04,.31h.08c.06-.27,.09-.36,.38-.36h0v.03c-.29,0-.28,.06-.35,.35h-.01s-.13,.01-.13,.01v-.02c.02-.11,.03-.22,.06-.33,.01-.11,.02-.21,.02-.33v-.02h.12c.02,.11,.1,.11,.2,.11h2.04c.11,0,.19,0,.19-.11v-.02h.02l.11,.02v.02c-.02,.1-.03,.21-.04,.31v.31h0v.02s-.14,.06-.14,.06v-.02c-.01-.14-.02-.36-.28-.36h-.62v2.06c0,.3,.12,.31,.31,.32h.09v.16h-.06Z" fill="#fff"/><path d="M7.46,23.52h.06c.14,0,.29-.02,.29-.22v-2.05c0-.2-.14-.22-.29-.22h-.06v-.12c.23,0,.65,.01,.97,.01s.74-.01,1-.01v.6l-.12,.03c-.02-.26-.07-.46-.48-.46h-.55v1.02h.47c.23,0,.29-.13,.31-.35h.12c0,.16-.01,.3-.01,.46s0,.3,.01,.45l-.12,.02c-.02-.23-.03-.39-.3-.39h-.47v.91c0,.26,.22,.26,.48,.26,.47,0,.68-.03,.79-.48l.11,.02c-.06,.21-.1,.41-.13,.62-.25,0-.7-.01-1.06-.01s-.81,.01-1.04,.01v-.12h.01Z" fill="#fff"/><path d="M9.56,23.65c-.26,0-.7-.01-1.06-.01s-.81,.01-1.04,.01h-.02v-.13h.02s.06-.01,.06-.01c.14,0,.27-.01,.27-.21v-2.05c0-.19-.13-.2-.27-.21h-.07v-.16h.02c.23,0,.65,.01,.97,.01s.74-.01,1-.01h.02v.22c0,.13,0,.28,.01,.39h0v.02s-.14,.03-.14,.03v-.02c-.02-.26-.06-.43-.46-.45h-.52v.99h.45c.22,0,.27-.12,.29-.32h.01s.13-.01,.13-.01v.02c0,.16-.01,.3-.01,.46s0,.3,.01,.45h0v.02s-.14,.02-.14,.02v-.02c-.03-.23-.03-.37-.29-.37h-.46v.89c0,.23,.2,.23,.46,.23,.47,0,.66-.02,.78-.47h.02s.12,.02,.12,.02h0c-.06,.22-.1,.43-.13,.63h-.01s-.02,.02-.02,.02Zm-.01-.03c.03-.2,.08-.39,.12-.59l-.08-.02c-.12,.43-.35,.48-.8,.48-.25,0-.49,0-.49-.27v-.92h.49c.28,0,.3,.17,.32,.39l.09-.02v-.88h-.09c-.02,.2-.09,.35-.32,.35h-.48v-1.06h.56c.41,0,.48,.21,.49,.46l.09-.02v-.57c-.27,0-.66,.01-.98,.01s-.71-.01-.96-.01v.08h.03c.14,0,.3,.02,.31,.25v2.05c0,.21-.17,.23-.31,.25h-.03v.08c.22,0,.68-.01,1.02-.01s.79,.01,1.04,.01" fill="#fff"/><path d="M10.22,21.32c0-.29-.16-.3-.28-.3h-.07v-.12c.12,0,.37,.01,.61,.01s.42-.01,.63-.01c.49,0,.94,.13,.94,.69,0,.36-.23,.57-.55,.69l.67,1c.11,.17,.19,.21,.38,.23v.12c-.13,0-.26-.01-.38-.01s-.25,.01-.37,.01c-.3-.39-.56-.81-.81-1.27h-.26v.84c0,.3,.14,.31,.32,.31h.07v.12c-.22,0-.45-.01-.67-.01-.19,0-.37,.01-.57,.01v-.12h.07c.14,0,.28-.07,.28-.21v-1.98h-.02Zm.5,.91h.19c.39,0,.6-.14,.6-.61,0-.35-.22-.57-.57-.57-.12,0-.17,.01-.22,.01v1.17Z" fill="#fff"/><path d="M12.54,23.65c-.13,0-.26-.01-.39-.01-.12,0-.25,.01-.38,0-.3-.39-.56-.81-.81-1.26h-.23v.82c0,.29,.12,.29,.3,.3h.09v.16h-.02c-.22,0-.46-.01-.67-.01-.19,0-.37,.01-.57,.01h-.01v-.16h.09c.14,0,.26-.07,.26-.19v-1.98c0-.28-.13-.28-.26-.28h-.09v-.16h.01c.12,0,.37,.01,.61,.01s.42-.01,.63-.01c.49,0,.95,.13,.95,.7,0,.36-.23,.58-.53,.7l.66,.98c.11,.17,.18,.2,.37,.22h.01v.16h-.01Zm-1.83-1.31h.27c.26,.46,.51,.88,.8,1.27,.12,0,.25-.01,.37-.01s.25,.01,.37,.01v-.09c-.19-.02-.27-.08-.38-.23l-.68-1.01h.02c.3-.13,.53-.33,.53-.68,0-.55-.42-.67-.91-.67-.21,0-.4,.01-.63,.01s-.47-.01-.59-.01v.08h.06c.12,0,.29,.02,.29,.31v1.98c0,.16-.14,.23-.29,.23h-.06v.08c.19,0,.37-.01,.55-.01,.22,0,.43,.01,.66,.01v-.08h-.06c-.18,0-.33-.02-.33-.33v-.86s.02,0,.02,0Zm0-.11h-.02v-1.2h.01s.11-.01,.22-.01c.36,0,.59,.23,.59,.59,0,.47-.22,.62-.62,.62h-.18Zm.19-.03c.39,0,.58-.13,.59-.59,0-.35-.21-.56-.56-.56-.1,0-.16,0-.2,.01v1.14h.17Z" fill="#fff"/><path d="M15.21,22.87h0v-1.47c0-.32-.22-.37-.35-.37h-.09v-.12c.19,0,.37,.01,.55,.01,.16,0,.32-.01,.48-.01v.12h-.06c-.17,0-.35,.03-.35,.5v1.78c0,.13,0,.28,.02,.39h-.14l-2.02-2.25v1.62c0,.35,.07,.46,.37,.46h.07v.12c-.17,0-.33-.01-.5-.01s-.36,.01-.53,.01v-.12h.06c.27,0,.36-.18,.36-.5v-1.65c0-.22-.18-.36-.36-.36h-.06v-.12c.14,0,.3,.01,.45,.01,.12,0,.23-.01,.35-.01l1.74,1.96h.02Z" fill="#fff"/><path d="M15.43,23.72h-.16l-1.98-2.22v1.57c0,.35,.06,.43,.36,.45h.08v.16h-.02c-.17,0-.33-.01-.5-.01s-.36,.01-.53,.01h-.02v-.16h.07c.26,0,.33-.17,.33-.48v-1.65c0-.21-.17-.33-.33-.33h-.07v-.16h.02c.14,0,.3,.01,.45,.01,.11,0,.23-.01,.36,0l1.72,1.94v-1.44c0-.31-.21-.35-.32-.36h-.1v-.16h.02c.19,0,.37,.01,.55,.01,.16,0,.32-.01,.48-.01h.02v.16h-.08c-.16,0-.32,.02-.33,.48v1.78c0,.13,0,.27,.02,.39v.02h-.01Zm-.14-.04h.12c-.01-.12-.02-.25-.02-.38v-1.78c0-.47,.2-.51,.37-.51h.04v-.08c-.16,0-.31,.01-.47,.01-.18,0-.36-.01-.53-.01v.08h.07c.12,0,.36,.06,.36,.39v1.48h-.02l-1.74-1.96c-.11,0-.23,.01-.35,.01-.14,0-.29-.01-.43-.01v.08h.03c.19,0,.37,.14,.37,.37v1.65c0,.31-.09,.51-.37,.51h-.03v.08c.17,0,.35-.01,.51-.01s.32,.01,.49,.01v-.08h-.04c-.31,0-.39-.13-.39-.48v-1.66l2.04,2.27v.02Zm-.08-.81h0Zm0,0h0Z" fill="#fff"/><path d="M16.44,23.08c-.04,.13-.09,.23-.09,.3,0,.12,.17,.13,.29,.13h.04v.12c-.16,0-.31-.01-.48-.01-.14,0-.28,0-.42,.01v-.12h.02c.16,0,.28-.09,.33-.26l.62-1.79c.06-.14,.12-.35,.14-.49,.12-.04,.28-.12,.36-.17h.03s.02,0,.02,.01c.01,.03,.02,.07,.03,.1l.72,2.05c.04,.13,.09,.28,.14,.4,.04,.11,.13,.16,.26,.16h.02v.12c-.18,0-.36-.01-.53-.01s-.39,0-.59,.01v-.12h.04c.09,0,.25-.01,.25-.11,0-.06-.03-.16-.08-.28l-.16-.46h-.89l-.12,.41h.02Zm.57-1.75h0l-.37,1.1h.74l-.36-1.1h-.01Z" fill="#fff"/><path d="M18.53,23.65c-.18,0-.36-.01-.53-.01s-.39,0-.59,.01h-.02v-.16h.06c.09,0,.22-.02,.22-.1,0-.04-.03-.16-.08-.28l-.14-.45h-.87l-.12,.39c-.04,.13-.09,.23-.09,.3,0,.1,.14,.12,.28,.12h.06v.16h-.02c-.16,0-.31-.02-.47-.02-.14,0-.28,0-.42,.01h-.02v-.16h.04c.14,0,.27-.08,.32-.25l.62-1.79c.06-.14,.12-.35,.16-.5,.12-.04,.28-.12,.36-.17h.03s.03,0,.04,.02c.01,.03,.02,.07,.03,.1l.72,2.05c.04,.13,.09,.28,.14,.4,.04,.1,.12,.14,.25,.14h.04v.16h0Zm-1.11-.02c.19,0,.38-.01,.57-.01s.36,0,.52,.01v-.08h0c-.13,0-.22-.06-.28-.17-.06-.12-.1-.27-.14-.4l-.72-2.05s-.02-.07-.03-.09h-.02c-.08,.04-.23,.12-.35,.16-.02,.14-.09,.35-.14,.49l-.62,1.79c-.06,.17-.2,.27-.36,.27h0v.08c.13,0,.27-.01,.4-.01,.16,0,.3,0,.46,.01v-.08h-.02c-.12,0-.3-.01-.31-.16,0-.08,.04-.18,.09-.31h0l.13-.42h.91l.16,.47c.04,.12,.08,.23,.08,.29,0,.12-.17,.13-.26,.13h-.02v.08h-.03Zm-.8-1.15l.38-1.15h.02v.02h0v-.02h.01l.37,1.15h-.78Zm.04-.03h.69l-.35-1.05s-.35,1.05-.35,1.05Zm.33-1.08h0Z" fill="#fff"/><path d="M18.7,21.1c-.29,0-.3,.07-.37,.36h-.12c.01-.11,.03-.22,.04-.33,.01-.11,.02-.22,.02-.33h.09c.03,.12,.13,.11,.23,.11h2.02c.1,0,.2,0,.21-.12h.09c-.01,.12-.03,.22-.04,.33v.31l-.11,.04c0-.14-.02-.38-.29-.38h-.65v2.08c0,.3,.13,.33,.32,.33h.08v.12c-.16,0-.42-.01-.63-.01-.23,0-.51,.01-.66,.01v-.12h.08c.21,0,.32-.02,.32-.32v-2.09h-.63Z" fill="#fff"/><path d="M20.24,23.65c-.16,0-.42-.01-.63-.01-.23,0-.51,.01-.66,.01h-.01v-.16h.09c.21,0,.3,0,.31-.31v-2.07h-.62v-.02h.66s0,2.09,0,2.09c0,.31-.12,.35-.35,.35h-.06v.08c.16,0,.41-.01,.65-.01,.2,0,.47,.01,.62,.01v-.08h-.06c-.19,0-.35-.04-.35-.36v-2.09h.66c.27,0,.3,.22,.3,.37l.09-.03v-.31c0-.1,.02-.2,.04-.3h-.06c-.02,.1-.13,.11-.22,.11h-2.04c-.09,0-.19,0-.22-.11h-.07c0,.11,0,.21-.02,.32,0,.11-.03,.21-.04,.31h.09c.06-.27,.09-.36,.38-.36h0v.03c-.29,0-.28,.06-.35,.35h-.01s-.13,.01-.13,.01v-.02c.02-.11,.03-.22,.04-.33,.01-.11,.02-.22,.02-.33v-.02h.12c.02,.11,.1,.11,.2,.11h2.04c.11,0,.19,0,.19-.11v-.02h.02l.11,.02v.02c-.02,.1-.03,.21-.04,.31v.31h0v.02s-.14,.06-.14,.06v-.02c0-.14-.02-.36-.28-.36h-.62v2.06c0,.3,.12,.31,.31,.32h.09v.16h-.06Z" fill="#fff"/><path d="M21.09,23.52h.06c.14,0,.29-.02,.29-.22v-2.05c0-.2-.14-.22-.29-.22h-.06v-.12c.16,0,.39,.01,.58,.01s.43-.01,.61-.01v.12h-.06c-.14,0-.29,.02-.29,.22v2.05c0,.2,.14,.22,.29,.22h.06v.12c-.19,0-.42-.01-.62-.01s-.42,.01-.58,.01v-.12h.01Z" fill="#fff"/><path d="M22.28,23.65c-.19,0-.42-.01-.62-.01s-.42,.01-.58,.01h-.01v-.13h.01s.06-.01,.06-.01c.14,0,.27-.01,.27-.21v-2.05c0-.19-.13-.2-.27-.21h-.07v-.16h.01c.16,0,.39,.01,.58,.01s.43-.01,.61-.01h.01v.16h-.07c-.14,0-.27,.01-.28,.21v2.05c0,.19,.13,.2,.28,.21h.07v.16h0Zm-.02-.04v-.08h-.03c-.14,0-.31-.02-.31-.25v-2.05c0-.21,.17-.25,.31-.25h.03v-.08c-.18,0-.4,.01-.6,.01s-.41-.01-.56-.01v.08h.03c.13,0,.31,.02,.31,.25v2.05c0,.21-.17,.25-.31,.25h-.03v.08c.16,0,.37-.01,.56-.01s.41,.01,.6,.01" fill="#fff"/><path d="M23.84,20.84c.84,0,1.5,.51,1.5,1.35,0,.9-.65,1.5-1.48,1.5s-1.46-.57-1.46-1.4,.63-1.45,1.45-1.45m.06,2.67c.76,0,.89-.67,.89-1.24s-.31-1.27-.96-1.27c-.68,0-.89,.61-.89,1.14,0,.7,.32,1.37,.96,1.37" fill="#fff"/><path d="M22.38,22.29c0-.82,.63-1.46,1.46-1.46v.03c-.8,0-1.43,.62-1.43,1.43s.62,1.39,1.45,1.39,1.46-.59,1.46-1.48c0-.82-.66-1.34-1.48-1.34v-.03c.84,0,1.52,.52,1.52,1.37,0,.91-.66,1.52-1.49,1.52s-1.48-.57-1.48-1.43m.55-.13c0-.52,.21-1.15,.9-1.15s.98,.7,.98,1.28-.13,1.26-.91,1.26h0v-.03c.75,0,.87-.66,.88-1.23,0-.57-.3-1.25-.95-1.25s-.87,.6-.87,1.11c0,.7,.32,1.35,.94,1.36v.02h0c-.65,.01-.97-.67-.97-1.37" fill="#fff"/><path d="M27.98,22.87h0v-1.47c0-.32-.22-.37-.35-.37h-.09v-.12c.18,0,.37,.01,.55,.01,.17,0,.32-.01,.48-.01v.12h-.06c-.17,0-.35,.03-.35,.5v1.78c0,.13,0,.28,.02,.39h-.14l-2.02-2.25v1.62c0,.35,.07,.46,.37,.46h.07v.12c-.17,0-.33-.01-.5-.01s-.36,.01-.53,.01v-.12h.06c.27,0,.36-.18,.36-.5v-1.65c0-.22-.18-.36-.36-.36h-.06v-.12c.14,0,.3,.01,.45,.01,.12,0,.23-.01,.35-.01l1.74,1.96h.02Z" fill="#fff"/><path d="M28.21,23.72h-.17l-1.98-2.22v1.57c0,.35,.06,.43,.35,.45h.09v.16h-.02c-.17,0-.33-.01-.5-.01s-.36,.01-.53,.01h-.01v-.16h.07c.26,0,.33-.17,.33-.48v-1.65c0-.21-.17-.33-.33-.33h-.07v-.16h.01c.14,0,.3,.01,.45,.01,.11,0,.23-.01,.36,0l1.72,1.94v-1.44c0-.31-.21-.35-.32-.36h-.1v-.16h.02c.19,0,.37,.01,.55,.01,.16,0,.32-.01,.48-.01h.02v.16h-.08c-.16,0-.32,.02-.33,.48v1.78c0,.13,0,.27,.02,.39v.02h0Zm-.14-.04h.13c-.02-.12-.02-.25-.02-.38v-1.78c0-.47,.2-.51,.37-.51h.04v-.08c-.16,0-.31,.01-.47,.01-.18,0-.36-.01-.53-.01v.08h.07c.12,0,.36,.06,.36,.39v1.48h-.02l-1.74-1.96c-.11,0-.23,.01-.35,.01-.14,0-.29-.01-.43-.01v.08h.03c.19,0,.38,.14,.38,.37v1.65c0,.31-.09,.51-.37,.51h-.03v.08c.17,0,.35-.01,.51-.01s.32,.01,.49,.01v-.08h-.06c-.31,0-.38-.13-.38-.48v-1.66l2.03,2.27v.02Zm-.09-.81h0Zm0,0h0Z" fill="#fff"/><path d="M29.22,23.08c-.03,.13-.09,.23-.09,.3,0,.12,.17,.13,.29,.13h.04v.12c-.16,0-.31-.01-.48-.01-.14,0-.28,0-.42,.01v-.12h.02c.16,0,.28-.09,.35-.26l.62-1.79c.06-.14,.12-.35,.14-.49,.12-.04,.28-.12,.36-.17h.03s.02,0,.02,.01c.01,.03,.02,.07,.03,.1l.72,2.05c.04,.13,.09,.28,.14,.4,.04,.11,.13,.16,.26,.16h.02v.12c-.18,0-.36-.01-.53-.01s-.39,0-.59,.01v-.12h.04c.09,0,.25-.01,.25-.11,0-.06-.03-.16-.08-.28l-.16-.46h-.89l-.12,.41h.01Zm.57-1.75h0l-.37,1.1h.74l-.36-1.1h-.01Z" fill="#fff"/><path d="M31.3,23.65c-.18,0-.36-.01-.53-.01s-.39,0-.59,.01h-.02v-.16h.06c.09,0,.22-.02,.22-.1,0-.04-.03-.16-.08-.28l-.14-.45h-.87l-.12,.39c-.04,.13-.09,.23-.09,.3,0,.1,.14,.12,.28,.12h.06v.16h-.02c-.16,0-.31-.02-.47-.02-.14,0-.28,0-.42,.01h-.02v-.16h.04c.14,0,.27-.09,.32-.25l.62-1.79c.04-.14,.12-.35,.16-.5,.12-.04,.28-.12,.36-.17h.03s.03,0,.04,.02c.01,.03,.02,.07,.03,.1l.72,2.05c.04,.13,.09,.28,.14,.4,.04,.1,.11,.14,.25,.14h.04v.16h0Zm-1.11-.02c.19,0,.38-.01,.57-.01s.36,0,.52,.01v-.08h0c-.13,0-.22-.06-.28-.17-.06-.12-.1-.27-.14-.4l-.72-2.05s-.02-.07-.03-.09t0,0h-.02c-.08,.04-.23,.12-.35,.16-.02,.14-.09,.35-.14,.49l-.62,1.79c-.06,.17-.2,.27-.36,.27h0v.08c.13,0,.27-.01,.41-.01,.16,0,.3,0,.46,.01v-.08h-.02c-.12,0-.3-.01-.31-.16,0-.08,.04-.18,.09-.31h0l.13-.42h.91l.16,.47c.04,.12,.08,.23,.08,.29,0,.12-.17,.13-.26,.13h-.02v.08h-.04Zm-.8-1.15l.38-1.14h.02v.02h0v-.02h.01l.37,1.14h-.78Zm.04-.03h.69l-.35-1.05s-.35,1.05-.35,1.05Zm.33-1.08h0Z" fill="#fff"/><path d="M32.3,23.26c0,.16,.11,.2,.23,.22,.16,.01,.33,.01,.51,0,.17-.02,.3-.11,.38-.21,.07-.09,.1-.2,.12-.28h.11c-.04,.22-.1,.45-.14,.67-.35,0-.69-.01-1.04-.01s-.69,.01-1.04,.01v-.12h.06c.14,0,.29-.02,.29-.27v-2.02c0-.2-.16-.22-.29-.22h-.06v-.12c.21,0,.41,.01,.61,.01s.4-.01,.59-.01v.12h-.1c-.14,0-.27,0-.27,.21v2.02h.02Z" fill="#fff"/><path d="M33.51,23.65c-.35,0-.69-.01-1.04-.01s-.69,.01-1.04,.01h-.01v-.16h.07c.14,0,.28-.01,.28-.25v-2.02c0-.19-.13-.2-.28-.21h-.07v-.16h.01c.21,0,.41,.01,.62,.01s.39-.01,.59-.01h.01v.16h-.11c-.16,0-.25,0-.25,.2v2.02c0,.14,.1,.19,.22,.2h.21c.1,0,.19,0,.3-.01,.16-.02,.3-.11,.37-.2,.06-.09,.09-.19,.12-.28h.01s.13-.01,.13-.01v.02c-.04,.22-.1,.45-.14,.67h-.01s-.01,.02-.01,.02Zm-.01-.03c.04-.21,.1-.42,.13-.63h-.08c-.02,.09-.06,.19-.12,.28-.08,.1-.22,.2-.39,.22-.1,.01-.2,.01-.3,.01h-.22c-.12-.01-.25-.07-.25-.23v-2.02c0-.22,.13-.23,.28-.23h.08v-.08c-.19,0-.38,.01-.58,.01s-.4-.01-.6-.01v.08h.03c.14,0,.31,.02,.31,.25v2.02c0,.26-.17,.28-.31,.28h-.03v.08c.33,0,.68-.01,1.01-.01s.68,.01,1.01,.01" fill="#fff"/><path d="M33.61,20.8c.23,0,.41,.18,.41,.41s-.18,.41-.41,.41-.41-.18-.41-.41,.18-.41,.41-.41m0,.75c.19,0,.32-.16,.32-.33s-.13-.33-.32-.33-.32,.16-.32,.33,.14,.33,.32,.33m-.2-.11v-.02s.06,0,.06-.03v-.3s0-.06-.06-.06v-.02h.21c.07,0,.13,.03,.13,.11,0,.07-.04,.11-.1,.12l.07,.1s.07,.08,.09,.1h-.08s-.07-.07-.14-.18h-.04v.13s0,.02,.06,.03v.02h-.19Zm.14-.23h.04s.08-.04,.08-.1-.04-.09-.08-.09h-.04v.19Z" fill="#fff"/></g><g><path d="M9.17,6.98C9.17,3.32,12.14,.36,15.8,.36s6.63,2.96,6.63,6.63-2.96,6.63-6.63,6.63-6.63-2.96-6.63-6.63" fill="#fff"/><path d="M15.81,13.74c-3.8,.02-6.93-3.06-6.93-6.81C8.88,2.83,12.01,0,15.81,0h1.78c3.75,0,7.19,2.83,7.19,6.93,0,3.74-3.43,6.81-7.19,6.81h-1.78Zm.01-13.17c-3.48,0-6.28,2.82-6.28,6.28s2.82,6.28,6.28,6.28,6.28-2.82,6.28-6.28S19.28,.57,15.82,.57m-1.43,10V3.14c-1.49,.58-2.55,2.02-2.56,3.72,0,1.69,1.06,3.14,2.56,3.72m5.41-3.72c0-1.69-1.07-3.14-2.56-3.72v7.44c1.49-.58,2.55-2.02,2.56-3.72" fill="#0069aa"/></g></svg>