<?xml version="1.0" encoding="UTF-8"?><svg id="_レイヤー_1" xmlns="http://www.w3.org/2000/svg" viewBox="0 0 34 26.19"><path d="M34,20.91c0,2.91-2.37,5.28-5.28,5.28H0V5.28C0,2.37,2.37,0,5.28,0h28.72V20.91Z" fill="#fff"/><path d="M24.65,15.55h2.18l.27-.02c.42-.08,.77-.46,.77-.98s-.35-.87-.77-.98l-.27-.02h-2.18v2Z" fill="#469b23"/><path d="M26.58,1.77c-2.08,0-3.78,1.68-3.78,3.78v3.93h5.34c.12,0,.27,0,.37,.02,1.21,.06,2.1,.69,2.1,1.77,0,.85-.6,1.58-1.72,1.72v.04c1.23,.08,2.16,.77,2.16,1.83,0,1.14-1.04,1.89-2.41,1.89h-5.86v7.69h5.55c2.08,0,3.78-1.68,3.78-3.78V1.77h-5.53Z" fill="#469b23"/><path d="M27.6,11.51c0-.5-.35-.83-.77-.89l-.21-.02h-1.97v1.83h1.97l.21-.02c.42-.06,.77-.39,.77-.89Z" fill="#469b23"/><path d="M5.67,1.77c-2.08,0-3.78,1.68-3.78,3.78V14.88c1.06,.52,2.16,.85,3.26,.85,1.31,0,2.02-.79,2.02-1.87v-4.41h3.24v4.39c0,1.7-1.06,3.1-4.66,3.1-2.18,0-3.89-.48-3.89-.48v7.96H7.42c2.08,0,3.78-1.68,3.78-3.78V1.77H5.67Z" fill="#0c2c84"/><path d="M16.13,1.77c-2.08,0-3.78,1.68-3.78,3.78v4.95c.96-.81,2.62-1.33,5.3-1.21,1.43,.06,2.97,.46,2.97,.46v1.6c-.77-.39-1.68-.75-2.87-.83-2.04-.15-3.26,.85-3.26,2.6s1.23,2.76,3.26,2.6c1.18-.08,2.1-.46,2.87-.83v1.6s-1.52,.39-2.97,.46c-2.68,.12-4.34-.39-5.3-1.21v8.73h5.55c2.08,0,3.78-1.68,3.78-3.78V1.77h-5.55Z" fill="#d7182a"/></svg>