<svg xmlns="http://www.w3.org/2000/svg" viewBox="0 0 32 20" >
<g>
	<rect x="11.241" y="2.224" fill="#FF5F00" width="9.521" height="15.55"/>
	<path fill="#EB001B" d="M12.222,10.001c-0.002-3.034,1.39-5.9,3.777-7.774C11.705-1.148,5.488-0.402,2.113,3.892
		s-2.629,10.511,1.665,13.885c3.586,2.818,8.635,2.818,12.221,0C13.611,15.903,12.219,13.036,12.222,10.001z"/>
	<path fill="#F79E1B" d="M31.054,16.129V15.81h0.137v-0.066h-0.327v0.066h0.129v0.319H31.054z M31.689,16.129v-0.385H31.59
		l-0.115,0.275l-0.115-0.275H31.26v0.385h0.071v-0.291l0.107,0.25h0.074l0.107-0.25v0.291L31.689,16.129z"/>
	<path fill="#F79E1B" d="M31.999,10.001c0,5.461-4.428,9.889-9.889,9.888c-2.217,0-4.369-0.745-6.112-2.115
		c4.294-3.375,5.039-9.591,1.665-13.885c-0.487-0.619-1.045-1.178-1.665-1.665c4.293-3.375,10.51-2.631,13.886,1.662
		c1.37,1.743,2.115,3.895,2.115,6.112V10.001z"/>
</g>
</svg>
