<svg xmlns="http://www.w3.org/2000/svg" viewBox="0 0 32 20" >
<g>
	<g>
		<path fill="#D8DADA" d="M30.5,20h-29C0.7,20,0,19.3,0,18.5v-17C0,0.7,0.7,0,1.5,0h29C31.3,0,32,0.7,32,1.5v17
			C32,19.3,31.3,20,30.5,20z M1.5,1C1.2,1,1,1.2,1,1.5v17C1,18.8,1.2,19,1.5,19h29c0.3,0,0.5-0.2,0.5-0.5v-17C31,1.2,30.8,1,30.5,1
			H1.5z"/>
	</g>
	<g>
		<rect x="4" y="4" fill-rule="evenodd" clip-rule="evenodd" fill="#D8DADA" width="24" height="2"/>
	</g>
	<g>
		<rect x="23" y="14" fill-rule="evenodd" clip-rule="evenodd" fill="#D8DADA" width="2" height="2"/>
	</g>
	<g>
		<rect x="26" y="14" fill-rule="evenodd" clip-rule="evenodd" fill="#D8DADA" width="2" height="2"/>
	</g>
</g>
</svg>
