<svg version="1.1" id="Layer_1" xmlns="http://www.w3.org/2000/svg" xmlns:xlink="http://www.w3.org/1999/xlink" x="0px" y="0px"
	 viewBox="0 0 96.9 71.9" style="enable-background:new 0 0 96.9 71.9;" xml:space="preserve">
<g>
	<g>
		<path d="M82.61,71.539H2.43c-1.188,0-1.98-0.792-1.98-1.98V21.055c0-1.188,0.792-1.98,1.98-1.98h80.18
			c1.188,0,1.98,0.792,1.98,1.98v48.504C84.589,70.747,83.798,71.539,82.61,71.539z M2.43,21.055v48.504h80.18V21.055
			C82.61,21.055,2.43,21.055,2.43,21.055z"/>
		<rect x="63.604" y="44.812" width="14.848" height="1.98"/>
		<path d="M20.248,43.823h-7.919c-1.683,0-2.97-1.287-2.97-2.97v-4.949c0-1.683,1.287-2.97,2.97-2.97h7.919
			c1.683,0,2.97,1.287,2.97,2.97v4.949C23.217,42.536,21.93,43.823,20.248,43.823z M12.328,34.914c-0.594,0-0.99,0.396-0.99,0.99
			v4.949c0,0.594,0.396,0.99,0.99,0.99h7.919c0.594,0,0.99-0.396,0.99-0.99v-4.949c0-0.594-0.396-0.99-0.99-0.99H12.328z"/>
		<g>
			<path fill-rule="evenodd" clip-rule="evenodd" fill="#FFFFFF" d="M93.696,28.776c4.454-9.701,0.396-21.183-9.305-25.638s-21.183-0.396-25.638,9.305
				c-4.256,9.008-0.792,19.6,7.424,24.648l0.594,3.663l3.267-1.881C79.244,42.041,89.44,37.784,93.696,28.776z"/>
			<path d="M65.98,42.338l-0.693-4.652c-8.612-5.543-11.78-16.432-7.424-25.638c2.277-4.949,6.335-8.612,11.384-10.493
				c5.048-1.782,10.592-1.584,15.541,0.693c10.097,4.652,14.452,16.729,9.8,26.925l0,0c-4.355,9.305-14.848,13.858-24.45,10.79
				L65.98,42.338z M76.176,2.347c-2.079,0-4.256,0.396-6.236,1.089c-4.553,1.683-8.216,5.048-10.295,9.404
				c-3.96,8.414-0.99,18.511,7.028,23.361l0.396,0.198l0.396,2.673l2.376-1.386l0.396,0.099c8.81,3.069,18.412-1.089,22.47-9.602
				c4.256-9.206,0.297-20.094-8.81-24.351C81.521,2.941,78.848,2.347,76.176,2.347z"/>
		</g>
	</g>
	<g enable-background="new" >
		<path d="M64.198,19.472h-1.881v-1.287c1.188,0,2.079-0.594,2.277-1.683h1.485v8.216h-1.881V19.472z"/>
		<path d="M68.751,22.441c0.594-0.594,1.287-1.089,1.98-1.584c0.99-0.693,1.485-0.99,1.485-1.782c0-0.693-0.396-1.089-1.089-1.089
			c-0.396,0-0.693,0.099-0.891,0.396c-0.297,0.297-0.396,0.693-0.396,1.188h-1.782c0-0.792,0.198-1.386,0.495-1.881
			c0.495-0.693,1.287-1.188,2.673-1.188c1.881,0,2.97,1.188,2.97,2.574s-0.99,2.178-2.178,2.871
			c-0.792,0.495-1.188,0.693-1.485,1.188l0,0h3.663v1.584H67.96C67.96,23.728,68.158,23.035,68.751,22.441z"/>
		<path d="M86.767,22.936h-3.762v-1.683l3.762-4.652h1.881v4.949h1.188v1.386h-1.188v1.782h-1.881V22.936z M85.381,21.451h1.386
			v-1.881c0-0.495,0-0.891,0.099-1.287l0,0c-0.198,0.297-0.495,0.693-0.792,1.089l-0.792,0.99c-0.396,0.396-0.693,0.792-0.891,1.089
			l0,0C84.589,21.55,84.985,21.451,85.381,21.451z"/>
	</g>
	<path d="M76.275,24.124c-0.594-0.495-0.99-1.188-0.99-2.079h1.782c0.099,0.792,0.495,1.287,1.485,1.287
		c0.792,0,1.287-0.396,1.287-1.188c0-0.693-0.495-1.089-1.386-1.089h-0.396v-1.287h0.396c0.792,0,1.188-0.396,1.188-0.99
		c0-0.495-0.396-0.99-1.089-0.99c-0.891,0-1.188,0.594-1.287,1.188h-1.782c0-1.386,1.188-2.574,3.069-2.574
		c1.683,0,2.871,0.792,2.871,2.178c0,0.792-0.495,1.287-1.287,1.584l0,0c0.99,0.297,1.584,0.891,1.584,1.98
		c0,1.683-1.485,2.772-3.069,2.772C77.66,24.916,76.868,24.619,76.275,24.124z"/>
</g>
</svg>
