<svg version="1.1" id="Layer_1" xmlns="http://www.w3.org/2000/svg" xmlns:xlink="http://www.w3.org/1999/xlink" x="0px" y="0px"
	 viewBox="0 0 96 71.4298" style="enable-background:new 0 0 96 71.4298;" xml:space="preserve">
<g>
	<path d="M81.73517,71.05779H2.46222c-1.17732,0-1.9622-0.78488-1.9622-1.9622V21.02164c0-1.17732,0.78488-1.9622,1.9622-1.9622
		h79.37106c1.17732,0,1.9622,0.78488,1.9622,1.9622l-0.09811,48.07394C83.69737,70.2729,82.91249,71.05779,81.73517,71.05779z
		 M81.83327,21.02164H2.46222v48.07395h79.27295L81.83327,21.02164z"/>
	<path d="M1.38301,25.43659h82.02003v1.9622H1.38301V25.43659z"/>
	<path d="M1.38301,34.26651h82.02003v1.9622H1.38301V34.26651z"/>
	<path d="M48.08341,42.60586h12.45998v1.9622H48.08341V42.60586z"/>
	<path fill-rule="evenodd" clip-rule="evenodd" fill="#FFFFFF" d="M90.85941,31.71564c6.27905-8.43747,4.31684-20.60312-4.21874-26.78405s-20.505-4.12062-26.78405,4.41495
		c-5.7885,7.94692-4.61118,18.93525,2.64897,25.41051l-0.09811,3.63008l3.43385-1.17732
		C74.18069,41.91909,84.97281,39.76067,90.85941,31.71564z"/>
	<path d="M75.2599,40.64366c-3.23763,0-6.47527-0.78488-9.41856-2.35464l-4.31684,1.47165l0.09811-4.61118
		c-7.35826-6.86771-8.43747-18.15037-2.45275-26.39161c6.47526-9.02613,19.13147-11.08644,28.05948-4.61117
		c4.41496,3.13952,7.26015,7.84881,8.04503,13.24486c0.78488,5.29794-0.49055,10.59589-3.63007,14.91273
		C87.71989,37.70036,81.53896,40.64366,75.2599,40.64366z M65.93945,36.13059l0.39244,0.19622
		c8.04503,4.51306,18.24847,2.25653,23.74264-5.19983c2.8452-3.82629,4.02251-8.63369,3.23764-13.44108
		c-0.78488-4.9055-3.33575-9.12424-7.26015-11.96943c-8.04503-5.7885-19.4258-3.9244-25.41052,4.21873
		c-5.49416,7.55448-4.41495,17.95415,2.55086,24.13508l0.29433,0.29433l-0.09811,2.64898L65.93945,36.13059z"/>
	<g enable-background="new">
		<path d="M67.41109,19.35377H65.547v-1.27543c1.17731,0,2.06031-0.58866,2.25654-1.66787h1.47165v8.14314h-1.8641V19.35377z"/>
		<path d="M71.92416,22.29707c0.58865-0.58866,1.27543-1.07921,1.9622-1.56976c0.9811-0.68677,1.47166-0.9811,1.47166-1.76598
			c0-0.68677-0.39245-1.07921-1.07922-1.07921c-0.39244,0-0.68677,0.09811-0.88299,0.39244
			c-0.29433,0.29433-0.39244,0.68677-0.39244,1.17732h-1.76598c0-0.78488,0.19621-1.37354,0.49055-1.86409
			c0.49055-0.68677,1.27544-1.17732,2.64897-1.17732c1.86409,0,2.9433,1.17732,2.9433,2.55086s-0.9811,2.15842-2.15842,2.84519
			c-0.78488,0.49055-1.17731,0.68677-1.47165,1.17732h3.63007v1.56976h-6.18094
			C71.04117,23.5725,71.3355,22.88573,71.92416,22.29707z"/>
	</g>
	<path d="M79.38052,23.86683c-0.58865-0.49055-0.9811-1.17732-0.9811-2.06031h1.76599
		c0.09811,0.78488,0.49055,1.27543,1.47165,1.27543c0.78488,0,1.27544-0.39244,1.27544-1.17732
		c0-0.68677-0.49055-1.07921-1.37354-1.07921h-0.39245v-1.27543h0.39245c0.78488,0,1.17731-0.39244,1.17731-0.9811
		c0-0.49055-0.39244-0.9811-1.07921-0.9811c-0.883,0-1.17732,0.58866-1.27544,1.17732h-1.76598
		c0-1.37354,1.17731-2.55086,3.04141-2.55086c1.66787,0,2.84519,0.78488,2.84519,2.15842c0,0.78488-0.49055,1.27543-1.27544,1.56976
		c0.9811,0.29433,1.56976,0.88299,1.56976,1.9622c0,1.66787-1.47165,2.74708-3.04141,2.74708
		C80.65596,24.65171,79.96918,24.25928,79.38052,23.86683z"/>
</g>
</svg>
