<?xml version="1.0" encoding="utf-8"?>
<!-- Generator: Adobe Illustrator 24.2.1, SVG Export Plug-In . SVG Version: 6.00 Build 0)  -->
<svg version="1.1" id="Layer_1" xmlns="http://www.w3.org/2000/svg" xmlns:xlink="http://www.w3.org/1999/xlink" x="0px" y="0px"
	 viewBox="0 0 96.9 71.9" style="enable-background:new 0 0 96.9 71.9;" xml:space="preserve">
<g>
	<g>
		<path fill="#FFFFFF" d="M82.6,71.5H2.4c-1.2,0-2-0.8-2-2V21.1c0-1.2,0.8-2,2-2h80.2c1.2,0,2,0.8,2,2v48.5
			C84.6,70.7,83.8,71.5,82.6,71.5z M2.4,21.1v48.5h80.2V21.1H2.4z"/>
		<rect x="63.6" y="44.8" fill="#FFFFFF" width="14.8" height="2"/>
		<path fill="#FFFFFF" d="M20.2,43.8h-7.9c-1.7,0-3-1.3-3-3v-4.9c0-1.7,1.3-3,3-3h7.9c1.7,0,3,1.3,3,3v4.9
			C23.2,42.5,21.9,43.8,20.2,43.8z M12.3,34.9c-0.6,0-1,0.4-1,1v4.9c0,0.6,0.4,1,1,1h7.9c0.6,0,1-0.4,1-1v-4.9c0-0.6-0.4-1-1-1H12.3
			z"/>
		<g>
			<path fill-rile="evenodd" clip-rule="evenodd" d="M93.7,28.8c4.5-9.7,0.4-21.2-9.3-25.6s-21.2-0.4-25.6,9.3c-4.3,9-0.8,19.6,7.4,24.6l0.6,3.7l3.3-1.9
				C79.2,42,89.4,37.8,93.7,28.8z"/>
			<path fill="#FFFFFF" d="M66,42.3l-0.7-4.7c-8.6-5.5-11.8-16.4-7.4-25.6c2.3-4.9,6.3-8.6,11.4-10.5c5-1.8,10.6-1.6,15.5,0.7
				c10.1,4.7,14.4,16.8,9.8,27l0,0C90.2,38.5,79.7,43,70.1,40L66,42.3z M76.2,2.3c-2.1,0-4.3,0.4-6.2,1.1c-4.6,1.7-8.2,5-10.3,9.4
				c-4,8.4-1,18.5,7,23.4l0.4,0.2l0.4,2.7l2.4-1.4l0.4,0.1c8.8,3.1,18.4-1.1,22.5-9.6C97,19,93,8.1,83.9,3.8
				C81.5,2.9,78.8,2.3,76.2,2.3z"/>
		</g>
	</g>
	<g enable-background="new">
		<path fill="#FFFFFF" d="M64.2,19.5h-1.9v-1.3c1.2,0,2.1-0.6,2.3-1.7h1.5v8.2h-1.9V19.5z"/>
		<path fill="#FFFFFF" d="M68.8,22.4c0.6-0.6,1.3-1.1,2-1.6c1-0.7,1.5-1,1.5-1.8c0-0.7-0.4-1.1-1.1-1.1c-0.4,0-0.7,0.1-0.9,0.4
			c-0.3,0.3-0.4,0.7-0.4,1.2h-1.8c0-0.8,0.2-1.4,0.5-1.9c0.5-0.7,1.3-1.2,2.7-1.2c1.9,0,3,1.2,3,2.6s-1,2.2-2.2,2.9
			c-0.8,0.5-1.2,0.7-1.5,1.2l0,0h3.7v1.6H68C68,23.7,68.2,23,68.8,22.4z"/>
		<path fill="#FFFFFF" d="M86.8,22.9H83v-1.7l3.8-4.7h1.9v4.9h1.2v1.4h-1.2v1.8h-1.9V22.9z M85.4,21.5h1.4v-1.9c0-0.5,0-0.9,0.1-1.3
			l0,0c-0.2,0.3-0.5,0.7-0.8,1.1l-0.8,1c-0.4,0.4-0.7,0.8-0.9,1.1l0,0C84.6,21.5,85,21.5,85.4,21.5z"/>
	</g>
	<path fill="#FFFFFF" d="M76.3,24.1c-0.6-0.5-1-1.2-1-2.1h1.8c0.1,0.8,0.5,1.3,1.5,1.3c0.8,0,1.3-0.4,1.3-1.2c0-0.7-0.5-1.1-1.4-1.1
		h-0.4v-1.3h0.4c0.8,0,1.2-0.4,1.2-1c0-0.5-0.4-1-1.1-1c-0.9,0-1.2,0.6-1.3,1.2h-1.8c0-1.4,1.2-2.6,3.1-2.6c1.7,0,2.9,0.8,2.9,2.2
		c0,0.8-0.5,1.3-1.3,1.6l0,0c1,0.3,1.6,0.9,1.6,2c0,1.7-1.5,2.8-3.1,2.8C77.7,24.9,76.9,24.6,76.3,24.1z"/>
</g>
</svg>
