<?xml version="1.0" encoding="utf-8"?>
<!-- Generator: Adobe Illustrator 24.2.1, SVG Export Plug-In . SVG Version: 6.00 Build 0)  -->
<svg version="1.1" id="Layer_1" xmlns="http://www.w3.org/2000/svg" xmlns:xlink="http://www.w3.org/1999/xlink" x="0px" y="0px"
	 viewBox="0 0 96 71.4" style="enable-background:new 0 0 96 71.4;" xml:space="preserve">
<style type="text/css">
</style>
<g>
	<path fill="#FFFFFF" d="M81.7,71.1H2.5c-1.2,0-2-0.8-2-2V21c0-1.2,0.8-2,2-2h79.4c1.2,0,2,0.8,2,2l-0.1,48.1
		C83.7,70.3,82.9,71.1,81.7,71.1z M81.8,21H2.5v48.1h79.3L81.8,21z"/>
	<path fill="#FFFFFF" d="M1.4,25.4h82v2h-82V25.4z"/>
	<path fill="#FFFFFF" d="M1.4,34.3h82v2h-82V34.3z"/>
	<path fill="#FFFFFF" d="M48.1,42.6h12.5v2H48.1V42.6z"/>
	<path fill-rule="evenodd" clip-rule="evenodd" d="M90.9,31.7c6.3-8.4,4.3-20.6-4.2-26.8S66.1,0.8,59.9,9.3c-5.8,7.9-4.6,18.9,2.6,25.4l-0.1,3.6l3.4-1.2
		C74.2,41.9,85,39.8,90.9,31.7z"/>
	<path fill="#FFFFFF" d="M75.3,40.6c-3.2,0-6.5-0.8-9.4-2.4l-4.3,1.5l0.1-4.6c-7.4-6.9-8.4-18.2-2.5-26.4c6.5-9,19.1-11.1,28.1-4.6
		c4.4,3.1,7.3,7.8,8,13.2c0.8,5.3-0.5,10.6-3.6,14.9C87.7,37.7,81.5,40.6,75.3,40.6z M65.9,36.1l0.4,0.2c8,4.5,18.2,2.3,23.7-5.2
		c2.8-3.8,4-8.6,3.2-13.4c-0.8-4.9-3.3-9.1-7.3-12c-8-5.8-19.4-3.9-25.4,4.2c-5.5,7.6-4.4,18,2.6,24.1l0.3,0.3L63.4,37L65.9,36.1z"
		/>
	<g enable-background="new">
		<path fill="#FFFFFF" d="M67.4,19.4h-1.9v-1.3c1.2,0,2.1-0.6,2.3-1.7h1.5v8.1h-1.9V19.4z"/>
		<path fill="#FFFFFF" d="M71.9,22.3c0.6-0.6,1.3-1.1,2-1.6c1-0.7,1.5-1,1.5-1.8c0-0.7-0.4-1.1-1.1-1.1c-0.4,0-0.7,0.1-0.9,0.4
			C73.1,18.6,73,19,73,19.5h-1.8c0-0.8,0.2-1.4,0.5-1.9c0.5-0.7,1.3-1.2,2.6-1.2c1.9,0,2.9,1.2,2.9,2.6s-1,2.2-2.2,2.8
			c-0.8,0.5-1.2,0.7-1.5,1.2h3.6v1.6h-6.2C71,23.6,71.3,22.9,71.9,22.3z"/>
	</g>
	<path fill="#FFFFFF" d="M79.4,23.9c-0.6-0.5-1-1.2-1-2.1h1.8c0.1,0.8,0.5,1.3,1.5,1.3c0.8,0,1.3-0.4,1.3-1.2c0-0.7-0.5-1.1-1.4-1.1
		h-0.4v-1.3h0.4c0.8,0,1.2-0.4,1.2-1c0-0.5-0.4-1-1.1-1c-0.9,0-1.2,0.6-1.3,1.2h-1.8c0-1.4,1.2-2.6,3-2.6c1.7,0,2.8,0.8,2.8,2.2
		c0,0.8-0.5,1.3-1.3,1.6c1,0.3,1.6,0.9,1.6,2c0,1.7-1.5,2.7-3,2.7C80.7,24.7,80,24.3,79.4,23.9z"/>
</g>
</svg>
