<svg width="34" height="22" viewBox="0 0 34 22" fill="none" xmlns="http://www.w3.org/2000/svg">
<path d="M6.58809 0.48999H14.982C16.1591 0.48999 16.8849 1.44747 16.6115 2.62184L12.7009 19.3846C12.4266 20.5553 11.2522 21.51 10.0815 21.51H1.68577C0.5114 21.51 -0.215282 20.5553 0.0572237 19.3846L3.96592 2.62184C4.24028 1.44747 5.41372 0.48999 6.58809 0.48999Z" fill="#ED171F"/>
<path d="M14.2868 0.48999H23.9394C25.112 0.48999 24.5836 1.44747 24.3074 2.62184L20.3978 19.3846C20.1253 20.5553 20.2106 21.51 19.0362 21.51H9.38357C8.20642 21.51 7.47973 20.5553 7.75502 19.3846L11.6628 2.62184C11.9399 1.44747 13.1106 0.48999 14.2868 0.48999Z" fill="#082F67"/>
<path d="M23.5575 0.48999H31.9505C33.1249 0.48999 33.8553 1.44747 33.58 2.62184L29.6695 19.3846C29.3951 20.5553 28.2198 21.51 27.0464 21.51H18.6543C17.4809 21.51 16.7523 20.5553 17.0267 19.3846L20.9372 2.62184C21.2107 1.44747 22.3841 0.48999 23.5575 0.48999Z" fill="#006A65"/>
<path d="M8.14621 6.99213C7.24342 7.0014 6.98019 6.99213 6.89399 6.97267C6.85876 7.1256 6.2498 9.93223 6.2498 9.93223C6.11818 10.5013 6.02086 10.9073 5.69923 11.1641C5.51385 11.3179 5.29974 11.3939 5.0504 11.3939C4.65184 11.3939 4.41919 11.1946 4.37748 10.8156L4.37377 10.6895C4.37377 10.6895 4.49334 9.92852 4.49612 9.92388C4.49612 9.92388 5.13197 7.36752 5.2469 7.03013C5.24968 7.00974 5.25339 7.00325 5.25803 6.99398C4.01229 7.00511 3.79076 6.99398 3.77686 6.97452C3.77129 6.99955 3.73515 7.15897 3.73515 7.15897L3.08447 10.037L3.027 10.2844L2.92041 11.0825C2.92041 11.3189 2.96675 11.5107 3.05944 11.6766C3.36068 12.1985 4.20693 12.2726 4.68706 12.2726C5.30437 12.2726 5.87997 12.1429 6.27204 11.9019C6.95238 11.5014 7.1322 10.8749 7.28791 10.3178L7.36392 10.0305C7.36392 10.0305 8.02294 7.37586 8.13694 7.03013C8.13694 7.00974 8.14065 7.00325 8.14621 6.99398M10.3865 9.13417C10.228 9.13417 9.93789 9.1731 9.67743 9.30101C9.58104 9.35106 9.4902 9.4039 9.39751 9.46137L9.48093 9.15178L9.43552 9.09988C8.88402 9.2111 8.75889 9.22964 8.25095 9.30009L8.21017 9.32882C8.14621 9.81822 8.09894 10.1871 7.87556 11.1539C7.79121 11.5042 7.70316 11.8629 7.61696 12.2198L7.6392 12.2643C8.16846 12.2393 8.32325 12.2393 8.7765 12.2439L8.81543 12.205C8.87011 11.9093 8.87938 11.8416 9.00915 11.2419C9.06661 10.9564 9.19082 10.3336 9.25292 10.1102C9.36878 10.0592 9.47723 10.011 9.5866 10.011C9.84149 10.011 9.80905 10.2298 9.80164 10.3206C9.79237 10.468 9.69597 10.9527 9.6005 11.3698L9.53933 11.6349C9.49484 11.8361 9.44571 12.0288 9.40122 12.2281L9.42161 12.2643C9.93604 12.2393 10.0899 12.2393 10.532 12.2439L10.583 12.205C10.6627 11.7443 10.6877 11.6201 10.8286 10.949L10.9 10.6404C11.0381 10.0351 11.1067 9.73016 11.002 9.48083C10.8917 9.20091 10.6266 9.13325 10.3856 9.13325M12.8835 9.76538C12.611 9.81822 12.4368 9.84973 12.2653 9.87847C12.0929 9.90442 11.9251 9.92852 11.6582 9.96467L11.6378 9.98413L11.6202 9.99896C11.5924 10.1973 11.5739 10.366 11.5368 10.5671C11.5006 10.7738 11.4552 11.0102 11.3783 11.3467C11.318 11.6053 11.2874 11.6952 11.2531 11.786C11.2207 11.8778 11.1836 11.9677 11.1178 12.2198L11.1327 12.242L11.1475 12.2643C11.394 12.2522 11.5535 12.2439 11.7203 12.242C11.8871 12.2393 12.0586 12.242 12.3246 12.2439L12.3487 12.2281L12.3728 12.204C12.4127 11.9742 12.4164 11.9139 12.4405 11.7999C12.4637 11.6803 12.5035 11.5154 12.6027 11.0732C12.6481 10.861 12.7028 10.6561 12.751 10.4439C12.8029 10.2288 12.853 10.0212 12.9021 9.81173L12.8937 9.79041L12.8826 9.76446L12.8835 9.76538ZM15.1155 9.15178C14.8625 9.15178 14.26 9.17774 13.7873 9.6143C13.4527 9.92296 13.296 10.3493 13.1987 10.7544C13.1051 11.1715 12.9929 11.9176 13.6807 12.1975C13.8957 12.2865 14.1997 12.3116 14.3953 12.3116C14.9014 12.3116 15.4177 12.1725 15.8032 11.761C16.1054 11.4282 16.2407 10.9351 16.2862 10.7275C16.4428 10.0481 16.3251 9.73387 16.1731 9.54015C15.9395 9.24818 15.5372 9.15178 15.1155 9.15178ZM15.1322 10.6802C15.1118 10.7905 15.0117 11.2169 14.8754 11.3976C14.7827 11.532 14.6697 11.6127 14.5436 11.6127C14.5093 11.6127 14.2915 11.6127 14.2878 11.2901C14.2831 11.1307 14.3165 10.9657 14.3601 10.7868C14.4722 10.2733 14.614 9.84232 14.9635 9.84232C15.2369 9.84232 15.2545 10.1658 15.1331 10.6802M27.1261 12.2522C27.2031 11.7971 27.2781 11.3541 27.4793 10.4782C27.5738 10.0611 27.6758 9.64304 27.7777 9.22964L27.7592 9.1833C27.2086 9.2834 27.0631 9.30565 26.5357 9.38351L26.4931 9.41409C26.4875 9.4558 26.4819 9.49659 26.4773 9.53644C26.3948 9.40297 26.2734 9.28896 26.088 9.21759C25.8563 9.12861 25.3011 9.25003 24.8284 9.68104C24.4975 9.98784 24.3353 10.4114 24.2417 10.8156C24.1471 11.2243 24.034 11.9714 24.7227 12.2393C24.9396 12.3301 25.137 12.357 25.3317 12.3496C25.5402 12.3384 25.7349 12.2337 25.9147 12.0826C25.898 12.1447 25.8822 12.2059 25.8656 12.268L25.898 12.306C26.392 12.2865 26.5431 12.2865 27.077 12.2875L27.1261 12.2522ZM26.317 10.4717C26.2984 10.5569 26.278 10.6469 26.2549 10.7488C26.2206 10.898 26.1816 11.0463 26.1446 11.1946C26.1075 11.2957 26.0639 11.3902 26.0157 11.4533C25.9221 11.5812 25.7098 11.6599 25.5847 11.6599C25.5504 11.6599 25.3363 11.6599 25.328 11.3411C25.3261 11.1863 25.3595 11.0222 25.3975 10.8415C25.5152 10.341 25.6515 9.91091 26.0027 9.91091C26.2252 9.91091 26.3411 10.1176 26.316 10.4717M19.1558 9.13325C18.9973 9.13325 18.7063 9.17218 18.4467 9.30009C18.354 9.35014 18.2595 9.40297 18.1687 9.46044L18.2521 9.15086L18.2067 9.09895C17.6533 9.21018 17.5328 9.22872 17.0212 9.29916L16.9813 9.32789C16.9192 9.81729 16.8682 10.1862 16.6476 11.1529C16.5642 11.5033 16.4799 11.862 16.39 12.2189L16.4159 12.2634C16.9368 12.2383 17.0953 12.2383 17.5467 12.243L17.5884 12.204C17.6431 11.9084 17.6524 11.8407 17.7766 11.241C17.8378 10.9555 17.9657 10.3326 18.0278 10.1093C18.1399 10.0583 18.2512 10.0101 18.3633 10.0101C18.6117 10.0101 18.5839 10.2288 18.5746 10.3197C18.5626 10.467 18.4718 10.9518 18.3744 11.3689L18.3133 11.634C18.2651 11.8351 18.2159 12.0279 18.1724 12.2272L18.1909 12.2634C18.71 12.2383 18.8638 12.2383 19.3032 12.243L19.3579 12.204C19.4357 11.7434 19.4561 11.6192 19.6007 10.9481L19.6675 10.6394C19.8102 10.0342 19.8788 9.72924 19.775 9.4799C19.661 9.19998 19.394 9.13232 19.1558 9.13232M24.9516 8.51686C24.9878 8.37598 25.0119 8.20636 25.0119 8.03952C25.0119 7.81521 24.9693 7.60295 24.8413 7.43055C24.5142 6.9773 23.8737 6.97174 23.1248 6.96803L22.7596 6.97174C21.8049 6.98286 21.4258 6.9773 21.2654 6.95691C21.2524 7.02735 21.2237 7.15248 21.2237 7.15248L20.8845 8.73746C20.8845 8.73746 20.0688 12.1011 20.0299 12.2587C20.8604 12.2494 21.2042 12.2494 21.3433 12.2643C21.3794 12.1058 21.5722 11.1641 21.5722 11.1641C21.5722 11.1641 21.7363 10.4772 21.7455 10.4522C21.7455 10.4522 21.8012 10.3818 21.8531 10.3512H21.9291C22.6455 10.3512 23.4575 10.3512 24.0952 9.88773C24.5244 9.5661 24.8191 9.09246 24.9507 8.51779M23.6021 8.61604C23.5233 8.96641 23.2971 9.26394 23.0052 9.4039C22.7596 9.52625 22.4657 9.53644 22.1608 9.53644H21.9624L21.9773 9.45951C21.9773 9.45951 22.3425 7.87916 22.3406 7.88195L22.3517 7.80316L22.3591 7.74013L22.5037 7.75403C22.5037 7.75403 23.249 7.81706 23.2684 7.81706C23.5632 7.93292 23.6855 8.23046 23.6012 8.61604M31.4343 9.17774L31.3926 9.12954C30.8467 9.24077 30.7475 9.25838 30.247 9.32326L30.2108 9.35848C30.209 9.36404 30.209 9.37331 30.2053 9.38165L30.2034 9.37238C29.8289 10.2344 29.8428 10.0462 29.5388 10.7229C29.5333 10.6932 29.5333 10.6719 29.5333 10.6413L29.4582 9.17681L29.4109 9.12861C28.8409 9.23984 28.8251 9.25745 28.2996 9.32233L28.2551 9.35755C28.2551 9.37702 28.2514 9.39741 28.2495 9.41502L28.2542 9.42429C28.3163 9.75982 28.3042 9.68475 28.3672 10.2159C28.3997 10.4754 28.4414 10.7395 28.472 10.9944C28.523 11.4264 28.5526 11.6377 28.6166 12.2958C28.2597 12.8788 28.1754 13.1031 27.8371 13.6175V13.6212L27.5951 14.0041C27.5655 14.0439 27.5414 14.0699 27.5052 14.0801C27.4672 14.0995 27.4162 14.1069 27.3486 14.1069H27.2133L27.0149 14.765L27.698 14.7752C28.0994 14.7734 28.3505 14.5871 28.4859 14.3359L28.9141 13.6027H28.9085L28.9521 13.5508C29.2394 12.9307 31.4334 9.17496 31.4334 9.17496M12.8882 8.91265C12.6379 8.76342 12.2078 8.80976 11.9131 9.01368C11.6183 9.21389 11.5822 9.49195 11.8306 9.64025C12.0772 9.7867 12.5156 9.74407 12.8075 9.53922C13.0977 9.33438 13.1375 9.05353 12.8891 8.91172" fill="white"/>
</svg>
