<svg width="34" height="22" viewBox="0 0 34 22" fill="none" xmlns="http://www.w3.org/2000/svg">
<path d="M31.8898 0.5H6.57653C5.40163 0.5 4.23203 1.45262 3.96212 2.62752L0.0563722 19.3778C-0.213537 20.5474 0.511513 21.5 1.68112 21.5H26.9944C28.1693 21.5 29.3389 20.5474 29.6141 19.3778L33.5145 2.62752C33.7897 1.45262 33.0594 0.5 31.8898 0.5Z" fill="white"/>
<path d="M7.51327 1.45264H15.1289C16.1927 1.45264 16.8543 2.32058 16.6055 3.38963L13.0596 18.6104C12.8109 19.6742 11.7471 20.5421 10.6834 20.5421H3.06242C1.99866 20.5421 1.34241 19.6742 1.58585 18.6104L5.13701 3.38963C5.38575 2.32587 6.44951 1.45264 7.51327 1.45264Z" fill="#ED171F"/>
<path d="M14.4939 1.45264H23.2474C24.3112 1.45264 23.8296 2.32058 23.5808 3.38963L20.035 18.6104C19.7862 19.6742 19.8656 20.5421 18.8019 20.5421H10.0483C8.98456 20.5421 8.32302 19.6742 8.57176 18.6104L12.1176 3.38963C12.3664 2.32587 13.4301 1.45264 14.4939 1.45264Z" fill="#082F67"/>
<path d="M22.9034 1.45264H30.5191C31.5828 1.45264 32.2444 2.32058 31.9956 3.38963L28.4498 18.6104C28.201 19.6742 27.1373 20.5421 26.0735 20.5421H18.4631C17.3994 20.5421 16.7378 19.6742 16.9866 18.6104L20.5271 3.38963C20.7759 2.32587 21.8396 1.45264 22.9034 1.45264Z" fill="#006A65"/>
<path d="M9.36155 7.3773C8.54551 7.38567 8.30757 7.3773 8.22966 7.3597C8.19782 7.49794 7.64738 10.0349 7.64738 10.0349C7.52841 10.5493 7.44044 10.9162 7.14971 11.1483C6.98215 11.2874 6.78861 11.3561 6.56324 11.3561C6.20298 11.3561 5.99269 11.176 5.95499 10.8333L5.95164 10.7193C5.95164 10.7193 6.05971 10.0315 6.06223 10.0273C6.06223 10.0273 6.63697 7.71661 6.74086 7.41165C6.74337 7.39321 6.74672 7.38735 6.75091 7.37897C5.62489 7.38903 5.42465 7.37897 5.41208 7.36138C5.40705 7.384 5.37438 7.5281 5.37438 7.5281L4.78623 10.1295L4.73429 10.3532L4.63794 11.0746C4.63794 11.2882 4.67983 11.4617 4.76361 11.6116C5.0359 12.0833 5.80083 12.1503 6.23482 12.1503C6.7928 12.1503 7.31309 12.033 7.66748 11.8152C8.28244 11.4533 8.44498 10.8869 8.58573 10.3834L8.65443 10.1237C8.65443 10.1237 9.25012 7.72415 9.35317 7.41165C9.35317 7.39321 9.35652 7.38735 9.36155 7.37897M11.3865 9.31349C11.2433 9.31349 10.981 9.34868 10.7456 9.4643C10.6585 9.50954 10.5764 9.55729 10.4926 9.60924L10.568 9.32941L10.527 9.28249C10.0285 9.38303 9.91534 9.39979 9.45622 9.46346L9.41936 9.48943C9.36155 9.9318 9.31882 10.2652 9.11691 11.1391C9.04066 11.4558 8.96107 11.78 8.88315 12.1026L8.90326 12.1428C9.38166 12.1202 9.52157 12.1202 9.93126 12.1244L9.96645 12.0892C10.0159 11.8219 10.0243 11.7608 10.1416 11.2187C10.1935 10.9606 10.3058 10.3976 10.3619 10.1957C10.4666 10.1496 10.5647 10.1061 10.6635 10.1061C10.8939 10.1061 10.8646 10.3038 10.8579 10.3859C10.8495 10.5191 10.7624 10.9573 10.6761 11.3343L10.6208 11.5739C10.5806 11.7557 10.5362 11.93 10.496 12.1101L10.5144 12.1428C10.9794 12.1202 11.1184 12.1202 11.5181 12.1244L11.5642 12.0892C11.6362 11.6728 11.6588 11.5605 11.7862 10.9539L11.8507 10.6749C11.9755 10.1278 12.0375 9.85221 11.9429 9.62683C11.8432 9.37381 11.6035 9.31265 11.3857 9.31265M13.6436 9.88404C13.3973 9.9318 13.2398 9.96028 13.0848 9.98626C12.929 10.0097 12.7773 10.0315 12.536 10.0642L12.5176 10.0818L12.5017 10.0952C12.4765 10.2745 12.4598 10.4269 12.4263 10.6088C12.3936 10.7956 12.3526 11.0092 12.283 11.3134C12.2286 11.5471 12.2009 11.6284 12.1699 11.7105C12.1406 11.7934 12.1071 11.8747 12.0476 12.1026L12.061 12.1227L12.0744 12.1428C12.2973 12.1319 12.4414 12.1244 12.5922 12.1227C12.743 12.1202 12.898 12.1227 13.1384 12.1244L13.1602 12.1101L13.182 12.0883C13.218 11.8806 13.2214 11.8261 13.2432 11.7231C13.2641 11.615 13.3001 11.4658 13.3898 11.0662C13.4308 10.8743 13.4803 10.6892 13.5238 10.4973C13.5707 10.303 13.616 10.1153 13.6604 9.92593L13.6528 9.90666L13.6428 9.88321L13.6436 9.88404ZM15.6611 9.32941C15.4324 9.32941 14.8878 9.35287 14.4605 9.74748C14.158 10.0265 14.0165 10.4119 13.9285 10.778C13.8439 11.155 13.7425 11.8295 14.3642 12.0825C14.5585 12.1629 14.8333 12.1855 15.0101 12.1855C15.4676 12.1855 15.9342 12.0599 16.2828 11.6879C16.5559 11.3871 16.6782 10.9414 16.7193 10.7537C16.8608 10.1396 16.7544 9.85556 16.617 9.68045C16.4059 9.41654 16.0423 9.32941 15.6611 9.32941ZM15.6762 10.711C15.6577 10.8107 15.5673 11.1961 15.4441 11.3594C15.3603 11.4809 15.2581 11.5538 15.1442 11.5538C15.1132 11.5538 14.9163 11.5538 14.9129 11.2623C14.9087 11.1181 14.9389 10.969 14.9783 10.8073C15.0796 10.3432 15.2078 9.95358 15.5237 9.95358C15.7708 9.95358 15.7868 10.246 15.677 10.711M26.5175 12.1319C26.5871 11.7205 26.6549 11.3201 26.8367 10.5283C26.9222 10.1513 27.0143 9.77345 27.1065 9.39979L27.0897 9.35789C26.5921 9.44838 26.4605 9.46849 25.9838 9.53886L25.9453 9.56651C25.9403 9.60421 25.9352 9.64108 25.931 9.6771C25.8565 9.55646 25.7467 9.45341 25.5792 9.38889C25.3697 9.30846 24.8679 9.41822 24.4406 9.8078C24.1415 10.0851 23.9949 10.468 23.9102 10.8333C23.8248 11.2028 23.7226 11.878 24.3451 12.1202C24.5411 12.2023 24.7196 12.2266 24.8955 12.2199C25.084 12.2098 25.26 12.1151 25.4225 11.9786C25.4074 12.0347 25.3932 12.09 25.3781 12.1461L25.4074 12.1805C25.854 12.1629 25.9905 12.1629 26.4731 12.1637L26.5175 12.1319ZM25.7861 10.5225C25.7693 10.5995 25.7509 10.6808 25.73 10.773C25.699 10.9079 25.6638 11.0419 25.6303 11.176C25.5968 11.2673 25.5574 11.3527 25.5138 11.4097C25.4292 11.5253 25.2373 11.5965 25.1242 11.5965C25.0932 11.5965 24.8997 11.5965 24.8922 11.3083C24.8905 11.1684 24.9206 11.0201 24.955 10.8567C25.0614 10.4043 25.1845 10.0156 25.5021 10.0156C25.7032 10.0156 25.8079 10.2024 25.7853 10.5225M19.3131 9.31265C19.1699 9.31265 18.9068 9.34784 18.6722 9.46346C18.5884 9.5087 18.503 9.55646 18.4209 9.6084L18.4963 9.32857L18.4552 9.28165C17.955 9.38219 17.8461 9.39895 17.3836 9.46262L17.3476 9.48859C17.2915 9.93096 17.2454 10.2644 17.046 11.1383C16.9706 11.4549 16.8944 11.7792 16.8131 12.1017L16.8365 12.142C17.3074 12.1193 17.4507 12.1193 17.8587 12.1235L17.8964 12.0883C17.9458 11.8211 17.9542 11.7599 18.0665 11.2178C18.1218 10.9598 18.2374 10.3968 18.2935 10.1949C18.3949 10.1488 18.4954 10.1052 18.5968 10.1052C18.8213 10.1052 18.7962 10.303 18.7878 10.3851C18.7769 10.5183 18.6948 10.9564 18.6069 11.3335L18.5516 11.5731C18.508 11.7549 18.4636 11.9292 18.4242 12.1093L18.441 12.142C18.9101 12.1193 19.0492 12.1193 19.4463 12.1235L19.4958 12.0883C19.5662 11.6719 19.5846 11.5597 19.7153 10.9531L19.7756 10.6741C19.9046 10.127 19.9666 9.85137 19.8728 9.626C19.7697 9.37297 19.5285 9.31181 19.3131 9.31181M24.552 8.7555C24.5847 8.62816 24.6065 8.47484 24.6065 8.32403C24.6065 8.12128 24.5679 7.92942 24.4523 7.77358C24.1565 7.36389 23.5776 7.35886 22.9007 7.35551L22.5706 7.35886C21.7076 7.36892 21.3649 7.36389 21.22 7.34546C21.2083 7.40913 21.1823 7.52224 21.1823 7.52224L20.8757 8.9549C20.8757 8.9549 20.1384 11.9953 20.1032 12.1378C20.8539 12.1294 21.1647 12.1294 21.2904 12.1428C21.3231 11.9995 21.4973 11.1483 21.4973 11.1483C21.4973 11.1483 21.6456 10.5275 21.654 10.5049C21.654 10.5049 21.7043 10.4412 21.7512 10.4135H21.8199C22.4675 10.4135 23.2014 10.4135 23.7779 9.99463C24.1658 9.70391 24.4322 9.27579 24.5512 8.75634M23.3321 8.84515C23.2609 9.16185 23.0565 9.43078 22.7926 9.55729C22.5706 9.66789 22.305 9.6771 22.0293 9.6771H21.85L21.8634 9.60756C21.8634 9.60756 22.1935 8.17909 22.1919 8.1816L22.2019 8.11039L22.2086 8.05341L22.3393 8.06598C22.3393 8.06598 23.0129 8.12295 23.0305 8.12295C23.2969 8.22768 23.4075 8.49662 23.3313 8.84515M30.4117 9.35287L30.374 9.3093C29.8805 9.40984 29.7909 9.42576 29.3384 9.4844L29.3058 9.51624C29.3041 9.52127 29.3041 9.52965 29.3007 9.53719L29.2991 9.52881C28.9606 10.308 28.9732 10.1379 28.6983 10.7495C28.6933 10.7227 28.6933 10.7034 28.6933 10.6758L28.6255 9.35203L28.5827 9.30846C28.0675 9.409 28.0532 9.42492 27.5782 9.48357L27.538 9.5154C27.538 9.533 27.5346 9.55143 27.5329 9.56735L27.5371 9.57573C27.5933 9.87902 27.5824 9.81115 27.6393 10.2912C27.6687 10.5258 27.7064 10.7646 27.734 10.995C27.7801 11.3854 27.8069 11.5764 27.8647 12.1713C27.5422 12.6983 27.4659 12.901 27.1601 13.366V13.3694L26.9414 13.7154C26.9146 13.7514 26.8929 13.7749 26.8602 13.7841C26.8258 13.8017 26.7797 13.8084 26.7186 13.8084H26.5963L26.417 14.4032L27.0344 14.4124C27.3972 14.4108 27.6243 14.2424 27.7466 14.0153L28.1337 13.3526H28.1286L28.168 13.3057C28.4277 12.7452 30.4108 9.35035 30.4108 9.35035M13.6478 9.11325C13.4216 8.97836 13.0329 9.02025 12.7664 9.20457C12.5 9.38554 12.4673 9.63689 12.6919 9.77094C12.9147 9.90331 13.311 9.86477 13.5749 9.67962C13.8372 9.49446 13.8732 9.2406 13.6487 9.11241" fill="white"/>
</svg>
