<?xml version="1.0" encoding="UTF-8"?><svg id="Layer_1" xmlns="http://www.w3.org/2000/svg" viewBox="0 0 34 10.98"><path d="M12.91,.19l-4.45,10.62h-2.9L3.36,2.34c-.13-.52-.25-.71-.65-.93-.66-.36-1.75-.69-2.71-.9L.07,.19H4.74c.6,0,1.13,.4,1.27,1.08l1.16,6.15L10.02,.19h2.89Zm11.38,7.15c.01-2.8-3.88-2.96-3.85-4.21,0-.38,.37-.79,1.17-.89,.39-.05,1.48-.09,2.71,.48l.48-2.25c-.66-.24-1.51-.47-2.57-.47-2.72,0-4.63,1.44-4.64,3.51-.02,1.53,1.36,2.38,2.4,2.89,1.07,.52,1.43,.85,1.43,1.32,0,.71-.85,1.03-1.65,1.04-1.38,.02-2.18-.37-2.82-.67l-.5,2.33c.64,.29,1.83,.55,3.06,.56,2.89,0,4.77-1.43,4.78-3.63m7.17,3.47h2.54L31.78,.19h-2.35c-.53,0-.97,.31-1.17,.78l-4.12,9.84h2.88l.57-1.59h3.52l.33,1.59Zm-3.07-3.76l1.45-3.99,.83,3.99h-2.28ZM16.83,.19l-2.27,10.62h-2.75L14.09,.19h2.75Z" fill="#1434cb"/></svg>