<?xml version="1.0" encoding="utf-8"?>
<!-- Generator: Adobe Illustrator 26.0.3, SVG Export Plug-In . SVG Version: 6.00 Build 0)  -->
<svg version="1.1" id="Layer_1" xmlns="http://www.w3.org/2000/svg" xmlns:xlink="http://www.w3.org/1999/xlink" x="0px" y="0px"
	 viewBox="0 0 21.6 21.6" style="enable-background:new 0 0 21.6 21.6;" xml:space="preserve">
<style type="text/css">
	.st0{fill:#010101;}
</style>
<path class="st0" d="M19.4,8.8l-6.6-6.6c-1.1-1.1-2.9-1.1-4,0L2.2,8.8c-1.1,1.1-1.1,2.9,0,4l6.6,6.6c1.1,1.1,2.9,1.1,4,0
	c0,0,0,0,0,0l6.6-6.6C20.5,11.7,20.5,9.9,19.4,8.8z M18,11.4L11.4,18c-0.3,0.3-0.9,0.3-1.2,0l-6.6-6.6c-0.3-0.3-0.3-0.9,0-1.2
	l6.6-6.6c0.3-0.3,0.9-0.3,1.2,0l6.6,6.6C18.3,10.5,18.3,11.1,18,11.4z M9.9,13.4h1.7v1.7H9.9V13.4z M9.9,6.5h1.7V9l-0.6,2.6h-0.6
	L9.9,9V6.5z"/>
</svg>
