<svg id="Layer_1" data-name="Layer 1" xmlns="http://www.w3.org/2000/svg" viewBox="0 0 21.6 21.6">
  <path d="M19.52557,15.78473,12.588,3.74951a2.0643,2.0643,0,0,0-3.584-.001L2.0733,15.78668a2.07277,2.07277,0,0,0,1.79688,3.10358H17.73157a2.07289,2.07289,0,0,0,1.794-3.10553ZM18.548,17.2926a.9494.9494,0,0,1-.81738.47266H3.87115a.94838.94838,0,0,1-.82226-1.419L9.97961,4.30811a.9396.9396,0,0,1,1.63184,0L18.551,16.34625A.95147.95147,0,0,1,18.548,17.2926ZM9.95,14.367h1.7V16.05H9.95Zm0-6.817h1.7v2.49048l-.56951,2.635H10.511l-.561-2.635Z"/>
</svg>
