<svg id="Layer_1" data-name="Layer 1" xmlns="http://www.w3.org/2000/svg" viewBox="0 0 21.6 21.6">
  <path d="M19.90265,15.566l-6.936-12.03357a2.50126,2.50126,0,0,0-4.34088-.001L1.69659,15.566a2.51054,2.51054,0,0,0,2.17432,3.75989H17.7312A2.50926,2.50926,0,0,0,19.90265,15.566Zm-1.734,1.5055a.51007.51007,0,0,1-.43933.25482H3.87286a.51076.51076,0,0,1-.44323-.76251L10.3598,4.52633a.50217.50217,0,0,1,.87183,0l6.938,12.03552A.51553.51553,0,0,1,18.16864,17.0715ZM9.95,14.367h1.7V16.05H9.95Zm0-6.817h1.7v2.49048l-.56951,2.635H10.511L9.95,10.04049Z"/>
</svg>
