<svg id="Layer_1" data-name="Layer 1" xmlns="http://www.w3.org/2000/svg" viewBox="0 0 21.6 21.6"><path d="M15.02168,12.61738l2.0957,1.1709-.54883.98242-2.0957-1.1709Zm-3.31152-.56054,2.0957,1.17089.54883-.98242L12.259,11.07441ZM4.427,13.78828l.54883.98242,2.09473-1.1709-.54883-.98242Zm4.85743-2.71387-2.09571,1.1709.54882.98242L9.8332,12.05684Zm2.07811-1.83789V6.93574h-1.125V9.23652Zm0-5.40039h-1.125V6.13594h1.125Zm7.33692,2.43164v9.06446L10.8,19.74434,2.90059,15.33223V6.26777L10.8,1.85566ZM10.8,3.14473l-6.18317,3.453L10.8,10.051l6.18317-3.45331ZM4.02559,14.67207l6.2119,3.46906v-7.1153L4.02559,7.55647Zm13.54882,0V7.55647l-6.21192,3.46936v7.1153Z"/></svg>