<svg id="_4K_icon" data-name="4K icon" xmlns="http://www.w3.org/2000/svg" viewBox="0 0 38 38"><path d="M31,9a2.00227,2.00227,0,0,1,2,2V27a2.00227,2.00227,0,0,1-2,2H7a2.00227,2.00227,0,0,1-2-2V11A2.00227,2.00227,0,0,1,7,9H31m0-2H7a4,4,0,0,0-4,4V27a4,4,0,0,0,4,4H31a4,4,0,0,0,4-4V11a4,4,0,0,0-4-4ZM9.76764,21.82153V19.62329l4.63476-5.67041h2.40723v6.03467H18.252v1.834H16.80963v2.22559H14.42975V21.82153Zm4.66211-5.30664H14.4024l-2.78613,3.44434v.02832h2.81348Zm7.22461-2.47754v3.626l3.44433-3.626h2.93946l-3.83594,4.01758,4.06054,5.99219H25.378L22.4942,19.72095l-.83984.88281v3.44336H19.17584V14.03735Z"/></svg>