<?xml version="1.0" encoding="UTF-8"?><svg id="Layer_2" xmlns="http://www.w3.org/2000/svg" viewBox="0 0 38 38"><path d="m28.99998,14v9h2v3c0,1.6543-1.34576,3-3,3s-3-1.3457-3-3v-15.5c0-4.14209-3.35785-7.5-7.49994-7.5h-.00006c-4.14209,0-7.5,3.35791-7.5,7.5v2.5h-1.45441c-2.67316,0-4.87347,2.10278-4.99487,4.77295l-.54541,12c-.12946,2.84766,2.14429,5.22705,4.99481,5.22705h5.53516c2.85052,0,5.12427-2.37939,4.99481-5.22705l-.54541-12c-.1214-2.67017-2.32172-4.77295-4.99487-4.77295h-.98981v-2.5c0-3.03271,2.46729-5.5,5.50006-5.5s5.49994,2.46729,5.49994,5.5v15.5c0,2.76147,2.23859,5,5,5s5-2.23853,5-5v-3h2v-9h-6Zm-16.01019,1c1.60754,0,2.92389,1.25781,2.99695,2.86377l.54541,12c.03754.82642-.25647,1.61084-.82794,2.20874-.57147.59814-1.34174.92749-2.16895.92749h-5.53516c-.82721,0-1.59747-.32935-2.16895-.92749-.57147-.5979-.86554-1.38232-.82794-2.20874l.54541-12c.07306-1.60596,1.3894-2.86377,2.99695-2.86377h4.44421Zm20.01019,6h-2v-5h2v5Zm-20.99976,1.00024h-2v-5h2v5Z"/></svg>