<?xml version="1.0" encoding="utf-8"?>
<!-- Generator: Adobe Illustrator 25.3.1, SVG Export Plug-In . SVG Version: 6.00 Build 0)  -->
<svg version="1.1" id="Ebene_1" xmlns="http://www.w3.org/2000/svg" xmlns:xlink="http://www.w3.org/1999/xlink" x="0px" y="0px"
	 viewBox="0 0 21.6 21.6" style="enable-background:new 0 0 21.6 21.6;" xml:space="preserve">
<path d="M19.6,10.5c-1.9-3-5.3-4.7-8.8-4.7c-3.7,0-6.9,1.7-8.8,4.7l-0.2,0.3L2,11.1c1.9,3,5.2,4.7,8.8,4.7c3.6,0,6.9-1.7,8.8-4.7
	l0.2-0.3L19.6,10.5z M3.1,10.8c1-1.5,2.5-2.7,4.3-3.3c-1.7,1.8-1.7,4.7,0,6.5C5.6,13.5,4.1,12.3,3.1,10.8z M10.8,14.5
	c-2,0-3.7-1.6-3.7-3.7s1.6-3.7,3.7-3.7c2,0,3.7,1.6,3.7,3.7C14.5,12.8,12.8,14.5,10.8,14.5z M14.3,14.1c1.7-1.8,1.7-4.7,0-6.5
	c1.7,0.6,3.2,1.7,4.3,3.3C17.5,12.3,16,13.5,14.3,14.1z M12.3,10.8c0,0.8-0.7,1.5-1.5,1.5s-1.5-0.7-1.5-1.5s0.7-1.5,1.5-1.5l0,0
	C11.6,9.3,12.3,10,12.3,10.8z"/>
</svg>
