<svg id="Layer_2" data-name="Layer 2" xmlns="http://www.w3.org/2000/svg" viewBox="0 0 21.6 21.6">
  <path d="M17.8,9.26545H3.8a2,2,0,0,0-2,2v5.54169a2,2,0,0,0,2,2h14a2,2,0,0,0,2-2V11.26545A2,2,0,0,0,17.8,9.26545Zm.875,7.54169a.876.876,0,0,1-.875.875H3.8a.876.876,0,0,1-.875-.875V11.26545a.876.876,0,0,1,.875-.875h14a.876.876,0,0,1,.875.875Zm-3.64789-5.26776a2.497,2.497,0,1,0,2.49695,2.497A2.49693,2.49693,0,0,0,15.02711,11.53938Zm0,3.8689a1.372,1.372,0,1,1,1.37195-1.37195A1.37349,1.37349,0,0,1,15.02711,15.40828Zm-8.45422-3.8689a2.497,2.497,0,1,0,2.49689,2.497A2.49695,2.49695,0,0,0,6.57289,11.53938Zm0,3.8689a1.372,1.372,0,1,1,1.37189-1.37195A1.3735,1.3735,0,0,1,6.57289,15.40828ZM6.65,5.63344l-.79493-.79493a6.99923,6.99923,0,0,1,9.88965,0l-.79492.79493A5.87758,5.87758,0,0,0,6.65,5.63344Zm7.72949.79687-.79492.79492a3.94316,3.94316,0,0,0-5.56934,0l-.79492-.79492A5.06744,5.06744,0,0,1,14.37953,6.43031Z"/>
</svg>
