<?xml version="1.0" encoding="utf-8"?>
<!-- Generator: Adobe Illustrator 25.3.1, SVG Export Plug-In . SVG Version: 6.00 Build 0)  -->
<svg version="1.1" id="Layer_3" xmlns="http://www.w3.org/2000/svg" xmlns:xlink="http://www.w3.org/1999/xlink" x="0px" y="0px"
	 viewBox="0 0 21.6 21.6" style="enable-background:new 0 0 21.6 21.6;" xml:space="preserve">
<g>
	<path d="M10.8,18.7l-7.2-6.9C2.4,10.6,1.8,9.4,1.8,8c0-2.8,2.3-5.1,5.1-5.1c1.6,0,3,0.7,4,1.9c1-1.2,2.4-1.9,3.9-1.9
		c2.8,0,5.1,2.3,5.1,5.1c0,1.8-1,3-2,4L10.8,18.7z M6.9,4c-2.2,0-4,1.8-4,3.9c0,1.1,0.4,2,1.4,3l6.5,6.2l6.3-6
		c1.1-1.1,1.6-2.1,1.6-3.2c0-2.2-1.8-3.9-4-3.9c-1.4,0-2.4,0.8-3.5,2l-0.4,0.5L10.4,6C9.4,4.7,8.3,4,6.9,4z"/>
</g>
</svg>
