<?xml version="1.0" encoding="utf-8"?>
<!-- Generator: Adobe Illustrator 24.0.1, SVG Export Plug-In . SVG Version: 6.00 Build 0)  -->
<svg version="1.1" id="Layer_1" xmlns="http://www.w3.org/2000/svg" xmlns:xlink="http://www.w3.org/1999/xlink" x="0px" y="0px"
	 viewBox="0 0 21.6000004 21.6000004" style="enable-background:new 0 0 21.6000004 21.6000004;" xml:space="preserve">
<path d="M10.7698059,11.9657688c-1.8686609,0-3.3887048-1.5247488-3.3887048-3.3985958s1.5200438-3.3981104,3.3887048-3.3981104
	c1.8681755,0,3.3887043,1.5242629,3.3887043,3.3981104S12.6379814,11.9657688,10.7698059,11.9657688z M10.7698059,6.2892866
	c-1.2524004,0-2.2715816,1.0220098-2.2715816,2.2778864s1.0191813,2.2778864,2.2715816,2.2778864
	s2.2715807-1.0220108,2.2715807-2.2778864S12.0222063,6.2892866,10.7698059,6.2892866z M19.2717915,13.6633978
	c0.3089695-0.8995237,0.4684105-1.8589516,0.4684105-2.8583956c0-4.9672694-4.026557-9.005002-8.9701014-9.005002
	C5.8266177,1.8,1.8,5.8377328,1.8,10.8050022c0,2.2887049,0.8571284,4.3875742,2.272455,5.976656
	c0.2591457,0.2898178,0.5282073,0.5596867,0.8172832,0.8095474c1.574707,1.3792381,3.6378374,2.2087936,5.8803625,2.2087936
	c1.0564766,0,2.0731077-0.1898956,3.0199633-0.5297337c0.5780296,0.3098259,1.2258949,0.4897175,1.9235811,0.4897175
	c0.5780897,0,1.1162748-0.1199284,1.6146135-0.339777c0.3687649-0.1499405,0.6976871-0.3597851,1.0066547-0.6196499
	c0.8969727-0.7495842,1.465086-1.8789597,1.465086-3.1382694C19.7999992,14.9327116,19.6106281,14.2530966,19.2717915,13.6633978z
	 M2.8564761,10.8050022c0-4.3775706,3.5481708-7.9455938,7.9136248-7.9455938s7.9136248,3.5680232,7.9136248,7.9455938
	c0,0.6296549-0.0697746,1.2493048-0.2192402,1.8389435c-0.7276154-0.669611-1.6943645-1.0793562-2.7508402-1.0793562
	c-1.3255987,0-2.5116472,0.6395979-3.2491798,1.6290989c-0.5481606-0.1299324-1.1162739-0.1898966-1.6943645-0.1898966
	c-2.4418726,0-4.6245995,1.1193724-6.0697341,2.8784037C3.5441864,14.5029583,2.8564761,12.733922,2.8564761,10.8050022z
	 M10.7701006,18.740591c-2.0332003,0-3.8770914-0.7695904-5.2823801-2.0389042
	c1.225894-1.5690746,3.1395597-2.5785227,5.2823801-2.5785227c0.3787432,0,0.7574854,0.029952,1.1162748,0.0999203
	c-0.1694183,0.4497623-0.2591457,0.9294758-0.2591457,1.4392023c0,1.0993633,0.4286242,2.0888653,1.1262503,2.8284435
	C12.1255684,18.6506157,11.4578114,18.740591,10.7701006,18.740591z M17.9262409,17.6511707
	c-0.2590847,0.2898769-0.5780296,0.5297337-0.9269028,0.6896191c-0.3887196,0.1999016-0.8271999,0.2998199-1.2856932,0.2998199
	c-0.159502,0-0.3289204-0.009943-0.4783859-0.0399551c-0.4684706-0.0699692-0.907011-0.2598648-1.2757769-0.5396786
	c-0.7375317-0.5297337-1.2159176-1.4092503-1.2159176-2.3986893c0-0.4097462,0.07969-0.7995434,0.2292166-1.1593285
	c0.159441-0.3598471,0.3787422-0.6796761,0.6478043-0.9594889c0.5382442-0.5297346,1.2757769-0.8595076,2.0930595-0.8595076
	c0.9568319,0,1.813962,0.4597054,2.3621225,1.1693325c0.2790375,0.3697901,0.4783859,0.8095474,0.558136,1.2793179
	c0.0299301,0.1698885,0.0498219,0.349781,0.0498219,0.5296745C18.6837254,16.4318771,18.4046879,17.1214962,17.9262409,17.6511707z
	 M16.2729988,14.0176325h-1.1212626v1.0867977h-1.0837898v1.1243753h1.0837898v1.0867977h1.1212626v-1.0867977h1.0837898v-1.1243753
	h-1.0837898V14.0176325z"/>
</svg>
