<svg id="Ebene_1" data-name="Ebene 1" xmlns="http://www.w3.org/2000/svg" viewBox="0 0 21.6 21.6">
  <path d="M9.3235,6.67848a2.646,2.646,0,1,0,2.646,2.646A2.64581,2.64581,0,0,0,9.3235,6.67848Zm0,4.166a1.521,1.521,0,1,1,1.521-1.521A1.52295,1.52295,0,0,1,9.3235,10.84449Zm-1.003,3.12s1.0802.06061,1.12622.05963c-.02344.31311-.05823,1.06134-.05621,1.12738-.01044-.00287-.34455-.01568-.539-.016l-1.269,1.712-2.349-.973.314-2.108a5.82916,5.82916,0,0,1-.666-.667l-2.108.314-.973-2.35,1.713-1.269a5.7103,5.7103,0,0,1-.001-.943l-1.712-1.268.973-2.349,2.108.313a5.59379,5.59379,0,0,1,.668-.665l-.315-2.10895,2.349-.973,1.27,1.713c.158-.013.316-.019.473-.019s.313.006.469.018l1.269-1.712,2.35.973-.314,2.108a6.16321,6.16321,0,0,1,.667.666l2.108-.314.973,2.35-1.71295,1.269c.0105.141.00256.28058.00049.42059L14.01606,9.351c.00354-.13525-.05255-1.03045-.05255-1.03045l.502-.371,1.007-.746-.301-.727-1.23895.185-.618.092-.405-.476a4.88774,4.88774,0,0,0-.538-.539l-.476-.405.092-.618.184-1.239-.727-.301-.746,1.007-.371.5-.62-.048q-.189-.015-.381-.015-.19052,0-.381.015l-.62305.051-.37195-.502-.748-1.009-.726.301.185,1.24.092.62-.479.405a4.67534,4.67534,0,0,0-.536.535l-.405.47705-.618-.092-1.239-.184-.301.727,1.006.745.503.372-.051.623a4.71578,4.71578,0,0,0,.001.761l.05.622-.50195.372-1.007.746.3.727,1.239-.185.618-.092.405.476a4.724,4.724,0,0,0,.538.539l.476.405-.092.618-.184,1.23895.727.301.746-1.007Zm11.479.23-.87305-2.108-1.27795.191.191-1.278-2.107-.87195-.77,1.037-.769-1.037-2.108.872.191,1.278-1.277-.191-.873,2.108,1.038.768-1.038.769.873,2.108,1.277-.19-.191,1.277,2.108.87305.769-1.038.769,1.038,2.107-.87305-.191-1.27795,1.278.191.873-2.108-1.038-.768Zm-2.193.553a2.66636,2.66636,0,0,1,.001.428l-.026.313.843.624-.20105.484-1.037-.154-.202.238a2.60448,2.60448,0,0,1-.302.301l-.24.203.155,1.039-.483.20105-.626-.84405-.313.027a2.33179,2.33179,0,0,1-.426,0l-.311-.025-.624.842-.484-.20105.154-1.03595-.237-.203a2.74653,2.74653,0,0,1-.305-.305l-.202-.237-1.036.154-.201-.484.843-.625-.025-.312a2.53184,2.53184,0,0,1-.001-.427l.026-.311-.843-.625.201-.484,1.037.154.202-.238a2.69564,2.69564,0,0,1,.303-.30194l.239-.202-.155-1.038.484-.2.626.843.311-.025a2.78858,2.78858,0,0,1,.429-.001l.31.024.624-.84.484.2-.154,1.036.237.203a2.63547,2.63547,0,0,1,.303.304l.202.239,1.038-.155.201.484-.842.624Zm-2.643-1.639a1.854,1.854,0,1,0,1.854,1.854A1.85391,1.85391,0,0,0,14.96351,13.10847Zm0,2.584a.729.729,0,1,1,.729-.729A.72979.72979,0,0,1,14.96351,15.69252Z"/>
</svg>
