<svg id="Layer_1" data-name="Layer 1" xmlns="http://www.w3.org/2000/svg" viewBox="0 0 21.6 21.6">
  <path d="M17.22941,7.28531a2.42375,2.42375,0,0,0-1.71391-.70385h-.0146A2.41186,2.41186,0,0,0,13.163,8.41153,2.43144,2.43144,0,0,0,10.96037,6.623l.43413-.00269a1.28823,1.28823,0,0,1,1.2793-1.29394l-.00733-1.1521a2.42366,2.42366,0,0,0-1.72021.72449,2.46541,2.46541,0,0,0-.24707.30432A4.578,4.578,0,0,0,8.84025,2.4921a5.13387,5.13387,0,0,0-3.769-.552l-.50053.13281.07861.51172A4.72117,4.72117,0,0,0,6.5258,5.89322a5.15645,5.15645,0,0,0,2.9541.853,6.11535,6.11535,0,0,0,.6836-.03744A2.435,2.435,0,0,0,8.46623,8.43924a2.41156,2.41156,0,0,0-2.34373-1.803H6.10734a2.43851,2.43851,0,0,0,.01367,4.877h.01465a2.41058,2.41058,0,0,0,.75293-.13562A2.43054,2.43054,0,0,0,8.46916,15.6567h.01465a2.40353,2.40353,0,0,0,.75293-.13574A2.42791,2.42791,0,0,0,10.81828,19.8h.01416a2.44132,2.44132,0,0,0,2.42432-2.45263V17.347a2.42457,2.42457,0,0,0-.9087-1.86914,2.40889,2.40889,0,0,0,.81885.15137h.01416a2.44146,2.44146,0,0,0,2.42432-2.45288V13.176a2.42317,2.42317,0,0,0-.72461-1.72009c-.05518-.05445-.11865-.09607-.17774-.14453a2.42849,2.42849,0,0,0,.811.147h.01514A2.44189,2.44189,0,0,0,17.954,9.00578V9.00541A2.42517,2.42517,0,0,0,17.22941,7.28531ZM7.18791,4.9506a3.362,3.362,0,0,1-1.28369-1.979A3.73088,3.73088,0,0,1,8.2245,3.466,3.50312,3.50312,0,0,1,9.63224,5.593,4.1137,4.1137,0,0,1,7.18791,4.9506ZM10.8105,7.76078h.00732a1.28657,1.28657,0,0,1,.00778,2.57312h-.00732a1.28657,1.28657,0,0,1-.00778-2.57312Zm.0039,4.82141a2.42578,2.42578,0,0,0-.81494-1.24756,2.4139,2.4139,0,0,0,.81885.15137h.01416a2.40828,2.40828,0,0,0,.75049-.135c-.04981.04284-.104.07812-.15088.12524a2.41278,2.41278,0,0,0-.61771,1.106ZM6.12883,10.36112H6.121a1.28638,1.28638,0,0,1-.00683-2.57275H6.122a1.28638,1.28638,0,0,1,.00684,2.57275Zm2.34472-.67883a2.429,2.429,0,0,0,.815,1.24853,2.409,2.409,0,0,0-.81884-.15161H8.4555a2.40815,2.40815,0,0,0-.752.13574A2.42939,2.42939,0,0,0,8.47355,9.68229ZM8.477,14.50455H8.46916a1.28663,1.28663,0,0,1-.00684-2.57324h.00733A1.28663,1.28663,0,0,1,8.477,14.50455Zm2.34863,4.14331h-.00732a1.28657,1.28657,0,0,1-.00778-2.57312h.00732a1.28657,1.28657,0,0,1,.00781,2.57312Zm-.00781-3.7251h-.01416a2.40124,2.40124,0,0,0-.752.13562,2.42655,2.42655,0,0,0,.77-1.23291,2.42763,2.42763,0,0,0,.81543,1.24866A2.41159,2.41159,0,0,0,10.81779,14.92276Zm2.35645-.44543h-.00733a1.28657,1.28657,0,0,1-.00781-2.57312h.00781a1.28657,1.28657,0,0,1,.00733,2.57312Zm-.00684-3.72522h-.01514a2.42437,2.42437,0,0,0-.749.13306,2.43056,2.43056,0,0,0,.76709-1.2295,2.41422,2.41422,0,0,0,.63037,1.09864c.05518.05444.11865.09619.17822.14477A2.42872,2.42872,0,0,0,13.1674,10.75211Zm2.355-.4458h-.00781a1.28638,1.28638,0,0,1-.00684-2.57275h.00775a1.28638,1.28638,0,0,1,.00684,2.57275Z"/>
</svg>
