<?xml version="1.0" encoding="utf-8"?>
<!-- Generator: Adobe Illustrator 24.0.1, SVG Export Plug-In . SVG Version: 6.00 Build 0)  -->
<svg version="1.1" id="Layer_1" xmlns="http://www.w3.org/2000/svg" xmlns:xlink="http://www.w3.org/1999/xlink" x="0px" y="0px"
	 viewBox="0 0 21.6 21.6" style="enable-background:new 0 0 21.6 21.6;" xml:space="preserve">
<path d="M19.5,14c-0.9-1.8-2.6-3.2-4.6-3.7c-0.4-0.1-0.9-0.1-1.4-0.1c0.5-0.5,1-1,1.3-1.6c0.9-1.8,1-3.8,0.5-5.7l-0.2-0.5l-0.5,0.1
	C12.7,3,11,4.3,10,6C9.6,6.8,9.4,7.7,9.4,8.6C9,8,8.5,7.4,7.9,7C6.3,5.9,4.3,5.5,2.3,5.8L1.8,5.9l0.1,0.5c0.2,2,1.2,3.9,2.9,5.1
	c1.1,0.7,2.4,1.1,3.7,1c0.1,0,0.1,0,0.2,0c-1.4,1.9-2,4.3-1.7,6.6l1.1-0.1c-0.3-2.2,0.4-4.5,1.8-6.2c0.9,1.4,2.2,2.4,3.8,2.9
	c0.5,0.1,1,0.2,1.5,0.2c1.4,0,2.9-0.4,4.1-1.2l0.5-0.3L19.5,14z M11,6.5c0.7-1.3,2-2.3,3.5-2.7c0.3,1.5,0.1,3-0.5,4.3
	c-0.7,1.2-1.9,2.1-3.2,2.5C10.3,9.2,10.4,7.8,11,6.5L11,6.5z M5.4,10.6c-1.2-0.9-2-2.3-2.3-3.8c1.5-0.1,3,0.2,4.2,1.1
	c1.1,0.9,1.9,2.1,2.1,3.5C8,11.6,6.6,11.3,5.4,10.6z M14,14.7c-1.4-0.4-2.5-1.3-3.2-2.5c1.2-0.7,2.6-1,4-0.7
	c1.5,0.4,2.7,1.3,3.5,2.7C16.9,14.7,15.4,15,14,14.7z"/>
</svg>
