<?xml version="1.0" encoding="utf-8"?>
<!-- Generator: Adobe Illustrator 24.0.1, SVG Export Plug-In . SVG Version: 6.00 Build 0)  -->
<svg version="1.1" id="Layer_1" xmlns="http://www.w3.org/2000/svg" xmlns:xlink="http://www.w3.org/1999/xlink" x="0px" y="0px"
	 viewBox="0 0 21.6 21.6" style="enable-background:new 0 0 21.6 21.6;" xml:space="preserve">
<path d="M6,10.5L6,10.5c-2.2,0-4,1.8-4,4s1.8,4,4,4c2.2,0,4-1.8,4-4C10,12.3,8.2,10.5,6,10.5z M8.9,14.5c0,1.6-1.3,2.9-2.9,2.9
	s-2.9-1.3-2.9-2.9s1.3-2.9,2.9-2.9C7.6,11.7,8.9,12.9,8.9,14.5L8.9,14.5z M18.3,12.8v-1.5l-0.8-0.7V9.6c0-0.9-0.7-1.6-1.6-1.6h-1.7
	V5.3h-1.7v1.1h0.6V8h-1.5l-0.9-3.8h0.5V3.1H6c-0.9,0-1.6,0.7-1.6,1.6V7L3.2,8.3v1.3c-0.5,0.3-1,0.7-1.4,1.2l0.9,0.7
	C4.2,9.5,7.1,9.3,9,10.8c1,0.8,1.6,2.1,1.6,3.4l0,1.2h3.1c0,1.7,1.4,3,3.1,3c1.7,0,3-1.4,3-3.1C19.8,14.3,19.2,13.4,18.3,12.8z
	 M5.5,4.7c0-0.3,0.2-0.5,0.5-0.5h3.4l0.6,2.6H5.5V4.7z M13.9,14.4h-2.2v-0.1c0-3.1-2.5-5.6-5.6-5.6C5.5,8.7,4.9,8.8,4.3,9V8.7
	l0.8-0.8h5.2l0.3,1.2h5.3c0.3,0,0.5,0.2,0.5,0.5v1.6l0.8,0.7v0.5C15.8,12.1,14.3,13,13.9,14.4z M16.7,17.4c-1.1,0-1.9-0.9-1.9-1.9
	s0.9-1.9,1.9-1.9c1.1,0,1.9,0.9,1.9,1.9C18.7,16.5,17.8,17.4,16.7,17.4C16.7,17.4,16.7,17.4,16.7,17.4z"/>
</svg>
