<?xml version="1.0" encoding="UTF-8"?><svg id="Layer_2" xmlns="http://www.w3.org/2000/svg" viewBox="0 0 38 38"><path d="m31,25.55371V5.44604c0-1.35083-1.09515-2.44604-2.44611-2.44604H9.44617c-1.35095,0-2.44617,1.09521-2.44617,2.44604v20.10767c0,1.35107,1.09521,2.44629,2.44617,2.44629h.55383l-3,3v4h24v-4l-3-3h.55389c1.35095,0,2.44611-1.09521,2.44611-2.44629Zm-2,6.27466v1.17163H9v-1.17163l3.82843-3.82837h12.34314l3.82843,3.82837Zm-19.55383-5.82837c-.24597,0-.44617-.2002-.44617-.44629V5.44604c0-.24585.2002-.44604.44617-.44604h19.10773c.24597,0,.44611.2002.44611.44604v20.10767c0,.24609-.20013.44629-.44611.44629m-9.55389-18c-4.14209,0-7.5,3.35767-7.5,7.5,0,4.14209,3.35791,7.5,7.5,7.5s7.5-3.35791,7.5-7.5c0-4.14233-3.35785-7.5-7.5-7.5Zm0,13c-3.03271,0-5.5-2.46729-5.5-5.5s2.46729-5.5,5.5-5.5,5.5,2.46729,5.5,5.5-2.46729,5.5-5.5,5.5Z"/></svg>