<svg id="Layer_1" data-name="Layer 1" xmlns="http://www.w3.org/2000/svg" viewBox="0 0 21.6 21.6">
  <path d="M17.55,6.39189H13.05421v-1.125H17.55Zm2.25-4.0282V13.80522H1.8V2.36369ZM16.425,12.68022V11.55693H5.175v1.12329Zm0-2.24829v-1.125H5.175v1.125Zm2.25-6.94324H2.925v9.19153H4.05V8.18193h13.5v4.49829h1.125ZM7.79377,14.93065h-1.125a.66863.66863,0,0,1-.13476.42773,1.86443,1.86443,0,0,0,0,2.0127.7493.7493,0,0,1,0,.85742,1.76366,1.76366,0,0,0-.29492,1.00781h1.125a.6742.6742,0,0,1,.13476-.42969,1.86609,1.86609,0,0,0,0-2.01367.74775.74775,0,0,1,0-.85644A1.76376,1.76376,0,0,0,7.79377,14.93065Zm3.78418,0H10.453a.66769.66769,0,0,1-.13476.42675,1.86091,1.86091,0,0,0,0,2.01368.7493.7493,0,0,1,0,.85742,1.76012,1.76012,0,0,0-.2959,1.00781h1.125a.66915.66915,0,0,1,.13574-.42969,1.86351,1.86351,0,0,0-.001-2.01367.74616.74616,0,0,1,0-.85547A1.75911,1.75911,0,0,0,11.578,14.93065Zm3.78321,0h-1.125a.66764.66764,0,0,1-.13477.42675,1.86091,1.86091,0,0,0,0,2.01368.74926.74926,0,0,1,0,.85742,1.76012,1.76012,0,0,0-.2959,1.00781h1.125a.66915.66915,0,0,1,.13575-.42969,1.86348,1.86348,0,0,0-.001-2.01367.74616.74616,0,0,1,0-.85547A1.7591,1.7591,0,0,0,15.36116,14.93065Z"/>
</svg>
