<?xml version="1.0" encoding="utf-8"?>
<!-- Generator: Adobe Illustrator 24.0.1, SVG Export Plug-In . SVG Version: 6.00 Build 0)  -->
<svg version="1.1" id="Layer_1" xmlns="http://www.w3.org/2000/svg" xmlns:xlink="http://www.w3.org/1999/xlink" x="0px" y="0px"
	 viewBox="0 0 21.6 21.6" style="enable-background:new 0 0 21.6 21.6;" xml:space="preserve">
<path d="M19.7,7.5c-0.2-0.5-0.5-0.9-1-1.1c-0.3-0.1-0.6-0.2-0.9-0.2c-0.2,0-0.4,0-0.6,0.1L13,7.4L7.4,3.9L4.8,4.6l4.1,4l-3,0.9
	L3.5,8L3.3,8L2.4,8.3L2.2,8.3L1.8,8.5l0,0L3.3,11l1.2,2l0.4,0.7l1.6-0.5l3.6-1L9,17.7l2.5-0.7l2.7-5.9l4.2-1.2
	c0.5-0.1,0.9-0.5,1.2-0.9C19.8,8.5,19.9,7.9,19.7,7.5z M7,5.1l0.2-0.1l4.4,2.7l-1.4,0.4L9.7,7.8L7,5.1z M18.6,8.4
	c-0.1,0.2-0.3,0.3-0.5,0.4L13.9,10l-0.5,0.1l-0.2,0.5l-2.5,5.5l-0.2,0.1l0.7-3.7l0.4-1.8l-1.8,0.5l-3.6,1l-0.8,0.2l-1.1-1.9L3.6,9.4
	l1.7,1l0.4,0.3l0.5-0.1l3-0.9l0.7-0.2l0,0l2.9-0.8l0,0l0.5-0.1l4.2-1.2c0.1,0,0.2,0,0.3,0c0.1,0,0.3,0,0.4,0.1
	c0.2,0.1,0.3,0.3,0.4,0.5C18.7,8,18.7,8.2,18.6,8.4z"/>
</svg>
