<?xml version="1.0" encoding="utf-8"?>
<!-- Generator: Adobe Illustrator 24.0.1, SVG Export Plug-In . SVG Version: 6.00 Build 0)  -->
<svg version="1.1" id="Ebene_1" xmlns="http://www.w3.org/2000/svg" xmlns:xlink="http://www.w3.org/1999/xlink" x="0px" y="0px"
	 viewBox="0 0 21.6 21.6" style="enable-background:new 0 0 21.6 21.6;" xml:space="preserve">
<path d="M10.8,1.8c-5,0-9,4-9,9c0,1.7,0.5,3.4,1.4,4.8l-1.1,4.1l4-1.2c4.2,2.6,9.8,1.3,12.4-2.9s1.3-9.8-2.9-12.4
	C14.1,2.3,12.5,1.8,10.8,1.8z M10.8,18.7c-1.5,0-2.9-0.4-4.1-1.2l-0.4-0.3l-0.5,0.2l-2,0.6l0.6-2.1l0.1-0.5L4.1,15
	C1.8,11.3,2.9,6.5,6.6,4.1s8.5-1.2,10.9,2.5s1.2,8.5-2.5,10.9C13.7,18.3,12.3,18.7,10.8,18.7z M10,10.1c0.4-0.4,1-0.4,1.4,0
	s0.4,1,0,1.4s-1,0.4-1.4,0l0,0C9.6,11.1,9.6,10.5,10,10.1z M11.8,9l2.3-2.3l0.8,0.8l-2.3,2.3L11.8,9z M11.8,12.6l0.8-0.8l2.3,2.3
	l-0.8,0.8L11.8,12.6z M6.7,14.1L9,11.8l0.8,0.8l-2.3,2.3L6.7,14.1z M6.7,7.5l0.8-0.8L9.8,9L9,9.8L6.7,7.5z"/>
</svg>
