<svg id="Layer_1" data-name="Layer 1" xmlns="http://www.w3.org/2000/svg" viewBox="0 0 21.6 21.6">
  <path d="M10.83345,13.06175a1.97105,1.97105,0,0,0,2.58593.97558.50044.50044,0,0,1,.33985.94141,3.50211,3.50211,0,0,1-1.19043.22168,2.98049,2.98049,0,0,1-2.64307-1.71875.50007.50007,0,0,1,.90772-.41992Zm3.2705,3.21289a.50006.50006,0,1,0-.45117-.89258c-2.082,1.05078-3.1416-.09278-3.1914-.14844a.5.5,0,0,0-.75879.65137,3.09319,3.09319,0,0,0,2.291.94726A4.67237,4.67237,0,0,0,14.104,16.27464ZM19.517,9.489a.49728.49728,0,0,0-.44726-.09717c-.02833.00733-2.87305.74707-4.75586-.15088-.05017-.0241-.1012-.048-.15186-.07049a2.34113,2.34113,0,0,0-2.16553.13641.49993.49993,0,0,0,.51758.85547,1.3576,1.3576,0,1,1-.63769,1.3916.50018.50018,0,0,0-.98633.167,2.35754,2.35754,0,0,0,4.68164-.39551,2.32657,2.32657,0,0,0-.12836-.73291,10.33314,10.33314,0,0,0,3.21039-.09033l-.13184,1.91992a8.40057,8.40057,0,0,0-2.82226,3.10449,2.0326,2.0326,0,0,1-.43067.52246,7.9358,7.9358,0,0,1-3.27539,1.44238.5.5,0,0,0,.11231.98731.49514.49514,0,0,0,.1123-.0127,8.88491,8.88491,0,0,0,3.68555-1.64355,3.025,3.025,0,0,0,.65137-.77832c1.43652-2.36524,2.60156-2.82227,2.60547-2.82422a.49872.49872,0,0,0,.33886-.43945l.19824-2.8711A.50308.50308,0,0,0,19.517,9.489Zm-8.2959-.66113a.50012.50012,0,0,0,.45362-.709,2.96787,2.96787,0,0,0-3.8335-1.49658.49981.49981,0,0,0,.33887.94043,1.973,1.973,0,0,1,2.5874.97608A.499.499,0,0,0,11.22114,8.82786ZM7.49653,5.32542a.49984.49984,0,0,0,.4502.89258c2.08349-1.05127,3.14258.09326,3.19238.14941a.50018.50018,0,0,0,.75879-.65186C11.8354,5.64134,10.31245,3.906,7.49653,5.32542Zm2.27588,6.28027a.50032.50032,0,0,0-.687-.16748,1.34455,1.34455,0,0,1-.69971.19385,1.35718,1.35718,0,1,1,1.33838-1.58594.50018.50018,0,1,0,.98633-.167,2.35785,2.35785,0,0,0-4.68213.396,2.32583,2.32583,0,0,0,.12842.7331,10.36328,10.36328,0,0,0-3.21094.08966l.13281-1.91944A8.40769,8.40769,0,0,0,5.90034,6.07493,2.04274,2.04274,0,0,1,6.33149,5.551,7.93955,7.93955,0,0,1,9.6064,4.10862.50008.50008,0,0,0,9.38179,3.134a8.87154,8.87154,0,0,0-3.68506,1.644,3.031,3.031,0,0,0-.65137.77832C3.60884,7.9221,2.4438,8.37815,2.43989,8.3801a.50042.50042,0,0,0-.33935.439l-.19825,2.87207a.501.501,0,0,0,.18116.42041.50831.50831,0,0,0,.44677.09766c.02832-.00782,2.87452-.74854,4.75538.15039.03936.01886.09344.04535.14733.06738a2.34226,2.34226,0,0,0,2.172-.13379A.50055.50055,0,0,0,9.77241,11.60569Z"/>
</svg>
