<svg id="anchor" xmlns="http://www.w3.org/2000/svg" viewBox="0 0 38 38"><path d="M30.051,22.01425H26.03249v2.00923h2.77244c-1.13933,5.05539-6.36217,7.58341-8.80012,8.49924V15.55392h4.01846V13.54469H20.00481V9.97415a3.59076,3.59076,0,1,0-2.00923,0v3.57054H13.97712v2.00923h4.01846v16.9688c-2.438-.91583-7.66079-3.44385-8.80012-8.49924H11.9679V22.01425H6.94483c0,4.05574,2.06515,7.5611,5.97176,10.17368a21.13083,21.13083,0,0,0,5.83147,2.6999l.25214.06573.25213-.06573a21.13083,21.13083,0,0,0,5.83147-2.6999c3.90662-2.61258,5.97176-6.11794,5.97176-10.17368Zm-12.63224-15.47A1.58149,1.58149,0,1,1,19.0002,8.12576,1.58311,1.58311,0,0,1,17.41871,6.54427Z"/></svg>