<svg id="Layer_1" data-name="Layer 1" xmlns="http://www.w3.org/2000/svg" viewBox="0 0 21.6 21.6"><path d="M6.70574,6.71227H1.8V1.8H6.70574ZM2.91688,5.59412h2.672v-2.676h-2.672Zm10.3292,1.11815H8.33937V1.8h4.90671ZM9.45625,5.59412h2.673v-2.676H9.45625ZM19.78546,6.71227H14.87875V1.8h4.90671ZM15.99563,5.59412h2.67295v-2.676H15.99563Zm-9.27535,7.662H1.81454V8.34387H6.72028ZM2.93142,12.138h2.672V9.462h-2.672Zm10.32921,1.11814H8.35392V8.34387h4.90671ZM9.4708,12.138h2.673V9.462H9.4708ZM19.8,13.25613H14.89329V8.34387H19.8ZM16.01017,12.138h2.673V9.462H16.01017ZM6.70574,19.8H1.8V14.88773H6.70574ZM2.91688,18.68185h2.672v-2.676h-2.672ZM13.24608,19.8H8.33937V14.88773h4.90671ZM9.45625,18.68185h2.673v-2.676H9.45625ZM19.78546,19.8H14.87875V14.88773h4.90671Zm-3.78983-1.11815h2.67295v-2.676H15.99563Z"/></svg>