<svg id="Layer_1" data-name="Layer 1" xmlns="http://www.w3.org/2000/svg" viewBox="0 0 21.6 21.6"><path d="M17.40182,2.925l-.00528,5.09293c0,4.02136-2.399,7.80645-6.60849,10.46746-4.19818-2.62225-6.591-6.4071-6.591-10.4663L4.2023,2.925H17.40182M18.528,1.8H3.07846L3.072,8.01793c0,4.80114,3.031,9.07217,7.71988,11.78207,4.68881-2.74915,7.72964-7.02014,7.72964-11.78207L18.528,1.8ZM9.78485,9.06941H7.91668a.56265.56265,0,0,1-.5625-.5625V6.63777a.56265.56265,0,0,1,.5625-.5625H9.78485a.56265.56265,0,0,1,.5625.5625V8.50691A.56265.56265,0,0,1,9.78485,9.06941Zm-1.30567-1.125h.74317V7.20027H8.47918Zm5.20411,1.125H11.81512a.56264.56264,0,0,1-.5625-.5625V6.63777a.56264.56264,0,0,1,.5625-.5625h1.86817a.56265.56265,0,0,1,.5625.5625V8.50691A.56265.56265,0,0,1,13.68329,9.06941Zm-1.30567-1.125h.74317V7.20027h-.74317ZM9.78485,12.9532H7.91668a.56265.56265,0,0,1-.5625-.5625V10.52156a.56265.56265,0,0,1,.5625-.5625H9.78485a.56265.56265,0,0,1,.5625.5625V12.3907A.56265.56265,0,0,1,9.78485,12.9532Zm-1.30567-1.125h.74317v-.74414H8.47918Zm5.20411,1.125H11.81512a.56264.56264,0,0,1-.5625-.5625V10.52156a.56264.56264,0,0,1,.5625-.5625h1.86817a.56265.56265,0,0,1,.5625.5625V12.3907A.56265.56265,0,0,1,13.68329,12.9532Zm-1.30567-1.125h.74317v-.74414h-.74317Z"/></svg>