<?xml version="1.0" encoding="UTF-8"?><svg id="Layer_1" xmlns="http://www.w3.org/2000/svg" viewBox="0 0 38 38"><path d="m5,13.66663h-2V3h10.66669v2H5v8.66663Zm0,10.66669h-2v10.66669h10.66669v-2H5v-8.66669Zm28,8.66669h-8.66663v2h10.66663v-10.66669h-2v8.66669ZM24.33337,3v2h8.66663v8.66663h2V3h-10.66663Zm2.44495,23.77832c-2.14453,2.14453-4.96143,3.2168-7.77832,3.2168s-5.63379-1.07227-7.77832-3.2168c-4.28857-4.28906-4.28857-11.26758,0-15.55664,4.28906-4.28906,11.26758-4.28906,15.55664,0,4.28857,4.28906,4.28857,11.26758,0,15.55664Zm-1.41406-1.41406c3.5083-3.50879,3.5083-9.21875,0-12.72852-1.75488-1.75439-4.05957-2.63135-6.36426-2.63135s-4.60938.87695-6.36426,2.63135c-3.50879,3.50977-3.50879,9.21875,0,12.72852,3.50879,3.50781,9.21875,3.50977,12.72852,0Zm-6.36487-1.36426c2.41925,0,4.37988-1.77246,4.50061-4h-9c.12048,2.22754,2.07935,4,4.49939,4Zm-2.92072-7.88617c0-.69037-.55963-1.25-1.25-1.25s-1.25.55963-1.25,1.25.55963,1.25,1.25,1.25,1.25-.55963,1.25-1.25Zm7.09271-1.25c-.69037,0-1.25.55963-1.25,1.25s.55963,1.25,1.25,1.25c.69031,0,1.25-.55963,1.25-1.25s-.55969-1.25-1.25-1.25Z"/></svg>