<?xml version="1.0" encoding="utf-8"?>
<!-- Generator: Adobe Illustrator 24.0.1, SVG Export Plug-In . SVG Version: 6.00 Build 0)  -->
<svg version="1.1" id="Layer_1" xmlns="http://www.w3.org/2000/svg" xmlns:xlink="http://www.w3.org/1999/xlink" x="0px" y="0px"
	 viewBox="0 0 21.6000004 21.6000004" style="enable-background:new 0 0 21.6000004 21.6000004;" xml:space="preserve">
<path d="M16.4100056,16.4294586H5.0500054V5.0694594h11.3600006V16.4294586z M6.1627274,15.3167372h9.1345568V6.1821809H6.1627274
	V15.3167372z M16.4100056,1.8h-1.125v2.2373049h1.125V1.8z M19.7999992,5.0694594h-2.2373047v1.125h2.2373047V5.0694594z
	 M6.1750054,1.8h-1.125v2.2373049h1.125V1.8z M4.0373049,5.0694594H1.8v1.125h2.2373049V5.0694594z M4.0373049,15.3044596H1.8
	v1.124999h2.2373049V15.3044596z M19.7999992,15.3044596h-2.2373047v1.124999h2.2373047V15.3044596z M6.1750054,17.5626945h-1.125
	v2.2373047h1.125V17.5626945z M16.4100056,17.5626945h-1.125v2.2373047h1.125V17.5626945z"/>
</svg>
