<svg id="Layer_1" data-name="Layer 1" xmlns="http://www.w3.org/2000/svg" viewBox="0 0 21.6 21.6">
  <path d="M18.84288,12.92619a4.22235,4.22235,0,0,0-1.46692-1.161V6.293L9.6,1.80321,1.82341,6.293v8.97882L9.6,19.761,12.2653,18.2224a4.22239,4.22239,0,0,0,6.57758-5.29621ZM9.6,3.09111l2.47,1.42621L5.96928,8.0396,3.50065,6.61241ZM9.04228,18.15105,2.93864,14.62822V7.57542l6.10364,3.52851ZM7.084,8.68413l6.10174-3.52277,2.51831,1.454L9.60429,10.141Zm4.58618,8.59369-1.51312.87347V11.10954l6.10363-3.528V11.402a4.21789,4.21789,0,0,0-4.59051,5.87586Zm7.027-1.71161a3.15787,3.15787,0,1,1,0-.00019ZM16.98,15.77739l-.38177.38153a1.498,1.498,0,0,0-2.118,0l-.38135-.38153h.00006A2.03747,2.03747,0,0,1,16.98,15.77739Zm-.69207.69238-.38184.38086a.53259.53259,0,0,0-.73437.00037l-.38135-.3816A1.08417,1.08417,0,0,1,16.288,16.46977Zm1.3836-1.38422-.38128.3816a2.47673,2.47673,0,0,0-3.50208,0l-.38135-.3816A3.01582,3.01582,0,0,1,17.67155,15.08555Z"/>
</svg>
