<svg id="Layer_2" data-name="Layer 2" xmlns="http://www.w3.org/2000/svg" viewBox="0 0 21.6 21.6">
  <path d="M9.8166,7.947A2.7967,2.7967,0,0,0,8.26,9.2419a.3749.3749,0,0,1-.66-.3565A3.5163,3.5163,0,0,1,9.654,7.215a2.6508,2.6508,0,0,1,2.2007.6,2.871,2.871,0,0,1,.58,3.9908.3752.3752,0,0,1-.6231-.418,2.1769,2.1769,0,0,0-.41-2.9751A1.9413,1.9413,0,0,0,9.8166,7.947ZM9.27,11.6559a.5377.5377,0,1,0-.5377-.5377A.5377.5377,0,0,0,9.27,11.6559Zm-1.42.3649a.5377.5377,0,1,0,.5377.5376A.5377.5377,0,0,0,7.8506,12.0208ZM5.3233,14.5819a.5377.5377,0,1,0,.5376.5377A.5377.5377,0,0,0,5.3233,14.5819Zm-1.4086,1.44a.5377.5377,0,1,0,.5377.5377A.5377.5377,0,0,0,3.9147,16.0221Zm1.6138-2.5053,1.6074,1.4287.7471-.8418L6.2756,12.675ZM10.259,4.7707A5.5231,5.5231,0,0,0,4.8762,9.5661.5626.5626,0,0,0,5.9934,9.7a4.3433,4.3433,0,0,1,4.2929-3.8042,3.4623,3.4623,0,0,1,3.336,1.8711,4.4341,4.4341,0,0,1,.0078,4.2578c-1.459,2.0869-1.9614,2.91-2.064,3.669a2.8937,2.8937,0,0,0,.0239.6367c.0616.6152.1641,1.6435-.3349,2.11a2.1157,2.1157,0,0,1-1.7764.2422.57.57,0,0,0-.6489.461.5627.5627,0,0,0,.46.6484,5.4624,5.4624,0,0,0,.9156.083,2.568,2.568,0,0,0,1.8169-.6123c.9062-.8467.7636-2.2764.6865-3.044a3.0677,3.0677,0,0,1-.0283-.374c.0644-.4785.4843-1.1914,1.8711-3.1758a5.5583,5.5583,0,0,0,.0615-5.4345A4.608,4.608,0,0,0,10.259,4.7707Zm3.53-.8317-.1721.7291a1.9854,1.9854,0,0,1,1.413.731,1.7693,1.7693,0,0,1,.4443,1.4157l.76-.3028a2.6005,2.6005,0,0,0-.631-1.5958A2.7594,2.7594,0,0,0,13.7886,3.939Zm.528-2.2366-.1736.7353a3.9592,3.9592,0,0,1,3.2617,3.6077l.7256-.2892A4.7232,4.7232,0,0,0,14.3166,1.7024Z"/>
</svg>
