<svg id="Ebene_1" data-name="Ebene 1" xmlns="http://www.w3.org/2000/svg" viewBox="0 0 21.6 21.6">
  <path d="M8.43474,15.4429a3.35663,3.35663,0,0,1-1.1769-.85814,3.86182,3.86182,0,0,1-.74831-1.31992,5.19569,5.19569,0,0,1-.26408-1.69529,7.2308,7.2308,0,0,1,.34121-2.29912A5.20961,5.20961,0,0,1,7.54389,7.521,4.23085,4.23085,0,0,1,8.97413,6.41a4.11151,4.11151,0,0,1,1.78218-.38514,2.95081,2.95081,0,0,1,1.68261.451,3.06913,3.06913,0,0,1,1.02313,1.111H13.506l.1767-1.34189H15.399l-.74782,6.11781q-.2431,1.82612,1.21057,1.82562a1.74773,1.74773,0,0,0,.86888-.24211,2.18978,2.18978,0,0,0,.75954-.77028,4.83611,4.83611,0,0,0,.5389-1.35214,8.15653,8.15653,0,0,0,.20893-1.9706,7.28865,7.28865,0,0,0-.55062-2.94834A5.7427,5.7427,0,0,0,16.18,4.82546a6.29657,6.29657,0,0,0-2.25519-1.232,9.22189,9.22189,0,0,0-2.77261-.4071,8.03282,8.03282,0,0,0-2.94834.55012,7.36851,7.36851,0,0,0-2.47533,1.584A7.5182,7.5182,0,0,0,4.0342,7.85093a8.69129,8.69129,0,0,0-.62726,3.38864A8.30777,8.30777,0,0,0,3.89117,14.123a6.29782,6.29782,0,0,0,3.71862,3.79575,8.52223,8.52223,0,0,0,3.14652.5389,11.073,11.073,0,0,0,2.14536-.19819,11.217,11.217,0,0,0,1.94668-.57209l.50571,1.2096A10.99991,10.99991,0,0,1,10.86614,19.8a10.45411,10.45411,0,0,1-3.66346-.617A8.2823,8.2823,0,0,1,4.353,17.44523,7.79027,7.79027,0,0,1,2.50487,14.739a9.06728,9.06728,0,0,1-.66-3.52141,9.52923,9.52923,0,0,1,.803-4.01589A8.99916,8.99916,0,0,1,4.77128,4.25337a9.20609,9.20609,0,0,1,3.0035-1.82612A9.78352,9.78352,0,0,1,11.21809,1.8a10.01593,10.01593,0,0,1,3.146.5062,8.22812,8.22812,0,0,1,2.73942,1.50736,7.39113,7.39113,0,0,1,1.92521,2.4973,7.82,7.82,0,0,1,.72634,3.45454,10.24579,10.24579,0,0,1-.25188,2.3328,5.89872,5.89872,0,0,1-.74782,1.84808,3.69922,3.69922,0,0,1-1.24377,1.21057,3.40825,3.40825,0,0,1-1.76119.4403,2.83311,2.83311,0,0,1-1.66064-.4403,2.27,2.27,0,0,1-.86986-1.14419H13.176a3.943,3.943,0,0,1-1.3414,1.25451,3.58859,3.58859,0,0,1-1.8266.48326A3.82625,3.82625,0,0,1,8.43474,15.4429Zm3.08062-1.3863a2.85821,2.85821,0,0,0,.93527-.89134,3.97716,3.97716,0,0,0,.54964-1.33163,7.402,7.402,0,0,0,.17573-1.65039,3.26,3.26,0,0,0-.57209-2.01307,2.11141,2.11141,0,0,0-1.80367-.75905,2.31563,2.31563,0,0,0-1.254.33,2.55864,2.55864,0,0,0-.85814.89085,4.473,4.473,0,0,0-.49546,1.30966,7.458,7.458,0,0,0-.165,1.606,4.87413,4.87413,0,0,0,.12106,1.112,2.6381,2.6381,0,0,0,.38514.90208,1.8925,1.8925,0,0,0,.67119.60529,2.03478,2.03478,0,0,0,.9792.21966A2.58281,2.58281,0,0,0,11.51536,14.0566Z"/>
</svg>
