<?xml version="1.0" encoding="utf-8"?>
<!-- Generator: Adobe Illustrator 24.0.1, SVG Export Plug-In . SVG Version: 6.00 Build 0)  -->
<svg version="1.1" id="Ebene_1" xmlns="http://www.w3.org/2000/svg" xmlns:xlink="http://www.w3.org/1999/xlink" x="0px" y="0px"
	 viewBox="0 0 21.6 21.6" style="enable-background:new 0 0 21.6 21.6;" xml:space="preserve">
<path d="M8,19.7c-2.9,0-5.3-2.4-5.3-5.3c0-1.4,0.6-2.8,1.6-3.7l7.6-7.6c1.6-1.6,4.1-1.6,5.6,0c1.6,1.6,1.6,4.1,0,5.6l-6.2,6.2
	c-1.1,1.1-2.9,1.1-4,0s-1.1-2.9,0-4l6.3-6.3l0.8,0.8l-6.3,6.3c-0.7,0.7-0.7,1.7,0,2.4s1.7,0.7,2.4,0l6.2-6.2c1.1-1.1,1.1-2.9,0-4
	s-2.9-1.1-4,0L5,11.5c-1.6,1.6-1.6,4.3,0,5.9s4.3,1.6,5.9,0l0,0l7.2-7.2l0.8,0.8l-7.2,7.2C10.7,19.1,9.4,19.7,8,19.7z"/>
</svg>
