<svg id="Layer_1" data-name="Layer 1" xmlns="http://www.w3.org/2000/svg" viewBox="0 0 21.6 21.6">
  <path d="M17.55,4.05H4.05A2.25,2.25,0,0,0,1.8,6.3v9a2.25,2.25,0,0,0,2.25,2.25h13.5A2.25,2.25,0,0,0,19.8,15.3v-9A2.25,2.25,0,0,0,17.55,4.05ZM18.8,15.3a1.25147,1.25147,0,0,1-1.25,1.25H4.05A1.25143,1.25143,0,0,1,2.8,15.3v-9A1.25139,1.25139,0,0,1,4.05,5.05h13.5A1.25143,1.25143,0,0,1,18.8,6.3Zm-4.09222-4.12091a5.05278,5.05278,0,0,1-.55573,2.31067h-.861a4.28326,4.28326,0,0,0-.00031-4.62213H14.152A5.05573,5.05573,0,0,1,14.70778,11.17909Zm.84863-2.31146a5.08336,5.08336,0,0,1,.00012,4.62213h-.861a4.28326,4.28326,0,0,0-.00031-4.62213Zm1.44964.00518a5.08321,5.08321,0,0,1,.00013,4.62208h-.861a4.28336,4.28336,0,0,0-.00036-4.62208ZM7.37751,8.65443H7.2281L4.04036,13.58156h1.212l.52338-.84638,1.6018.03235v.814H8.44844V8.65443H7.37751Zm0,3.12915H6.36409l1.01342-1.63891ZM12.44868,9.3611a1.9866,1.9866,0,0,0-.69183-.50525,2.21052,2.21052,0,0,0-.902-.17908L9.15406,8.66743l.0373,4.95307,1.59967-.00409a2.47309,2.47309,0,0,0,.96271-.17585,1.94262,1.94262,0,0,0,.70739-.49432,2.10606,2.10606,0,0,0,.43354-.76746,3.1873,3.1873,0,0,0,.147-.99841,3.275,3.275,0,0,0-.15326-1.02911A2.23433,2.23433,0,0,0,12.44868,9.3611Zm-.81946,2.91412a1.09878,1.09878,0,0,1-.92077.385L10.2,12.661,10.16267,9.6269l.56452.00647a1.03828,1.03828,0,0,1,.902.42139,1.888,1.888,0,0,1,.30274,1.12561A1.73112,1.73112,0,0,1,11.62922,12.27522Z"/>
</svg>
