<svg id="Ebene_1" data-name="Ebene 1" xmlns="http://www.w3.org/2000/svg" viewBox="0 0 21.6 21.6">
  <path d="M19.3,18.4944l-.80585.80584-4.46905-4.469A7.39274,7.39274,0,0,1,2.97236,13.198H4.37672a6.2661,6.2661,0,1,0,6.54169-10.0152V2.00618a7.39631,7.39631,0,0,1,3.91253,12.01916ZM4.314,4.3141A2.51419,2.51419,0,1,1,6.8282,6.8282,2.5142,2.5142,0,0,1,4.314,4.3141Zm1.13983,0A1.37436,1.37436,0,1,0,6.8282,2.93977,1.37584,1.37584,0,0,0,5.45387,4.3141Zm6.40259,7.74408H1.8V9.56843a7.43687,7.43687,0,0,1,10.05646,0Zm-1.13983-1.95813a6.27773,6.27773,0,0,0-7.77686,0v.81836h7.77686Z"/>
</svg>
