<svg id="Layer_2" data-name="Layer 2" xmlns="http://www.w3.org/2000/svg" viewBox="0 0 21.6 21.6"><path d="M9.36355,8.93675a.55669.55669,0,0,1,0,1.11338H7.24527a.55669.55669,0,1,1,0-1.11338H9.36355m0-1.125H7.24527a1.68169,1.68169,0,1,0,0,3.36338H9.36355a1.68169,1.68169,0,0,0,0-3.36338ZM8.30171,1.8V3.79811H5.80348V5.79622H3.30519V19.8h9.9931V17.802h2.49823v-1.9981h2.49829V1.8Zm3.87158,16.875H4.43019V6.92122h7.7431Zm2.49823-1.998H13.29829V5.79622H6.92848V4.92311h7.743Zm2.49829-1.9981H15.79652V3.79811H9.42671V2.925h7.7431Z"/></svg>