<?xml version="1.0" encoding="utf-8"?>
<!-- Generator: Adobe Illustrator 24.0.1, SVG Export Plug-In . SVG Version: 6.00 Build 0)  -->
<svg version="1.1" id="Layer_1" xmlns="http://www.w3.org/2000/svg" xmlns:xlink="http://www.w3.org/1999/xlink" x="0px" y="0px"
	 viewBox="0 0 21.6 21.6" style="enable-background:new 0 0 21.6 21.6;" xml:space="preserve">
<path d="M17,6.6c0.1-1.1,0.2-2.2,0.2-3.3V2.7H4.5v0.6c0,1.1,0.1,2.2,0.2,3.3H1.8v0.6c0,2.7,1.8,5.1,4.8,6.3c1,1.9,2.3,3.1,3.7,3.4
	v0.9H7v1.1h7.7v-1.1h-3.3v-0.9c1.4-0.3,2.7-1.5,3.7-3.4c2.9-1.2,4.8-3.6,4.8-6.3V6.6L17,6.6z M3,7.7h1.9c0.2,1.4,0.6,2.8,1,4.1
	C4.3,11,3.3,9.5,3,7.7z M10.8,15.8c-2.5,0-5.1-4.8-5.2-11.9H16C15.9,11,13.3,15.8,10.8,15.8z M15.8,11.8c0.5-1.3,0.8-2.7,1-4.1h1.9
	C18.4,9.5,17.3,11,15.8,11.8z"/>
</svg>
