<svg id="Layer_2" data-name="Layer 2" xmlns="http://www.w3.org/2000/svg" viewBox="0 0 21.6 21.6">
  <path d="M10.8,7.65865a3.14386,3.14386,0,1,0,3.14386,3.14386A3.14767,3.14767,0,0,0,10.8,7.65865Zm0,5.13283a1.989,1.989,0,1,1,1.989-1.989A1.9912,1.9912,0,0,1,10.8,12.79148Zm0-7.8777A5.69857,5.69857,0,0,0,6.24461,7.19511V1.8H5.08972v18H16.51028V10.62406A5.71648,5.71648,0,0,0,10.8,4.91378Zm4.55539,13.73133H6.24461v-8.021a4.55539,4.55539,0,0,1,9.11078,0ZM8.23358,15.81h5.13284v1.15488H8.23358Z"/>
</svg>
