<svg id="Ebene_1" data-name="Ebene 1" xmlns="http://www.w3.org/2000/svg" viewBox="0 0 21.6 21.6">
  <path d="M12.63636,5.77748V8.16823l-2.01348,2.01348-.14649.98359.9419-.18818,2.0166-2.01666,2.38763.00318L19.8,4.9861,16.61384,4.982V1.8Zm1.125.466L15.48884,4.516v.79969L13.76136,7.04316Zm3.32624-.13586L15.35713,7.838l-.79871-.00109,1.73035-1.73035.32355.00037Zm2.00134,1.181a8.99416,8.99416,0,1,1-4.77716-4.77729l-.87671.87684a7.90649,7.90649,0,1,0,4.777,4.77734Zm-7.577-.91663A4.49172,4.49172,0,1,0,15.3,10.8a4.46366,4.46366,0,0,0-.072-.71228l1.11951-.05725A5.57219,5.57219,0,0,1,16.425,10.8,5.625,5.625,0,1,1,10.8,5.175a5.56328,5.56328,0,0,1,.771.0777Zm-1.509,3.63562a1.12348,1.12348,0,1,0,1.59632,1.5813l1.43566-.9378c.00342.05011.01508.09783.01508.14886A2.25,2.25,0,1,1,10.8,8.55c.05054,0,.09778.01154.14734.01483Z"/>
</svg>
