<svg id="Ebene_1" data-name="Ebene 1" xmlns="http://www.w3.org/2000/svg" viewBox="0 0 21.6 21.6">
  <path d="M10.8,1.8a6.74729,6.74729,0,0,0-.5625,13.47131V19.8h1.125V15.27156A6.74742,6.74742,0,0,0,10.8,1.8Zm0,12.375A5.625,5.625,0,1,1,16.425,8.55,5.63143,5.63143,0,0,1,10.8,14.175Zm.3418-6.186V5.58369A1.31155,1.31155,0,0,1,12.469,6.74141h.80859A2.01637,2.01637,0,0,0,11.1418,4.91523V4.36641h-.5586v.54882c-1.27734.04981-2.1455.75831-2.1455,1.86622,0,1.26709.918,1.60644,2.1455,1.876v2.58447A1.601,1.601,0,0,1,8.95625,9.61543H8.11738a2.335,2.335,0,0,0,2.46582,2.30518v.84814h.5586v-.83838c1.30664-.07959,2.29492-.78808,2.29492-1.9956C13.43672,8.57734,12.44844,8.258,11.1418,7.989Zm-.5586-.10986c-.92871-.20947-1.35742-.499-1.35742-1.13769,0-.7085.54883-1.09766,1.35742-1.16748Zm.5586,3.37305V8.7873c.958.20948,1.47656.439,1.47656,1.17725A1.39788,1.39788,0,0,1,11.1418,11.25215Z"/>
</svg>
