<svg id="Layer_1" data-name="Layer 1" xmlns="http://www.w3.org/2000/svg" viewBox="0 0 21.6 21.6"><path d="M7.02006,13.6989,5.65489,19.15739a.61708.61708,0,1,1-1.19721-.29974l1.36517-5.4585a.61708.61708,0,1,1,1.19721.29975ZM8.55888,4.875a1.48621,1.48621,0,1,0-1.48621-1.4862A1.48623,1.48623,0,0,0,8.55888,4.875Zm9.21673,13.97443L13.44444,12.2921a.25813.25813,0,0,0-.43109.28405l4.33117,6.55732a.257.257,0,0,0,.216.1159.25351.25351,0,0,0,.142-.04285A.25743.25743,0,0,0,17.77561,18.84941Zm-4.86255-7.94928S9.18589,5.40086,9.17863,5.39146a.41977.41977,0,0,0-.10071-.09271.43061.43061,0,0,0-.04645-.03125A.42127.42127,0,0,0,8.84361,5.22H6.49107a.42447.42447,0,0,0-.17884.04132.442.442,0,0,0-.04345.02936C6.23216,5.3134,3.7816,7.7512,3.7816,7.7512l.06457,3.28711a.49616.49616,0,0,0,.49609.48621h.00953a.49671.49671,0,0,0,.48663-.506L4.78239,8.162,6.06077,6.9174v3.438c0,.074-.03247.226.00409.29065l1.04175,1.46716.00586-.00409C7.777,13.057,8.6287,14.26622,8.95713,14.732l1.28681,4.51709a.61708.61708,0,1,0,1.18683-.3385l-1.31519-4.61786-.08868-.18647c-.58515-.8305-1.33558-1.89721-1.90693-2.71179l.94135-.66766a.43.43,0,0,0,.21258-.3714V7.31l2.81922,4.14825a.49593.49593,0,1,0,.81994-.5581Z"/></svg>