<svg id="Ebene_1" data-name="Ebene 1" xmlns="http://www.w3.org/2000/svg" viewBox="0 0 21.6 21.6"><path d="M11.36,10.24h2.25v1.12H11.36v2.25H10.24V11.36H8V10.24h2.25V8h1.12Zm8.44,3-2.54,1.32.13,2.86-2.86-.13L13.21,19.8,10.8,18.25,8.39,19.8,7.07,17.26l-2.86.13.13-2.86L1.8,13.21,3.35,10.8,1.8,8.39,4.34,7.07,4.21,4.21l2.86.13L8.39,1.8,10.8,3.35,13.21,1.8l1.32,2.54,2.86-.13-.13,2.86L19.8,8.39,18.25,10.8ZM16.92,10.8l1.27-2L16.1,7.74l.11-2.35-2.35.11L12.78,3.41l-2,1.27-2-1.27L7.74,5.5,5.39,5.39,5.5,7.74,3.41,8.82l1.27,2-1.27,2L5.5,13.86l-.11,2.35,2.35-.11,1.08,2.09,2-1.27,2,1.27,1.08-2.09,2.35.11-.11-2.35,2.09-1.08Z"/></svg>