<svg id="Ebene_1" data-name="Ebene 1" xmlns="http://www.w3.org/2000/svg" viewBox="0 0 21.6 21.6"><path d="M16.68,8.72l2.06-2.14L12.86,1.84,10.84,4,8.78,1.8,2.86,6.58,4.92,8.72,2.86,10.86,5.1,12.67v2.56l5.72,4.57,5.71-4.57V12.64l2.21-1.77ZM10.8,12.05,6.64,8.72,10.8,5.4,15,8.72Zm5-2.59,1.25,1.3L13,14.08,11.7,12.77ZM13,3.37l4.12,3.31L15.83,8,11.7,4.68ZM8.69,3.32,10,4.64,5.77,8,4.52,6.68ZM5.77,9.46,10,12.8,8.68,14.12,4.52,10.76Zm.46,4.12,2.55,2.06,1.5-1.56v3.85l-4-3.24Zm9.18,1.11-4,3.2V14.08l1.46,1.52,2.55-2v1.14Z"/></svg>