<svg id="Layer_1" data-name="Layer 1" xmlns="http://www.w3.org/2000/svg" viewBox="0 0 21.6 21.6"><path d="M16.97114,8.50862l.00287,7.67822a3.75174,3.75174,0,0,1-3.36511,3.58533,4.35637,4.35637,0,0,1-.497.02783,3.88918,3.88918,0,0,1-3.49805-2.13281l-3.226-6.19348a.49113.49113,0,1,1,.87115-.4538l3.22315,6.18774a2.90306,2.90306,0,0,0,3.01019,1.58881A2.76444,2.76444,0,0,0,15.99159,16.182l-.00287-7.6734a.49121.49121,0,0,1,.98242,0Zm-2.60766,4.81244a.491.491,0,0,0,.49121-.49121V7.73243a.49121.49121,0,0,0-.98242,0v5.09742A.49092.49092,0,0,0,14.36348,13.32106Zm-2.602-7.34626V12.875a.49124.49124,0,0,0,.98248,0V5.9748a.49124.49124,0,0,0-.98248,0ZM9.65077,6.963v5.912a.49124.49124,0,0,0,.98248,0V6.963a.49124.49124,0,0,0-.98248,0ZM3.10658,1.8a.71567.71567,0,1,0,.7157.71564A.71568.71568,0,0,0,3.10658,1.8Zm0,2.147a.71567.71567,0,1,0,.7157.7157A.7157.7157,0,0,0,3.10658,3.947Zm2.147,0a.71567.71567,0,1,0,.71564.7157A.7157.7157,0,0,0,5.25361,3.947Zm-2.147,2.147a.71567.71567,0,1,0,.7157.71563A.71568.71568,0,0,0,3.10658,6.094ZM7.40052,3.23134a.71567.71567,0,1,0-.71557-.7157A.71563.71563,0,0,0,7.40052,3.23134Zm0,2.147A.71567.71567,0,1,0,6.685,4.66267.71562.71562,0,0,0,7.40052,5.37831ZM5.25361,6.094a.71567.71567,0,1,0,.71564.71563A.71572.71572,0,0,0,5.25361,6.094ZM18.49342,3.23134a.71567.71567,0,1,0-.7157-.7157A.71562.71562,0,0,0,18.49342,3.23134Zm0,.71563a.71567.71567,0,1,0,.71564.7157A.71571.71571,0,0,0,18.49342,3.947Zm0,2.147a.71567.71567,0,1,0,.71564.71563A.71569.71569,0,0,0,18.49342,6.094ZM9.54762,3.23134a.71567.71567,0,1,0-.7157-.7157A.71562.71562,0,0,0,9.54762,3.23134Zm2.147,0a.71567.71567,0,1,0-.71563-.7157A.71567.71567,0,0,0,11.69459,3.23134ZM16.34639,1.8a.71567.71567,0,1,0,.71569.71564A.71567.71567,0,0,0,16.34639,1.8Zm0,1.78918a.71567.71567,0,1,0,.71569.7157A.71566.71566,0,0,0,16.34639,3.58918Z"/></svg>