<svg id="Layer_1" data-name="Layer 1" xmlns="http://www.w3.org/2000/svg" viewBox="0 0 21.6 21.6">
  <path d="M10.24944,4.19823V1.8h1.20211V4.19823ZM5.83015,3.2781l1.19613,2.08,1.04219-.60032-1.2021-2.0739ZM5.435,6.92068,3.343,5.71849,2.74876,6.76078l2.086,1.2021ZM4.19823,10.14836H1.8v1.19612H4.19823Zm-.92,5.63355L5.352,14.58578,4.75178,13.5481l-2.07391,1.196Zm2.457,2.49166,1.03769.59424,1.2021-2.0739-1.03769-.60032ZM10.14836,19.8h1.19612V17.40177H10.14836ZM13.542,16.84224l1.19612,2.0739,1.03769-.5958-1.196-2.07989Zm4.73763-.98494.59424-1.03621L16.8,13.619l-.60031,1.03622Zm-.87788-4.40575H19.8V10.24944H17.40177Zm1.52036-4.59126-.59572-1.03612-2.08,1.196.60179,1.04229Zm-3.05884-3.5218L14.82716,2.7367,13.625,4.81051l1.03621.60188Zm-5.07245,2.5202a4.93473,4.93473,0,1,1-4.93215,4.93215A4.94047,4.94047,0,0,1,10.79084,5.85869Zm.05892,1.13721v7.595a3.79786,3.79786,0,0,0,0-7.595Z"/>
</svg>
