<svg id="Layer_1" data-name="Layer 1" xmlns="http://www.w3.org/2000/svg" viewBox="0 0 21.6 21.6">
  <path d="M16.70071,9.82l.25-.16a1.21,1.21,0,0,0,.51-.77,1.18023,1.18023,0,0,0-.22-.84,1.20971,1.20971,0,0,0-.81-.52l.09-.06a1.2,1.2,0,0,0,.34-1.65,1.17,1.17,0,0,0-1.06-.52V1.82h-7.94V7.69a2.13987,2.13987,0,0,0-2-.48,1,1,0,0,0-.50946,1.31922L5.36069,8.55c.06.26.14.52.21.79a10.99588,10.99588,0,0,1,.37,1.56,7.67528,7.67528,0,0,1,0,1.51995V12.97a9.93062,9.93062,0,0,0,.19,2.06l-2,3.46.72.42,2.07-3.51a.93041.93041,0,0,0,.09-.4l-.08-.41a6.60993,6.60993,0,0,1-.16-1.59v-.54a6.0822,6.0822,0,0,0,0-1.64,13.5251,13.5251,0,0,0-.4-1.67l-.24-.81c0-.14-.06-.32,0-.36a1.44013,1.44013,0,0,1,1.33.55005,3.05916,3.05916,0,0,1,.34,1.06v4.93h5.8a2.52994,2.52994,0,0,1-2.17,2.1h-.18l-.42.75a8.44467,8.44467,0,0,0-.57,1.08c-.12.24-.24.51-.47.92l.73.41a9.75126,9.75126,0,0,0,.49-1,7.48523,7.48523,0,0,1,.54-1l.25-.45a3.3,3.3,0,0,0,2.64-2.87h1.36v-.07a1.94006,1.94006,0,0,0,1.1-.93,1.12019,1.12019,0,0,0,0-1.15,1.16007,1.16007,0,0,0-.38-.35l.2-.13a1.13012,1.13012,0,0,0,.50995-.76,1.1698,1.1698,0,0,0-.17-.91A1.29016,1.29016,0,0,0,16.70071,9.82Zm-.84-3.73h.05005a.37.37,0,0,1,.2.68l-1.18.75a.37166.37166,0,0,1-.41736-.615l.00738-.005,1.13-.75A.38946.38946,0,0,1,15.86069,6.09Zm-.85-3.48v3l-1,.63a1.21011,1.21011,0,0,0-.34,1.67005,1.16992,1.16992,0,0,0,.81.50994l-.09.06a1.2,1.2,0,0,0-.26,1.64,1.1697,1.1697,0,0,0,.36.34l-.25.16a1.2102,1.2102,0,0,0-.5.72h-5l-.08-8.73Zm-.61,10.38a1.1796,1.1796,0,0,0-.06.74h-5.68V12.14h2.37994v.8h1.59v-.8h1.17l.11005.22a1.08978,1.08978,0,0,0,.62994.42A1.52391,1.52391,0,0,0,14.40073,12.99Zm1.73.16a1.12,1.12,0,0,1-.73.55.26008.26008,0,0,1-.25-.1.29981.29981,0,0,1,0-.28,1.10025,1.10025,0,0,1,.31-.38,1.00017,1.00017,0,0,1,.4-.24.27.27,0,0,1,.27.12A.31.31,0,0,1,16.13071,13.15Zm.13-2-1.13.8a.39.39,0,0,1-.28,0,.36011.36011,0,0,1-.24-.16.37.37,0,0,1,.11-.50995l1.13-.75a.35945.35945,0,0,1,.2-.06.37994.37994,0,0,1,.31.16.35994.35994,0,0,1,.06.28A.37.37,0,0,1,16.26071,11.15Zm.18-2.13-1.13.8a.38.38,0,0,1-.52-.11.37.37,0,0,1,.11-.51l1.12-.75a.38.38,0,0,1,.52.06A.36994.36994,0,0,1,16.44071,9.02Z"/>
</svg>
