<?xml version="1.0" encoding="UTF-8"?><svg id="Layer_2" xmlns="http://www.w3.org/2000/svg" viewBox="0 0 38 38"><path d="m23.92099,15v5h-1.99248v-2l-4.20665-2.81494,17.27813-2.47803-4.68932-4.70703H9.97366v-3H3v9h6.97366v-4h19.51201l1.2881,1.29297-18.88084,2.70703h-.92303v6H3v9h2.98871c0,2.20923,1.78416,4,3.98495,4s3.98495-1.79077,3.98495-4h9.96238c0,2.20923,1.78416,4,3.98495,4s3.98495-1.79077,3.98495-4h2.98871v-9l-1.99248-5h-8.96614Zm-15.9398-3h-2.98871v-5h2.98871v5Zm4.98119,4h2.3854l4.58826,3.07031v.92969h-6.97366v-4Zm-2.98871,15c-1.09863,0-1.99248-.89722-1.99248-2s.89384-2,1.99248-2,1.99248.89722,1.99248,2-.89384,2-1.99248,2Zm17.93228,0c-1.09863,0-1.99248-.89722-1.99248-2s.89384-2,1.99248-2,1.99248.89722,1.99248,2-.89384,2-1.99248,2Zm-1.99248-9v-5h5.62475l1.34891,3.38525v6.61475h-1.54896c-.69039-1.19067-1.96098-2-3.43223-2s-2.74184.80933-3.43223,2h-11.06782c-.69039-1.19067-1.96098-2-3.43223-2s-2.74184.80933-3.43223,2h-1.54896v-5h20.92099Z"/></svg>