<?xml version="1.0" encoding="UTF-8"?><svg id="Layer_2" xmlns="http://www.w3.org/2000/svg" viewBox="0 0 38 38"><path d="m11.11213,10.11187c1.95597,0,3.54768-1.59541,3.54768-3.55593s-1.5917-3.55593-3.54768-3.55593-3.54768,1.59541-3.54768,3.55593,1.5917,3.55593,3.54768,3.55593Zm0-5.07991c.83842,0,1.52043.6836,1.52043,1.52397s-.68202,1.52397-1.52043,1.52397-1.52043-.6836-1.52043-1.52397.68202-1.52397,1.52043-1.52397Zm19.68137,15.7443h-11.57555v-6.75624h-2.66583c-.99339-2.01169-3.05101-3.40357-5.44315-3.40357-2.38205,0-4.43967,1.39189-5.43306,3.40357h-2.67592v16.2557h16.21796v-7.4675h10.73422l1.86509,1.8796-14.62656,9.77374v.53844h2.84828l14.96101-9.99722-4.2065-4.22652ZM11.10898,12.64841c1.20621,0,2.28065.5385,3.02057,1.37161h-6.03106c.73999-.83311,1.81442-1.37161,3.01049-1.37161Zm6.08173,15.59535H5.02724v-12.19178h12.16347v12.19178Z"/></svg>