<?xml version="1.0" encoding="UTF-8"?><svg id="Layer_2" xmlns="http://www.w3.org/2000/svg" viewBox="0 0 38 38"><path d="m35,24v-2h-8v-3h2c2.91998,0,5.45996-2.58002,6-6h-2.03003c-.46997,2.29999-2.13,4-3.96997,4h-2v-2.13c0-.73999-.41998-1.38-1.04999-1.67004-.27002-2.35999-1.72003-4.37-3.73004-5.40997,1.07001-.91998,1.76001-2.26001,1.76001-3.78003v-.00995c0-.34003-.03998-.68005-.09998-1h-2.08002c.10999.31995.17999.64996.17999,1.00995,0,1.65002-1.33997,2.99005-2.98999,2.99005s-3-1.34003-3-3c0-.35004.07001-.69.19-1h-2.09003c-.06.31995-.09998.65997-.09998,1v.00995c0,1.52002.70001,2.87006,1.78003,3.79004-2.01001,1.04999-3.45001,3.03998-3.72003,5.39996-.62.30005-1.04999.93005-1.04999,1.67004v2.13h-2c-1.84003,0-3.51001-1.70001-3.97003-4h-2.02997c.53998,3.41998,3.08997,6,6,6h2v3H3v2h8v3h-2c-2.91003,0-5.46002,2.58997-6,6h2.02997c.46002-2.30005,2.13-4,3.97003-4h2.25c.89001,3.44995,4.02002,6,7.75,6,2.20996,0,4.20996-.89001,5.65997-2.34003,1-1,1.73004-2.25,2.09003-3.65997h2.25c1.83997,0,3.51501,1.69995,3.98499,4h2.03003c-.54004-3.41003-3.09503-6-6.01501-6h-2v-3h8Zm-17,8.90997c-.34003-.06-.67999-.15002-1-.26001-1.70001-.59998-3.04999-1.95001-3.66003-3.64996-.21997-.62-.33997-1.30005-.33997-2v-12h5v17.90997Zm-3.90002-19.90997c.47003-2.28003,2.48999-4,4.90002-4s4.42999,1.71997,4.89996,4h-9.79999Zm10.90002,14c0,.69995-.12,1.38-.34003,2-.59998,1.69995-1.95001,3.04999-3.65997,3.64996-.32001.10999-.66003.20001-1,.26001V15h5v12Z"/></svg>