<svg id="Layer_1" data-name="Layer 1" xmlns="http://www.w3.org/2000/svg" viewBox="0 0 21.6 21.6">
  <path d="M16.59541,12.52565H13.5041v-1.116h3.09131Zm0,1.03723H13.5041v1.116h3.09131Zm0,2.15332H13.5041v1.116h3.09131ZM7.01,5.46644H5.89424v1.116H7.01Zm2.08154,0H7.97529v1.116H9.0915ZM7.01,8.05848H5.89424v1.116H7.01Zm2.08154,0H7.97529v1.116H9.0915ZM7.01,10.65053H5.89424v1.116H7.01Zm2.08154,0H7.97529v1.116H9.0915ZM7.01,13.24257H5.89424v1.116H7.01Zm2.08154,0H7.97529v1.116H9.0915ZM19.8,18.15541v1.116H1.8v-1.116h.94531V2.33339h9.49512V9.07411h6.69922v9.0813ZM11.12422,3.44935H3.861v14.688H6.37666V15.83449H8.60859v2.30285h2.51563Zm6.69922,6.74073H12.27607v7.94726h5.54737ZM16.1725,7.994h.936a3.81382,3.81382,0,0,0-3.814-3.81347v.93591A2.878,2.878,0,0,1,16.1725,7.994Zm-.916,0a1.96172,1.96172,0,0,0-1.96185-1.96142v.93591a1.02506,1.02506,0,0,1,1.02588,1.02429V7.994Zm2.76813-.00122V7.994h.936a5.6658,5.6658,0,0,0-5.666-5.6654v.93591A4.72913,4.72913,0,0,1,18.02461,7.99281Z"/>
</svg>
