<svg id="Layer_2" data-name="Layer 2" xmlns="http://www.w3.org/2000/svg" viewBox="0 0 21.6 21.6"><path d="M9.58623,13.983a1.31863,1.31863,0,0,0,.23937.85871,1.02064,1.02064,0,0,0,.8174.33034V13.1739a6.81036,6.81036,0,0,1-.67276-.21871,2.44912,2.44912,0,0,1-.60272-.33033,1.5468,1.5468,0,0,1-.43339-.50772,1.57911,1.57911,0,0,1-.16529-.75969,1.52451,1.52451,0,0,1,.1527-.69771,1.47616,1.47616,0,0,1,.41323-.50369,1.89825,1.89825,0,0,1,.59817-.30942,2.33674,2.33674,0,0,1,.71006-.10734v-.644h.35528v.644a2.434,2.434,0,0,1,.702.099,1.65,1.65,0,0,1,.57349.29707,1.42383,1.42383,0,0,1,.388.50369,1.6456,1.6456,0,0,1,.14463.71005h-.94136a.98665.98665,0,0,0-.21871-.644.837.837,0,0,0-.64806-.22275v1.74213q.37115.099.72668.231a2.45612,2.45612,0,0,1,.6274.33865,1.485,1.485,0,0,1,.60272,1.26313,1.9629,1.9629,0,0,1-.1527.80505,1.58916,1.58916,0,0,1-.41726.5697,1.83572,1.83572,0,0,1-.61884.34671,2.73724,2.73724,0,0,1-.768.13632v.644H10.643v-.644a2.5769,2.5769,0,0,1-.8174-.14035,1.8232,1.8232,0,0,1-.63546-.37569,1.63818,1.63818,0,0,1-.4087-.59868,2.056,2.056,0,0,1-.13606-.81739ZM10.643,10.48235a1.11638,1.11638,0,0,0-.68939.18571.73584.73584,0,0,0-.24341.62337.65709.65709,0,0,0,.08265.3384.82768.82768,0,0,0,.21065.23962,1.097,1.097,0,0,0,.29732.161,3.01419,3.01419,0,0,0,.34218.10306Zm.35528,4.68968a1.2949,1.2949,0,0,0,.73071-.26.86856.86856,0,0,0,.28473-.7224.79294.79294,0,0,0-.08668-.38828.82469.82469,0,0,0-.23131-.26407,1.27417,1.27417,0,0,0-.326-.17335q-.18143-.06615-.3714-.11566ZM16.425,2.925v15.75H5.175V2.925h11.25M17.55,1.8H4.05v18h13.5V1.8Zm-4.5,3.383a.5625.5625,0,0,1,0,1.125H8.55a.5625.5625,0,1,1,0-1.125h4.5m0-1.125H8.55a1.6875,1.6875,0,0,0,0,3.375h4.5a1.6875,1.6875,0,0,0,0-3.375Z"/></svg>