<?xml version="1.0" encoding="UTF-8"?><svg id="Layer_1" xmlns="http://www.w3.org/2000/svg" viewBox="0 0 38 38"><path d="m29.00012,28h-.00024V3H8.99988v32h20v-5h.00024v-2Zm-2.00024-23v23H10.99988V5h16Zm0,28H10.99988v-3h6.00024v2h4v-2h5.99976v3Zm-11.79028-12.5495h-2.20312v-8.90363h2.20312v8.90363Zm8.21558-.80896c1.05542-.88251,1.54517-2.25162,1.54517-3.58685,0-2.27603-1.38818-4.24921-3.62915-4.48578-.16357-.01727-.32788-.0246-.49243-.02203h-3.79883v8.90363h3.66162c.96899.03705,1.9231-.24738,2.71362-.80896Zm-4.17017-1.04688v-5.2049h1.31934c1.38208,0,2.16675,1.04602,2.16675,2.66492,0,1.63104-.74634,2.53992-2.19092,2.53992l-1.29517.00006Z"/></svg>