<svg id="Layer_2" data-name="Layer 2" xmlns="http://www.w3.org/2000/svg" viewBox="0 0 21.6 21.6">
  <path d="M6.08406,13.87082a18.54029,18.54029,0,0,1-4.2793-8.9613l3.76379-3.1123L9.8932,6.12766,8.65577,8.62925a15.75087,15.75087,0,0,0,1.09656,1.44238l-.78271.81067a16.78414,16.78414,0,0,1-1.251-1.63062l-.3587-.5401.28747-.58117L8.52717,6.3519,5.49623,3.31681l-2.45612,2.031a17.41892,17.41892,0,0,0,3.82361,7.71546Zm9.38659-2.1582-2.50317,1.23419c-.26123-.17407-.50928-.37121-.76123-.56158l-.7868.81451c.30322.23322.60376.46967.92425.68323l.53967.35962.58161-.28674,1.77966-.87745,3.03088,3.035-2.03424,2.45343a17.52321,17.52321,0,0,1-6.91943-3.19556l-.7829.81043a18.65582,18.65582,0,0,0,8.139,3.62109l3.11731-3.75971Zm.69263-6.662L3.3293,18.33963l.80957.78125,12.833-13.28906Z"/>
</svg>
