<?xml version="1.0" encoding="UTF-8"?><svg id="Layer_1" xmlns="http://www.w3.org/2000/svg" viewBox="0 0 38 38"><path d="m7.50281,14.00122l1.99951.00391c.00391-.46082.16158-4.50281,4.4989-4.50281l.00391-1.99951c-.46082-.00391-4.50281-.16158-4.50281-4.4989l-1.99951-.00391c-.00391.46082-.16158,4.50281-4.4989,4.50281l-.00391,1.99951c.46082.00391,4.50281.16158,4.50281,4.4989Zm.96949-7.34196c.50427.78936,1.1628,1.38052,1.87357,1.81303-.78936.50427-1.38052,1.1628-1.81303,1.87357-.50427-.78936-1.1628-1.38052-1.87357-1.81303.78936-.50427,1.38052-1.1628,1.81303-1.87357Zm22.0249,17.33952l-1.99951-.00391c-.00391.46082-.16158,4.50281-4.4989,4.50281l-.00391,1.99951c.46082.00391,4.50281.16109,4.50281,4.4989l1.99951.00391c.00391-.46082.16158-4.50281,4.4989-4.50281l.00391-1.99951c-.46082-.00391-4.50281-.16109-4.50281-4.4989Zm-.96949,7.34196c-.50427-.78985-1.1628-1.38052-1.87357-1.81303.78936-.50378,1.38052-1.1628,1.81303-1.87357.50427.78985,1.1628,1.38052,1.87357,1.81303-.78936.50378-1.38052,1.1628-1.81303,1.87357Zm.64919-28.31767L3.02599,30.17391l4.7929,4.7929L34.96973,7.81596l-4.79284-4.7929Zm1.96516,4.7929l-3.21144,3.21144-1.96534-1.96504,3.21156-3.21156,1.96522,1.96516ZM5.85373,30.17391L25.55156,10.47608l1.96534,1.96504L7.81889,32.13907l-1.96516-1.96516Z"/></svg>