<?xml version="1.0" encoding="UTF-8"?><svg id="Layer_1" xmlns="http://www.w3.org/2000/svg" viewBox="0 0 38 38"><path d="m19,3C10.16345,3,3,10.16345,3,19s7.16345,16,16,16,16-7.16345,16-16S27.83655,3,19,3Zm13.3999,20.04053l-8.37402-8.37402h8.27948c.44611,1.36603.69464,2.82043.69464,4.3335,0,1.40497-.21326,2.76013-.6001,4.04053Zm-9.06641-1.84229l-2.13489,2.13477h-4.40369l-2.12842-2.12842v-4.38379l2.15417-2.1543h4.37708l2.13574,2.13574v4.396Zm8.13556-8.53174h-12.64844l6.25818-6.25842c2.75281,1.33447,5.00208,3.53687,6.39026,6.25842Zm-8.41412-7.06274l-8.38843,8.38885V5.69464c1.36603-.44611,2.82043-.69464,4.3335-.69464,1.41016,0,2.77032.21411,4.05493.60376Zm-10.38843.92719v12.67365l-6.26654-6.26654c1.33368-2.76031,3.53949-5.01611,6.26654-6.4071Zm-7.06781,8.43396l8.3681,8.3681H5.69446c-.44598-1.36591-.69446-2.82013-.69446-4.33301,0-1.40302.21289-2.75623.59869-4.0351Zm.93201,10.3681h12.66785l-6.26514,6.26483c-2.75842-1.33398-5.01251-3.53906-6.40271-6.26483Zm8.42877,7.06696l8.37402-8.37366v8.27905c-1.36603.44611-2.82043.69464-4.3335.69464-1.40497,0-2.76013-.2132-4.04053-.60004Zm10.37402-.93091v-12.66681l6.26434,6.26434c-1.33392,2.7583-3.53882,5.01227-6.26434,6.40247Z"/></svg>