<?xml version="1.0" encoding="utf-8"?>
<!-- Generator: Adobe Illustrator 24.0.1, SVG Export Plug-In . SVG Version: 6.00 Build 0)  -->
<svg version="1.1" id="Layer_1" xmlns="http://www.w3.org/2000/svg" xmlns:xlink="http://www.w3.org/1999/xlink" x="0px" y="0px"
	 viewBox="0 0 21.6 21.6" style="enable-background:new 0 0 21.6 21.6;" xml:space="preserve">
<path d="M13.3,6.2c-1.4-1.4-3.6-1.4-4.9,0l0,0L7.5,5.4c1.8-1.8,4.7-1.8,6.5,0L13.3,6.2z M9.1,7l0.8,0.8c0.5-0.5,1.3-0.5,1.8,0
	L12.5,7l0,0C11.5,6,10.1,6,9.1,7z M6.8,4.6c2.2-2.2,5.9-2.2,8.1,0l0.8-0.8l0,0c-2.7-2.7-7-2.7-9.7,0l0,0L6.8,4.6L6.8,4.6z
	 M16.4,19.8h-1.2l-0.6-1.4l-3.8-3.5L7,18.4l-0.6,1.4H5.2l5.1-11.3h1L16.4,19.8z M10,14.1l-0.7-0.7l-1,2.3L10,14.1z M11.8,12.4
	l-1-2.3l-1,2.3l1,1L11.8,12.4z M13.4,15.7l-1-2.3l-0.7,0.7L13.4,15.7z"/>
</svg>
