<?xml version="1.0" encoding="utf-8"?>
<!-- Generator: Adobe Illustrator 27.2.0, SVG Export Plug-In . SVG Version: 6.00 Build 0)  -->
<svg version="1.1" id="Layer_1" xmlns="http://www.w3.org/2000/svg" xmlns:xlink="http://www.w3.org/1999/xlink" x="0px" y="0px"
	 viewBox="0 0 38 38" style="enable-background:new 0 0 38 38;" xml:space="preserve">
<path d="M28.4,22c-3.5,0-6.3,2.8-6.3,6.3s2.8,6.3,6.3,6.3c3.5,0,6.3-2.8,6.3-6.3S31.9,22,28.4,22z M28.4,24.1c2,0,3.7,1.4,4.1,3.3
	l-8.2,0C24.7,25.5,26.4,24.1,28.4,24.1z M28.4,32.6c-2,0-3.6-1.4-4.1-3.2l8.2,0C32,31.2,30.4,32.6,28.4,32.6L28.4,32.6z M27.3,18.8
	c0,1.2-0.9,2.1-2.1,2.1s-2.1-0.9-2.1-2.1c0-1.2,0.9-2.1,2.1-2.1S27.3,17.7,27.3,18.8z M19,3C10.2,3,3,10.2,3,19c0,3.3,1,6.5,2.8,9
	L3,35l7-2.8c2.6,1.8,5.7,2.8,9,2.8c1.3,0,2.5-0.2,3.6-0.4c-0.6-0.5-1.1-1.2-1.5-1.9c-0.7,0.1-1.4,0.2-2.1,0.2
	c-2.8,0-5.5-0.8-7.8-2.4l-0.9-0.6l-1,0.4l-2.4,1l1-2.4l0.4-1l-0.6-0.9c-1.6-2.3-2.4-5-2.4-7.8c0-7.7,6.2-13.9,13.9-13.9
	S32.9,11.3,32.9,19c0,0.7-0.1,1.4-0.2,2.1c0.7,0.4,1.3,0.9,1.9,1.5c0.3-1.2,0.4-2.4,0.4-3.6C35,10.2,27.8,3,19,3z M16.7,18.8
	c0,1.2,0.9,2.1,2.1,2.1S21,20,21,18.8c0-1.2-0.9-2.1-2.1-2.1S16.7,17.7,16.7,18.8z M10.4,18.8c0,1.2,0.9,2.1,2.1,2.1
	c1.2,0,2.1-0.9,2.1-2.1c0-1.2-0.9-2.1-2.1-2.1C11.3,16.7,10.4,17.7,10.4,18.8z"/>
</svg>
