<svg id="Layer_1" data-name="Layer 1" xmlns="http://www.w3.org/2000/svg" viewBox="0 0 21.6 21.6"><path d="M10.939,6.573l-.00879,5.59918L9.80519,12.17,9.814,6.57081ZM7.49916,5.62764l-.00165,6.54345h1.125l.00165-6.54345Zm-1.18927.94372-1.125.0011.00494,5.59918,1.125-.0011Zm5.48932,9.19007A2.91686,2.91686,0,0,1,6.21815,16.9485l-3.4129-6.79065L1.8,10.66322l3.41565,6.79614A4.0715,4.0715,0,0,0,8.884,19.8a4.4881,4.4881,0,0,0,.57019-.03735,4.062,4.062,0,0,0,3.47-4.00122V7.51619h-1.125ZM16.70942,4.9593c-2.81451,0-5.62933-1.81866-8.44384-1.81866A5.52784,5.52784,0,0,0,5.175,4.05V5.175H6.3V4.70363a4.36708,4.36708,0,0,1,1.96558-.438,13.14034,13.14034,0,0,1,3.876.85492,14.9816,14.9816,0,0,0,4.56781.96374A6.78961,6.78961,0,0,0,18.675,5.805v8.84137a4.36783,4.36783,0,0,1-1.96558.43793,9.27236,9.27236,0,0,1-2.53442-.44238V15.8083a9.7318,9.7318,0,0,0,2.53442.401A5.52823,5.52823,0,0,0,19.8,15.3V4.05A5.52632,5.52632,0,0,1,16.70942,4.9593Z"/></svg>