<svg id="Layer_1" data-name="Layer 1" xmlns="http://www.w3.org/2000/svg" viewBox="0 0 21.6 21.6">
  <path d="M17.55049,4.03853H4.04951A2.24891,2.24891,0,0,0,1.80342,6.28462v9.03076a2.24891,2.24891,0,0,0,2.24609,2.24609h13.501a2.24891,2.24891,0,0,0,2.24609-2.24609V6.28462A2.24891,2.24891,0,0,0,17.55049,4.03853ZM7.78193,13.9687a2.68456,2.68456,0,0,1-2.7832-2.811A2.67293,2.67293,0,0,1,7.74482,8.33735a2.311,2.311,0,0,1,2.4834,1.97022H8.72529a.93983.93983,0,0,0-.96191-.80322c-.78418,0-1.19531.6538-1.19531,1.65332,0,.9624.41113,1.63427,1.19531,1.63427a.96434.96434,0,0,0,1.00879-.97119h1.49414A2.28765,2.28765,0,0,1,7.78193,13.9687Zm6.30664,0a2.68456,2.68456,0,0,1-2.7832-2.811,2.67216,2.67216,0,0,1,2.74512-2.82032,2.31137,2.31137,0,0,1,2.48437,1.97022H15.031a.93916.93916,0,0,0-.96192-.80322c-.78418,0-1.19531.6538-1.19531,1.65332,0,.9624.41113,1.63427,1.19531,1.63427a.96327.96327,0,0,0,1.00879-.97119H16.572A2.28673,2.28673,0,0,1,14.08857,13.9687Z"/>
</svg>
