<svg id="Layer_1" data-name="Layer 1" xmlns="http://www.w3.org/2000/svg" viewBox="0 0 21.6 21.6">
  <path d="M17.55,4.05H4.05A2.25,2.25,0,0,0,1.8,6.3v9a2.25,2.25,0,0,0,2.25,2.25h13.5A2.25,2.25,0,0,0,19.8,15.3v-9A2.25,2.25,0,0,0,17.55,4.05ZM18.8,15.3a1.25139,1.25139,0,0,1-1.25,1.25H4.05A1.25139,1.25139,0,0,1,2.8,15.3v-9A1.25139,1.25139,0,0,1,4.05,5.05h13.5A1.25139,1.25139,0,0,1,18.8,6.3ZM8.77363,11.81563h1.49414A2.28729,2.28729,0,0,1,7.7834,13.96309a2.68433,2.68433,0,0,1-2.78272-2.81055A2.67254,2.67254,0,0,1,7.74629,8.33223a2.31121,2.31121,0,0,1,2.48389,1.97021H8.72676a.93917.93917,0,0,0-.96192-.80322c-.78418,0-1.19531.65381-1.19531,1.65332,0,.96191.41113,1.63379,1.19531,1.63379A.96369.96369,0,0,0,8.77363,11.81563Zm6.30274,0h1.49414a2.287,2.287,0,0,1-2.48438,2.14746,2.6846,2.6846,0,0,1-2.78271-2.81055A2.67254,2.67254,0,0,1,14.049,8.33223a2.31138,2.31138,0,0,1,2.48438,1.97021H15.02949a.93916.93916,0,0,0-.96191-.80322c-.78418,0-1.19531.65381-1.19531,1.65332,0,.96191.41113,1.63379,1.19531,1.63379A.96316.96316,0,0,0,15.07637,11.81563Z"/>
</svg>
