<?xml version="1.0" encoding="utf-8"?>
<!-- Generator: Adobe Illustrator 24.0.1, SVG Export Plug-In . SVG Version: 6.00 Build 0)  -->
<svg version="1.1" id="Layer_1" xmlns="http://www.w3.org/2000/svg" xmlns:xlink="http://www.w3.org/1999/xlink" x="0px" y="0px"
	 viewBox="0 0 21.6 21.6" style="enable-background:new 0 0 21.6 21.6;" xml:space="preserve">
<path d="M16.4,1.8H6.3v4.9C6.6,6.5,7,6.3,7.4,6.1V2.9h7.3v3.9h3.9v11.8H7.4V17H6.3v2.8h13.5V5.2L16.4,1.8z M18.6,5.7h-2.8V2.9h0.1
	L18.6,5.7L18.6,5.7z M14.9,13c0-1.4-1.1-2.5-2.5-2.5c0-1.8-1.5-3.3-3.3-3.3c-1.3,0-2.4,0.7-3,1.9c-1.7-0.6-3.6,0.2-4.2,1.9
	s0.2,3.6,1.9,4.2c0.4,0.1,0.8,0.2,1.1,0.2h7.3C13.8,15.5,14.9,14.4,14.9,13z M3,12.2c0-1.2,0.9-2.1,2.1-2.1c0.3,0,0.5,0,0.8,0.1
	l1,0.4l0.4-0.9c0.5-1.1,1.8-1.5,2.8-1c0.7,0.3,1.2,1.1,1.2,1.9v1.1h1.1c0.7,0,1.3,0.6,1.3,1.3c0,0.7-0.6,1.3-1.3,1.3H5.1
	C3.9,14.3,3,13.4,3,12.2C3,12.2,3,12.2,3,12.2z"/>
</svg>
