<?xml version="1.0" encoding="utf-8"?>
<!-- Generator: Adobe Illustrator 24.0.1, SVG Export Plug-In . SVG Version: 6.00 Build 0)  -->
<svg version="1.1" id="Layer_1" xmlns="http://www.w3.org/2000/svg" xmlns:xlink="http://www.w3.org/1999/xlink" x="0px" y="0px"
	 viewBox="0 0 21.6 21.6" style="enable-background:new 0 0 21.6 21.6;" xml:space="preserve">
<path d="M11.9,6.3c1.9,0,3.4,1.5,3.4,3.4v1.1h1.1c1.3,0,2.3,1,2.3,2.3s-1,2.3-2.3,2.3H6.3c-1.9,0-3.4-1.5-3.4-3.4s1.5-3.4,3.4-3.4
	c0.4,0,0.8,0.1,1.2,0.2l1,0.4l0.4-0.9C9.4,7,10.6,6.3,11.9,6.3 M11.9,5.2c-1.7,0-3.3,1-4.1,2.6C5.5,6.9,3,8.1,2.1,10.4
	s0.3,4.9,2.6,5.8c0.5,0.2,1,0.3,1.6,0.3h10.1c1.9,0,3.4-1.5,3.4-3.4s-1.5-3.4-3.4-3.4C16.4,7.2,14.4,5.2,11.9,5.2L11.9,5.2z"/>
</svg>
