<svg id="Ebene_1" data-name="Ebene 1" xmlns="http://www.w3.org/2000/svg" viewBox="0 0 21.6 21.6"><path d="M19.8,9.6A3.37,3.37,0,0,1,16.4,13H13.8v4.6l1.8-1.8.8.8-3.2,3.2L10,16.6l.8-.8,1.8,1.7V11.8h3.8a2.2,2.2,0,1,0,0-4.4H15.3V6.3a3.37,3.37,0,0,0-3.4-3.4,3.29,3.29,0,0,0-3,1.9l-.4.9-1-.4a5,5,0,0,0-1.2-.2,3.4,3.4,0,1,0,0,6.8H9v-3L7.1,10.8,6.3,10,9.5,6.8,12.7,10l-.8.8L10.1,8.9v4.2H6.3A4.48,4.48,0,0,1,1.8,8.6,4.42,4.42,0,0,1,6.3,4.1a4.15,4.15,0,0,1,1.6.3,4.27,4.27,0,0,1,4-2.6,4.48,4.48,0,0,1,4.5,4.5A3.29,3.29,0,0,1,19.8,9.6Z"/></svg>