<?xml version="1.0" encoding="UTF-8"?><svg id="Layer_1" xmlns="http://www.w3.org/2000/svg" viewBox="0 0 38 38"><path d="m27.01807,5l-16.02637.03186-7.9917,13.96814,7.9917,14h16.02637l7.98193-14-7.98193-14Zm-1.16187,26h-13.70337l-6.84937-11.99884,6.84937-11.97162,13.70459-.02722,6.84033,11.99768-6.84155,12Zm-4.8562-12.00012v.00018c0,1.10455-.89551,1.99994-2,1.99994-1.10474-.00006-2-.89551-2-2.00012,0-1.10455.89551-1.99994,2-1.99988,1.10449,0,2,.89539,2,1.99988Zm-2-9.49988c-5.24683,0-9.5,4.2533-9.5,9.5s4.25317,9.5,9.5,9.5,9.5-4.2533,9.5-9.5-4.25342-9.5-9.5-9.5Zm0,17c-4.1355,0-7.5-3.3645-7.5-7.5s3.3645-7.5,7.5-7.5,7.5,3.3645,7.5,7.5-3.3645,7.5-7.5,7.5Z"/></svg>