<svg id="Layer_1" data-name="Layer 1" xmlns="http://www.w3.org/2000/svg" viewBox="0 0 21.6 21.6">
  <path d="M6.71992,5.09736A.696.696,0,0,0,6.717,4.10908l-.45605-.45556.7959-.7959.45166.45166a1.82,1.82,0,0,1,.02441,2.5664.7062.7062,0,0,0-.05029,1.01123l.67871.67774-.7959.7959L6.7126,7.70771A1.83242,1.83242,0,0,1,6.71992,5.09736Zm5.66992,1.27539a1.842,1.842,0,0,0,.55274,1.33887l.666.65283.78711-.80371-.68652-.67431a.70392.70392,0,0,1,.0498-1.01075,1.81707,1.81707,0,0,0-.01953-2.56L13.301,2.864l-.80664.78321.44824.4624a.69545.69545,0,0,1,.00293.98779A1.80514,1.80514,0,0,0,12.38984,6.37275Zm-2.70361,1.062.65283.86621.89844-.67676-.63916-.84717a1.56822,1.56822,0,0,1,0-1.771,2.70122,2.70122,0,0,0-.01172-3.06494l-.439-.59033-.90235.6709.42725.57471a1.56568,1.56568,0,0,1,0,1.7705A2.70425,2.70425,0,0,0,9.68623,7.43477ZM13.469,19.12422H17.6291v1.125H1.90156v-1.125H5.70912a6.5795,6.5795,0,0,1-1.86176-1.60645,7.21794,7.21794,0,0,1-1.46972-4.47461V10.343A1.169,1.169,0,0,1,3.54512,9.17549H15.65547a1.16947,1.16947,0,0,1,1.168,1.16748v1.38769h.2539a2.60212,2.60212,0,1,1,.002,5.20411H15.73274a6.32443,6.32443,0,0,1-.379.583A6.4952,6.4952,0,0,1,13.469,19.12422Zm3.35443-6.26856v.1875a7.63456,7.63456,0,0,1-.52661,2.76661h.78149a1.47717,1.47717,0,1,0-.001-2.95411ZM14.4709,16.82051a6.08959,6.08959,0,0,0,1.22754-3.77735l-.043-2.74267H3.54512l-.04248,2.74267a6.09019,6.09019,0,0,0,1.227,3.77735A5.92815,5.92815,0,0,0,9.279,19.008c.002,0,.41211.01855.63379,0A6.05612,6.05612,0,0,0,14.4709,16.82051Z"/>
</svg>
