<svg xmlns="http://www.w3.org/2000/svg" viewBox="0 0 21.6 21.6">
  <g id="Layer_2" data-name="Layer 2">
    <path d="M9.68762,8.60442l.63507-.55707-.189-.42785-.80939.08929a1.75219,1.75219,0,0,0-.16809-.18494l.12738-.82745-.41986-.20654-.56146.58807a1.74955,1.74955,0,0,0-.248-.03149L7.619,6.32933l-.45435.11152-.05188.80706a1.76329,1.76329,0,0,0-.22442.135l-.78009-.26483-.27643.37732.47565.64722a1.77134,1.77134,0,0,0-.076.24957l-.7735.30145.0307.46662.78436.19067a1.77265,1.77265,0,0,0,.09583.244l-.39655.72314.32367.3382.71839-.35559a1.776,1.776,0,0,0,.23407.116l.16223.81579.465.05029.3274-.74585c.05316-.00805.106-.00939.1593-.02252.0299-.00732.05591-.02142.085-.03015l.65271.52387.38879-.26044-.22747-.778A1.7848,1.7848,0,0,0,9.411,9.76873l.83911-.01856.13056-.44946L9.699,8.8463A1.73388,1.73388,0,0,0,9.68762,8.60442Zm-1.4613,1.356a1.19478,1.19478,0,1,1,.87561-1.44513A1.195,1.195,0,0,1,8.22632,9.96038Zm4.74652-1.691.26331-.24695-.27381-.56934a1.34374,1.34374,0,0,0,.08753-.165l.6402-.12006.04266-.35816-.57208-.25872a1.35692,1.35692,0,0,0-.03888-.18879l.4096-.499-.19738-.302-.60364.16962a1.33846,1.33846,0,0,0-.15216-.11835l-.007-.64679-.34528-.10449-.3515.515a1.36621,1.36621,0,0,0-.2019.00147l-.41358-.48218-.3316.14172.06128.61634a1.356,1.356,0,0,0-.1485.13574l-.63171-.10394-.16291.32171.4455.43463a1.36989,1.36989,0,0,0-.03229.19959l-.54724.324.08191.35151.61639.04638a1.37107,1.37107,0,0,0,.10968.16883l-.21283.605.2887.21606.51025-.36627c.03846.01562.074.0354.11457.04767.02264.0069.04553.00769.06823.01336l.2273.60407.36029-.02008.15472-.60559a1.3685,1.3685,0,0,0,.17817-.07453Zm-1.42529-.6557A.92126.92126,0,1,1,12.69623,6.999.92136.92136,0,0,1,11.54755,7.6137Zm6.8338,4.01922c-.165.522-.792.74366-1.30664.86182a.87515.87515,0,0,0,0,.125,14.87852,14.87852,0,0,1-.13086,3.27539,1.58042,1.58042,0,0,1-1.53516,1.27051,9.13451,9.13451,0,0,1-1.11718-.03223.51488.51488,0,0,0-.499.23535,4.22649,4.22649,0,0,0-.35,2.28156l-1.1236-.34052a4.997,4.997,0,0,1,.50678-2.51623,1.63258,1.63258,0,0,1,1.55957-.78125,7.62286,7.62286,0,0,0,.97265.03027c.21-.00976.44531-.13184.47461-.32031a13.80253,13.80253,0,0,0,.11914-3.03223,1.31476,1.31476,0,0,1,.27246-.98779.83987.83987,0,0,1,.56543-.29,2.47467,2.47467,0,0,0,.3877-.11377L15.68408,8.89074a1.14378,1.14378,0,0,1-.125-.96729A3.59826,3.59826,0,0,0,14.9917,6.0299a5.64943,5.64943,0,0,0-3.7168-2.77051,6.91958,6.91958,0,0,0-3.6289.15039A4.09593,4.09593,0,0,0,5.41748,4.92833a6.31436,6.31436,0,0,0-1.09961,4.125,5.01857,5.01857,0,0,0,1.084,3.041c.7276,1.04327,1.47766,2.1264.834,5.372l-1.08526-.32892c.51318-2.67889-.00739-3.44727-.67157-4.39954a6.103,6.103,0,0,1-1.28418-3.623A7.41714,7.41714,0,0,1,4.50537,4.27062,5.2218,5.2218,0,0,1,7.34229,2.32677a7.98329,7.98329,0,0,1,4.18554-.16211A6.64508,6.64508,0,0,1,15.98389,5.5006c.1543.26953.97461,1.793.64062,2.7832L18.25342,10.899A.81507.81507,0,0,1,18.38135,11.63292Z"/>
  </g>
</svg>
