<svg id="Layer_1" data-name="Layer 1" xmlns="http://www.w3.org/2000/svg" viewBox="0 0 21.6 21.6">
  <path d="M10.8,1.80006a8.99994,8.99994,0,1,0,9,9A8.96258,8.96258,0,0,0,10.8,1.80006Zm0,16.9a7.9,7.9,0,1,1,7.9-7.9A7.91668,7.91668,0,0,1,10.8,18.7Zm.3877-8.72369V6.56764a1.8582,1.8582,0,0,1,1.88085,1.64062H14.215c-.21289-1.52734-1.11816-2.43262-3.02734-2.58838V4.84205h-.792v.77783c-1.81054.0708-3.041,1.0752-3.041,2.645,0,1.79639,1.30127,2.27735,3.041,2.65918v3.66358A2.26892,2.26892,0,0,1,8.09,12.282H6.90156c.0708,1.62695,1.04688,3.11231,3.49414,3.26758v1.20215h.792V15.56324c1.85253-.1123,3.25293-1.11719,3.25293-2.82812C14.44063,10.8108,13.04023,10.35816,11.1877,9.97633Zm-.792-.15528c-1.31543-.29736-1.92382-.70752-1.92382-1.61279,0-1.00439.77783-1.55566,1.92382-1.65478Zm.792,4.78125V11.10816c1.35839.29688,2.09375.62207,2.09375,1.669A1.98248,1.98248,0,0,1,11.1877,14.6023Z"/>
</svg>
