<?xml version="1.0" encoding="utf-8"?>
<!-- Generator: Adobe Illustrator 24.0.1, SVG Export Plug-In . SVG Version: 6.00 Build 0)  -->
<svg version="1.1" id="Ebene_1" xmlns="http://www.w3.org/2000/svg" xmlns:xlink="http://www.w3.org/1999/xlink" x="0px" y="0px"
	 viewBox="0 0 21.6 21.6" style="enable-background:new 0 0 21.6 21.6;" xml:space="preserve">
<path d="M19.7,7.9c0-1.8-1.5-3.4-3.3-3.4S13,6,13,7.9c0,1.5,1,2.8,2.5,3.2L4.2,9.6c1.2-0.1,2.2-1.1,2.1-2.3c0-1.2-1-2.2-2.3-2.2
	C2.8,5.2,1.9,6.2,1.9,7.5c0,0.9,0.7,1.8,1.6,2l-1-0.1l-0.1,1.1l8.2,1.1L7.5,17h6.7l-3.1-5.4l8,1.1l0.1-1.1l-2.8-0.4
	C18.2,11.2,19.7,9.7,19.7,7.9z M14.1,7.9c0-1.2,1-2.2,2.2-2.2s2.2,1,2.2,2.2s-1,2.2-2.2,2.2l0,0C15.1,10.1,14.1,9.1,14.1,7.9z
	 M3,7.4c0-0.6,0.5-1.1,1.1-1.1s1.1,0.5,1.1,1.1S4.7,8.5,4.1,8.5l0,0C3.5,8.5,3,8,3,7.4z M9.4,15.9l1.4-2.4l1.4,2.4H9.4z"/>
</svg>
