<?xml version="1.0" encoding="utf-8"?>
<!-- Generator: Adobe Illustrator 24.0.1, SVG Export Plug-In . SVG Version: 6.00 Build 0)  -->
<svg version="1.1" id="Layer_1" xmlns="http://www.w3.org/2000/svg" xmlns:xlink="http://www.w3.org/1999/xlink" x="0px" y="0px"
	 viewBox="0 0 21.6000004 21.6000004" style="enable-background:new 0 0 21.6000004 21.6000004;" xml:space="preserve">
<path d="M17.7521496,11.3628702c0.0283203-0.3747473,0.0273399-0.7511339-0.0029297-1.1257296l2.04883-1.51758l-1.1640491-2.8100605
	l-2.522459,0.375c-0.2432222-0.2871814-0.5095739-0.5539446-0.79638-0.7976098l0.375-2.5211201L12.8810501,1.80159
	l-1.5185499,2.04883c-0.3747606-0.0296683-0.7512932-0.0293341-1.1260004,0.0009999L8.717,1.80159L5.90693,2.96577
	l0.3759999,2.5221002C5.9956498,5.7309923,5.7289553,5.9974427,5.48557,6.2845001l-2.52-0.3759999L1.8,8.7195597l2.0478499,1.51758
	c-0.0294523,0.3750458-0.0291181,0.7518368,0.0009999,1.1268301L1.8,12.8814201L2.96455,15.6914806l2.5220003-0.3760004
	c0.2434011,0.2870016,0.5097427,0.553731,0.7963901,0.7975492l-0.375,2.5211201l2.81006,1.1642609l1.5184898-2.04772
	c0.3747187,0.0307598,0.7513428,0.0303917,1.1260004-0.0011005L12.882,19.7984104l2.8101196-1.1641808l-0.3760004-2.522089
	c0.2875319-0.2433434,0.554697-0.5097771,0.7988291-0.7966404l2.5209999,0.375l1.1640511-2.81005L17.7521496,11.3628702z
	 M17.9044895,14.4050999l-2.29-0.3408203L15.4064894,14.33675c-0.308917,0.4015293-0.6690979,0.7608652-1.0713501,1.06884
	l-0.2734404,0.2092304l0.3417997,2.2912598l-1.1289101,0.4681396l-1.37988-1.86133l-0.3393602,0.0455303
	c-0.502655,0.0667152-1.011899,0.0670853-1.5146503,0.0011005l-0.3393278-0.0455208l-1.3789101,1.86022l-1.1289101-0.4681396
	L7.53438,15.6159201l-0.2734399-0.2092304c-0.4014659-0.3088284-0.7607989-0.6688576-1.06885-1.07092l-0.2084999-0.27246
	l-2.29,0.3417902l-0.4682701-1.1289997l1.8613298-1.3786697l-0.0454102-0.3406897
	c-0.066247-0.5019121-0.0665832-1.0103312-0.0009999-1.5123301L5.08565,9.7037106L3.2252901,8.3249998l0.46826-1.1291499
	l2.29,0.3408198l0.2084999-0.27246c0.3088026-0.4014525,0.6688046-0.7607756,1.0708399-1.0688195l0.2734399-0.2092299
	L7.1945295,3.6939204l1.1289101-0.4681399l1.37988,1.8613296l0.3398399-0.0445499
	c0.5022078-0.0661321,1.0108957-0.0664682,1.5131903-0.0009999L11.8961897,5.08599l1.3784199-1.86023l1.1289101,0.4681401
	l-0.3408194,2.2901797l0.2734299,0.2092299c0.4015045,0.3089523,0.7609844,0.6689672,1.0693398,1.07093l0.2080002,0.27246
	l2.2910004-0.3408198l0.4682789,1.1291199l-1.8613186,1.3786898l0.0444298,0.3407001
	c0.066246,0.5022364,0.0665817,1.0109768,0.0009995,1.5132999L16.5114498,11.89851l1.8613205,1.3786602L17.9044895,14.4050999z
	 M13.4826193,11.2425098l-0.6362295,0.6362305c-1.1302519-1.1295776-2.962038-1.1295776-4.0922899,0l-0.6362295-0.6362305
	C9.5993738,9.76124,12.0011168,9.76124,13.4826193,11.2425098z M12.1739998,12.5513401l-0.6372004,0.6363602
	c-0.4120426-0.3944082-1.0615969-0.3944082-1.4736395,0l-0.6372004-0.6363602h0.0000401
	C10.1848574,11.7925453,11.4151421,11.7925453,12.1739998,12.5513401z M14.7911892,9.9339104l-0.6367197,0.6363602
	l-0.0010004-0.0010004c-1.8526068-1.8520699-4.8558416-1.851635-6.7079115,0.0009718
	c-0.0000095,0.0000095-0.0000191,0.0000191-0.0000286,0.0000286l-0.63623-0.6363602l0.000701-0.0007305
	c2.2041526-2.2037477,5.7774615-2.2034206,7.9812102,0.0007305H14.7911892z"/>
</svg>
