<?xml version="1.0" encoding="utf-8"?>
<!-- Generator: Adobe Illustrator 24.0.1, SVG Export Plug-In . SVG Version: 6.00 Build 0)  -->
<svg version="1.1" id="Layer_1" xmlns="http://www.w3.org/2000/svg" xmlns:xlink="http://www.w3.org/1999/xlink" x="0px" y="0px"
	 viewBox="0 0 21.6000004 21.6000004" style="enable-background:new 0 0 21.6000004 21.6000004;" xml:space="preserve">
<path d="M17.7999992,11.1999998l2,1.3999996l-1.1000004,2.8000002L16.2000008,15
	c-0.2410288,0.2911282-0.508872,0.5589714-0.8000002,0.8000002l0.3999996,2.499999L13,19.3999996l-1.5-2h-1.1000004l-1.5,2
	l-1.6999998-0.7000008l0.8999996-0.8999996L8.499999,18l1.3170805-1.6934204
	c0.7548389,0.1714401,1.5369358,0.1852589,2.2973595,0.0405903L13.3999996,18L14.5,17.5l-0.27209-1.9956598
	c0.6668959-0.4356184,1.2370939-1.0037155,1.6751699-1.6689997L18,14.1999998l0.5-1.1000004l-1.749691-1.3608398
	c0.1398621-0.7186594,0.1388435-1.4576397-0.0030003-2.17591L18.5,8.1999998L18,7.0999999l-2.1577702,0.29425
	c-0.4120388-0.6017318-0.9335737-1.1206007-1.5374098-1.5295501L14.6000004,3.7L13.5,3.2l-1.3810997,1.7756402
	c-0.7050266-0.1347985-1.4293747-0.1330161-2.1337299,0.00525L8.6000004,3.2L7.5000005,3.7l0.2987099,2.1907403
	C7.7560406,5.9200406,7.7164302,5.9531202,7.6746202,5.9835105L7.5,6.0999999
	C7.4760799,6.12392,7.4453802,6.1497397,7.42029,6.1737299c-0.3070474,0.2499595-0.587779,0.5306072-0.8378301,0.8375802
	C6.5564699,7.0430002,6.5247302,7.0669999,6.5,7.0999999L6.3667002,7.2999997
	C6.3427,7.3335695,6.31598,7.3649998,6.2927003,7.3990598L4.0999999,7.0999999l-0.5,1.0999999l1.7871003,1.3900003
	c-0.1364036,0.7008057-0.1374221,1.4212418-0.0029998,2.1224298l-1.7841005,1.3875704L3.8,13.5l-0.8999999,0.8999996l-0.7-1.6999998
	l1.9999998-1.5v-1.0999994l-2-1.5L3.3,5.8000002l2.5000002,0.4000001C6.0143223,5.8856769,6.285677,5.6143222,6.6000004,5.4000001
	l-0.4000006-2.5L8.8999996,1.8l1.5,2H11.5l1.5-2l2.8000002,1.1000001l-0.3999996,2.5
	c0.2911377,0.2410178,0.5589819,0.5088625,0.8000002,0.8000002l2.5-0.4000001l1.1000004,2.8000002l-2,1.5L17.7999992,11.1999998z
	 M10.0810003,14.3333302l-4.8000002,4.8000011c-0.7363772,0.7731991-1.96013,0.8030491-2.7333286,0.0666714
	c-0.0227625-0.0216789-0.0449929-0.0439091-0.0666714-0.0666714c-0.7731985-0.7363777-0.8030479-1.9601307-0.0666707-2.7333279
	c0.0216782-0.0227623,0.0439084-0.0449924,0.0666707-0.0666714l4.8000002-4.8000002
	c-0.0826573-0.3265448-0.1163583-0.6635542-0.0999999-1C7.2053795,10.0615959,7.2723179,9.5930252,7.381,9.1333323
	c0.7446017-2.0194082,2.9586501-3.0821514,5.0000005-2.4000001l0.8000002,0.3000002l-2.5,2.5000005
	c-0.3861103,0.3870878-0.3853178,1.0138893,0.00177,1.3999996c0.3863964,0.3854198,1.0118332,0.3854198,1.3982296,0l2.5-2.5
	l0.3000002,0.8000002c0.1153021,0.4244413,0.1823931,0.860528,0.1999998,1.3000002
	c-0.0026445,2.1528139-1.7471867,3.8973551-3.9000006,3.8999996C10.8116131,14.4454536,10.4421453,14.4118643,10.0810003,14.3333302
	z M9.8810005,13.1333303l0.3000002,0.1000004c0.3219814,0.1144066,0.6587839,0.1817665,1,0.1999998
	c1.6011505-0.0011473,2.8988533-1.2988491,2.9000006-2.8999996v-0.1000004l-1.1999998,1.1999998l0,0
	c-0.7739391,0.7724581-2.0275421,0.7712574-2.8000002-0.0026817c-0.7714119-0.772891-0.7714119-2.0244274,0-2.7973185
	l1.1999998-1.1999998h-0.1000004c-1.6649561,0.0458021-2.9775391,1.4326458-2.9317369,3.0976019
	c0.0074873,0.2721863,0.0518026,0.5421057,0.1317368,0.8023987l0.1000004,0.3000002l-5.1999998,5.1999998
	c-0.3870327,0.3861656-0.3877356,1.0129662-0.0015697,1.3999996s1.0129671,0.3877354,1.3999996,0.0015697
	c0.000524-0.0005226,0.0010476-0.0010452,0.0015702-0.0015697L9.8810005,13.1333303z"/>
</svg>
