<svg id="Layer_1" data-name="Layer 1" xmlns="http://www.w3.org/2000/svg" viewBox="0 0 21.6 21.6">
  <path d="M17.41572,5.66322,15.31563,3.5691l-.01172-.012-.0127-.01172a4.1121,4.1121,0,0,0-2.7998-1.2586,3.861,3.861,0,0,0-2.4502.963L9.17207,3.958l1.66455,1.66406.692-.46631a.775.775,0,0,1,.44824-.166.95911.95911,0,0,1,.42041.12036l-.70319.613-.81787.7124.76709.767c-.60638.60632-1.4209,1.42071-1.71429,1.714-.48786.48816-1.7793.65014-2.51709,1.38794-.73786.73748-4.89215,4.97967-5.21735,5.30511a1.78747,1.78747,0,0,0-.39453.915l2.78906,2.78857a1.7821,1.7821,0,0,0,.915-.394c.3252-.32544,4.56738-4.47961,5.30518-5.21728s.8999-2.0293,1.38818-2.51734c.293-.29333,1.10742-1.10766,1.71387-1.71411l2.23291,2.23316L19.8,8.04762Zm-5.93457,4.80536a3.89,3.89,0,0,0-.76465,1.35712,3.65932,3.65932,0,0,1-.623,1.16015c-.43946.4397-5.02246,4.93726-5.24365,5.15631l-1.878-1.87811c.227-.22974,4.71582-4.80328,5.15576-5.24365a3.662,3.662,0,0,1,1.16015-.62317,3.88694,3.88694,0,0,0,1.35742-.76465l1.71387-1.71411.83594.83618Zm4.66315-.1969-.9527-.95251.52051-.52076L15.14772,8.234l-.52051.52075L12.35908,6.48658l1.63623-1.426a3.14343,3.14343,0,0,0-2.01855-1.08325,1.79258,1.79258,0,0,0-1.01465.33893L10.68086,4.035a2.86673,2.86673,0,0,1,1.81055-.73566,3.135,3.135,0,0,1,2.10937.98675l2.25049,2.24445-.521.52081.56446.56452.521-.52076.95264.95252Z"/>
</svg>
