<svg id="Layer_1" data-name="Layer 1" xmlns="http://www.w3.org/2000/svg" viewBox="0 0 21.6 21.6"><path d="M16.61,13.62a3,3,0,0,0-2.51-.33V11.78l.46,0,2.87-1.42L19.55,7l-1.4-3.74L14.38,2.2,11.28,3,8.19,5.33l2.37,6.3h0v2H8.38V7.11H4.58A1.67,1.67,0,0,0,3,8.29L1.8,12.13v5l1.59,0a3.11,3.11,0,0,0,6,0H12a3.11,3.11,0,0,0,6,0H19.8V13.62ZM3.31,16H2.94V12.3L4.07,8.63a.53.53,0,0,1,.51-.38H7.24v5a3,3,0,0,0-.84-.13A3.1,3.1,0,0,0,3.31,16ZM6.4,18.26a2,2,0,1,1,2-2A2,2,0,0,1,6.4,18.26ZM9.56,5.73l2.23-1.67,2.57-.68,2.92.85,1,2.67L16.64,9.45l-2.39,1.18H14.1V9a1.67,1.67,0,0,0-1.67-1.67h-.2a1.66,1.66,0,0,0-1.6,1.22ZM11.88,16H9.49a3,3,0,0,0-.37-1.2h3.14A3,3,0,0,0,11.88,16ZM13,13.62H11.7V9a.53.53,0,0,1,.53-.53h.2A.53.53,0,0,1,13,9Zm2,4.64a2,2,0,1,1,2-2A2,2,0,0,1,15,18.26ZM18.66,16h-.59a3.17,3.17,0,0,0-.37-1.2h1Z"/></svg>