<svg id="Layer_1" data-name="Layer 1" xmlns="http://www.w3.org/2000/svg" viewBox="0 0 21.6 21.6"><path d="M3.77589,9.7455,2.63948,9.74318a8.22575,8.22575,0,0,1,16.31738,0l-1.13641.00238A7.09956,7.09956,0,0,0,3.77589,9.7455Zm7.02228,8.16388a7.11444,7.11444,0,0,1-7.01831-6.029l-1.13709-.002a8.22519,8.22519,0,0,0,16.31079,0l-1.13708.002A7.11444,7.11444,0,0,1,10.79817,17.90938Zm5.24206-9.67353-.70312-.875-3.757,3.44141,3.757,3.44922.6875-.90625L13.7635,11.387l6.0376-.0105-.00293-1.13532-6.0401.01276ZM5.57539,13.34523l.6875.90625,3.757-3.44922-3.757-3.44141-.70312.875,2.28216,2.01807-6.0401-.01276L1.7989,11.37648l6.0376.0105Z"/></svg>