<?xml version="1.0" encoding="utf-8"?>
<!-- Generator: Adobe Illustrator 24.0.1, SVG Export Plug-In . SVG Version: 6.00 Build 0)  -->
<svg version="1.1" id="Layer_1" xmlns="http://www.w3.org/2000/svg" xmlns:xlink="http://www.w3.org/1999/xlink" x="0px" y="0px"
	 viewBox="0 0 21.6 21.6" style="enable-background:new 0 0 21.6 21.6;" xml:space="preserve">
<path d="M19.8,10.6h-1.1c0-4.2-3.4-7.6-7.6-7.6c-2.4,0-4.6,1.1-6,3h2.7V7H3.2V2.5h1.1V5c3.1-3.7,8.6-4.2,12.3-1.1
	C18.6,5.5,19.8,8,19.8,10.6z M13.9,15.8h2.6c-2.6,3.3-7.4,3.9-10.7,1.3c-1.8-1.4-2.9-3.6-2.9-6H1.8c0,4.8,3.9,8.7,8.7,8.7
	c2.6,0,5.1-1.2,6.7-3.2v2.5h1.1v-4.5h-4.5L13.9,15.8z M12.1,6.6V14h1.1V6.6H12.1z M11.1,9.3H9.9V14h1.1V9.3z M7.7,11v3h1.1v-3H7.7z"
	/>
</svg>
