<?xml version="1.0" encoding="utf-8"?>
<!-- Generator: Adobe Illustrator 24.0.1, SVG Export Plug-In . SVG Version: 6.00 Build 0)  -->
<svg version="1.1" id="Layer_1" xmlns="http://www.w3.org/2000/svg" xmlns:xlink="http://www.w3.org/1999/xlink" x="0px" y="0px"
	 viewBox="0 0 21.6 21.6" enable-background="new 0 0 21.6 21.6" xml:space="preserve">
<path d="M14.409,12.54316H9.93242v-6.124h1.125v4.999H14.409V12.54316z M10.79961,1.8127
	C8.51096,1.80716,6.30829,2.6842,4.64983,4.26136l0.017,0.69489l0.85638,0.02472c1.44009-1.31907,3.32351-2.04842,5.2764-2.04327
	c4.34223,0.00001,7.8623,3.52008,7.86229,7.86231s-3.52008,7.8623-7.86231,7.86229S2.9373,15.14222,2.9373,10.8h-1.125
	c-0.00028,4.96382,4.02348,8.98802,8.9873,8.9883s8.98802-4.02348,8.9883-8.9873s-4.02348-8.98802-8.9873-8.9883
	C10.80027,1.8127,10.79994,1.8127,10.79961,1.8127z M4.6668,4.95625l0.85638,0.02472l2.12311,0.06122l-0.0332,1.125L3.56719,6.05
	L3.46758,1.94941l1.125-0.02734l0.05725,2.33929L4.6668,4.95625z"/>
</svg>
