<svg id="Layer_2" data-name="Layer 2" xmlns="http://www.w3.org/2000/svg" viewBox="0 0 21.6 21.6"><path d="M14.67088,11.27171l.0257-.01062a.63243.63243,0,1,0-.481-1.16986l-.28955.119L12.90276,8.75139l-.18323-.44574-.45874.18859-.29932-.72808-.59338.24395L11.06877,7.282l-1.07666.44262L5.69878,9.48985a1.59632,1.59632,0,0,0-.99726,1.72089l.4444,2.60937-.28955.11908a.63243.63243,0,1,0,.481,1.16986l.02575-.01056.02118.12464,1.87708,4.56555,2.33978-.962-.56323-1.36993,4.67963-1.924.56323,1.36993,2.33984-.962-1.87707-4.56556ZM7.3026,16.93046,6.47246,14.9113l-.00018-.001-.07379-.38885.00756-.00306-.15112-.88714L5.81066,11.0222a.47426.47426,0,0,1,.31591-.49188l4.29328-1.76514.03619-.01489.29938.72809.59332-.244.29938.72809.56659-.23291.72735,1.03686-.0003.00012.45984.655.12012.17127h.00006l.22827.32519.00061.00086.83008,2.019ZM7.9785,6.5789l1.55371-.63867L8.42284,3.241l2.55957,1.28516.91406-2.71485,1.11133,2.7002L15.708,3.40214,14.42088,5.96171l2.71485.91407-2.583,1.0625.86914,1.23242-.8164.57617L13.01366,7.491l1.2666-.52148-1.26953-.42774.60156-1.19824-1.14941.47265-.47266-1.14941-.42773,1.26953-1.19825-.60156.47266,1.15039L8.35936,7.50468Zm.1355,7.31128a.63249.63249,0,1,1-.82587-.34351A.63259.63259,0,0,1,8.114,13.89018Zm4.82587-1.98193a.63245.63245,0,1,1-.82581-.34357A.63244.63244,0,0,1,12.93987,11.90825Z"/></svg>