<?xml version="1.0" encoding="utf-8"?>
<!-- Generator: Adobe Illustrator 24.0.1, SVG Export Plug-In . SVG Version: 6.00 Build 0)  -->
<svg version="1.1" id="Layer_1" xmlns="http://www.w3.org/2000/svg" xmlns:xlink="http://www.w3.org/1999/xlink" x="0px" y="0px"
	 viewBox="0 0 21.6 21.6" style="enable-background:new 0 0 21.6 21.6;" xml:space="preserve">
<path d="M13.6,2v3.1h1V3H19v6.8h-5.5v3.4h2.7v3.5h-11v-3.5H8V9.7H2.6V3H7v2.1h1V2H1.6v11.1h2.7v4.5h6v1H9.2v1h3.3v-1h-1.1v-1h6v-4.5
	H20V2H13.6z M2.6,12.1v-1.4h1.5v0.9h1.5v-0.9H7v1.4H2.6z M19,12.1h-4.5v-1.4H16v0.9h1.5v-0.9H19L19,12.1z M6.2,8h2
	c0.2,1.1,1,1.9,2.1,2.1V12h1v-1.9c1.1-0.2,1.9-1,2.1-2.1h2V7h-2c-0.2-1.1-1-1.9-2.1-2.1V2.9h-1v2.1C9.2,5.1,8.4,6,8.2,7h-2V8z
	 M11.3,6c0.5,0.2,0.9,0.6,1.1,1.1h-1.1V6z M11.3,8h1.1c-0.2,0.5-0.6,0.9-1.1,1.1V8z M10.3,6V7H9.2C9.4,6.5,9.8,6.1,10.3,6z M10.3,8
	v1.1C9.8,9,9.4,8.6,9.2,8H10.3z"/>
</svg>
