<?xml version="1.0" encoding="utf-8"?>
<!-- Generator: Adobe Illustrator 24.0.1, SVG Export Plug-In . SVG Version: 6.00 Build 0)  -->
<svg version="1.1" id="Layer_1" xmlns="http://www.w3.org/2000/svg" xmlns:xlink="http://www.w3.org/1999/xlink" x="0px" y="0px"
	 viewBox="0 0 21.6000004 21.6000004" style="enable-background:new 0 0 21.6000004 21.6000004;" xml:space="preserve">
<path d="M9.3591433,15.7016115l0.2254639,1.078124c-0.0025635,0-0.005127,0.0004272-0.0077515,0.0004272
	c-4.1299438,0-7.4898071-3.3599234-7.4898071-7.4902945C2.0870483,5.1599245,5.4469118,1.8,9.5768557,1.8
	s7.4898672,3.3599246,7.4898672,7.4898682c0,0.545166-0.0620117,1.0756836-0.1731567,1.5880737l-0.9959707-0.4851074
	c0.0625-0.3591309,0.1016235-0.7262573,0.1016235-1.1029663c0-3.5415649-2.8807983-6.4224243-6.4223633-6.4224243
	c-3.5415039,0-6.4223633,2.8808594-6.4223633,6.4224243C3.1544921,12.7583742,5.9189577,15.5854616,9.3591433,15.7016115z
	 M9.5138674,5.4582644C9.544446,5.4573488,9.5754519,5.4569216,9.6060305,5.4569216
	c1.0058594,0,1.956604,0.3807983,2.6867676,1.078064c0.7423706,0.7090454,1.1644287,1.6619873,1.1987305,2.6859131
	l1.0343018,0.5037842c0.0123901-0.1626587,0.0418701-0.3207397,0.0380859-0.4871826V9.2370119
	c-0.0305786-1.3250732-0.5754395-2.5588379-1.5335693-3.473877c-0.9590454-0.9154663-2.2266235-1.3996582-3.5410767-1.3723145
	C8.164258,4.4213991,6.9304323,4.9657717,6.014966,5.9243898C5.0994387,6.882947,4.6120729,8.1403933,4.6426516,9.4649782
	c0.0305786,1.3250732,0.5749512,2.5588379,1.5335083,3.4743652c0.7966309,0.7612305,1.8045654,1.2042847,2.8817749,1.3218384
	l-0.2290649-1.0957031c-0.7124023-0.1429443-1.3766479-0.4836426-1.9155884-0.9980469
	c-0.7519531-0.7185669-1.1795654-1.6868896-1.203186-2.7269897C5.6859865,8.4007692,6.0682497,7.4138918,6.7868166,6.6619387
	C7.5053835,5.9095583,8.4737062,5.481885,9.5138674,5.4582644z M15.464612,14.1031618l2.1756582,2.939208l-2.1886587,1.6206665
	l-0.0823364-0.1112671l-2.0108643-2.7158194l-0.0499878,0.0963745l-2.0057373,3.8676748l-0.0651855-0.3119507l-0.5842285-2.7943726
	l-0.2185059-1.0451651l-0.2906494-1.3900146l-0.2181396-1.043396L8.8376589,8.0095949L8.7934084,7.797986l4.6386719,2.2597046
	l0.9699707,0.4724731l1.3150024,0.640625l0.9660025,0.4705811l2.829895,1.3786011L15.464612,14.1031618z M14.6441164,14.7897463
	l-0.637146-0.8610229l-0.3054199-0.4127808l-0.0290527-0.0391846l0.9762573-0.2610474l1.5382681-0.411438l0.2119751-0.0567017
	l0.0765381-0.0204468l-0.2034912-0.0991211l-0.9584341-0.4668579l-1.2821655-0.6245117l-0.9553223-0.465332l-2.7918091-1.3598633
	l0.0135498,0.0646973l0.6698608,3.2047119l0.2189331,1.0474854l0.2919312,1.3967285l0.2183838,1.0447989l0.010498,0.050293
	l0.0270386,0.1293335l0.1165161-0.2247314l0.7674561-1.4799795l0.4691772-0.9048462l0.1113281-0.2147827l0.3639526,0.4916992
	l0.6339722,0.8566895l1.4662476,1.9811392l0.0108643,0.0146484l0.4725332-0.3493042L14.6441164,14.7897463z"/>
</svg>
