<svg id="Ebene_1" data-name="Ebene 1" xmlns="http://www.w3.org/2000/svg" viewBox="0 0 21.6 21.6">
  <path d="M16.84138,15.7071l-2.73016.18995,1.635,3.29791-1.0445.54028-1.63592-3.35089-2.03064,1.74078V9.73976ZM19.8,9.73976a2.25005,2.25005,0,1,1-4.34521-.80493L11.112,5.83284a2.19761,2.19761,0,0,1-2.39539.31024L5.87318,9.55513a2.28168,2.28168,0,1,1-.86511-.71894L7.85145,5.424a2.25228,2.25228,0,1,1,3.91864-.504l4.34265,3.10186A2.23845,2.23845,0,0,1,19.8,9.73976Zm-14.625,1.125a1.125,1.125,0,1,0-1.125,1.125A1.12627,1.12627,0,0,0,5.175,10.86476Zm5.625-6.75a1.125,1.125,0,1,0-1.125,1.125A1.12627,1.12627,0,0,0,10.8,4.11476Zm7.875,5.625a1.125,1.125,0,1,0-1.125,1.125A1.12627,1.12627,0,0,0,18.675,9.73976Z"/>
</svg>
