<svg id="Layer_1" data-name="Layer 1" xmlns="http://www.w3.org/2000/svg" viewBox="0 0 21.6 21.6">
  <path d="M18.3466,19.5441,12.9056,19.5l-.0217-.0668-.352-1.0831,4.6658-.0139a6.2461,6.2461,0,0,0-6.3966-5.57,6.2419,6.2419,0,0,0-6.3983,5.6083L8.9992,18.36l-.3485,1.0725-.01.0318-5.3722-.044a6.4883,6.4883,0,0,1-.01-.6841,7.3383,7.3383,0,0,1,7.543-7.0957,7.3635,7.3635,0,0,1,7.5217,6.6915ZM6.1475,6.3611A4.6121,4.6121,0,1,1,10.76,10.9732,4.6121,4.6121,0,0,1,6.1475,6.3611Zm1.125,0A3.4871,3.4871,0,1,0,10.76,2.874,3.491,3.491,0,0,0,7.2725,6.3611ZM13.28,16.912H11.37l-.59-1.8163-.59,1.8163H8.28l1.545,1.1226-.59,1.8163L10.78,18.7283l1.545,1.1226-.59-1.8163Z"/>
</svg>
