<svg id="Ebene_1" data-name="Ebene 1" xmlns="http://www.w3.org/2000/svg" viewBox="0 0 21.6 21.6">
  <path d="M15.53425,9.98l-1.62719.93946-.47644-.80957L15.06721,9.165V4.255L10.815,1.8,6.56282,4.255v4.91l1.631.94165-.48053.82459L6.06569,9.98l-4.252,2.455v4.91l4.252,2.455,4.25225-2.455V15.349h.96412v1.996l4.25219,2.455,4.25214-2.455v-4.91Zm-2.02966,2.4682.76239,1.295a1.67549,1.67549,0,0,0-.29785.48309H12.4048V13.0832ZM7.6855,8.5168V4.90315L10.815,3.09639l3.12952,1.80676V8.5168l-1.08337.62549L12.08534,7.824a1.684,1.684,0,1,0-2.56525.00665l-.761,1.306Zm4.20343,1.18676-1.07392.62L9.73109,9.69777l.756-1.29749a1.58737,1.58737,0,0,0,.6341-.00085ZM9.1952,16.69685l-3.12951,1.8067-3.12934-1.8067V13.0832l3.12934-1.80682,1.08227.62488-.74957,1.28631A1.68234,1.68234,0,1,0,7.7137,15.349H9.1952Zm0-2.47052H7.67927a1.675,1.675,0,0,0-.30218-.48834l.74316-1.27539,1.07495.6206Zm2.08686,0h-.96412V12.435l-1.6325-.94251.48047-.82464L10.815,11.62l1.64344-.94886.47656.80957-1.653.95435Zm7.38159,2.47052-3.1294,1.8067-3.12945-1.8067V15.349h1.5299a1.696,1.696,0,1,0,1.30756-2.1607l-.76575-1.30121,1.05774-.61072,3.1294,1.80682Z"/>
</svg>
