<?xml version="1.0" encoding="utf-8"?>
<!-- Generator: Adobe Illustrator 24.0.1, SVG Export Plug-In . SVG Version: 6.00 Build 0)  -->
<svg version="1.1" id="Layer_1" xmlns="http://www.w3.org/2000/svg" xmlns:xlink="http://www.w3.org/1999/xlink" x="0px" y="0px"
	 viewBox="0 0 21.6000004 21.6000004" style="enable-background:new 0 0 21.6000004 21.6000004;" xml:space="preserve">
<path d="M18.6092072,1.8v1.8221669l-2.6653328,2.5725043c-0.3793564-0.7635145-0.9598808-1.3276649-1.6020985-1.8756776
	L16.8919697,1.8H18.6092072z M8.9043398,13.3246918l-4.1389756,4.2254848H2.9907935v-1.7650261l4.1092186-4.1959629
	C7.5785971,12.2816467,8.1928854,12.8724833,8.9043398,13.3246918z M10.1702204,19.7999992
	c-0.3314409,0-0.5795317-0.0284367-0.6462116-0.037262c-0.3098679-0.0392227-0.5275602-0.3216343-0.4883366-0.6315022
	c0.0392237-0.3088875,0.3118296-0.5295219,0.6315031-0.4883366c0.4422474,0.0549126,1.4757938,0.0558949,1.8307695-0.2990818
	c0.2373037-0.2373028,0.2274981-0.6991634,0.1931772-1.4316673c-0.0205927-0.4530334-0.0451078-0.9668655,0.0215731-1.5032511
	c0.1186514-0.9394093,0.9246998-2.1553459,1.6356306-3.228116c0.3981218-0.6011047,0.8099709-1.2228012,0.9364681-1.569931
	c0.4373446-1.2031898,0.1814098-2.8535299-0.6216974-4.0135727c-0.537365-0.77565-1.5650282-1.7052536-3.4036427-1.7238851
	c-0.0196114,0-0.0392237,0-0.058835,0c-3.7517543,0-4.4136553,3.7576375-4.4401312,3.9184546
	C5.7094965,9.0987749,5.4153185,9.3086214,5.1123147,9.2586117C4.8044081,9.208601,4.5955415,8.9203062,4.6445713,8.6124001
	C4.915215,6.921855,6.4233694,3.7437491,10.2006187,3.7437491c0.0235338,0,0.0470686,0,0.0706024,0
	c1.8111572,0.0186312,3.345788,0.8040872,4.3204985,2.2102594c1.0149155,1.4659886,1.3179188,3.4918962,0.754077,5.0431962
	c-0.1716042,0.4736271-0.5814924,1.0914021-1.0560999,1.8072357c-0.6109104,0.9217587-1.3708706,2.0680733-1.4552021,2.7456636
	c-0.0558939,0.4393063-0.0343208,0.8815536-0.0147085,1.3090935c0.0392237,0.8266411,0.0784473,1.6807384-0.5236378,2.2828236
	C11.7440739,19.695076,10.8046646,19.7999992,10.1702204,19.7999992z M12.6393566,11.1756735
	c0.0323591-0.0451078,0.7991838-1.1208191,0.5756083-2.3926506c-0.1392441-0.7874169-0.6187544-1.4650078-1.4267645-2.0111985
	C11.0586386,6.2776046,10.324173,6.1177678,9.6063786,6.296236C8.2717896,6.6286573,7.5167317,8.0269852,7.485353,8.0858202
	C7.3882742,8.2691917,7.4578962,8.4966898,7.6412673,8.5937681c0.1804295,0.0980597,0.4108691,0.0284376,0.5089288-0.1539526
	C8.1560793,8.4280481,8.7836599,7.274869,9.7917109,7.0267787c0.4971609-0.1255159,1.029624,0,1.5748339,0.3687034
	c0.6295414,0.4265585,1.0021677,0.9354868,1.1051302,1.5120764c0.1716042,0.9550991-0.4363642,1.8190022-0.4432287,1.8278275
	c-0.1206131,0.168663-0.0823698,0.4030247,0.0862923,0.5246181c0.06668,0.048049,0.1441469,0.0715837,0.2196531,0.0715837
	C12.4510822,11.3315878,12.5658121,11.2776546,12.6393566,11.1756735z"/>
</svg>
