<svg id="Layer_1" data-name="Layer 1" xmlns="http://www.w3.org/2000/svg" viewBox="0 0 21.6 21.6">
  <path d="M13.80049,14.43746l-2.38818,2.67627V13.21461c1.82-.14874,3.18408-1.15326,3.18408-2.85187,0-1.90906-1.36407-2.387-3.18408-2.76935V4.14161a1.85127,1.85127,0,0,1,1.79443,1.63617h1.16114c-.21045-1.51624-1.101-2.42237-2.95557-2.6067V2.17035h-1.125V3.17829C8.57319,3.319,7.41865,4.30835,7.41865,5.83491c0,1.7445,1.21606,2.26233,2.86865,2.64343v3.726a2.26331,2.26331,0,0,1-2.124-2.30005H6.95966A3.31238,3.31238,0,0,0,10.2873,13.1844v3.9333L7.87959,14.43648l-.83692.752,3.81006,4.24122,3.78761-4.24219Zm-.3789-4.03175a1.97236,1.97236,0,0,1-2.00928,1.83375V8.74116C12.71309,9.03547,13.42159,9.37538,13.42159,10.40571ZM8.55049,5.77778c0-.95307.69592-1.49811,1.73681-1.64673V7.35712C9.10664,7.05994,8.55049,6.64283,8.55049,5.77778Z"/>
</svg>
