<?xml version="1.0" encoding="UTF-8"?><svg id="Layer_2" xmlns="http://www.w3.org/2000/svg" viewBox="0 0 38 38"><path d="m35,9.5H3v18.99707h14.99622v.00293h2v-.00293h15.00378V9.5ZM5,26.49738v-14.99769h12.99622v14.99769H5Zm17.5,0c0-2.19986,1.78998-3.99938,4-3.99938,2.20001,0,4,1.79953,4,3.99938h-8Zm10.5,0h-.5c0-3.30955-2.69-5.99907-6-5.99907-3.32001,0-6,2.68953-6,5.99907h-.50378v-14.99769h13.00378v14.99769Zm-17.33734-8.99568l-.66669-3.99938h-7l-.66669,3.99938h-1.33331v4.99923h1c0,.55216.44769.99985,1,.99985s1-.44768,1-.99985h5c0,.55216.44769.99985,1,.99985s1-.44768,1-.99985h1v-4.99923h-1.33331Zm-5.97247-1.99969h3.61151l.33331,1.99969h-4.27814l.33331-1.99969Zm-1.69421,4.99923v-.99985h7v.99985h-7Zm18.5-.99985c1.93298,0,3.5-1.56665,3.5-3.49946s-1.56702-3.49946-3.5-3.49946-3.5,1.56665-3.5,3.49946,1.56702,3.49946,3.5,3.49946Zm0-4.99923c.82709,0,1.5.67275,1.5,1.49977s-.67291,1.49977-1.5,1.49977-1.5-.67275-1.5-1.49977.67291-1.49977,1.5-1.49977Z"/></svg>