<?xml version="1.0" encoding="UTF-8"?><svg id="Layer_2" xmlns="http://www.w3.org/2000/svg" viewBox="0 0 38 38"><path d="m31,15v1h-1l-1-2h-2l-3-2h-4v-1h2v-2h-6v2h2v1h-6l-2,3h-3v5h-2v-2h-2v6h2v-2h2v4h3l2,3h14l4-3h1v1h4v-12h-4Zm2,9h-3.66669l-.53333.3999-3.46667,2.6001h-12.26294l-1.40631-2.10938-.59369-.89062h-2.07037v-7h2.07037l.59369-.89062,1.40631-2.10938h10.32404l2.49615,1.66406.50385.33594h1.36951l.4472.89453.5528,1.10547h4.23608v6Zm-10.87012-7.53467l1.71484,1.0293-4.11865,6.86426-1.04102-3.12305-2.86572,4.29883-1.66406-1.10938,5.13428-7.70117.95898,2.87695,1.88135-3.13574Z"/></svg>