<?xml version="1.0" encoding="utf-8"?>
<!-- Generator: Adobe Illustrator 24.0.1, SVG Export Plug-In . SVG Version: 6.00 Build 0)  -->
<svg version="1.1" id="Layer_1" xmlns="http://www.w3.org/2000/svg" xmlns:xlink="http://www.w3.org/1999/xlink" x="0px" y="0px"
	 viewBox="0 0 21.6000004 21.6000004" style="enable-background:new 0 0 21.6000004 21.6000004;" xml:space="preserve">
<path d="M19.8185501,17.9445305l-2.0390606-5.3285303V3.6335001H3.7165v8.7288198L1.80977,17.9680004L19.8185501,17.9445305z
	 M3.2072301,16.9659996l1.3674903-4.0205097h12.2592201l1.5314903,4.0009995L3.2072301,16.9659996z M16.7794895,4.6335001v7.2510004
	L4.7164898,11.9432201v-7.30972H16.7794895z M13.8364897,16.2635612l-6.03125,0.0156307l0.5781202-1.09375h4.96875
	L13.8364897,16.2635612z M11.8947296,5.84688L10.132,7.7204099L9.4460001,6.9284101l-4.2709999,3.7515903l10.937499,0.00037
	L11.8947296,5.84688z M9.34443,8.3385696l0.7573299,0.8739996l1.7656202-1.8764701l2.0361404,2.3335004L7.842,9.6398401
	L9.34443,8.3385696z"/>
</svg>
