<?xml version="1.0" encoding="utf-8"?>
<!-- Generator: Adobe Illustrator 24.0.1, SVG Export Plug-In . SVG Version: 6.00 Build 0)  -->
<svg version="1.1" id="Layer_1" xmlns="http://www.w3.org/2000/svg" xmlns:xlink="http://www.w3.org/1999/xlink" x="0px" y="0px"
	 viewBox="0 0 21.6 21.6" style="enable-background:new 0 0 21.6 21.6;" xml:space="preserve">
<path d="M11.4,18.2c1.4,0,2.9,0.2,4.3,0.5l-0.2,1.1c-3-0.7-6.1-0.7-9.2,0L6,18.7c1.4-0.3,2.8-0.5,4.3-0.5v-0.9h1.1
	C11.4,17.3,11.4,18.2,11.4,18.2z M16.1,1.8v14.5H5.5V1.8H16.1z M8.8,6.1H6.7v9.1h2.2L8.8,6.1L8.8,6.1z M14.9,6.1h-5v9.1h5V6.1z
	 M14.9,2.9H6.7V5H15L14.9,2.9z"/>
</svg>
