<svg id="Layer_1" data-name="Layer 1" xmlns="http://www.w3.org/2000/svg" viewBox="0 0 21.6 21.6">
  <path d="M7.03315,12.26594a.94171.94171,0,1,1-.94189-.94177A.9417.9417,0,0,1,7.03315,12.26594Zm8.47559-.94177a.94152.94152,0,0,0-.94141.94159v.00018a.94165.94165,0,1,0,.94153-.94177Zm3.767,0a.94175.94175,0,0,1-.94177.94177h-.041l.041.1836V19.8H14.56733V17.59431H7.03315V19.8H3.26606V12.44954l.04151-.1836H3.26606a.94177.94177,0,0,1,0-1.88354h.46631l.8653-3.84522a2.37683,2.37683,0,0,1,2.34759-1.8053h.874V1.8h5.96185V4.73188h.87366a2.375,2.375,0,0,1,2.34668,1.8053l.8667,3.84522h.46576A.94175.94175,0,0,1,19.27571,11.32417ZM8.96772,4.6429h3.665V2.94856h-3.665ZM5.97358,17.59248h-1.648v1.14807h1.648V17.59248Zm11.30127,0H15.62642v1.14807h1.64843Zm.00006-5.02527L15.96876,6.76985a1.32363,1.32363,0,0,0-1.314-.97852H6.94526a1.32261,1.32261,0,0,0-1.31347.97852L4.32563,12.56721V16.533H17.27485Z"/>
</svg>
