<?xml version="1.0" encoding="utf-8"?>
<!-- Generator: Adobe Illustrator 24.0.1, SVG Export Plug-In . SVG Version: 6.00 Build 0)  -->
<svg version="1.1" id="Layer_1" xmlns="http://www.w3.org/2000/svg" xmlns:xlink="http://www.w3.org/1999/xlink" x="0px" y="0px"
	 viewBox="0 0 21.6 21.6" style="enable-background:new 0 0 21.6 21.6;" xml:space="preserve">
<path d="M8.9,5.9H7.8v-4h1.1V5.9z M9.7,6.5L9.7,6.5C9.6,6.6,9.4,6.8,9.2,6.9l0,0c-0.3,0.2-0.5,0.6-0.5,1L9.1,18
	c0,0.4-0.3,0.7-0.7,0.7c-0.4,0-0.7-0.3-0.7-0.7L8,7.9c0-0.4-0.2-0.8-0.5-1l0,0C7.3,6.8,7.1,6.6,7,6.5l0,0l0-4.7l-1.1,0l0,4.7l0,0.1
	C5.9,6.8,5.9,7,6,7.1c0,0.1,0.1,0.2,0.8,0.7c0,0,0,0,0,0L6.5,18c0,1,0.8,1.8,1.8,1.8l0,0c1,0,1.8-0.8,1.8-1.8c0,0,0,0,0,0L9.8,7.8v0
	c0,0,0,0,0,0c0.7-0.4,0.8-0.6,0.8-0.7c0.1-0.2,0.2-0.3,0.2-0.5l0-4.8l-1.1,0L9.7,6.5z M15.7,3.7c-0.2,1.2-0.4,2.4-0.4,3.6L15.7,18
	c0,1-0.8,1.8-1.8,1.8l0,0c-1,0-1.8-0.8-1.8-1.8l0.3-7.8c0,0,0,0,0,0c-0.7-0.4-0.8-0.6-0.8-0.7c-0.1-0.2-0.2-0.3-0.2-0.5
	c-0.1-0.8-0.1-1.6,0.1-2.4c0.1-1.4,0.6-2.8,1.4-4c0.4-0.7,1.3-1,2-0.7C15.5,2.2,15.8,2.9,15.7,3.7L15.7,3.7z M14.2,7.3L14.2,7.3
	c0-1.3,0.2-2.6,0.4-3.8c0-0.2-0.1-0.4-0.3-0.5c-0.2-0.1-0.5,0-0.7,0.3c-0.7,1.1-1.1,2.3-1.2,3.5v0c-0.1,0.7-0.1,1.4-0.1,2.1
	c0,0,0,0,0,0C12.6,9,12.8,9.1,13,9.3l0,0c0.3,0.2,0.5,0.6,0.5,1L13.1,18c0,0.4,0.3,0.7,0.7,0.7c0.4,0,0.7-0.3,0.7-0.7L14.2,7.3z"/>
</svg>
