<svg id="Ebene_1" data-name="Ebene 1" xmlns="http://www.w3.org/2000/svg" viewBox="0 0 21.6 21.6"><path d="M11.067,10.739a2.25,2.25,0,1,0-2.25-2.25A2.24957,2.24957,0,0,0,11.067,10.739Zm0-3.375A1.125,1.125,0,1,1,9.942,8.489,1.12666,1.12666,0,0,1,11.067,7.364ZM6.543,13.065v2.168H15.3V13.065a6.47457,6.47457,0,0,0-8.757,0Zm7.633.528v.515H7.668v-.515a5.33233,5.33233,0,0,1,6.508,0ZM15.3,1.8H2.925v18H15.3a3.37494,3.37494,0,0,0,3.375-3.375V5.175A3.37494,3.37494,0,0,0,15.3,1.8Zm2.25,14.625a2.25207,2.25207,0,0,1-2.25,2.25H4.05V2.925H15.3a2.25207,2.25207,0,0,1,2.25,2.25Z"/></svg>