<svg id="Ebene_1" data-name="Ebene 1" xmlns="http://www.w3.org/2000/svg" viewBox="0 0 21.6 21.6">
  <path d="M9.675,1.8V4.34a10.107,10.107,0,0,0,5.062,8.71A10.10585,10.10585,0,0,0,19.8,4.34V1.8Zm8.948,2.54a8.96107,8.96107,0,0,1-3.885,7.314A8.95948,8.95948,0,0,1,10.852,4.34V2.977h7.771ZM14.354,8.379,12.712,6.738l.703-.703.939.939,2.408-2.408.702.703Zm-2.429,7.483h-9V2.925H8.55V1.8H1.8v18H13.05V13.323l-1.125-1.125Zm0,2.813h-9V16.987H6.3v1.125H8.55V16.987h3.375ZM7.66084,5.56611H7.1501v.50147c-1.168.0459-1.96192.69385-1.96192,1.70654,0,1.15869.83936,1.46924,1.96192,1.71533v2.36328a1.46373,1.46373,0,0,1-1.48731-1.4873h-.7666A2.13349,2.13349,0,0,0,7.1501,12.47285v.77539h.51074v-.7666c1.19531-.07226,2.09863-.72021,2.09863-1.82422,0-1.24072-.90332-1.53271-2.09863-1.77929V6.67891A1.19936,1.19936,0,0,1,8.87471,7.7375h.73877A1.84278,1.84278,0,0,0,7.66084,6.06758ZM7.1501,8.778c-.84864-.1919-1.24121-.45655-1.24121-1.04053,0-.64795.50195-1.00342,1.24121-1.06738Zm1.86133,1.90674a1.27819,1.27819,0,0,1-1.35059,1.17675V9.60811C8.53682,9.8,9.01143,10.00947,9.01143,10.68477Z"/>
</svg>
