<?xml version="1.0" encoding="utf-8"?>
<!-- Generator: Adobe Illustrator 24.0.1, SVG Export Plug-In . SVG Version: 6.00 Build 0)  -->
<svg version="1.1" id="Layer_1" xmlns="http://www.w3.org/2000/svg" xmlns:xlink="http://www.w3.org/1999/xlink" x="0px" y="0px"
	 viewBox="0 0 21.6 21.6" style="enable-background:new 0 0 21.6 21.6;" xml:space="preserve">
<path d="M1.9,4.2v13.3h17.9V4.2H1.9z M18.6,16.3H3v-11h15.6V16.3z M10,8.9l-1.4-1h1.7l0.5-1.6l0.5,1.6h1.7l-1.4,1l0.5,1.6l-1.4-1
	l-1.4,1L10,8.9z M9.4,12.3H4.2v-1h5.2V12.3z M9.4,14.3H4.2v-1h5.2V14.3z M12.2,11.3h5.3v1h-5.2L12.2,11.3z M12.2,13.3h5.3v1h-5.2
	L12.2,13.3z"/>
</svg>
