<svg id="Layer_1" data-name="Layer 1" xmlns="http://www.w3.org/2000/svg" viewBox="0 0 21.6 21.6">
  <path d="M15.04438,11.2057h.58106v.57422h-.58106ZM8.1418,10.61934c-.03272.11425-.05811.26464-.0835.38232l-.03223.21045H8.01875c-.01465-.07129-.0293-.14258-.04-.21387-.02539-.125-.0542-.27148-.08642-.38574l-.20264-.73193h-.481l-.19531.73193c-.03272.11426-.05811.26074-.0835.38574-.01074.07129-.0249.14258-.03955.21045H6.883l-.03223-.21045c-.02539-.11816-.05078-.26465-.07959-.3789l-.20264-.73877H5.98994L6.58271,11.78H7.111l.20947-.7749c.02929-.11035.0581-.25342.08349-.3711l.04346-.21093H7.4543l.03613.21093c.02539.11768.05469.26075.0835.3711l.20263.7749h.53516L8.9084,9.88057H8.34785Zm3.05078,0c-.03272.11425-.05811.26464-.0835.38232l-.03222.21045h-.00733c-.01465-.07129-.0293-.14258-.04-.21387-.02539-.125-.0542-.27148-.08642-.38574l-.20264-.73193h-.481l-.19531.73193c-.03271.11426-.05811.26074-.0835.38574-.01074.07129-.0249.14258-.03955.21045H9.93379l-.03223-.21045c-.02539-.11816-.05078-.26465-.07959-.3789l-.20263-.73877H9.04072L9.6335,11.78h.52832l.20947-.7749c.0293-.11035.0581-.25342.0835-.3711l.04345-.21093h.00684l.03613.21093c.02539.11768.05469.26075.0835.3711l.20263.7749h.53516l.59668-1.89941h-.56055Zm3.0498,0c-.03222.11425-.05761.26464-.083.38232l-.03223.21045h-.00781c-.01368-.07129-.02832-.14258-.03907-.21387-.02539-.125-.05468-.27148-.08691-.38574l-.20313-.73193h-.48046l-.19532.73193c-.03222.11426-.05761.26074-.083.38574-.01075.07129-.0254.14258-.04.21045h-.00684l-.0332-.21045c-.02539-.11816-.05078-.26465-.0791-.3789l-.20313-.73877H12.091L12.68379,11.78h.52832l.21-.7749c.02832-.11035.05762-.25342.083-.3711l.043-.21093h.00781l.03613.21093c.02539.11768.05371.26075.083.3711l.20215.7749h.53515L15.009,9.88057h-.56054Zm5.59082.792H17.49763a6.84261,6.84261,0,0,1-6.22009,6.01819v2.09216h-1.125V17.42994a6.84294,6.84294,0,0,1-6.22937-6.01861H1.57686v-1.125H3.8907a6.83724,6.83724,0,0,1,6.26184-6.47321v-2.102h1.125V3.81355a6.837,6.837,0,0,1,6.25256,6.47278h2.3031Zm-3.47235,0h-.10772v-1.125h.152a5.71552,5.71552,0,0,0-5.12756-5.34772V7.239h-1.125V4.93812A5.71536,5.71536,0,0,0,5.0157,10.28633h.14075v1.125H5.06a5.71822,5.71822,0,0,0,5.09259,4.89361v-2.3106h1.125v2.31012A5.71844,5.71844,0,0,0,16.36085,11.41133Z"/>
</svg>
