<svg id="Layer_2" data-name="Layer 2" xmlns="http://www.w3.org/2000/svg" viewBox="0 0 21.6 21.6">
  <path d="M10.79951,19.8a3.80167,3.80167,0,0,1-3.53233-2.36143H5.83541V4.14279H7.276a3.82178,3.82178,0,0,1,7.048,0h1.44059V17.43857H14.33184A3.86037,3.86037,0,0,1,10.79951,19.8ZM6.96513,16.30885H8.089l.11964.406a2.69481,2.69481,0,0,0,5.18278,0l.11964-.406h1.12384V5.27251H13.50711l-.12062-.403a2.69431,2.69431,0,0,0-5.173,0l-.12062.403H6.96513Zm3.83438-2.93511a2.57325,2.57325,0,1,1,2.57325-2.57325A2.576,2.576,0,0,1,10.79951,13.37374Zm0-4.01678A1.44353,1.44353,0,1,0,12.243,10.80049,1.44474,1.44474,0,0,0,10.79951,9.357Z"/>
</svg>
