<svg id="a46eea96-1392-4cea-aae5-8a6801a3cab9" data-name="Layer 1" xmlns="http://www.w3.org/2000/svg" viewBox="0 0 21.6 21.6"><path d="M1.8,16.5H2.9v1.1H1.8ZM2.9,4H1.8V5.1H2.9ZM18.7,17.6h1.1V16.5H18.7ZM18.7,4V5.1h1.1V4ZM2.9,5.8H1.8V7.2H2.9Zm0,2.1H1.8V9.3H2.9ZM1.8,13.7H2.9V12.3H1.8Zm0,2.1H2.9V14.4H1.8ZM13.7,4H12.3V5.1h1.4ZM11.5,4H10.1V5.1h1.4ZM9.3,4H7.9V5.1H9.3ZM18,4H16.6V5.1H18ZM15.8,4H14.4V5.1h1.4ZM7.2,4H5.8V5.1H7.2ZM5,4H3.6V5.1H5Zm7.3,13.6h1.4V16.5H12.3Zm-2.2,0h1.4V16.5H10.1Zm-2.2,0H9.3V16.5H7.9Zm8.7,0H18V16.5H16.6Zm-2.2,0h1.4V16.5H14.4Zm-8.6,0H7.2V16.5H5.8Zm-2.2,0H5V16.5H3.6ZM18.7,7.2h1.1V5.8H18.7Zm0,2.1h1.1V7.9H18.7Zm0,1.7-5.1,2.7L7.7,8,2.9,11v-.9H1.8v1.4H2.9v.8L7.5,9.4l5.8,5.7,5.4-2.8v-.8h1.1V10.1H18.7Zm1.1,2.7V12.3H18.7v1.4Zm-1.1,2.1h1.1V14.4H18.7Zm-4-8.89a2.16,2.16,0,0,1,2.2,2.2,2.24,2.24,0,0,1-2.2,2.3,2.31,2.31,0,0,1-2.2-2.3A2.22,2.22,0,0,1,14.68,6.91Zm0,1.15a1.1,1.1,0,1,0,1.1,1.1A1.11,1.11,0,0,0,14.68,8.06Z"/></svg>