<svg id="Layer_1" data-name="Layer 1" xmlns="http://www.w3.org/2000/svg" viewBox="0 0 21.6 21.6">
  <path d="M10.8,3.2375A7.5625,7.5625,0,1,0,18.3625,10.8,7.57114,7.57114,0,0,0,10.8,3.2375Zm0,1.125a6.4451,6.4451,0,0,1,6.10645,4.413l-4.18116,1.30286a2.05268,2.05268,0,0,0-3.85058,0L4.69355,8.77546A6.4451,6.4451,0,0,1,10.8,4.3625ZM10.2375,17.209A6.38221,6.38221,0,0,1,4.437,9.87379l4.3465,1.35437a2.06111,2.06111,0,0,0,1.454,1.54663ZM9.8625,10.8a.9375.9375,0,1,1,.9375.9375A.939.939,0,0,1,9.8625,10.8Zm1.5,6.409V12.77479a2.06111,2.06111,0,0,0,1.454-1.54663L17.163,9.87379A6.38221,6.38221,0,0,1,11.3625,17.209Z"/>
</svg>
