<?xml version="1.0" encoding="UTF-8"?><svg id="a" xmlns="http://www.w3.org/2000/svg" viewBox="0 0 21.6 21.6"><path d="M18.675,5.425v10.75H2.925V5.425h15.75m1.125-1.125H1.8v13H19.8V4.3h0Zm-2.25117,4.85576h-4.98633v1.125h4.98633v-1.125Zm0-2.25781h-4.98633v1.125h4.98633v-1.125Zm0,4.5127h-4.98633v1.12451h4.98633v-1.12451Zm-8.14966-.64551c.40698-.41058,.65942-.97473,.65942-1.59717,0-1.25146-1.01855-2.27002-2.27002-2.27002-1.25195,0-2.27051,1.01855-2.27051,2.27002,0,.62268,.25256,1.18707,.65991,1.59766-1.20911,.61743-2.05005,1.89093-2.05005,3.37402h1.125c0-1.46191,1.1377-2.65137,2.53613-2.65137,1.39795,0,2.53564,1.18945,2.53564,2.65137h1.125c0-1.48346-.84106-2.75732-2.05054-3.37451Zm-1.6106-2.74219c.63135,0,1.14502,.51367,1.14502,1.14502,0,.63184-.51367,1.14551-1.14502,1.14551-.63184,0-1.14551-.51367-1.14551-1.14551,0-.63135,.51367-1.14502,1.14551-1.14502Z"/></svg>