<svg id="Layer_2" data-name="Layer 2" xmlns="http://www.w3.org/2000/svg" viewBox="0 0 21.6 21.6">
  <path d="M11.10328,13.87165a.5604.5604,0,1,1,.56043.56043A.56042.56042,0,0,1,11.10328,13.87165ZM3.07435,16.9585H1.93873a8.933,8.933,0,0,1,4.56189-6.71594H3.926V5.72889H1.8v-1.125H7.17744v1.125H5.051V9.11756H6.59816a4.26117,4.26117,0,0,1,8.39105,0H16.549V5.72889h-2.126v-1.125H19.8v1.125H17.674v4.51367H15.06337a8.93313,8.93313,0,0,1,4.56225,6.71594H18.49a7.79987,7.79987,0,0,0-7.13385-6.66V11.705h2.67823V16.1327H7.56953V11.705h2.66162V10.29731A7.79907,7.79907,0,0,0,3.07435,16.9585ZM8.69453,12.83V15.0077h4.21485V12.83Zm-.94574-3.7124h6.08966a3.13419,3.13419,0,0,0-6.08966,0Z"/>
</svg>
