<svg id="e8803c4b-cd89-481e-919c-dbbe91c6ffae" data-name="Ebene 1" xmlns="http://www.w3.org/2000/svg" viewBox="0 0 21.6 21.6"><path d="M18.11,9.1a7.31,7.31,0,0,0-14.62,0v.23L6.3,12.87v4.36l4.5,2.57,4.5-2.57V12.76l2.81-3.45ZM10.8,2.93a6.19,6.19,0,0,1,5.63,3.61A2.7,2.7,0,0,0,15.3,6.3a2.79,2.79,0,0,0-2.25,1.13,2.81,2.81,0,0,0-4.5,0A2.79,2.79,0,0,0,6.3,6.3a2.62,2.62,0,0,0-1.12.24A6.16,6.16,0,0,1,10.8,2.93Zm-.56,15.26L7.43,16.58V13.37L10.24,15ZM8,12.4l2.8-1.6.94.53-2.8,1.61Zm1.84,1.06,2.81-1.6.95.54L10.8,14Zm4.34,3.12-2.82,1.61V15l2.82-1.61Zm.51-4.85L10.8,9.51,6.86,11.76,4.63,8.94A1.68,1.68,0,0,1,8,9.11H9.11a1.69,1.69,0,0,1,3.38,0h1.12A1.68,1.68,0,0,1,17,8.94Z"/></svg>