<?xml version="1.0" encoding="UTF-8"?><svg id="Layer_2" xmlns="http://www.w3.org/2000/svg" viewBox="0 0 38 38"><path d="m35,22.00088l-10-12.05064h-4.82001l-.77002,2.0001h4.65002l8.94,10.77055v5.31032h-.53534c-.68842-1.20782-1.97272-2.03159-3.46234-2.03159s-2.7738.82377-3.46228,2.03159h-13.07538c-.68842-1.20782-1.97272-2.03159-3.46234-2.03159s-2.7738.82377-3.46228,2.03159h-.54004V11.95034h4.20996l.5-2.0001H3v20.08106h2.00549c.01733,2.19444,1.79852,3.9687,3.99683,3.9687s3.97949-1.77426,3.99683-3.9687h12.00635c.01733,2.19444,1.79852,3.9687,3.99683,3.9687s3.97949-1.77426,3.99683-3.9687h2.00085v-8.03042Zm-25.99768,9.99902c-1.10278,0-2-.89726-2-2.0001s.89722-2.0001,2-2.0001c1.10284,0,2,.89726,2,2.0001s-.89716,2.0001-2,2.0001Zm20,0c-1.10278,0-2-.89726-2-2.0001s.89722-2.0001,2-2.0001c1.10284,0,2,.89726,2,2.0001s-.89716,2.0001-2,2.0001ZM15.02997,11.60047h-3.66998l.40997-1.65023,1.48999-5.95024h2.74005l-1.20001,4.80004h3.66998l-.44,1.1502-.76001,2.0001-1.77997,4.66014-.42999-4.66014-.03003-.34987Z"/></svg>