<?xml version="1.0" encoding="UTF-8"?><svg id="Layer_2" xmlns="http://www.w3.org/2000/svg" viewBox="0 0 38 38"><path d="m35,21.5l-7-2-4-6h-1.46997l-.38,1-.39001,1h1.16998l3.41003,5.10999.39996.60999.71002.20001,5.54999,1.59003v2.48999h-1.34973c-.56299-1.1792-1.75647-2-3.15027-2s-2.58728.8208-3.15027,2h-12.69946c-.56299-1.1792-1.75647-2-3.15027-2s-2.58728.8208-3.15027,2h-1.34973v-6h3.23999l.55005-1.10999,1.44995-2.89001h1.33002l.5-2h-3.07001l-2,4H3v10h3.05042c.24451,1.69403,1.68787,3,3.44958,3s3.20508-1.30597,3.44958-3h12.10083c.24451,1.69403,1.68787,3,3.44958,3s3.20508-1.30597,3.44958-3h3.05042v-6Zm-25.5,7c-.82709,0-1.5-.67291-1.5-1.5s.67291-1.5,1.5-1.5,1.5.67291,1.5,1.5-.67291,1.5-1.5,1.5Zm19,0c-.82709,0-1.5-.67291-1.5-1.5s.67291-1.5,1.5-1.5,1.5.67291,1.5,1.5-.67291,1.5-1.5,1.5Zm-11.09998-13.40002h-3.66998l.14996-.59998.25-1,1.5-6h2.73999l-1.19995,4.79999h3.66998l-.46002,1.20001-.76001,2-1.76001,4.60999-.41998-4.60999-.03998-.40002Z"/></svg>