<svg id="Ebene_1" data-name="Ebene 1" xmlns="http://www.w3.org/2000/svg" viewBox="0 0 21.6 21.6">
  <path d="M19.79963,10.8a5.6245,5.6245,0,0,1-5.625,5.625V15.3a4.5,4.5,0,0,0,0-9V5.175A5.6245,5.6245,0,0,1,19.79963,10.8Zm-3.375,0a2.24957,2.24957,0,0,0-2.25-2.25V9.675a1.125,1.125,0,0,1,0,2.25V13.05A2.24957,2.24957,0,0,0,16.42463,10.8Zm-4.016-1.846a2.61038,2.61038,0,0,1,0,3.691l-3.076,3.076a2.6099,2.6099,0,0,1-3.692,0l-3.076-3.076a2.61038,2.61038,0,0,1,0-3.691l3.075-3.075a2.61109,2.61109,0,0,1,3.692-.001Zm-.797.796L8.5356,6.674a1.48474,1.48474,0,0,0-2.1,0L3.35963,9.75a1.48472,1.48472,0,0,0,0,2.1l3.076,3.076a1.48474,1.48474,0,0,0,2.1,0l3.076-3.076A1.48657,1.48657,0,0,0,11.61165,9.75ZM6.93092,12.78376a.784.784,0,1,0,1.10877,0A.78407.78407,0,0,0,6.93092,12.78376Z"/>
</svg>
