<svg id="Layer_2" data-name="Layer 2" xmlns="http://www.w3.org/2000/svg" viewBox="0 0 21.6 21.6">
  <path d="M17.08375,5.91007,19.799,7.4777l-.5625.97461L16.5207,6.88437v3.13532h-1.125V6.88462L12.68037,8.45231l-.5625-.97461,2.71527-1.56763L12.11787,4.34244l.5625-.97461L15.3957,4.93552V1.8h1.125v3.1358l2.71582-1.56793.5625.97461Zm-2.37658,6.22,4.072,4.12622L15.80513,19.8a17.46591,17.46591,0,0,1-9.26105-4.86633A17.46639,17.46639,0,0,1,1.801,5.6091l3.5827-2.92681,4.072,4.12622L8.26942,9.17106a14.63752,14.63752,0,0,0,1.82239,2.26153A14.642,14.642,0,0,0,12.32924,13.285ZM17.259,16.3176l-2.786-2.82312-1.65234.80249-.58337.28333-.53748-.3628A15.83776,15.83776,0,0,1,9.291,12.22281a15.82718,15.82718,0,0,1-1.9624-2.43487L6.973,9.24576l.291-.57947.82428-1.64166-2.786-2.82318-2.268,1.85278A16.32531,16.32531,0,0,0,7.3448,14.14341a16.32493,16.32493,0,0,0,8.03155,4.41748Z"/>
</svg>
