<svg id="Layer_1" data-name="Layer 1" xmlns="http://www.w3.org/2000/svg" viewBox="0 0 21.6 21.6">
  <path d="M10.8,19.8a8.999,8.999,0,1,0-6.36424-2.63576A9.01095,9.01095,0,0,0,10.8,19.8Zm0-16.87353A7.87457,7.87457,0,1,1,2.92647,10.8,7.8823,7.8823,0,0,1,10.8,2.92647ZM7.09141,11.47406h7.42864C14.26172,16.16172,7.34974,16.16172,7.09141,11.47406Zm-.751-3.02637A1.05964,1.05964,0,1,1,7.39777,9.50357,1.0608,1.0608,0,0,1,6.34043,8.44769Zm6.81288,0a1.05886,1.05886,0,1,1,1.06184,1.05588A1.06082,1.06082,0,0,1,13.15331,8.44769Z"/>
</svg>
