<?xml version="1.0" encoding="UTF-8"?><svg id="Layer_2" xmlns="http://www.w3.org/2000/svg" viewBox="0 0 38 38"><path d="m24.5,3c-4.57776,0-8.47229,2.93903-9.90283,7.03015-.19647-.01941-.39557-.03015-.59717-.03015-3.31372,0-6,2.68628-6,6s2.68628,6,6,6c1.18622,0,2.28894-.34882,3.21991-.94281,1.89081,1.82532,4.45435,2.94281,7.28009,2.94281,5.79999,0,10.5-4.70001,10.5-10.5S30.29999,3,24.5,3Zm-14.5,13c0-2.20563,1.79443-4,4-4s4,1.79437,4,4-1.79437,4-4,4-4-1.79443-4-4Zm14.5,6c-2.23859,0-4.27386-.87097-5.79303-2.2865.80737-1.02197,1.29303-2.31,1.29303-3.7135,0-2.40869-1.42261-4.4801-3.47052-5.43506,1.19781-3.24316,4.31494-5.56494,7.97052-5.56494,4.69,0,8.5,3.81,8.5,8.5s-3.81,8.5-8.5,8.5Zm2.79297-10.70703l1.41406,1.41406-5.70703,5.70703V7h2v6.58594l2.29297-2.29297Zm-2.29297,22.70703c0,.33759-.02069.67017-.05048,1h-2.00848c.03656-.32874.05896-.66168.05896-1,0-4.96265-4.03735-9-9-9s-9,4.03735-9,9c0,.33832.0224.67126.05896,1h-2.00848c-.02979-.32983-.05048-.66241-.05048-1,0-6.07513,4.92487-11,11-11s11,4.92487,11,11Z"/></svg>