<svg id="Layer_1" data-name="Layer 1" xmlns="http://www.w3.org/2000/svg" viewBox="0 0 21.6 21.6"><path d="M11.36,14.3V9.47a1.68,1.68,0,0,0,.3-.15l3.76,2.83.67-.9L12.36,8.44a1.6,1.6,0,0,0,.09-.53,1.65,1.65,0,0,0-1.09-1.55V1.8H10.24V6.36A1.65,1.65,0,0,0,9.15,7.91a1.6,1.6,0,0,0,.09.53L5.52,11.25l.68.9L9.94,9.32l.3.15V14.3c-4.73.14-7.87,2.09-7.87,4.95v.55H19.23v-.55C19.23,16.39,16.09,14.44,11.36,14.3Zm-1.1-6.39a.54.54,0,0,1,.54-.54.55.55,0,0,1,.55.54.55.55,0,0,1-.55.55.55.55,0,0,1-.54-.55ZM3.54,18.69c.4-1.72,2.69-3.3,7.26-3.3s6.86,1.58,7.26,3.3Z"/></svg>