<?xml version="1.0" encoding="utf-8"?>
<!-- Generator: Adobe Illustrator 24.0.1, SVG Export Plug-In . SVG Version: 6.00 Build 0)  -->
<svg version="1.1" id="Layer_1" xmlns="http://www.w3.org/2000/svg" xmlns:xlink="http://www.w3.org/1999/xlink" x="0px" y="0px"
	 viewBox="0 0 21.6000004 21.6000004" style="enable-background:new 0 0 21.6000004 21.6000004;" xml:space="preserve">
<path d="M18.9850903,2.8096299V2.80914c-0.6420898-0.64135-1.6620903-0.73962-3.0346603-0.2971399
	c-0.8560915-0.9527886-2.3224783-1.0311774-3.2752666-0.1750863c-0.4918327,0.4419169-0.7716637,1.0727477-0.7691631,1.7339461
	c0.002553,0.2004623,0.0314474,0.3997192,0.0859404,0.5926499c-0.3940401,0.2798996-0.7898731,0.5777931-1.1875,0.8936801
	C7.46312,2.8991101,4.0754299,1.34857,2.615,2.8096299c-1.4595,1.4593701,0.0878501,4.84412,2.7446101,8.1852303
	C2.7033601,14.3358603,1.156,17.72052,2.615,19.1802406c0.4123385,0.3881836,0.9651783,0.5913754,1.53076,0.5626202
	c1.72119,0,4.1997104-1.3538799,6.6543002-3.3056602c2.4550705,1.9517803,4.9335899,3.3056602,6.6542892,3.3056602
	c0.5657082,0.0289974,1.1187-0.1744289,1.5307598-0.5631104c1.4594803-1.4593506-0.0883694-4.84412-2.7446194-8.1851797
	C18.8967209,7.6535001,20.4445705,4.2690001,18.9850903,2.8096299z M14.2336302,3.2162499
	c0.4719906-0.0017784,0.8560553,0.3794034,0.8578339,0.8513937s-0.3794031,0.8560557-0.8513937,0.8578343
	c-0.0002098,0.0000005-0.0004206,0.0000014-0.0006304,0.0000019h-0.0058098
	c-0.1653872,0.0033302-0.3269024-0.0502372-0.4575205-0.1517401c-0.0848942-0.0557404-0.1592798-0.1260328-0.2197304-0.2076402
	c-0.1108646-0.1416893-0.173027-0.315382-0.1772404-0.4952402C13.3798552,3.5992148,13.7619858,3.2170312,14.2336302,3.2162499z
	 M12.7883196,5.8938599c0.0258799,0.0206299,0.0551701,0.0353999,0.0819998,0.05481
	c0.0459003,0.0334501,0.0922804,0.0642099,0.1406202,0.0942402c0.0746603,0.0464196,0.1519394,0.08849,0.2314501,0.1259999
	c0.0478497,0.0226998,0.0952101,0.0455298,0.1450005,0.0650601c0.0899391,0.0343184,0.1819391,0.0629711,0.2754602,0.0857902
	c0.0454102,0.0114799,0.0893497,0.02637,0.1362305,0.0351601c1.2535276,0.2479835,2.4707422-0.5671706,2.7187262-1.8206983
	c0.0301857-0.1525841,0.0449085-0.3078232,0.0439434-0.4633617c0.0003319-0.0681858-0.0027618-0.1363449-0.0092697-0.2042201
	c0.7905197-0.2302301,1.2382793-0.168,1.3911095-0.01489c0.4799995,0.4805899-0.2016602,2.8203101-2.6635704,5.9892502
	c-0.5117197-0.5854397-1.04883-1.1628399-1.6059999-1.7202101c-0.5561504-0.55615-1.1323299-1.0921602-1.7167997-1.6030002
	C12.2355804,6.30194,12.5129299,6.0907602,12.7883196,5.8938599z M14.3351898,10.9945698
	c-0.5102501,0.5910597-1.0732403,1.2021503-1.7031202,1.8319101s-1.2407303,1.1928701-1.8319998,1.7032499
	c-0.5908203-0.5102596-1.2021503-1.073-1.8319998-1.7027597c-0.6294603-0.6297598-1.19245-1.2411098-1.7027001-1.8321104
	C7.77562,10.4035492,8.3386097,9.7923498,8.9680004,9.1624699c0.5976601-0.5970001,1.2114296-1.1641903,1.8281298-1.6954403
	c0.5947304,0.5125699,1.2026396,1.0620003,1.8359404,1.6954403C13.2620001,9.7921801,13.8249397,10.4034996,14.3351898,10.9945698z
	 M3.6564801,3.8517499C3.796407,3.7416666,3.9734123,3.6898158,4.15062,3.707c0.9418998,0,2.9555697,0.8366702,5.4995093,2.813
	c-0.5825195,0.5085101-1.161129,1.0380602-1.7236295,1.6008C7.36937,8.6781702,6.8322601,9.2558002,6.3204999,9.84126
	C3.85814,6.67206,3.1765001,4.3319998,3.6564801,3.8517499z M3.6570001,18.1381207
	c-0.48-0.4802208,0.2016599-2.82055,2.6635699-5.9897404c0.5117202,0.5854502,1.04883,1.1630001,1.6059999,1.7202101
	s1.1342802,1.0947304,1.7192402,1.6062002C6.47679,17.9363403,4.1374402,18.6167603,3.6570001,18.1381207z M17.9436207,18.1381207
	c-0.4819298,0.4797401-2.82129-0.2015305-5.9897499-2.6630802c0.5854502-0.5117197,1.1625996-1.0495596,1.7202196-1.6069403
	c0.5571299-0.55725,1.0942402-1.1347599,1.6059999-1.7200899c2.4618397,3.1693096,3.1434803,5.5093994,2.6634998,5.9901104
	H17.9436207z"/>
</svg>
