<svg id="Layer_1" data-name="Layer 1" xmlns="http://www.w3.org/2000/svg" viewBox="0 0 21.6 21.6"><path d="M6.28,5.68H5.16V4.57H6.28ZM8.36,4.57H7.24V5.68H8.36Zm2.08,0H9.32V5.68h1.12ZM6.28,6.8H5.16V7.91H6.28Zm2.08,0H7.24V7.91H8.36Zm2.08,0H9.32V7.91h1.12ZM6.28,9H5.16v1.11H6.28ZM8.36,9H7.24v1.11H8.36Zm2.08,0H9.32v1.11h1.12ZM6.28,11.26H5.16v1.11H6.28Zm2.08,0H7.24v1.11H8.36Zm2.08,0H9.32v1.11h1.12ZM6.28,13.49H5.16V14.6H6.28Zm2.08,0H7.24V14.6H8.36Zm2.08,0H9.32V14.6h1.12ZM6.28,15.72H5.16v1.11H6.28Zm2.08,0H7.24v1.11H8.36Zm2.08,0H9.32v1.11h1.12Zm4.08-8H13.41V8.85h1.11Zm2.08,0H15.49V8.85H16.6ZM14.52,10H13.41v1.12h1.11Zm2.08,0H15.49v1.12H16.6Zm-2.08,2.23H13.41v1.12h1.11Zm2.08,0H15.49v1.12H16.6Zm-2.08,2.23H13.41v1.12h1.11Zm2.08,0H15.49v1.12H16.6Zm-2.08,2.23H13.41v1.12h1.11Zm2.08,0H15.49v1.12H16.6Zm3.19,2V19.8h-18V18.69h1.3V1.8H12.6V5.45h5.89V18.69ZM11.48,2.91H4.23V18.67h7.25Zm5.89,3.66H12.63v12.1h4.74Z"/></svg>