<svg id="Layer_1" data-name="Layer 1" xmlns="http://www.w3.org/2000/svg" viewBox="0 0 21.6 21.6"><path d="M10.80213,19.80122a2.39567,2.39567,0,0,1-1.705-.707L2.50743,12.50444a2.41244,2.41244,0,0,1,0-3.40913L9.09808,2.50555a2.4159,2.4159,0,0,1,3.40908-.001l6.58967,6.59073a2.41244,2.41244,0,0,1,0,3.40913L12.50716,19.0942A2.394,2.394,0,0,1,10.80213,19.80122Zm-7.4998-9.911a1.289,1.289,0,0,0,0,1.81931L9.893,18.29929a1.31476,1.31476,0,0,0,1.81928,0l6.58967-6.58976a1.289,1.289,0,0,0,0-1.81931L11.71226,3.30047a1.29076,1.29076,0,0,0-1.81928,0ZM9.95,15.05h1.7V13.367H9.95Zm0-6.00953.561,2.635h.56952l.56951-2.635V6.55H9.95Z"/></svg>