<?xml version="1.0" encoding="utf-8"?>
<!-- Generator: Adobe Illustrator 24.0.1, SVG Export Plug-In . SVG Version: 6.00 Build 0)  -->
<svg version="1.1" id="Layer_1" xmlns="http://www.w3.org/2000/svg" xmlns:xlink="http://www.w3.org/1999/xlink" x="0px" y="0px"
	 viewBox="0 0 21.6 21.6" style="enable-background:new 0 0 21.6 21.6;" xml:space="preserve">
<path d="M10.8,3c4.3,0,7.8,3.5,7.8,7.8s-3.5,7.8-7.8,7.8S3,15.1,3,10.8C3,6.5,6.5,3,10.8,3 M10.8,1.9c-4.9,0-8.9,4-8.9,8.9
	s4,8.9,8.9,8.9s8.9-4,8.9-8.9S15.7,1.9,10.8,1.9C10.8,1.9,10.8,1.9,10.8,1.9z M8.1,13.8c-0.4-0.4-0.7-0.8-0.9-1.3H11l1-1.1H7
	c0-0.4,0-0.7,0-1.1h4l1-1.1H7.3C8.2,7,10.6,6.1,12.7,7c0.5,0.2,0.9,0.5,1.3,0.9l0.8-0.8C12.8,5,9.4,5,7.3,7.1
	c-0.6,0.6-1,1.3-1.3,2.1H4.8v1.1h1.1c0,0.4,0,0.7,0,1.1H4.8v1.1h1.3c0.9,2.8,3.9,4.3,6.7,3.3c0.8-0.3,1.5-0.7,2.1-1.3L14,13.8
	C12.4,15.4,9.8,15.4,8.1,13.8z"/>
</svg>
