<svg id="Ebene_1" data-name="Ebene 1" xmlns="http://www.w3.org/2000/svg" viewBox="0 0 21.6 21.6">
  <path d="M14.17463,1.8H4.05v18h13.5V5.175ZM16.425,18.675H5.175V2.925h7.31244V6.8625H16.425Zm0-12.9375H13.61244V2.925h.09625L16.425,5.64106ZM6.3,6.3H9.675V7.425H6.3Zm0,2.25H9.675V9.675H6.3Zm0,2.25H9.675v1.125H6.3Zm0,2.25H9.675v1.125H6.3Zm4.51367-1.12061c0,1.18213.85645,1.49854,2.00195,1.75V16.09A1.49342,1.49342,0,0,1,11.29805,14.573H10.5168a2.17586,2.17586,0,0,0,2.29882,2.1499v.791h.52051v-.78174c1.21973-.07422,2.1416-.73535,2.1416-1.86133,0-1.26611-.92187-1.564-2.1416-1.81543V10.81221a1.22379,1.22379,0,0,1,1.23828,1.08008h.75391a1.88,1.88,0,0,0-1.99219-1.70362V9.677h-.52051v.51172C11.62422,10.23506,10.81367,10.89619,10.81367,11.92939ZM13.33613,13.8c.89356.1958,1.37793.40967,1.37793,1.09863a1.30367,1.30367,0,0,1-1.37793,1.20069Zm-.52051-2.99707v2.15039c-.86621-.1958-1.2666-.46533-1.2666-1.061C11.549,11.23115,12.06172,10.86836,12.81562,10.80293Z"/>
</svg>
