<svg id="Layer_1" data-name="Layer 1" xmlns="http://www.w3.org/2000/svg" viewBox="0 0 21.6 21.6">
  <path d="M19.05781,7.33433c-.9649-.60034-2.47931-.05053-3.1261.2345a15.59574,15.59574,0,0,0-5.08581-1.63h-.0918a15.59574,15.59574,0,0,0-5.08581,1.63c-.64679-.285-2.1612-.83484-3.1261-.2345a1.6793,1.6793,0,0,0-.74414,1.544c0,1.58178,1.58972,3.29559,2.74078,4.32678a12.112,12.112,0,0,0,1.82471,1.34332l.01263.00763A8.34038,8.34038,0,0,0,10.8,15.66118,8.34038,8.34038,0,0,0,15.22383,14.556l.01263-.00763a12.112,12.112,0,0,0,1.82471-1.34332c1.15106-1.03119,2.74078-2.745,2.74078-4.32678A1.6793,1.6793,0,0,0,19.05781,7.33433ZM5.12324,12.09581c-1.1485-1.0791-2.20019-2.3465-2.20019-3.21753,0-.45508.16015-.55469.21289-.58789.38183-.23767,1.3139-.00659,1.9873.2702Zm10.22852.42505a1.318,1.318,0,0,1-.67188,1.05078A7.8327,7.8327,0,0,1,10.8,14.53618a7.8327,7.8327,0,0,1-3.87988-.96454,1.318,1.318,0,0,1-.67188-1.05078V8.53843a14.45178,14.45178,0,0,1,4.52344-1.47461h.05664a14.45178,14.45178,0,0,1,4.52344,1.47461Zm1.125-.42505V8.56059c.6734-.27679,1.60547-.50787,1.9873-.2702.05274.0332.21289.13281.21289.58789C18.677,9.74931,17.62526,11.01671,16.47676,12.09581ZM10.8,11.46422h2.6084v1.125H8.1916v-1.125Zm0-2.24317h2.6084v1.125H8.1916v-1.125Z"/>
</svg>
