<svg id="Layer_2" data-name="Layer 2" xmlns="http://www.w3.org/2000/svg" viewBox="0 0 21.6 21.6">
  <path d="M9.01564,16.52652a.56272.56272,0,0,1-.77246.19043L2.0674,12.98746a.56256.56256,0,1,1,.582-.96289l6.17578,3.72949A.5626.5626,0,0,1,9.01564,16.52652ZM14.735,10.81931a1.49286,1.49286,0,1,0-1.49286-1.4928A1.49288,1.49288,0,0,0,14.735,10.81931Zm4.71618-4.2049a.56716.56716,0,0,0-.73242.3125l-1.61133,4.01465-.48486.47486H13.24928L12.01271,9.11149V5.36441a.56226.56226,0,1,0-1.12451,0V9.25309a.55852.55852,0,0,0,.06689.26562l1.53357,2.86041-1.68909,1.96375L9.273,10.82926a.57156.57156,0,0,0-.12109-.17578L5.21925,6.7775a.56245.56245,0,0,0-.79.80078l3.855,3.79981,2.2085,5.082a.56291.56291,0,0,0,.51611.33789h1.49707a.5639.5639,0,0,0,.39356-.16016l5.0791-4.97461a.56986.56986,0,0,0,.1289-.19238l1.65625-4.124A.564.564,0,0,0,19.45118,6.61441Z"/>
</svg>
