<?xml version="1.0" encoding="utf-8"?>
<!-- Generator: Adobe Illustrator 24.0.1, SVG Export Plug-In . SVG Version: 6.00 Build 0)  -->
<svg version="1.1" id="Ebene_1" xmlns="http://www.w3.org/2000/svg" xmlns:xlink="http://www.w3.org/1999/xlink" x="0px" y="0px"
	 viewBox="0 0 21.6000004 21.6000004" style="enable-background:new 0 0 21.6000004 21.6000004;" xml:space="preserve">
<path d="M17.5499992,7.4250002v-2.25L14.1750002,1.8h-10.125v5.625H1.8v12.374999h18V7.4250002H17.5499992z M16.4249992,5.6409998
	v0.0090003h-2.7249994V2.925h0.0089998L16.4249992,5.6409998z M5.1750002,2.925h7.4000006v3.8499997h3.8500004v2.8999996H5.1750002
	V2.925z M18.6749992,18.6749992H2.925V8.5500002h1.1250002v2.25h13.499999v-2.25h1.125V18.6749992z M4.612,11.9259996
	c0.3103838,0,0.5620003,0.2516155,0.5620003,0.5620003c0,0.3103838-0.251616,0.5619993-0.5619998,0.5619993
	c-0.3103843,0-0.5620003-0.2516155-0.5620003-0.5619993S4.3016157,11.9259996,4.612,11.9259996L4.612,11.9259996z M4.612,14.1759996
	c0.3103838,0,0.5620003,0.2516155,0.5620003,0.5620003c0,0.3103838-0.251616,0.5619993-0.5619998,0.5619993
	c-0.3103843,0-0.5620003-0.2516155-0.5620003-0.5619993S4.3016157,14.1759996,4.612,14.1759996L4.612,14.1759996z M4.612,16.4259987
	c0.3103838,0,0.5620003,0.2516155,0.5620003,0.5620003c0,0.3103828-0.251616,0.5620003-0.5619998,0.5620003
	c-0.3103843,0-0.5620003-0.2516155-0.5620003-0.5620003C4.0500011,16.6776161,4.3016167,16.4260006,4.612,16.4259987z
	 M6.862,11.9259987c0.3103838,0,0.5620003,0.2516155,0.5620003,0.5620003c0,0.3103838-0.251616,0.5619993-0.5619998,0.5619993
	c-0.3103843,0-0.5620003-0.2516155-0.5620003-0.5619993C6.3000007,12.1776152,6.5516162,11.9259996,6.862,11.9259987z
	 M6.862,14.1759987c0.3103838,0,0.5620003,0.2516155,0.5620003,0.5620003c0,0.3103838-0.251616,0.5619993-0.5619998,0.5619993
	c-0.3103843,0-0.5620003-0.2516155-0.5620003-0.5619993C6.3000007,14.4276152,6.5516162,14.1759996,6.862,14.1759987z
	 M6.862,16.4259987c0.3103838,0,0.5620003,0.2516155,0.5620003,0.5620003c0,0.3103828-0.251616,0.5620003-0.5619998,0.5620003
	c-0.3103843,0-0.5620003-0.2516155-0.5620003-0.5620003C6.3000011,16.6776161,6.5516167,16.4260006,6.862,16.4259987z
	 M9.1119995,11.9259987c0.3103838,0,0.5620003,0.2516165,0.5619993,0.5620003c0,0.3103838-0.2516155,0.5620003-0.5620003,0.5619993
	c-0.3103838,0-0.5619993-0.2516155-0.5619993-0.5619993s0.2516165-0.5619993,0.5620003-0.5619993
	C9.1120005,11.9259996,9.1120005,11.9259996,9.1119995,11.9259987z M9.1119995,14.1759987
	c0.3103838,0,0.5620003,0.2516165,0.5619993,0.5620003c0,0.3103838-0.2516155,0.5620003-0.5620003,0.5619993
	c-0.3103838,0-0.5619993-0.2516155-0.5619993-0.5619993s0.2516165-0.5619993,0.5620003-0.5619993
	C9.1120005,14.1759996,9.1120005,14.1759996,9.1119995,14.1759987z M9.1119995,16.4259987
	c0.3103838,0,0.5620003,0.2516155,0.5619993,0.5620003c0,0.3103848-0.2516155,0.5620003-0.5620003,0.5620003
	c-0.3103838,0-0.5619993-0.2516155-0.5619993-0.5620003C8.5500002,16.6776142,8.8016167,16.4260006,9.1119995,16.4259987z
	 M10.8000002,15.3000002h6.749999v-3.375h-6.749999V15.3000002z M11.9250002,13.0500002h4.499999v1.125h-4.5L11.9250002,13.0500002z
	"/>
</svg>
