<svg id="Layer_1" data-name="Layer 1" xmlns="http://www.w3.org/2000/svg" viewBox="0 0 21.6 21.6"><path d="M6.52,6.8a2,2,0,1,0,2,2A2,2,0,0,0,6.52,6.8Zm0,2.88A.88.88,0,1,1,7.4,8.8.88.88,0,0,1,6.52,9.68Zm-1.75,6.5h1v1h-1Zm2.5,0h1v1h-1Zm1-3h-1v-1h1Zm0,2h-1v-1h1Zm-2.5-2h-1v-1h1Zm0,2h-1v-1h1Zm2.5-9.75h-1v-1h1Zm-2.5,0h-1v-1h1ZM9.9,14.57a6,6,0,0,0,.62.51V19.8h-8V1.8h8V7.15a5,5,0,0,0-.62.52,4.68,4.68,0,0,0-.5.6V2.93H3.65V18.67H9.4V14A4.76,4.76,0,0,0,9.9,14.57Zm6.46-1.23a3.75,3.75,0,1,0-5.67.43,3.72,3.72,0,0,0,4.87.36l2.72,2.72.8-.8ZM15.21,13a2.64,2.64,0,1,1,0-3.73A2.65,2.65,0,0,1,15.21,13Z"/></svg>