<svg id="Ebene_1" data-name="Ebene 1" xmlns="http://www.w3.org/2000/svg" viewBox="0 0 21.6 21.6"><path d="M14.50264,16.3098v2.293a.554.554,0,1,1-1.108,0v-2.293a1.786,1.786,0,1,0-3.572,0v2.49a.554.554,0,1,1-1.108,0v-2.49a2.894,2.894,0,0,1,5.788,0Zm-2.894-5.234a5.23931,5.23931,0,0,0-5.234,5.234v1.452a.554.554,0,1,0,1.108,0v-1.452a4.126,4.126,0,1,1,8.252,0v.585a.554.554,0,1,0,1.108,0v-.585A5.24,5.24,0,0,0,11.60866,11.07579Zm0-2.34a7.59744,7.59744,0,0,0-7.509,6.582.55532.55532,0,0,0,.477.622.59792.59792,0,0,0,.073.004.55352.55352,0,0,0,.548-.48095,6.46492,6.46492,0,0,1,12.438-1.49005.55375.55375,0,1,0,1.032-.402A7.63893,7.63893,0,0,0,11.60866,8.73577Zm7.507,1.114a9.89626,9.89626,0,0,0-16.42,2.131.5548.5548,0,0,0,.997.487,8.78716,8.78716,0,0,1,14.584-1.895.55377.55377,0,1,0,.839-.723Zm-15.796-.907a11.00806,11.00806,0,0,1,14.286-1.979.55444.55444,0,0,0,.60394-.93,12.11719,12.11719,0,0,0-15.72,2.176.55369.55369,0,1,0,.83.733Zm1.079-3.994a.55476.55476,0,0,0,.291-.083,13.2812,13.2812,0,0,1,10.411-1.497.55385.55385,0,1,0,.29394-1.068,14.41516,14.41516,0,0,0-11.288,1.62305.55368.55368,0,0,0,.292,1.025Zm7.21,10.807a.55393.55393,0,0,0-.554.554v2.936a.554.554,0,1,0,1.108,0v-2.936A.55393.55393,0,0,0,11.60866,15.75579Z"/></svg>