<svg id="Layer_1" data-name="Layer 1" xmlns="http://www.w3.org/2000/svg" viewBox="0 0 21.6 21.6">
  <path d="M10.772,3.97881a3.73233,3.73233,0,0,1,.10565,3.04994,8.29261,8.29261,0,0,0-.22676.94728H10.651s-.04453.36552-.04606.52168A2.5941,2.5941,0,0,0,13.09685,11.258a2.38243,2.38243,0,0,0,1.54459-.59563c.38.69578.58183,1.09445.68853,1.32271A4.909,4.909,0,0,1,13.624,17.935c-.15486-1.817-1.33154-3.187-2.80564-3.187-1.47445,0-2.65148,1.37035-2.80582,3.18784a4.87946,4.87946,0,0,1-2.099-4.0239,5.706,5.706,0,0,1,.47443-2.03212c.79154-1.65572,3.07142-5.63546,4.384-7.901m-.00156-2.21539S6.546,8.96168,5.3811,11.39844a6.74554,6.74554,0,0,0-.58359,2.51346A6.01716,6.01716,0,0,0,9.42,19.76344,3.285,3.285,0,0,1,9.11136,18.344c0-1.36974.76429-2.48006,1.707-2.48006.94254,0,1.70684,1.11032,1.70684,2.48006a3.286,3.286,0,0,1-.30832,1.419,6.01855,6.01855,0,0,0,4.13156-8.23438c-.3194-.68779-1.09512-2.08468-1.96963-3.61173a1.89033,1.89033,0,0,1,.09387.58078,1.512,1.512,0,0,1-1.37584,1.6443A1.477,1.477,0,0,1,11.721,8.49771c.00144-.10373.03233-.34823.03233-.34823.18861-1.19878,1.1693-2.73528-.19547-5.06188C11.08187,2.28428,10.77038,1.76344,10.77038,1.76344Z"/>
</svg>
