<?xml version="1.0" encoding="utf-8"?>
<!-- Generator: Adobe Illustrator 24.0.1, SVG Export Plug-In . SVG Version: 6.00 Build 0)  -->
<svg version="1.1" id="Layer_1" xmlns="http://www.w3.org/2000/svg" xmlns:xlink="http://www.w3.org/1999/xlink" x="0px" y="0px"
	 viewBox="0 0 21.6 21.6" style="enable-background:new 0 0 21.6 21.6;" xml:space="preserve">
<path d="M15.6,4.4c-3.3,0-6.5-2.1-9.8-2.1c-0.7,0-1.5,0.1-2.2,0.4V1.8H2.4v18h1.2v-5.1c0.7-0.2,1.4-0.4,2.2-0.4
	c3.3,0,6.5,2.1,9.8,2.1c1.3,0,2.5-0.4,3.6-1V3.3C18.1,4,16.8,4.4,15.6,4.4z M17.9,14.7c-0.7,0.4-1.5,0.5-2.3,0.5
	c-1.5-0.1-3.1-0.4-4.5-1c-1.7-0.6-3.5-1-5.3-1.1c-0.7,0-1.5,0.1-2.2,0.3V4c0.7-0.3,1.4-0.5,2.2-0.5c1.5,0.1,3.1,0.4,4.5,1
	c1.7,0.6,3.5,1,5.3,1.1c0.8,0,1.6-0.1,2.3-0.3V14.7z"/>
</svg>
