<svg id="Layer_1" data-name="Layer 1" xmlns="http://www.w3.org/2000/svg" viewBox="0 0 21.6 21.6"><path d="M14.18,4.05H1.8V15.3H2.93a2.25,2.25,0,0,0,4.5,0h6.75a2.25,2.25,0,0,0,4.5,0H19.8V10.8Zm-9,12.38A1.13,1.13,0,1,1,6.3,15.3,1.13,1.13,0,0,1,5.18,16.43Zm11.25,0a1.13,1.13,0,1,1,1.12-1.13A1.13,1.13,0,0,1,16.43,16.43Zm2.25-2.25h-.32a2.22,2.22,0,0,0-3-.84,2.16,2.16,0,0,0-.83.84H7.11a2.22,2.22,0,0,0-3-.84,2.16,2.16,0,0,0-.83.84H2.93v-9H13.65l5,6Zm-6.7-4-.66.66a2.89,2.89,0,0,0-4.07,0l-.67-.66A3.82,3.82,0,0,1,12,10.22Zm-1.31,1.31-.66.66a1,1,0,0,0-1.45,0l-.67-.66A2,2,0,0,1,10.67,11.53Zm2.62-2.62-.66.66a4.74,4.74,0,0,0-6.69,0l-.66-.66h0A5.67,5.67,0,0,1,13.29,8.91Z"/></svg>