<?xml version="1.0" encoding="utf-8"?>
<!-- Generator: Adobe Illustrator 24.0.1, SVG Export Plug-In . SVG Version: 6.00 Build 0)  -->
<svg version="1.1" id="Layer_1" xmlns="http://www.w3.org/2000/svg" xmlns:xlink="http://www.w3.org/1999/xlink" x="0px" y="0px"
	 viewBox="0 0 21.6000004 21.6000004" style="enable-background:new 0 0 21.6000004 21.6000004;" xml:space="preserve">
<path d="M15.06318,3.15242H4.6422901v3.92558H1.8v9.4737501h0.94629c0.0001771,1.0471325,0.849189,1.8958569,1.8963211,1.8956795
	c1.0468812-0.0001774,1.8955016-0.8487988,1.895679-1.8956795h5.6831102
	c-0.0004854,0.2534428,0.0501652,0.5043774,0.1489201,0.7377892c0.0273237,0.0573769,0.0576391,0.1132793,0.0908203,0.1674805
	c0.0283203,0.0513992,0.0512695,0.1060791,0.0839996,0.1544209c0.585166,0.8682022,1.7633553,1.0976486,2.6315584,0.5124836
	c0.5228386-0.3523922,0.8362637-0.9416656,0.8362122-1.5721741h0.9453106v-2.0298204l0.0009995,0.0001202
	c1.0470753-0.0001383,1.8958626-0.8489256,1.8959999-1.8959999h0.9447784V8.8366203L15.06318,3.15242z M5.5446301,16.5517101
	c-0.000102,0.4984531-0.4042616,0.9024467-0.9027152,0.9023457c-0.4984531-0.000103-0.902447-0.4042625-0.9023447-0.9027157
	c0.000102-0.4984531,0.4042616-0.9024467,0.9027147-0.9023447c0.4983091,0.000102,0.9022431,0.4040365,0.9023452,0.9023447
	V16.5517101z M14.11689,17.4544201c-0.4985533-0.0000725-0.9026518-0.4042873-0.9025803-0.9028397
	s0.4042864-0.9026518,0.9028397-0.9025803c0.4985018,0.0000715,0.9025803,0.4042072,0.9025803,0.90271
	c-0.0000114,0.4985638-0.4041862,0.9027214-0.90275,0.90271C14.11695,17.4544201,14.1169195,17.4544201,14.11689,17.4544201z
	 M15.9649801,15.5584202h-0.2397499c-0.1601753-0.2580814-0.3800592-0.4738636-0.6411104-0.6291504
	c-0.0131798-0.0079298-0.0268602-0.0141602-0.0405302-0.0220003c-0.1175966-0.0662832-0.2420168-0.1196537-0.3710899-0.1591797
	c-0.0292997-0.0092201-0.0581102-0.0195303-0.0878897-0.0273399c-0.3050175-0.0863752-0.6280031-0.086545-0.9331102-0.0004902
	c-0.0336905,0.0085402-0.0649405,0.0200005-0.0976496,0.0302696c-0.1234303,0.0383787-0.2425556,0.0894346-0.3554697,0.1523504
	c-0.0180702,0.0104904-0.0375996,0.0190001-0.0556698,0.0302696c-0.2579384,0.1550989-0.4752026,0.3694324-0.63379,0.6252403
	H6.25068C6.0911188,15.3015089,5.8724842,15.0864744,5.6129899,14.9312C5.5973601,14.92167,5.58076,14.9141102,5.5646501,14.9049501
	c-0.115068-0.0645685-0.2366834-0.1167021-0.3627901-0.1555204c-0.03125-0.0098801-0.0609999-0.0206299-0.0932698-0.0288696
	c-0.3048759-0.0863333-0.6277342-0.0863333-0.93261,0C4.1442399,14.7286797,4.1139803,14.7395601,4.0832,14.7493105
	c-0.1264513,0.0389376-0.2483957,0.0912333-0.36377,0.1560001c-0.0161099,0.0089102-0.0322199,0.0162296-0.0473599,0.02563
	c-0.2597711,0.1551933-0.4786,0.3703394-0.63818,0.6274395H2.7936499V8.0712404h8.9624004l4.2089996,5.0506601
	L15.9649801,15.5584202z M16.95998,13.52876h-0.0009098l-0.0009995-0.0002403v-0.7662401l-0.633791-0.7607403
	c0.1642418-0.1761885,0.3939037-0.2767992,0.6347694-0.27808c0.4985199-0.0002508,0.902853,0.4036751,0.9031048,0.902195
	s-0.4036751,0.902854-0.902195,0.9031048L16.95998,13.52876z M18.8067207,11.6328897h-0.2392502
	c-0.3429165-0.5598602-0.9518681-0.9015875-1.6084003-0.9025898c-0.472435,0.0028906-0.9260349,0.1856089-1.2685604,0.5109997
	l-3.46912-4.1632996H5.6354499V4.1455798h8.9628887l4.2084999,5.0505395L18.8067207,11.6328897z M10.2589998,9.7884102
	l0.6389999,0.6380005l-3.3169999,3.3169994l-1.7750001-1.7749996L6.4449997,11.33041l1.1360002,1.1359997L10.2589998,9.7884102z"/>
</svg>
