<svg id="Layer_1" data-name="Layer 1" xmlns="http://www.w3.org/2000/svg" viewBox="0 0 21.6 21.6"><path d="M8.92891,5.471l-.799-.799L11.0019,1.8l2.871,2.872-.79895.799-1.507-1.507V9.878h-1.131V3.964Zm-3.433,3.451-.799-.799-2.872,2.872,2.872,2.871.799-.79895L3.9889,11.56h6.124V10.429H3.9889ZM16.903,8.10762l-.79907.79907,1.47778,1.4779H13.43989a3.09844,3.09844,0,0,0-3.09472,3.09485V19.8h1.13012V13.47944a1.96683,1.96683,0,0,1,1.9646-1.9646h4.20069L16.104,13.05146l.79907.79908L19.7751,10.9792Z"/></svg>