<svg id="Layer_1" data-name="Layer 1" xmlns="http://www.w3.org/2000/svg" viewBox="0 0 21.6 21.6"><path d="M14.43,17.66V10.8a3.61,3.61,0,0,0-1-2.51h4.25L15.6,10.35l.79.79L19.8,7.73,16.39,4.32l-.79.79,2.06,2.06H10.8a3.61,3.61,0,0,0-2.51,1V3.94L10.35,6l.79-.79L7.73,1.8,4.32,5.21,5.11,6,7.17,3.94V10.8a3.61,3.61,0,0,0,1,2.51H3.94L6,11.25l-.79-.79L1.8,13.87l3.41,3.41L6,16.49,3.94,14.43H10.8a3.61,3.61,0,0,0,2.51-1v4.25L11.25,15.6l-.79.79,3.41,3.41,3.41-3.41-.79-.79ZM10.8,13.31a2.51,2.51,0,1,1,2.51-2.51A2.51,2.51,0,0,1,10.8,13.31Z"/></svg>