<svg id="Ebene_1" data-name="Ebene 1" xmlns="http://www.w3.org/2000/svg" viewBox="0 0 21.6 21.6"><path d="M18.71748,2.009h-16V13.438h16Zm-1.143,10.286H3.86049V3.152h13.714Zm-9.779-.857a3.429,3.429,0,1,0-3.429-3.429A3.43172,3.43172,0,0,0,7.79548,11.438Zm0-5.715a2.286,2.286,0,1,1-2.286,2.286A2.288,2.288,0,0,1,7.79548,5.723Zm5.714,0a1.143,1.143,0,1,1,1.143,1.143A1.143,1.143,0,0,1,13.50947,5.723Zm6.132,9.945c-.539,1.986-4.191,3.428-8.924,3.428a16.54675,16.54675,0,0,1-6.262-1.077l-.674,1.572-1.823-3.246,3.608-.918-.672,1.567a15.74233,15.74233,0,0,0,5.823.976c4.052,0,7.023-1.13,7.713-2.302Z"/></svg>