<?xml version="1.0" encoding="UTF-8"?><svg id="a" xmlns="http://www.w3.org/2000/svg" viewBox="0 0 21.6 21.6"><path d="M7.28742,4.075l1.66365,1.9132,.33635,.3868h9.38758v11.15H2.925V4.075H7.28742m.51258-1.125H1.8v15.7H19.8V5.25H9.8l-2-2.3h0Zm5.12078,8.36988v-1.43268c0-1.17352-.95129-2.12476-2.12482-2.12476-1.17346,0-2.12476,.95123-2.12476,2.12476v1.43268h-1.06238v4.78076h6.37433v-4.78076h-1.06238Zm-3.12457-1.43268c0-.55127,.44849-.99976,.99976-.99976,.55133,0,.99982,.44849,.99982,.99976v1.43268h-1.99957v-1.43268Zm-1.06238,5.08844v-2.49152h4.12433v2.49152h-4.12433Z"/></svg>