<svg id="Layer_1" data-name="Layer 1" xmlns="http://www.w3.org/2000/svg" viewBox="0 0 21.6 21.6">
  <path d="M15.33574,1.8H6.26426a1.29734,1.29734,0,0,0-1.2961,1.29609v13.8961a1.29734,1.29734,0,0,0,1.2961,1.29609h1.1039V19.8h1.2V18.28828h4.46368V19.8h1.2V18.28828h1.1039a1.29734,1.29734,0,0,0,1.2961-1.29609V3.09609A1.29734,1.29734,0,0,0,15.33574,1.8ZM6.26426,3h9.07148a.09653.09653,0,0,1,.0961.09609V7.35586H6.16816V3.09609A.09653.09653,0,0,1,6.26426,3Zm9.07148,14.08828H6.26426a.09653.09653,0,0,1-.0961-.09609V8.55586h9.26368v8.43633A.09653.09653,0,0,1,15.33574,17.08828ZM8.29219,6.26426h-1.2V4.70391h1.2Zm-1.2,3.2039h1.2v1.55977h-1.2Z"/>
</svg>
