<svg id="Ebene_1" data-name="Ebene 1" xmlns="http://www.w3.org/2000/svg" viewBox="0 0 21.6 21.6">
  <path d="M7.39708,9.352h1.126v1.126h-1.126v1.125h-1.125V10.478h-1.125V9.352h1.125V8.227h1.125Zm7.316,0a.563.563,0,1,0-.563-.563A.563.563,0,0,0,14.71306,9.352Zm-1.126,0a.563.563,0,1,0,.563.563A.563.563,0,0,0,13.58708,9.352Zm2.251,0a.563.563,0,1,0,.563.563A.563.563,0,0,0,15.83806,9.352Zm-1.125,1.125a.563.563,0,1,0,.563.563A.563.563,0,0,0,14.71306,10.477Zm4.508,4.595a3.32813,3.32813,0,0,1-1.936,1.798,1.104,1.104,0,0,1-.346.055c-1.246,0-2.709-1.923-3.115-2.668a1.09356,1.09356,0,0,0-.965-.568H8.704a1.09163,1.09163,0,0,0-.965.568c-.406.74506-1.87,2.668-3.115,2.668a1.10823,1.10823,0,0,1-.346-.055,3.33158,3.33158,0,0,1-1.936-1.798,7.74186,7.74186,0,0,1-.008-5.777A7.382,7.382,0,0,1,5.89708,5.038a3.46364,3.46364,0,0,1,2.73-.149,3.21223,3.21223,0,0,1,1.228.866.69066.69066,0,0,0,.52.204h.812a.69371.69371,0,0,0,.52-.203,3.20761,3.20761,0,0,1,1.228-.867,3.464,3.464,0,0,1,2.73.149,7.38918,7.38918,0,0,1,3.563,4.257A7.742,7.742,0,0,1,19.22106,15.072Zm-1.05-5.39294a6.26262,6.26262,0,0,0-2.971-3.617,2.37172,2.37172,0,0,0-1.858-.124,2.09417,2.09417,0,0,0-.798.569,1.81023,1.81023,0,0,1-1.357.578h-.812a1.8119,1.8119,0,0,1-1.357-.578,2.09413,2.09413,0,0,0-.798-.569,2.37052,2.37052,0,0,0-1.859.125A6.27265,6.27265,0,0,0,3.389,9.679a6.61118,6.61118,0,0,0-.038,4.9,2.41691,2.41691,0,0,0,1.272,1.22c.387.147,1.575-1.069,2.126-2.08a2.2173,2.2173,0,0,1,1.954-1.156h4.155a2.21737,2.21737,0,0,1,1.954,1.156c.551,1.011,1.74,2.226,2.126,2.08a2.41352,2.41352,0,0,0,1.272-1.22A6.60687,6.60687,0,0,0,18.17107,9.679Z"/>
</svg>
