<?xml version="1.0" encoding="utf-8"?>
<!-- Generator: Adobe Illustrator 24.0.1, SVG Export Plug-In . SVG Version: 6.00 Build 0)  -->
<svg version="1.1" id="Layer_1" xmlns="http://www.w3.org/2000/svg" xmlns:xlink="http://www.w3.org/1999/xlink" x="0px" y="0px"
	 viewBox="0 0 21.6000004 21.6000004" style="enable-background:new 0 0 21.6000004 21.6000004;" xml:space="preserve">
<path d="M16.7630901,13.80653h0.0007305l-0.0087795-0.2597599L16.7381916,13.34797
	c-0.0078678-0.0624857-0.0125732-0.125329-0.0140991-0.1882896c0.0030003,0.0266104,0.0024395,0.0542002,0.0051308,0.0810003
	l-0.0069008-0.0810003h0.00177l-0.0042095-0.0281401l-0.0024395-0.0279999h-0.00177
	c-0.0670452-0.5612888-0.2142792-1.110054-0.4372005-1.6295204c-0.9069996-1.9530001-5.526-9.6739998-5.526-9.6739998
	s-4.1849999,7.1310005-5.3390002,9.5450001c-0.3067093,0.688159-0.4964476,1.4226704-0.5613999,2.1732798l0.0040002-0.0408297
	l-0.00421,0.0422401c-0.00177,0.0202599-0.00458,0.04284-0.006,0.0624304v0.0000696
	c-0.0065298,0.0921602-0.0103798,0.1778498-0.0103798,0.2528c-0.0006919,0.6029024,0.0901046,1.2024202,0.26929,1.77808
	c0.2711091,1.0473442,0.8729239,1.9792557,1.7160001,2.6572304c0.963407,0.868103,2.1847773,1.3965359,3.4771099,1.5043907
	l0.0891171,0.0252876l-0.0092697-0.0212994l-0.4563599-1.0573101c-0.0190001-0.0440006-0.0332098-0.0921707-0.0502996-0.1378803
	c-0.1504993-0.4127693-0.2262669-0.8490467-0.2237501-1.2883892c0.0078363-0.3455734,0.0554838-0.6890907,0.1420002-1.0237503
	c0.2847052-0.8466377,0.6206589-1.675168,1.0059996-2.4809999c0.3979521,0.8225002,0.7501125,1.666379,1.0548697,2.52777
	c0.0806398,0.3193645,0.1207285,0.6476154,0.1193199,0.9769993c0.0024824,0.4383259-0.0729713,0.8736038-0.2228403,1.2855206
	c-0.0175695,0.04669-0.0319996,0.0958195-0.0513296,0.1407509l-0.4561701,1.0563908l-0.0094604,0.0221977l0.0930004-0.0264301
	c3.0786972-0.2703972,5.4406948-2.8480206,5.4417896-5.9385691L16.7630901,13.80653z M4.84586,13.5820999
	c0-0.0060997,0.0036001-0.0379,0.0061002-0.0624304h0.0042701C4.8507376,13.5400896,4.8472643,13.5610008,4.84586,13.5820999z
	 M15.5790691,14.5568399c-0.2247944,1.5287104-1.1994219,2.8436213-2.5966797,3.5032892
	c0.0374107-0.2532787,0.056098-0.5089722,0.0559101-0.7649994c0.0013323-0.4308949-0.0521774-0.8602066-0.1592398-1.2775898
	c-0.4691372-1.2752247-1.0055571-2.5246782-1.6070004-3.7431002L10.7974596,11.29144l-0.4784603,0.9812002
	c-0.591795,1.1938515-1.1106701,2.4224825-1.5537701,3.6791306c-0.1162825,0.4385815-0.178894,0.889658-0.1864595,1.3433304
	C8.578455,17.5587139,8.5982456,17.8219681,8.63797,18.082571c-0.2798395-0.1206474-0.5489321-0.2648315-0.8043799-0.4309998
	C6.6523738,16.7375889,5.9604692,15.3285303,5.9594998,13.835c0.0320268-0.6913452,0.1906824-1.3709393,0.46808-2.0050001
	c0.7817998-1.6360502,3.0328999-5.5650001,4.3338604-7.8109999c1.3990002,2.3640003,3.8730001,6.5869999,4.4830999,7.901
	C15.6059866,12.7488508,15.7220879,13.6639891,15.5790691,14.5568399z"/>
</svg>
