<svg id="Layer_3" data-name="Layer 3" xmlns="http://www.w3.org/2000/svg" viewBox="0 0 21.6 21.6">
  <path d="M7.9779,4.41555a1.00517,1.00517,0,0,1-.24646.06457.76834.76834,0,0,1-.36468-1.47007.783.783,0,0,1,1.00839.39777A.77315.77315,0,0,1,7.9779,4.41555ZM7.18675,17.29682A.76789.76789,0,0,0,6.4108,18.622a.76784.76784,0,0,0,.77595-1.32522Zm2.10784.84233a.76122.76122,0,0,0-.3352,1.485.58448.58448,0,0,0,.232.02436.765.765,0,0,0,.10316-1.50937Zm6.36973-1.63024a.76426.76426,0,0,0-.06348,1.07819.78083.78083,0,0,0,.63531.25363.72782.72782,0,0,0,.44392-.19023.764.764,0,0,0-1.01575-1.14159Zm2.49184-2.0169a.7629.7629,0,0,0-.77641,1.3134.74284.74284,0,0,0,.457.105.7607.7607,0,0,0,.31943-1.41843ZM13.751,17.72109a.76171.76171,0,0,0,.37372,1.45753A.65327.65327,0,0,0,14.36,19.115a.7606.7606,0,1,0-.60906-1.39393ZM3.58415,7.65439A.719.719,0,0,0,4.031,7.7591.73457.73457,0,0,0,4.62336,7.381a.76016.76016,0,1,0-1.03921.27341Zm6.21053.93747a4.66027,4.66027,0,0,1-.477-2.06466,4.76223,4.76223,0,0,1,9.52421,0A4.65327,4.65327,0,0,1,18.3394,8.643c-.39706.78558-4.2595,6.34329-4.2595,6.34329S10.37136,9.76966,9.79468,8.59186Zm.75094-2.06466a3.44,3.44,0,0,0,.35226,1.52534,56.925,56.925,0,0,0,3.17633,4.80819,50.483,50.483,0,0,0,3.16942-4.772,3.43662,3.43662,0,0,0,.37043-1.56154,3.53439,3.53439,0,0,0-7.06844,0Zm1.12957.10239a2.40465,2.40465,0,1,1,2.40465,2.40458A2.40731,2.40731,0,0,1,11.67519,6.62959Zm1.09144,0a1.31318,1.31318,0,1,0,1.31321-1.31321A1.31479,1.31479,0,0,0,12.76663,6.62959ZM2.88925,10.07881a.83257.83257,0,0,0,.23107.01318.76534.76534,0,1,0-.81169-.92868A.76481.76481,0,0,0,2.88925,10.07881ZM4.23348,13.953a.76449.76449,0,1,0-.64461,1.06171.67071.67071,0,0,0,.24645-.06451A.76638.76638,0,0,0,4.23348,13.953Zm.13257,1.83934a.76526.76526,0,0,0-.06289,1.07916.72237.72237,0,0,0,.63466.2526.80056.80056,0,0,0,.44488-.17956.77692.77692,0,0,0,.06289-1.07819A.7667.7667,0,0,0,4.36605,15.79235ZM5.55483,4.2986a.76134.76134,0,1,0,.76135.76134A.76134.76134,0,0,0,5.55483,4.2986ZM2.89964,11.06921a.76135.76135,0,1,0,.76134.76134A.76135.76135,0,0,0,2.89964,11.06921Zm8.73289,7.2081a.76135.76135,0,1,0,.76134.76135A.76135.76135,0,0,0,11.63253,18.27731Zm7.06783-6.215a.76135.76135,0,1,0,.76135.76135A.76134.76134,0,0,0,18.70036,12.06234Z"/>
</svg>
