<svg id="Layer_2" data-name="Layer 2" xmlns="http://www.w3.org/2000/svg" viewBox="0 0 21.6 21.6">
  <path d="M12.33015,12.84388a14.64349,14.64349,0,0,1-2.23736-1.85247A14.63383,14.63383,0,0,1,8.2704,8.72993L9.45662,6.36738l-4.072-4.12622L1.802,5.168A17.46638,17.46638,0,0,0,6.54506,14.4925a17.46676,17.46676,0,0,0,9.261,4.86634L18.78,15.81514,14.70814,11.689Zm3.04718,5.27582a16.32424,16.32424,0,0,1-8.03155-4.41742A16.32588,16.32588,0,0,1,3.03529,5.61311L5.30323,3.76033l2.786,2.82312L7.265,8.22511l-.2909.57947.35553.54223A15.82449,15.82449,0,0,0,9.292,11.78163a15.83491,15.83491,0,0,0,2.40882,1.99469l.53747.36285.58338-.28332,1.65234-.80249L17.26,15.87642Zm-1.459-13.47156a.63573.63573,0,0,0,.07324-.30468.68254.68254,0,0,0-.16016-.47266.6181.6181,0,0,0-.4834-.17871.68892.68892,0,0,0-.53906.21.83651.83651,0,0,0-.1748.31152,1.51633,1.51633,0,0,0-.05567.44434H11.42958a2.80848,2.80848,0,0,1,.07715-.71387,1.724,1.724,0,0,1,.24511-.53222,1.51438,1.51438,0,0,1,.61963-.51368,2.66139,2.66139,0,0,1,1.80274-.0664,1.69454,1.69454,0,0,1,.57422.33887,1.36516,1.36516,0,0,1,.3457.5039,1.68017,1.68017,0,0,1,.11621.62695,1.55626,1.55626,0,0,1-.06641.47266,1.50489,1.50489,0,0,1-.18261.37793,1.8956,1.8956,0,0,1-.26563.31445,3.65444,3.65444,0,0,1-.31836.26954q-.16845.14063-.35058.26953c-.1211.08691-.24122.17382-.36036.26269s-.23339.17774-.34277.26563a2.72857,2.72857,0,0,0-.29785.28027V6.821h2.18457v.9873H11.36659a2.34007,2.34007,0,0,1,.07715-.57422,1.98507,1.98507,0,0,1,.46972-.84375,3.86865,3.86865,0,0,1,.34278-.32519q.17432-.15381.37109-.30078c.12988-.09766.25977-.19532.38867-.291.12793-.09473.252-.18945.37012-.2832q.17871-.13917.32617-.28028A1.06382,1.06382,0,0,0,13.91835,4.64814ZM19.08046,5.778V2.76143H17.87733L15.56,5.59639V6.695h2.331V7.8083h1.18946V6.695h.72168V5.778Zm-1.18946,0H16.48378V5.76436l1.39355-1.72168H17.891Z"/>
</svg>
