<svg id="Ebene_1" data-name="Ebene 1" xmlns="http://www.w3.org/2000/svg" viewBox="0 0 21.6 21.6"><path d="M6.24,15.85h9.12V8.75H12.74a3.34,3.34,0,0,0,1.08-.34,1.6,1.6,0,0,0-.54-2.89,1.55,1.55,0,0,0-1.2.23A6.85,6.85,0,0,0,10.8,7.42,7,7,0,0,0,9.52,5.75,1.59,1.59,0,0,0,7.78,8.41a3.43,3.43,0,0,0,1.08.34H6.24Zm6.33-9.18a.53.53,0,0,1,.89.09.6.6,0,0,1-.19.8,5.4,5.4,0,0,1-1.56.33A7.92,7.92,0,0,1,12.57,6.67ZM11.36,9.89h2.86v4.82H11.36Zm-3-2.33a.58.58,0,0,1-.18-.78A.55.55,0,0,1,9,6.68,7.92,7.92,0,0,1,9.9,7.89,5.3,5.3,0,0,1,8.34,7.56Zm-1,2.33h2.86v4.82H7.38Zm6.86,9.57-.43-1A7.88,7.88,0,0,0,18.07,8.13C18,8,18,7.88,17.89,7.75l1-.5c.07.15.15.29.21.45A9,9,0,0,1,14.24,19.46ZM7.79,18.41l-.43,1A9,9,0,1,1,16.9,4.54l-.74.85a7.86,7.86,0,1,0-8.37,13Z"/></svg>