<?xml version="1.0" encoding="utf-8"?>
<!-- Generator: Adobe Illustrator 25.3.1, SVG Export Plug-In . SVG Version: 6.00 Build 0)  -->
<svg version="1.1" id="Ebene_1" xmlns="http://www.w3.org/2000/svg" xmlns:xlink="http://www.w3.org/1999/xlink" x="0px" y="0px"
	 viewBox="0 0 21.6 21.6" style="enable-background:new 0 0 21.6 21.6;" xml:space="preserve">
<path d="M17.2,7.3c1.3-0.7,1.7-2.8,0.8-4.1c-0.9-1.3-2.7-1.7-4.1-0.9c-0.8,0.5-2.2,2.8-3.1,4.3C9.9,5.1,8.5,2.8,7.7,2.3
	C6.3,1.4,4.4,1.8,3.6,3.2c0,0,0,0,0,0c-1.3,2.4,0.3,4.5,3,4.8l-2.9,0v11.9h14.2V7.9h-2.9C15.8,7.8,16.5,7.6,17.2,7.3z M5.1,6.3
	C4.3,5.7,4,4.6,4.6,3.8C5.1,3,6.2,2.8,7,3.3c0.9,0.7,2,2.5,2.8,3.9C8.2,7.1,6.2,7,5.1,6.3z M10.2,18.6H4.9V9.1h5.3V18.6z M14.6,3.3
	C15.4,2.8,16.5,3,17,3.8c0.5,0.8,0.3,2-0.5,2.4c-1.1,0.7-3.1,0.8-4.7,0.9C12.5,5.8,14.1,3.6,14.6,3.3L14.6,3.3z M16.7,9.1v9.5h-5.3
	V9.1L16.7,9.1z"/>
</svg>
