<svg id="Layer_1" data-name="Layer 1" xmlns="http://www.w3.org/2000/svg" viewBox="0 0 21.6 21.6">
  <path d="M19.8,13.90446H18.68037a3.67023,3.67023,0,0,0-7.20434-.998A6.31918,6.31918,0,0,1,14.447,18.25865H13.32734v-.0141a5.20386,5.20386,0,0,0-10.40771.0141H1.8a6.31222,6.31222,0,0,1,8.65918-5.87128A4.79282,4.79282,0,0,1,19.8,13.90446ZM12.41627,5.92735a2.586,2.586,0,1,1,2.58606,2.586A2.586,2.586,0,0,1,12.41627,5.92735Zm1.125,0a1.461,1.461,0,1,0,1.46106-1.461A1.4627,1.4627,0,0,0,13.54127,5.92735ZM4.80781,7.90019A3.31559,3.31559,0,1,1,8.12343,11.2158,3.31558,3.31558,0,0,1,4.80781,7.90019Zm1.125,0A2.19059,2.19059,0,1,0,8.12343,5.70964,2.193,2.193,0,0,0,5.93281,7.90019Z"/>
</svg>
