<svg id="Layer_1" data-name="Layer 1" xmlns="http://www.w3.org/2000/svg" viewBox="0 0 21.6 21.6">
  <path d="M17.26777,11.38447a4.02617,4.02617,0,0,1-1.69659.73358V11.10554a2.9423,2.9423,0,0,0,1.08624-.51306,2.51758,2.51758,0,0,0,.71485-3.19775c-.56934-1.37354-2.67676-1.48682-2.69825-1.4878l-.39746-.01855-.07226-.39209A3.1508,3.1508,0,0,0,12.635,3.42988a4.56354,4.56354,0,0,0-2.34375-.61865,5.54742,5.54742,0,0,0-1.73437.28467A3.64983,3.64983,0,0,0,5.9543,6.77266l.03955.53662-.53809.00195A1.52551,1.52551,0,0,0,4.35029,7.843a2.13837,2.13837,0,0,0-.311,1.87305,2.05014,2.05014,0,0,0,1.1831,1.39062,1.58785,1.58785,0,0,0,.62012.11719H7.47157v1H5.84248a2.58193,2.58193,0,0,1-1.00879-.19531A3.07291,3.07291,0,0,1,3.07832,9.99385a3.14269,3.14269,0,0,1,.47314-2.752,2.50388,2.50388,0,0,1,1.41309-.87353A4.621,4.621,0,0,1,8.24434,2.1457a5.94266,5.94266,0,0,1,4.90234.42481A4.25791,4.25791,0,0,1,15.09883,4.946a3.94961,3.94961,0,0,1,3.19726,2.06591A3.4898,3.4898,0,0,1,17.26777,11.38447Zm-2.7326,3.733.035,4.67493L13.47944,19.8l-.02032-2.71539H9.76338l-.02222,2.72717H8.67061l.00073-4.69428L8.666,7.38435l1.0907-.001.00109,1.68244h3.6413l-.012-1.60858,1.0907-.00855Zm-4.775-2.58789h3.66485L13.4073,10.156H9.75856Zm3.69073,3.4643-.00653-.87641-.01123-1.49719H9.761l.001,1.49719.00061.87641Z"/>
</svg>
