<?xml version="1.0" encoding="UTF-8"?><svg id="Layer_4" xmlns="http://www.w3.org/2000/svg" viewBox="0 0 38 38"><path d="m33.28369,20.46917l-1.41607-1.04062c.26659-.4475.60036-1.50367.46217-2.97831.52722-.46732,1.25049-1.10437,1.93026-1.70128l.73995-.64864-8.03237-9.47533-3.26845,2.90571c-.73022.00628-1.49074.1092-2.28217.31749-.53306.16057-1.03557.32694-1.53412.49429-1.33015-.77359-2.85624-.97479-3.28183-.97479-.9023,0-4.03176.52028-4.37052.57543l-2.52618-1.42247-6.70435,10.5032,2.51042,1.57603c.15444.7368.45693,1.57957.97928,2.32167l-.88137.96052c-.98336,1.07277-.91326,2.74879.15773,3.73762l.09541.08785c.25801.23818.57249.40607.8821.52321-.08665.90585.29598,1.84196.80226,2.39055.51018.55249,1.21703.8629,1.99105.87364.01363.00098.02824.00098.04284.00098.11282,0,.22253-.02007.33347-.03288.09608.64022.39766,1.22084.88746,1.64643.80421.69696,1.85767.75943,2.74756.42071.1772.30065.39821.60423.66693.83655.52868.45878,1.15666.70477,1.78952.70477.07886,0,.15773-.0039.23756-.01171.81754-.08029,1.5797-.56195,2.26951-1.41558.76082.68183,1.241,1.11291,1.241,1.11291.35714.276.77719.46873,1.21587.55823.19363.03959.39249.05967.59068.05967.92397,0,1.77753-.42071,2.3418-1.15428.24724-.32103.42298-.68207.52192-1.06362l.67119.51003c.32981.25117.70308.42755,1.10774.52309.22156.05228.44981.07888.67807.07888.92141,0,1.80309-.43938,2.35848-1.17526.35507-.47001.5487-1.01298.59001-1.56151.19698.041.39882.0618.60066.0618.9564,0,1.85809-.46659,2.41215-1.24817.63711-.90286.70003-2.04152.26452-2.97678.31265-.19657.58971-.45195.81243-.75663.46618-.63552.65835-1.41851.53884-2.20173-.11951-.78329-.53622-1.47286-1.1734-1.94165Zm-11.32729-10.69702c.85776-.22518,1.66057-.29565,2.41166-.21243l.02337.02648.02166-.01928c.00189.00024.00377.00067.00572.00092l-.00304-.00323,2.35129-2.08929,5.44059,6.41857c-1.55098,1.36451-1.91134,1.69408-2.01503,1.79401l-.03529-.0374c.00493.01916.01004.03825.01479.05723-.01266.01257-.02112.02129-.02659.02715l.04466.04283c.27164,1.13585.16533,1.96404.06018,2.36944-.00858.03319-.01497.04838-.02312.07602l-2.44379-1.79578c-.18578-.1211-.46296-.31157-.77153-.52675.15225-.15026.28959-.30742.39456-.46909.05836-.0898.11714-.18004.15992-.26868l-1.78659-.88731c-.16454.30699-.50823.60911-1.21995.30309-1.68826-.72429-3.62284-1.51691-3.65692-1.53009-2.01053-.73942-3.248.42559-4.68798,1.78437-.6533.52614-1.36599.7238-2.00371.55298-.38653-.10249-.72535-.33579-.98044-.66524l2.45547-2.47694c1.76225-.92196,3.82536-1.7341,6.27012-2.47157Zm9.08194,9.12685l-.00018.00037-.0011-.00104.00128.00067Zm-23.60447,5.67231c-.24341,0-.48681-.08883-.67861-.26746-.40308-.37484-.42645-1.00737-.0516-1.41247l1.89856-2.04988c.3729-.4051,1.00478-.42755,1.40883-.05174.40308.37484.42645,1.00737.0516,1.41247l-1.89856,2.04988c-.1957.21182-.46247.3192-.73022.3192Zm-.60249-6.32175l.00389-.00622-.00383.00628-.00006-.00006Zm3.46201,9.07639c-.19667.21475-.46539.32408-.73508.32408-.24048,0-.48194-.08688-.67375-.26258-.406-.37288-.43326-1.00542-.06134-1.41247l2.70764-2.96257c.37192-.40607,1.00186-.43438,1.40883-.0615.406.37288.43326,1.00542.06134,1.41247l-.06955.07608c-.01783.02276-.02562.05021-.04631.07132l-.28253.28851-2.30925,2.52666Zm3.01433,2.39153c-.19667.22256-.47026.33579-.74482.33579-.23562,0-.47221-.08297-.66206-.25282-.41184-.36703-.44884-.99858-.08276-1.41051l2.22472-2.50866c.36413-.41486.99601-.45097,1.40688-.08297.41184.36703.44884.99858.08276,1.41051l-2.22472,2.50866Zm4.31996.25575l-.80908.91268c-.19667.22256-.47026.33579-.74482.33579-.23562,0-.47221-.08297-.66206-.25282-.41184-.36605-.44884-.99858-.08276-1.41051l.80908-.91268c.36511-.41486.99504-.45195,1.40688-.08297.41184.36605.44884.99858.08276,1.41051Zm14.68208-6.54217c-.08434.11543-.1946.19773-.3118.26313-.02422.01348-.04795.02776-.07308.03905-.11769.05265-.24334.08431-.37156.08706-.007.00018-.01333.00476-.02032.00476-.07369,0-.14763-.00848-.22016-.02562h-.00018c-.12274-.02898-.2417-.08224-.34959-.16198l-5.43341-3.99946c-.37424.44219-.7977.92525-1.25469,1.43309l6.71214,4.76988c.21706.15441.35105.38234.39243.62601.04138.24373-.00992.5032-.16351.72087-.08452.11921-.19612.20444-.31503.2721-.0241.01367-.04752.02831-.0726.03978-.11945.0546-.24736.08718-.37783.09017-.00742.00018-.014.00512-.02142.00512-.07363,0-.14756-.00842-.22016-.02556-.11823-.02788-.23203-.07803-.33651-.15215l-6.91405-4.91331c-.473.50515-.95792,1.01365-1.44193,1.51227l5.94602,4.51816c.42407.32206.50707.928.18584,1.35317-.08477.11232-.19412.19224-.30998.25562-.02416.01318-.04789.02709-.0729.03807-.11641.051-.2403.08181-.36663.08437-.00651.00012-.01235.00433-.01886.00433-.074,0-.14829-.00848-.22119-.02575-.12639-.02983-.24955-.08602-.36024-.17034l-6.15024-4.6733c.01621.00753-1.27032,1.4671-1.28725,1.4671l3.28682,2.77767c.42158.32585.49898.93276.17416,1.35457-.08544.11104-.19448.19004-.30992.25239-.02227.01202-.04387.02538-.06694.03551-.1147.05039-.23702.07919-.3614.08242-.00846.00024-.01606.00561-.02452.00561-.0645,0-.12925-.00647-.19308-.01952-.13929-.02837-.27487-.08883-.39523-.1818l-1.52293-1.17844c.40016-1.31144-.21231-2.23528-.87498-2.9298-.30572-.32017-.64454-.51149-.98433-.61301-.03408-.60032-.31156-1.26409-.97265-1.92786l-.09152-.08102c-.00195-.00098-.00389-.00293-.00487-.0039-.41701-.36385-.91776-.56994-1.43019-.62832-.03578-.67176-.30316-1.33346-.81888-1.84129l-.00389-.0039-.14215-.13568c-.82076-.70379-1.60355-.91366-2.28801-.84045-.12462-.37581-.33103-.75553-.66693-1.06399l-.09736-.09078c-.87273-.80409-2.14111-.89572-3.11626-.32395-.55296-.95899-.60523-2.08466-.59464-2.12718.00073-.00293.00694-.01458.00821-.01836l-.01856.03044-1.58597-.99596,4.60328-7.21363,1.47869.83246-.01047.01714c.0101-.00201.01886-.00378.03024-.00598l.0126.00708.00609-.0108c.25837-.04777.80622-.13111,1.924-.31791.34271-.05729.66224-.10957.97496-.15838.09176-.01434.18091-.02739.27-.04051.33067-.04875.64801-.09115.94076-.11579.00055-.00006.00097,0,.00158-.00006.21164-.01775.41336-.02788.60425-.02788.0614,0,.11452.0083.17373.01043.06292.00226.12438.00628.18487.0111.04107.00329.08574.00293.12566.0075-.00821.00342-.01625.00695-.02446.01043-.86287.36367-1.68485.7396-2.44069,1.14092l-3.78933,3.75909.24048.60813c.47902,1.21236,1.43804,2.08893,2.6317,2.4047,1.26571.33384,2.60346.00439,3.76207-.9283l.1217-.11128c1.46141-1.37342,1.84696-1.64088,2.59665-1.36708.00195.00098,1.91803.78628,3.59169,1.50422.30395.13062.58868.19828.86397.24062,1.09672.79225,1.98771,1.4027,2.08641,1.46463l5.3784,3.95889c.42864.31535.52162.91976.20586,1.35024Z"/></svg>