<svg id="Layer_2" data-name="Layer 2" xmlns="http://www.w3.org/2000/svg" viewBox="0 0 21.6 21.6"><path d="M3.81782,8.85518l6.07031,6.07031-.79492.79492L6.45546,13.08265l-3.84955,3.8487L1.811,16.13643l3.84954-3.8487L3.0229,9.6501Zm15.58594,5.59961-4.03516,4.0371L5.47505,8.59736A1.785,1.785,0,0,1,7.29927,5.64131l.12207.041,7.73633,2.56641.46972,1.44336a3.27673,3.27673,0,0,0,2.917,2.24219l.21485.01172.64453.6455A1.31911,1.31911,0,0,1,19.40376,14.45479Zm-.79492-1.06836-.34766-.34668a4.41479,4.41479,0,0,1-3.7041-2.999l-.29395-.90332-.31091-.10315-.66369,1.67737-1.04688-.41406L12.882,8.67909l-.75079-.24921-.60932,1.53955-1.04687-.41406.586-1.48065-4.11627-1.366a.677.677,0,0,0-.209-.0332A.66016.66016,0,0,0,6.27,7.80244L15.3686,16.9001l3.24024-3.24024A.21751.21751,0,0,0,18.60884,13.38643ZM5.82075,4.68428,5.41157,3.10811l-1.08984.2832.40918,1.57617Zm-1.83887.81933L2.82759,4.35518l-.793.79687,1.1543,1.14844Z"/></svg>