<svg id="Layer_3" data-name="Layer 3" xmlns="http://www.w3.org/2000/svg" viewBox="0 0 38 38"><path d="M31,9a2.00227,2.00227,0,0,1,2,2V27a2.00227,2.00227,0,0,1-2,2H7a2.00227,2.00227,0,0,1-2-2V11A2.00227,2.00227,0,0,1,7,9H31m0-2H7a4,4,0,0,0-4,4V27a4,4,0,0,0,4,4H31a4,4,0,0,0,4-4V11a4,4,0,0,0-4-4ZM12.10547,14.07615v3.794h3.51367v-3.794h2.47852V24.08592H15.61914V19.914H12.10547v4.17188H9.627V14.07615Zm11.63379,0a4.77108,4.77108,0,0,1,1.88965.36377,4.219,4.219,0,0,1,1.46289,1.022,4.593,4.593,0,0,1,.94531,1.59619,6.1593,6.1593,0,0,1,.33594,2.08594,5.85621,5.85621,0,0,1-.44825,2.35889,4.14859,4.14859,0,0,1-1.28808,1.67285,4.21748,4.21748,0,0,1-1.34375.67871,5.82806,5.82806,0,0,1-1.708.23145H19.46875V14.07615ZM25.251,21.26463a3.21455,3.21455,0,0,0,.61621-2.12061,3.47257,3.47257,0,0,0-.62989-2.18408,2.15121,2.15121,0,0,0-1.80566-.812H21.94727V22h1.45605A2.27256,2.27256,0,0,0,25.251,21.26463Z"/></svg>