<?xml version="1.0" encoding="utf-8"?>
<!-- Generator: Adobe Illustrator 24.0.1, SVG Export Plug-In . SVG Version: 6.00 Build 0)  -->
<svg version="1.1" id="Ebene_1" xmlns="http://www.w3.org/2000/svg" xmlns:xlink="http://www.w3.org/1999/xlink" x="0px" y="0px"
	 viewBox="0 0 21.6 21.6" enable-background="new 0 0 21.6 21.6" xml:space="preserve">
<path d="M19.41011,14.595c1.37518-4.77636-1.38202-9.76316-6.15838-11.13834S3.48857,4.83869,2.1134,9.61504
	c-0.46832,1.6266-0.46842,3.3523-0.00029,4.97896l-0.009,0.005l0.019,0.032c0.41781,1.44478,1.19143,2.76165,2.25,3.83l0.008-0.005
	l0.011,0.018l3.148-1.844l-2.288-3.875l-2.13,1.243C2.08565,9.77633,4.66778,5.51379,8.88944,4.47733
	s8.48421,1.54567,9.52067,5.76733c0.15108,0.61536,0.22729,1.2467,0.227,1.88033c-0.00218,0.63194-0.08143,1.26125-0.236,1.874
	l-2.118-1.244l-2.288,3.875l3.134,1.844l0.003-0.004l0.007,0.004c1.06632-1.07299,1.84497-2.39746,2.264-3.851l0.014-0.024
	L19.41011,14.595z M4.85511,14.296l1.144,1.938l-1.41,0.81l-1.144-1.938L4.85511,14.296z M16.68111,14.296l1.388,0.817l-1.144,1.938
	l-1.388-0.817L16.68111,14.296z"/>
</svg>
