<?xml version="1.0" encoding="utf-8"?>
<!-- Generator: Adobe Illustrator 24.0.1, SVG Export Plug-In . SVG Version: 6.00 Build 0)  -->
<svg version="1.1" id="Layer_1" xmlns="http://www.w3.org/2000/svg" xmlns:xlink="http://www.w3.org/1999/xlink" x="0px" y="0px"
	 viewBox="0 0 21.6000004 21.6000004" style="enable-background:new 0 0 21.6000004 21.6000004;" xml:space="preserve">
<path d="M6.2727799,10.1435099H5.1568699V9.0286398h1.1159101V10.1435099z M7.23805,10.1435099h1.1159501V9.0286398H7.23805
	V10.1435099z M9.3192902,10.1435099h1.11584V9.0286398h-1.11584V10.1435099z M6.2727804,11.2585096H5.1568699V12.37325h1.1159101
	L6.2727804,11.2585096z M7.2380505,12.37325h1.1159496v-1.1147499H7.23805L7.2380505,12.37325z M9.3192902,12.37325h1.11584
	v-1.1147499h-1.11584V12.37325z M6.2727804,13.4882498H5.1568699v1.11485h1.1159101L6.2727804,13.4882498z M7.2380505,14.6031199
	h1.1159496v-1.1148901H7.23805L7.2380505,14.6031199z M9.3192902,14.6031199h1.11584v-1.1148901h-1.11584V14.6031199z
	 M6.2727799,15.7180004H5.1568699v1.1149998h1.1159101V15.7180004z M7.23805,16.8330002h1.1159501v-1.1149998H7.23805V16.8330002z
	 M9.3192902,16.8330002h1.11584v-1.1149998h-1.11584V16.8330002z M14.5246696,7.7329998h-1.11584v1.11485h1.11584V7.7329998z
	 M16.6059093,7.7329998h-1.1159096v1.11485h1.1159096V7.7329998z M14.5246696,9.9627199h-1.11584V11.07759h1.11584V9.9627199z
	 M16.6059093,9.9627199h-1.1159096V11.07759h1.1159096V9.9627199z M14.5246696,12.1925802h-1.11584v1.1147404h1.11584V12.1925802z
	 M16.6059093,12.1925802h-1.1159096v1.1147404h1.1159096V12.1925802z M14.5246696,14.4223099h-1.11584v1.1148701h1.11584V14.4223099
	z M16.6059093,14.4223099h-1.1159096v1.1148701h1.1159096V14.4223099z M14.5246696,16.65205h-1.11584v1.1149998h1.11584V16.65205z
	 M16.6059093,16.65205h-1.1159096v1.1149998h1.1159096V16.65205z M19.7999992,18.6852493v1.1147499h-18v-1.1147499H3.105V1.8
	h9.4949398v3.6538103h5.8950615v13.2314396H19.7999992z M11.4840002,2.915H4.2209001v15.7522001h7.2631001V2.915z
	 M17.3791008,6.5685501h-4.743v12.0986404h4.743V6.5685501z M7.2384801,7.665H8.35359V6.6939998h0.9729996V5.579H8.35359V4.6079998
	H7.2384801V5.579H6.26648v1.1149998h0.9720001V7.665z"/>
</svg>
