<svg id="Ebene_1" data-name="Ebene 1" xmlns="http://www.w3.org/2000/svg" viewBox="0 0 21.6 21.6"><path d="M13.01236,10.44071l.663.663L8.5914,16.1876l-.663-.6629ZM9.10562,12.469a.8472.8472,0,1,0-.84717-.84723A.84726.84726,0,0,0,9.10562,12.469Zm3.38879,1.69433a.8472.8472,0,1,0,.84717.84723A.84725.84725,0,0,0,12.49441,14.16337Zm4.28113-.33887a5.97553,5.97553,0,1,1-11.951,0,6.61655,6.61655,0,0,1,.58173-2.502C6.45108,9.13108,10.75485,1.8,10.75485,1.8s4.6991,7.85632,5.5293,9.64105l.00567.01129A5.98248,5.98248,0,0,1,16.77554,13.8245Zm-1.09,0a4.89627,4.89627,0,0,0-.39538-1.926c-.64386-1.38934-3.4057-6.07153-4.524-7.95227C9.7156,5.748,7.2023,10.0969,6.39462,11.79124a5.46473,5.46473,0,0,0-.47443,2.02765,4.88266,4.88266,0,0,0,9.76532.00561Z"/></svg>