<?xml version="1.0" encoding="UTF-8"?><svg id="Layer_1" xmlns="http://www.w3.org/2000/svg" viewBox="0 0 38 38"><path d="m33.00041,18.99426c-.00146,1.21069-.14624,2.42847-.46802,3.62915-.63477,2.3689-1.86304,4.45557-3.49146,6.12946-2.68188-2.70978-6.22388-4.25861-9.88867-4.25861-3.7478,0-7.33447,1.59686-10.03271,4.40192-.85474-.85687-1.61304-1.82007-2.23438-2.89618-1.86987-3.23859-2.3667-7.01135-1.39868-10.62347,1.6377-6.11157,7.19458-10.38019,13.51392-10.38049,1.21924,0,2.44141.16187,3.63257.48096,2.35718.63165,4.44702,1.85431,6.14355,3.51727h-3.75415v2h7V3.99426h-2v3.42902c-1.87158-1.79071-4.19287-3.16028-6.87183-3.87811-1.38721-.3717-2.78003-.54919-4.15112-.54913-7.06421.00037-13.52954,4.71472-15.44482,11.86285-2.28711,8.53546,2.77832,17.30884,11.31372,19.59589,1.38721.37177,2.78003.54919,4.15112.54919,7.06421,0,13.52954-4.71478,15.44482-11.86292.37158-1.38635.53003-2.77667.53027-4.14679h-1.99414Zm-17.6145,13.52869c-1.74927-.46875-3.35522-1.25977-4.76318-2.31274,2.3147-2.37103,5.3606-3.71594,8.52954-3.71594,3.14673,0,6.09033,1.2749,8.40283,3.59155-2.38794,1.84265-5.36548,2.91815-8.53564,2.91815-1.21973,0-2.44238-.16187-3.63354-.48102Zm-2.36353-15.5282c0,3.30811,2.69141,5.99951,5.99902,5.99951,3.30859,0,6.00098-2.69141,6.00098-5.99951,0-3.30859-2.69238-6.00049-6.00098-6.00049-3.30762,0-5.99902,2.69189-5.99902,6.00049Zm10,0c0,2.20557-1.79492,3.99951-4.00098,3.99951-2.20508,0-3.99902-1.79395-3.99902-3.99951,0-2.20605,1.79395-4.00049,3.99902-4.00049,2.20605,0,4.00098,1.79443,4.00098,4.00049Z"/></svg>