<?xml version="1.0" encoding="utf-8"?>
<!-- Generator: Adobe Illustrator 24.0.1, SVG Export Plug-In . SVG Version: 6.00 Build 0)  -->
<svg version="1.1" id="Layer_1" xmlns="http://www.w3.org/2000/svg" xmlns:xlink="http://www.w3.org/1999/xlink" x="0px" y="0px"
	 viewBox="0 0 21.6 21.6" style="enable-background:new 0 0 21.6 21.6;" xml:space="preserve">
<path d="M11.2,11.1c2.5,0,4.6-2.1,4.6-4.6c0-2.5-2.1-4.6-4.6-4.6S6.6,3.9,6.6,6.4C6.6,9,8.6,11.1,11.2,11.1z M11.2,3
	c1.9,0,3.5,1.6,3.5,3.5c0,1.9-1.6,3.5-3.5,3.5c-1.9,0-3.5-1.6-3.5-3.5C7.7,4.5,9.2,3,11.2,3z M9.7,15.1h2.6v4.7H9.7V15.1z M6,16.4
	h2.6v3.3H6L6,16.4z M13.5,17.1h2.6v2.7h-2.6V17.1z M18.5,18.5h-1.1c0-3.3-2.9-6-6.6-6s-6.6,2.7-6.6,6H3.1c0-3.9,3.4-7.1,7.7-7.1
	S18.5,14.6,18.5,18.5L18.5,18.5z"/>
</svg>
