<?xml version="1.0" encoding="utf-8"?>
<!-- Generator: Adobe Illustrator 24.0.1, SVG Export Plug-In . SVG Version: 6.00 Build 0)  -->
<svg version="1.1" id="Ebene_1" xmlns="http://www.w3.org/2000/svg" xmlns:xlink="http://www.w3.org/1999/xlink" x="0px" y="0px"
	 viewBox="0 0 21.6 21.6" style="enable-background:new 0 0 21.6 21.6;" xml:space="preserve">
<path d="M10.8,8.5c-3.7-0.1-7.2,1.8-9,5.1c1.8,3.2,5.3,5.2,9,5.1c3.7,0.1,7.2-1.8,9-5.1C18,10.3,14.5,8.4,10.8,8.5z M3.1,13.5
	c1-1.5,2.5-2.7,4.2-3.3c-1.8,1.8-1.8,4.8,0,6.6C5.6,16.2,4.1,15.1,3.1,13.5z M10.8,17.2c-2,0-3.7-1.7-3.7-3.7s1.7-3.7,3.7-3.7
	s3.7,1.7,3.7,3.7C14.5,15.6,12.8,17.2,10.8,17.2L10.8,17.2z M14.3,16.8c1.8-1.8,1.8-4.8,0-6.6c1.7,0.6,3.2,1.8,4.2,3.3
	C17.5,15.1,16,16.2,14.3,16.8L14.3,16.8z M12.2,13.5c0,0.8-0.6,1.4-1.4,1.4c-0.8,0-1.4-0.6-1.4-1.4c0-0.8,0.6-1.4,1.4-1.4l0,0
	C11.6,12.1,12.2,12.7,12.2,13.5z M2.9,5.8L1.8,4.7l1.6-0.2L4.1,3l0.7,1.4l1.6,0.2L5.2,5.8l0.3,1.6L4.1,6.6L2.7,7.3L2.9,5.8z
	 M9.5,5.8L8.4,4.7L10,4.5L10.6,3l0.7,1.4l1.6,0.2l-1.1,1.1l0.3,1.6l-1.4-0.7L9.2,7.3L9.5,5.8z M16.1,5.8L15,4.7l1.6-0.2L17.2,3
	l0.7,1.4l1.6,0.2l-1.1,1.1l0.3,1.6l-1.4-0.7l-1.4,0.7L16.1,5.8z"/>
</svg>
