<svg id="Layer_1" data-name="Layer 1" xmlns="http://www.w3.org/2000/svg" viewBox="0 0 21.6 21.6">
  <path d="M19.8,10.8a8.55518,8.55518,0,0,0-3.03-6.53632,1.24506,1.24506,0,0,0,.03583-.17755A1.32527,1.32527,0,0,0,15.4806,2.76091a1.28912,1.28912,0,0,0-.71057.23541A8.55639,8.55639,0,0,0,2.74147,9.56389a1.29747,1.29747,0,0,0,.00366,2.49639,8.5637,8.5637,0,0,0,13.81708,5.44623,1.28771,1.28771,0,0,0,.68933.22113,1.3253,1.3253,0,0,0,1.32525-1.32538,1.29334,1.29334,0,0,0-.27227-.76519A8.53635,8.53635,0,0,0,19.8,10.8ZM3.856,11.888A1.27168,1.27168,0,0,0,3.85273,9.7332,7.43861,7.43861,0,0,1,14.18037,3.96208a1.23069,1.23069,0,0,0-.025.12408A1.32528,1.32528,0,0,0,15.4806,5.41148a1.28829,1.28829,0,0,0,.657-.19934,7.41629,7.41629,0,0,1,1.17,9.87628c-.01971-.00085-.03625-.01135-.05615-.01135a1.32526,1.32526,0,0,0-1.32526,1.32519,1.24692,1.24692,0,0,0,.03021.14978A7.4423,7.4423,0,0,1,3.856,11.888Zm9.61493-1.93a1.66651,1.66651,0,1,0-1.666-1.667A1.66919,1.66919,0,0,0,13.4709,9.958Zm0-2.208a.54151.54151,0,1,1-.541.541A.54244.54244,0,0,1,13.4709,7.75Zm0,2.36035a2.44132,2.44132,0,0,0-2.15613,1.3028,3.11608,3.11608,0,0,0-4.78918,2.59564h1.125a1.99547,1.99547,0,0,1,3.99023,0h1.125a3.03575,3.03575,0,0,0-.55817-1.752,1.30767,1.30767,0,0,1,2.58356.27154h1.125A2.4345,2.4345,0,0,0,13.4709,10.11033Zm-3.8252.66211a1.66651,1.66651,0,1,0-1.6665-1.666A1.66793,1.66793,0,0,0,9.6457,10.77244Zm0-2.208a.54151.54151,0,1,1-.5415.542A.54223.54223,0,0,1,9.6457,8.56443Z"/>
</svg>
