<svg id="Layer_1" data-name="Layer 1" xmlns="http://www.w3.org/2000/svg" viewBox="0 0 21.6 21.6">
  <path d="M11.38774,12.10487v-3.41a1.82034,1.82034,0,0,1,1.74081,1.60926H14.276A2.82309,2.82309,0,0,0,11.38774,7.733V4.13667l2.40857,2.69911.847-.75541L10.82339,1.8,6.98081,6.07889l.84406.75837,2.42827-2.70453v3.602c-1.69858.13635-2.84341,1.1146-2.84341,2.626,0,1.726,1.206,2.237,2.84341,2.61342v3.68143a2.23815,2.23815,0,0,1-2.10719-2.2745H6.95668a3.27493,3.27493,0,0,0,3.29646,3.243V19.8h1.1346V17.64806c1.782-.15586,3.11474-1.14519,3.11474-2.81392C14.50248,12.95927,13.16973,12.48153,11.38774,12.10487ZM8.52809,10.3041c0-.944.69139-1.48344,1.725-1.62822v3.19083C9.08086,11.57284,8.52809,11.1609,8.52809,10.3041ZM11.38774,16.685V13.23972c1.26479.28943,1.95354.62836,1.95354,1.63677A1.9403,1.9403,0,0,1,11.38774,16.685Z"/>
</svg>
