<?xml version="1.0" encoding="utf-8"?>
<!-- Generator: Adobe Illustrator 24.0.1, SVG Export Plug-In . SVG Version: 6.00 Build 0)  -->
<svg version="1.1" id="Layer_1" xmlns="http://www.w3.org/2000/svg" xmlns:xlink="http://www.w3.org/1999/xlink" x="0px" y="0px"
	 viewBox="0 0 21.6 21.6" enable-background="new 0 0 21.6 21.6" xml:space="preserve">
<path d="M10.75868,11.12666c2.5472,0,4.61212-2.06492,4.61212-4.61212s-2.06492-4.61212-4.61212-4.61212
	S6.14656,3.96734,6.14656,6.51454c-0.00003,2.54718,2.06484,4.61209,4.61202,4.61212
	C10.75861,11.12666,10.75865,11.12666,10.75868,11.12666z M10.75868,3.02742c1.92588-0.00247,3.48912,1.55676,3.4916,3.48264
	s-1.55676,3.48912-3.48264,3.4916c-1.63807,0.0021-3.05679-1.13623-3.40971-2.73583h2.91442v-1.125h-2.963
	C7.49629,4.37492,8.98292,3.03308,10.75868,3.02742z M18.34413,18.88984c0-0.0874-0.01361-0.35623-0.016-0.40561v-0.00142
	c-0.35593-3.8643-3.64859-6.78987-7.52793-6.68867c-4.0391-0.1149-7.41108,3.05712-7.543,7.0957c0,0-0.026,0.62735-0.01972,0.81641
	l15.10822-0.00867C18.35451,19.43391,18.34413,18.88984,18.34413,18.88984z M10.80067,12.91914
	c1.26257-0.00429,2.50084,0.34701,3.57306,1.01367h-3.85138v1.125h5.19385c0.32918,0.36636,0.61167,0.77212,0.841,1.208H8.35585
	v1.125h8.65033c0.1004,0.35879,0.16442,0.72678,0.1911,1.09839L4.40193,18.52753
	C4.73315,15.26885,7.52669,12.82036,10.80067,12.91914z"/>
</svg>
