<svg id="Layer_1" data-name="Layer 1" xmlns="http://www.w3.org/2000/svg" viewBox="0 0 21.6 21.6"><path d="M19.74971,7.08772a6.61127,6.61127,0,0,0-.41852-2.18561,4.60387,4.60387,0,0,0-2.6333-2.6333,6.60973,6.60973,0,0,0-2.18561-.41852c-.96033-.04382-1.267-.05414-3.71228-.05414s-2.75189.01032-3.71228.05414a6.60973,6.60973,0,0,0-2.18561.41852,4.60407,4.60407,0,0,0-2.63324,2.6333,6.60819,6.60819,0,0,0-.41852,2.18561c-.04382.96033-.0542,1.267-.0542,3.71228,0,2.44525.01038,2.75189.0542,3.71228a6.60747,6.60747,0,0,0,.41852,2.18555,4.60415,4.60415,0,0,0,2.63324,2.6333,6.60819,6.60819,0,0,0,2.18561.41852c.96039.04382,1.267.0542,3.71228.0542s2.75195-.01038,3.71228-.0542a6.60819,6.60819,0,0,0,2.18561-.41852,4.60395,4.60395,0,0,0,2.6333-2.6333,6.61055,6.61055,0,0,0,.41852-2.18555c.04382-.96039.05414-1.267.05414-3.71228C19.80385,8.35469,19.79353,8.04805,19.74971,7.08772ZM18.129,14.43831a4.98194,4.98194,0,0,1-.31,1.67187,2.98166,2.98166,0,0,1-1.7088,1.7088,4.98233,4.98233,0,0,1-1.67193.31006c-.94928.04334-1.234.05249-3.63831.05249s-2.689-.00915-3.63831-.05249A4.98152,4.98152,0,0,1,5.48982,17.819,2.982,2.982,0,0,1,3.781,16.11018a4.98194,4.98194,0,0,1-.31-1.67187c-.04334-.94941-.05249-1.2342-.05249-3.63831,0-2.40417.00915-2.6889.05249-3.63837a4.98188,4.98188,0,0,1,.31-1.67187A2.98153,2.98153,0,0,1,5.48982,3.781,4.98308,4.98308,0,0,1,7.16169,3.4709c.94941-.04328,1.2342-.05243,3.63831-.05243,2.40417,0,2.6889.00915,3.63831.05243a4.98389,4.98389,0,0,1,1.67193.31006,2.98166,2.98166,0,0,1,1.7088,1.7088,4.98188,4.98188,0,0,1,.31,1.67187c.04334.94947.05249,1.2342.05249,3.63837C18.18153,13.20411,18.17238,13.4889,18.129,14.43831ZM10.8,6.1764A4.6236,4.6236,0,1,0,15.4236,10.8,4.62358,4.62358,0,0,0,10.8,6.1764Zm0,7.62488A3.00128,3.00128,0,1,1,13.80128,10.8,3.00132,3.00132,0,0,1,10.8,13.80128Zm5.88678-7.80755a1.08048,1.08048,0,1,1-1.08051-1.08051A1.08049,1.08049,0,0,1,16.68678,5.99373Z"/></svg>