<svg id="Layer_2" data-name="Layer 2" xmlns="http://www.w3.org/2000/svg" viewBox="0 0 21.6 21.6">
  <path d="M13.51808,11.81114H8.08192a3.56355,3.56355,0,0,0-3.56354,3.56354v.86182A3.56349,3.56349,0,0,0,8.08192,19.8h5.43616a3.56349,3.56349,0,0,0,3.56354-3.56347v-.86182A3.56355,3.56355,0,0,0,13.51808,11.81114Zm2.43854,4.42536A2.44126,2.44126,0,0,1,13.51808,18.675H8.08192A2.44126,2.44126,0,0,1,5.64338,16.2365v-.86182a2.44132,2.44132,0,0,1,2.43854-2.43854h5.43616a2.44132,2.44132,0,0,1,2.43854,2.43854ZM5.12764,5.28319l-.7959-.79492a9.14466,9.14466,0,0,1,12.936-.00293l-.79492.79492a8.02125,8.02125,0,0,0-11.34521.00293ZM14.44941,7.3037a5.16143,5.16143,0,0,0-7.29834.00293l-.79589-.79492a6.28484,6.28484,0,0,1,8.88916-.00293ZM13.2209,8.53221l-.79492.79493a2.35419,2.35419,0,0,0-3.25147.00292l-.7959-.79492A3.50257,3.50257,0,0,1,13.2209,8.53221Z"/>
</svg>
