<svg id="Layer_1" data-name="Layer 1" xmlns="http://www.w3.org/2000/svg" viewBox="0 0 21.6 21.6">
  <path d="M17.81184,10.23646a.7483.7483,0,0,1,.2207.55323l-.17285,5.70947a.75044.75044,0,0,1-.75.72754l-.02246-.00049a.75074.75074,0,0,1-.72754-.772l.14942-4.91163-2.94251.09528a5.51962,5.51962,0,0,1-.49475,5.746l-1.0982-1.04229a4.056,4.056,0,0,0-5.79822-5.503L5.0674,9.787A5.51555,5.51555,0,0,1,9.83088,8.681l2.66394-3.04449L10.77571,4.03773,7.96907,6.96156A.75007.75007,0,0,1,6.887,5.9225L10.2054,2.46644a.74876.74876,0,0,1,1.05175-.02978l3.247,3.01983,1.52515,1.33887-3.09937,3.36249,4.32819-.14014A.70953.70953,0,0,1,17.81184,10.23646ZM16.6916,1.926a1.89734,1.89734,0,1,0,1.89734,1.89734A1.89736,1.89736,0,0,0,16.6916,1.926ZM8.5804,18.174a4.074,4.074,0,0,1-4.06934-4.06982,4.02388,4.02388,0,0,1,.56781-2.03821L3.95759,11.00172a5.562,5.562,0,0,0,7.95783,7.55274l-1.10767-1.05127A4.03981,4.03981,0,0,1,8.5804,18.174Z"/>
</svg>
