<?xml version="1.0" encoding="UTF-8"?><svg id="Layer_1" xmlns="http://www.w3.org/2000/svg" viewBox="0 0 38 38"><path d="m24.12659,10c-.46875-1.70013-1.08643-3.17975-1.82251-4.3277,2.44824.78943,4.55933,2.32324,6.08203,4.3277h2.5061c-2.54175-4.19061-7.13306-7-12.39233-7-8.00806,0-14.5,6.49182-14.5,14.5,0,7.83929,6.22559,14.20898,14,14.47473v-2.1745c-1.67017-.74487-3.78101-5.01917-3.99609-11.26453h3.99609v-2.07141h-3.99609c.23706-6.88733,2.78174-11.39288,4.49609-11.39288,1.09058,0,2.51514,1.82867,3.46997,4.92859h2.15674Zm-9.43091,19.32764c-4.68091-1.50934-8.15063-5.72247-8.57202-10.79193h5.80908c.14355,4.45752,1.19922,8.35309,2.76294,10.79193Zm-2.76294-12.86334h-5.80908c.42139-5.06952,3.89111-9.28271,8.57202-10.79199-1.56372,2.43884-2.61938,6.33441-2.76294,10.79199Zm22.06738,12.22327h-.00024V12h-14v23h14v-4.31244h.00024v-2Zm-2.00024-14.68756v14.68756h-10v-14.68756h10Zm0,19h-10v-2.31244h3.75024v1.4375h2.875v-1.4375h3.37476v2.31244Z"/></svg>