<?xml version="1.0" encoding="utf-8"?>
<!-- Generator: Adobe Illustrator 24.0.1, SVG Export Plug-In . SVG Version: 6.00 Build 0)  -->
<svg version="1.1" id="Layer_1" xmlns="http://www.w3.org/2000/svg" xmlns:xlink="http://www.w3.org/1999/xlink" x="0px" y="0px"
	 viewBox="0 0 21.6000004 21.6000004" style="enable-background:new 0 0 21.6000004 21.6000004;" xml:space="preserve">
<path d="M18.0080509,3.56692c-0.4166603-0.4489779-1.0074024-0.6954205-1.6196098-0.6756599
	c-1.2615032,0.0108566-2.279954,1.033731-2.2853413,2.29527l0,0c0.0007467,0.39503,0.1070843,0.7826786,0.3079996,1.1227999
	l-2.2455692,1.9872503c-1.131547-1.0120821-2.8429632-1.0120821-3.9745102,0L7.1974001,7.303
	c0.634006-1.0913663,0.2632418-2.490057-0.8281245-3.1240625s-2.490057-0.263242-3.1240628,0.8281245
	C2.6125364,6.0961394,2.980284,7.491806,4.0674801,8.1277103c0.347774,0.1999283,0.741529,0.3060617,1.1426702,0.3079996
	C5.6691246,8.416255,6.114778,8.2756939,6.5018601,8.0283003L7.5551,9.0219307
	c-0.8471642,1.4115944-0.3896031,3.2426796,1.0219913,4.0898438c0.7553511,0.4533224,1.672533,0.5493183,2.5053787,0.2622252
	l0.6260004,1.2917099c-0.3570719,0.2978086-0.6166544,0.6958351-0.7452202,1.1426697
	c-0.3368092,1.2154379,0.3747063,2.4739485,1.5897999,2.8119993l0,0c0.1999121,0.0595913,0.407445,0.0897179,0.6160498,0.0894299
	c1.264039,0.0169182,2.3024607-0.994072,2.3193789-2.25811c0.0169191-1.26404-0.994071-2.3024607-2.25811-2.3193798
	c-0.208416-0.0027895-0.4162359,0.0229006-0.6176987,0.0763597l-0.6359196-1.2917099
	c1.1944666-0.8986788,1.53864-2.5430593,0.8048401-3.8453302l2.2754097-1.987278
	c0.3846025,0.2778721,0.8470402,0.4273787,1.3215208,0.4272499l0,0c1.2615032-0.0108576,2.2799511-1.0337319,2.2853394-2.29527
	C18.6775627,4.6004238,18.4409313,4.0052752,18.0080509,3.56692z M3.92837,6.2397699L3.92837,6.2397699
	C3.8940654,5.5351949,4.4272451,4.9315171,5.1306601,4.87851h0.1093397
	c0.7175035,0.0081987,1.2925086,0.5964966,1.2843099,1.3140001S5.9278131,7.4850192,5.2103095,7.4768205
	C4.5332432,7.4690838,3.9756358,6.9426522,3.9289999,6.2671499L3.9284298,6.2596498L3.92837,6.2397699z M14.2041502,15.6149998
	c0.2027302,0.2667904,0.2982254,0.5998173,0.2676802,0.9335003c-0.0080233,0.6547165-0.5274982,1.1884079-1.1817598,1.2140999
	c-0.3844891,0.0283146-0.7629757-0.1075821-1.0416403-0.3740005c-0.4598312-0.4829521-0.5074997-1.2259998-0.1131496-1.7637501
	c0.2647467-0.3153172,0.6566458-0.4956961,1.0683498-0.4917297C13.5916128,15.139473,13.9573059,15.3156023,14.2041502,15.6149998z
	 M10.1981506,12.5493498c-1.0975275,0-1.9872494-0.8897228-1.9872494-1.9872503s0.8897219-1.9872494,1.9872503-1.9872494
	s1.9872494,0.8897219,1.9872494,1.9872494l0,0c-0.0000277,1.0975094-0.8897419,1.9872017-1.9872513,1.9872007L10.1981506,12.5493498
	z M16.4281502,6.4882298L16.4281502,6.4882298c-0.7188816-0.0001321-1.3015432-0.5830078-1.3014107-1.3018894
	c0.0001326-0.7186947,0.582716-1.3012786,1.3014107-1.3014107c0.3515167-0.0215018,0.693037,0.1217189,0.9240704,0.3875198
	c0.5076065,0.5051918,0.5095634,1.3262272,0.0043716,1.8338337c-0.2407837,0.2419348-0.5672474,0.3791742-0.9085712,0.3819466
	H16.4281502z"/>
</svg>
