<svg id="Ebene_1" data-name="Ebene 1" xmlns="http://www.w3.org/2000/svg" viewBox="0 0 21.6 21.6">
  <path d="M10.81895,1.78105a9,9,0,1,0,9,9A8.99943,8.99943,0,0,0,10.81895,1.78105Zm7.847,8.438H14.897a13.41531,13.41531,0,0,0-1.856-6.988A7.8834,7.8834,0,0,1,18.66593,10.219Zm-7.847-7.313c1.161,0,2.822,2.833,2.953,7.312H7.866C7.99723,5.73863,9.658,2.90605,10.81895,2.90605ZM8.597,3.23a13.41646,13.41646,0,0,0-1.856,6.989H2.972A7.88584,7.88584,0,0,1,8.597,3.23Zm-5.625,8.113h3.769a13.41533,13.41533,0,0,0,1.856,6.988A7.8834,7.8834,0,0,1,2.972,11.34307Zm7.847,7.313c-1.161,0-2.822-2.833-2.953-7.312h5.906C13.641,15.82305,11.98,18.65605,10.81895,18.65605Zm2.222-.324a13.39689,13.39689,0,0,0,1.856-6.988h3.769A7.88569,7.88569,0,0,1,13.04093,18.33208Z"/>
</svg>
