<svg id="Layer_2" data-name="Layer 2" xmlns="http://www.w3.org/2000/svg" viewBox="0 0 21.6 21.6">
  <path d="M10.8,2.925A7.875,7.875,0,1,1,2.925,10.8,7.88392,7.88392,0,0,1,10.8,2.925m0-1.125a9,9,0,1,0,9,9,9,9,0,0,0-9-9Zm0,7.72437A1.27563,1.27563,0,1,1,9.52437,10.8,1.27708,1.27708,0,0,1,10.8,9.52437m0-1.125A2.40063,2.40063,0,1,0,13.20063,10.8,2.40062,2.40062,0,0,0,10.8,8.39937Zm-.00038-4.04981a6.45751,6.45751,0,0,0-6.45019,6.4502h1.125a5.3252,5.3252,0,1,1,10.65039,0h1.125A6.45751,6.45751,0,0,0,10.79962,4.34956Z"/>
</svg>
