<svg id="Layer_1" data-name="Layer 1" xmlns="http://www.w3.org/2000/svg" viewBox="0 0 21.6 21.6">
  <path d="M14.69065,4.03693H9.0358a1.8943,1.8943,0,1,0,0,3.78859h4.14383a1.6514,1.6514,0,0,1,1.6498,1.64981v2.25412a8.34523,8.34523,0,0,0-1.24494-.47707,2.55594,2.55594,0,0,0-5.04122.11276A8.81242,8.81242,0,0,0,5.64473,13.0686L2.06892,16.19175a.78193.78193,0,0,0,.51425,1.37132H18.72739A1.0746,1.0746,0,0,0,19.8,16.48954V9.1472A5.11562,5.11562,0,0,0,14.69065,4.03693ZM11.07577,10.2313a1.49293,1.49293,0,0,1,1.29842.76516,8.4795,8.4795,0,0,0-2.6425.06193A1.50343,1.50343,0,0,1,11.07577,10.2313Zm-1.4214,1.91359a7.18862,7.18862,0,0,1,5.26606.83088.65052.65052,0,0,0,.64705.00644.63937.63937,0,0,0,.32077-.55331V9.47533A2.71167,2.71167,0,0,0,13.17963,6.7667H9.0358a.83548.83548,0,0,1,0-1.671h5.65485A4.05565,4.05565,0,0,1,18.74118,9.1472l-.00982,5.233H5.75307l.58835-.51379A7.46018,7.46018,0,0,1,9.65437,12.14489ZM3.32075,16.50425,4.54059,15.439H18.72941l-.002,1.06525Z"/>
</svg>
