<?xml version="1.0" encoding="utf-8"?>
<!-- Generator: Adobe Illustrator 24.0.1, SVG Export Plug-In . SVG Version: 6.00 Build 0)  -->
<svg version="1.1" id="Layer_1" xmlns="http://www.w3.org/2000/svg" xmlns:xlink="http://www.w3.org/1999/xlink" x="0px" y="0px"
	 viewBox="0 0 21.6 21.6" style="enable-background:new 0 0 21.6 21.6;" xml:space="preserve">
<path d="M15.8,11.2V8.3l0,0h1.6L11,1.9L4.3,8.3h1.6v2.9h-4v8.6h18v-8.6C19.9,11.2,15.8,11.2,15.8,11.2z M7,7.1l4-3.7l3.7,3.7v4H7
	V7.1z M12.2,18.6H9.4v-4h2.8V18.6z M18.7,18.6h-5.3v-5.1H8.3v5.1H2.9v-6.3h15.8V18.6z M10.8,5.8c-1.3,0-2.4,1.1-2.4,2.4
	s1.1,2.4,2.4,2.4s2.4-1.1,2.4-2.4l0,0C13.2,6.9,12.1,5.8,10.8,5.8z M10.8,9.5c-0.7,0-1.3-0.6-1.3-1.3s0.6-1.3,1.3-1.3
	s1.3,0.6,1.3,1.3S11.5,9.5,10.8,9.5L10.8,9.5L10.8,9.5z"/>
</svg>
