<?xml version="1.0" encoding="utf-8"?>
<!-- Generator: Adobe Illustrator 24.0.1, SVG Export Plug-In . SVG Version: 6.00 Build 0)  -->
<svg version="1.1" id="Ebene_1" xmlns="http://www.w3.org/2000/svg" xmlns:xlink="http://www.w3.org/1999/xlink" x="0px" y="0px"
	 viewBox="0 0 21.6 21.6" style="enable-background:new 0 0 21.6 21.6;" xml:space="preserve">
<path d="M14.1,1.8h-2.3v6.4H5.2L2.6,5.7L1.8,6.6l2.5,2.4v4.5h9.8c3.2,0,5.8-2.7,5.7-5.9C19.8,4.4,17.2,1.8,14.1,1.8z M14.1,12.2H5.5
	V9.4H13V3h1.1c2.5,0,4.6,2.1,4.6,4.7C18.6,10.2,16.6,12.2,14.1,12.2L14.1,12.2z M14.8,15.5c-0.9,0-1.8,0.6-2,1.5H8.4
	c-0.3-1.1-1.5-1.8-2.6-1.4C4.7,16,4,17.1,4.3,18.3S5.9,20,7,19.7c0.7-0.2,1.2-0.7,1.4-1.4h4.4c0.3,1.1,1.5,1.7,2.6,1.4
	s1.7-1.5,1.4-2.6C16.6,16.1,15.8,15.5,14.8,15.5L14.8,15.5z M6.4,18.6c-0.5,0-0.9-0.4-0.9-0.9c0-0.5,0.4-0.9,0.9-0.9
	c0.5,0,0.9,0.4,0.9,0.9c0,0,0,0,0,0C7.3,18.2,6.9,18.6,6.4,18.6z M14.8,18.6c-0.5,0-0.9-0.4-0.9-0.9c0-0.5,0.4-0.9,0.9-0.9
	s0.9,0.4,0.9,0.9c0,0,0,0,0,0C15.8,18.2,15.4,18.6,14.8,18.6z"/>
</svg>
