<svg id="Layer_1" data-name="Layer 1" xmlns="http://www.w3.org/2000/svg" viewBox="0 0 21.6 21.6"><path d="M17.80037,12.17518V3.29976h-14v8.87542L1.8,18.30024h18ZM4.92476,4.42482H16.67524v7.75036H4.92476Zm-.314,8.87549H16.98927l1.25031,3.87487H3.361ZM13.496,15.30079l.304.999h-6l.436-.999ZM9.739,5.89784a1.919,1.919,0,0,0-.55,2.65753l.00183-.001,1.64575,2.446,1.54688-2.4256v.00031A1.919,1.919,0,0,0,9.739,5.89784Zm2.073,2.2099-.00036-.00031-.99158,1.55481L9.76875,8.09956a1.18552,1.18552,0,1,1,2.04327.00818Zm-.57342-.554a.44687.44687,0,1,1-.44684-.44684A.44682.44682,0,0,1,11.2386,7.55372Z"/></svg>