<svg id="Layer_1" data-name="Layer 1" xmlns="http://www.w3.org/2000/svg" viewBox="0 0 21.6 21.6">
  <path d="M13.496,15.30079l.304.999h-6l.436-.999ZM19.8,18.30024H1.8l2.00037-6.12506V3.29975h14v8.87543ZM4.92476,12.17518H16.67524V4.42481H4.92476Zm-1.56372,5H18.23958L16.98927,13.3003H4.61073ZM13.2967,7.60944a.83354.83354,0,0,0-.002,1.40149,2.5805,2.5805,0,0,1-.23877.56714.83351.83351,0,0,0-.99213.99024,2.59482,2.59482,0,0,1-.56988.23169.83367.83367,0,0,0-1.40149-.002,2.57867,2.57867,0,0,1-.56726-.23871A.83349.83349,0,0,0,8.535,9.56709a2.59563,2.59563,0,0,1-.23169-.57.83348.83348,0,0,0,.002-1.40137,2.58166,2.58166,0,0,1,.23877-.56726.83346.83346,0,0,0,.99207-.99017,2.59654,2.59654,0,0,1,.56994-.23169.83356.83356,0,0,0,1.40143.002,2.584,2.584,0,0,1,.56726.23865.83352.83352,0,0,0,.99023.99225A2.59782,2.59782,0,0,1,13.2967,7.60944Zm-2.2611-.33429a1.0548,1.0548,0,1,0,.7926,1.2638A1.05486,1.05486,0,0,0,11.0356,7.27515Z"/>
</svg>
