<?xml version="1.0" encoding="utf-8"?>
<!-- Generator: Adobe Illustrator 24.0.1, SVG Export Plug-In . SVG Version: 6.00 Build 0)  -->
<svg version="1.1" id="Layer_1" xmlns="http://www.w3.org/2000/svg" xmlns:xlink="http://www.w3.org/1999/xlink" x="0px" y="0px"
	 viewBox="0 0 21.6 21.6" style="enable-background:new 0 0 21.6 21.6;" xml:space="preserve">
<path d="M17.8,12.2V3.3h-14v8.9l-2,6.1h18L17.8,12.2z M4.9,4.4h11.8v7.8H4.9V4.4z M4.6,13.3H17l1.3,3.9H3.4L4.6,13.3z M13.5,15.3
	l0.3,1h-6l0.4-1C8.2,15.3,13.5,15.3,13.5,15.3z M9.6,9.6h2.3v0.8H9.6V9.6z M12.9,7.7h2.3v0.8h-2.3V7.7z M6.3,7h2.3v0.8H6.3V7z
	 M7,8.2h0.9v2.6H7V8.2z M11.2,9.3h-0.9V5.8h0.9V9.3z M13.6,8.9h0.9v1.9h-0.9V8.9z M14.5,7.2h-0.9V5.8h0.9V7.2z M7.9,6.5H7V5.8h0.9
	V6.5z"/>
</svg>
