<svg id="Layer_2" data-name="Layer 2" xmlns="http://www.w3.org/2000/svg" viewBox="0 0 21.6 21.6">
  <path d="M13.5,15.30564l.30371,1.00122H7.79628L8.235,15.30564Zm6.3,2.99249H1.8l2.00256-6.12V3.30185H17.7975v8.87628Zm-14.87244-6.12H16.6725V4.42685H4.92756Zm-1.56378,4.995H18.23622l-1.24872-3.87H4.6125ZM8.28633,5.55405h5.02734V6.84751a4.236,4.236,0,0,1-.48047,2.05273,6.88377,6.88377,0,0,1-1.71582,2.0376L10.8,11.17466l-.31738-.23682A6.88377,6.88377,0,0,1,8.7668,8.90024a4.236,4.236,0,0,1-.48047-2.05273ZM9.40742,6.84751a3.11371,3.11371,0,0,0,.34375,1.51367A5.84058,5.84058,0,0,0,10.8,9.72367a5.84058,5.84058,0,0,0,1.04883-1.36249,3.11371,3.11371,0,0,0,.34375-1.51367V6.67514H9.40742Z"/>
</svg>
