<?xml version="1.0" encoding="utf-8"?>
<!-- Generator: Adobe Illustrator 24.0.1, SVG Export Plug-In . SVG Version: 6.00 Build 0)  -->
<svg version="1.1" id="Layer_1" xmlns="http://www.w3.org/2000/svg" xmlns:xlink="http://www.w3.org/1999/xlink" x="0px" y="0px"
	 viewBox="0 0 21.6000004 21.6000004" style="enable-background:new 0 0 21.6000004 21.6000004;" xml:space="preserve">
<path d="M19.6784191,16.7716198v1.0837994H2.19508v-1.0837994H19.6784191z M1.90547,5.9503899
	c0.0026234-1.2271352,0.99954-2.2197983,2.2266755-2.2171748C5.3555722,3.7358305,6.3467045,4.726963,6.3493199,5.9503899
	C6.3471737,6.4517174,6.1738281,6.9372692,5.8579998,7.3266101L6.27951,7.8535299
	c4.0221467-2.5773282,9.3720779-1.4060717,11.9494076,2.6160755c0.8942642,1.3955774,1.3687134,3.018714,1.3668823,4.6762247
	v0.5419302H2.27754v-0.5419302c-0.0017447-2.5582304,1.1306372-4.9856224,3.0920002-6.6280594L4.9607902,8.0067711
	C3.8284349,8.4705296,2.5345294,7.928524,2.0707712,6.7961688C1.9608488,6.5277719,1.904693,6.2404041,1.9054902,5.9503708
	L1.90547,5.9503899z M12.3177004,14.0890598c-0.3077307-0.7633181-1.1759882-1.1326447-1.9393063-0.824914
	c-0.3756485,0.1514425-0.6734715,0.4492655-0.824914,0.824914H12.3177004z M6.9613199,8.7056999l2.8290997,3.5364399
	c0.3804207-0.1992092,0.8028307-0.3049116,1.2322397-0.3083496c1.4843616,0.0104256,2.6978502,1.186779,2.7543898,2.6701002
	h4.7156992c-0.2942696-4.1679134-3.9115829-7.3081217-8.0794954-7.0138521
	C9.1891546,7.6764636,8.0044527,8.0593586,6.9613199,8.7056999z M3.38026,14.6038904h4.8884902
	c0.0237331-0.6089239,0.2500973-1.1924906,0.6431904-1.6581402l-2.8649406-3.58111
	C4.4866571,10.6789713,3.524708,12.5688791,3.38026,14.6038904z M3.0304699,5.9503908
	C3.0303321,6.5562086,3.5213327,7.0474324,4.1271505,7.0475702s1.0970416-0.4908628,1.0971794-1.0966806
	S4.7334671,4.853848,4.1276493,4.8537102c-0.0000033,0-0.0000062,0-0.0000095,0
	C3.5221412,4.8543382,3.0313685,5.3448915,3.0304699,5.9503908z"/>
</svg>
