<svg id="f1a31f26-f20b-4b38-93a3-2b69065b184b" data-name="Ebene 1" xmlns="http://www.w3.org/2000/svg" viewBox="0 0 21.6 21.6"><path d="M10.29,1.8h1.12V5.18H10.29ZM7.54,6.19l1-.57L6.83,2.7l-1,.56ZM5.67,8.43l.56-1L3.31,5.77l-.56,1ZM1.8,11.31H5.18V10.19H1.8Zm1.46,4.44,2.93-1.69-.57-1L2.7,14.77Zm3.48,3.1,1.69-2.92-1-.57L5.77,18.29Zm3.45.95h1.12V16.42H10.19Zm4.58-.9,1-.57-1.69-2.92-1,.56Zm3.52-3.07.56-1-2.93-1.69-.56,1Zm-1.87-4.42H19.8V10.29H16.42ZM16,8.52,18.9,6.83l-.57-1L15.41,7.54ZM14.14,6.24l1.69-2.93-1-.56L13.16,5.68Zm.59,4.55a3.94,3.94,0,1,1-3.94-3.94A3.95,3.95,0,0,1,14.73,10.79Zm-1.13,0a2.82,2.82,0,1,0-2.81,2.81A2.81,2.81,0,0,0,13.6,10.79Z"/></svg>