<svg id="f017ae31-3166-4da9-a0a8-1f1e855acd16" data-name="Ebene 1" xmlns="http://www.w3.org/2000/svg" viewBox="0 0 21.6 21.6"><path d="M10.21,12.34a1,1,0,0,1-.73-.3l-.21-.21-.8.79.22.22a2.16,2.16,0,0,0,3,0L17,7.52a2.15,2.15,0,0,0,0-3L15,2.43a2.14,2.14,0,0,0-1.52-.63A2.1,2.1,0,0,0,12,2.43L6.63,7.75a2.15,2.15,0,0,0,0,3l.62.61L4.56,14.08a2.15,2.15,0,0,0,0,3l2.05,2.05a2.14,2.14,0,0,0,1.52.63,2.1,2.1,0,0,0,1.51-.63L15,13.85a2.15,2.15,0,0,0,0-3l-.23-.23-.8.79.23.23a1,1,0,0,1,.3.72,1,1,0,0,1-.3.72L8.85,18.38a1,1,0,0,1-.72.29,1,1,0,0,1-.72-.29L5.35,16.32a1,1,0,0,1-.3-.72,1,1,0,0,1,.3-.72l5.32-5.32a1,1,0,0,1,1.45,0l.64.65L10.93,12A1,1,0,0,1,10.21,12.34Zm1.18-4.2a2.09,2.09,0,0,0-1.51.62L8,10.6,7.43,10a1,1,0,0,1,0-1.45l5.32-5.32a1,1,0,0,1,.72-.3,1,1,0,0,1,.72.3l2.06,2.06a1,1,0,0,1,0,1.44L13.56,9.41l-.65-.65A2.13,2.13,0,0,0,11.39,8.14Z"/></svg>