<?xml version="1.0" encoding="UTF-8"?><svg id="Layer_3" xmlns="http://www.w3.org/2000/svg" viewBox="0 0 38 38"><path d="m10.4123,30.41719c2.17682,0,3.94153-1.76471,3.94153-3.94159v-6.75732c0-2.17688-1.76471-3.94153-3.94153-3.94153s-3.94159,1.76465-3.94159,3.94153v6.75732c0,2.17688,1.76471,3.94159,3.94159,3.94159Zm-1.94159-10.69891c0-1.07056.87097-1.94153,1.94159-1.94153,1.07056,0,1.94153.87097,1.94153,1.94153v6.75732c0,1.07056-.87097,1.94159-1.94153,1.94159-1.07062,0-1.94159-.87103-1.94159-1.94159v-6.75732Zm7.15643,6.71161h2v.44238c0,3.36218-2.84723,6.33807-6.29297,6.80951v1.25397h-2v-1.27136c-3.42255-.52539-6.23145-3.52814-6.23145-6.91809v-.44141h2v.44141c0,2.62109,2.51953,5.00781,5.28613,5.00781,2.79004,0,5.23828-2.28125,5.23828-4.88184v-.44238Zm.64929-23.23993v19.24689l3.20532-.02094.00415,5.5213,7.02789-5.54724,8.4552-.05096V3.09211l-18.69257.09784Zm16.69257,17.16107l-6.46729.039-.68744.00409-.53961.42596-3.79187,2.99298-.00104-1.39868-.00153-2.01154-2.01154.01312-1.19226.00775V5.17952l14.69257-.0769v15.24841Zm-12.80084-1.71411l-.00781-2,6.24805-.02295.00781,2-6.24805.02295Zm-.00391-5.81104h2.86621v2h-2.86621v-2Zm.00098-1.81592l-.00195-2,10.78711-.00977.00195,2-10.78711.00977Zm10.75391,1.76758l.02344,2-6.46387.07324-.02344-2,6.46387-.07324Zm-3.03906,3.85156l2.18164.00684-.00586,2-2.18164-.00684.00586-2Z"/></svg>