<svg id="Layer_1" data-name="Layer 1" xmlns="http://www.w3.org/2000/svg" viewBox="0 0 21.6 21.6"><path d="M10.5,6.21a.73.73,0,0,0,.15-.4.7.7,0,0,0-.7-.7.69.69,0,0,0-.69.7.6.6,0,0,0,.15.4V8.62H8.36V7.89H7.27v.73H5.2V19.8h7.08V8.62H10.5Zm.68,12.5H6.29V12.07h4.89Zm0-9V11H6.29V9.71Zm2.27-1.19-.77-.77h0a2.74,2.74,0,0,0,0-3.89l.77-.77A3.84,3.84,0,0,1,13.45,8.52ZM11.39,6.46a.93.93,0,0,0,0-1.31l.77-.77h0a2,2,0,0,1,0,2.85Zm3.35,3.35L14,9a4.57,4.57,0,0,0,0-6.47l.77-.77A5.65,5.65,0,0,1,14.74,9.81Z"/></svg>