<?xml version="1.0" encoding="UTF-8"?><svg id="Layer_2" xmlns="http://www.w3.org/2000/svg" viewBox="0 0 38 38"><path d="m35,32.5l-3.56708-9.53402V5.5H6.56708v17.46598l-3.56708,9.53402h32Zm-29.01015-2.07692l2.33117-6.23077h21.35795l2.33117,6.23077H5.98985Zm2.64938-22.84615h20.72154v14.53846H8.63923V7.57692Zm13.81434,18.69231l.69074,2.07692h-8.28861l.69068-2.07692h6.9072Zm-3.45357-17.65385c-3.42796,0-6.21646,2.79492-6.21646,6.23077s2.7885,6.23077,6.21646,6.23077,6.21646-2.79492,6.21646-6.23077-2.7885-6.23077-6.21646-6.23077Zm0,10.38462c-2.28514,0-4.14431-1.86294-4.14431-4.15385s1.85917-4.15385,4.14431-4.15385,4.14431,1.86294,4.14431,4.15385-1.85917,4.15385-4.14431,4.15385Zm1.03608-4.58383l1.76862,1.77269-1.46508,1.46845-2.37569-2.38116v-3.54537h2.07215v2.6854Z"/></svg>