<svg id="Ebene_1" data-name="Ebene 1" xmlns="http://www.w3.org/2000/svg" viewBox="0 0 21.6 21.6"><path d="M10.8,1.8a6.7138,6.7138,0,0,0-6.16418,9.36676c1.02069,2.197,6.217,8.63324,6.217,8.63324s4.70861-5.77271,6.007-8.48785a7.53134,7.53134,0,0,0,.65076-2.80158A6.71053,6.71053,0,0,0,10.8,1.8Zm5.04486,9.02679a54.25636,54.25636,0,0,1-4.991,7.169,63.17012,63.17012,0,0,1-5.18512-7.27466,5.58625,5.58625,0,1,1,10.7168-2.21057A6.4108,6.4108,0,0,1,15.84486,10.82679ZM10.8,5.175A3.375,3.375,0,1,0,14.175,8.55,3.375,3.375,0,0,0,10.8,5.175Zm0,5.625a2.25,2.25,0,1,1,2.25-2.25A2.25254,2.25254,0,0,1,10.8,10.8Z"/></svg>