<?xml version="1.0" encoding="UTF-8"?><svg id="Layer_1" xmlns="http://www.w3.org/2000/svg" viewBox="0 0 38 38"><path d="m9,3v32h20V3H9Zm18,30H11v-3h6v2h4v-2h6v3Zm-16-5V5h16v23H11Zm9-12.93488c0,.55237-.44769,1-.99994,1-.55231,0-1.00006-.44763-1.00006-1,0-.55225.44775-1,1.00006-1,.55225,0,.99994.44775.99994,1Zm-1-5.06512c-2.88239,0-5.21881,2.33661-5.21881,5.21881,0,.73383.15161,1.43219.42493,2.06573.79376,1.70862,4.79456,6.71545,4.79456,6.71545,0,0,3.70227-4.49084,4.7121-6.60242.3443-.71954.5061-1.68384.5061-2.17877,0-2.8822-2.33649-5.21881-5.21887-5.21881Zm2.90845,6.53473c-.47528.9939-1.76703,2.76929-2.8924,4.23035-1.30548-1.71539-2.62854-3.55408-2.98474-4.29907-.16602-.39429-.25012-.81378-.25012-1.24719,0-1.77484,1.44397-3.21881,3.21881-3.21881s3.21887,1.44397,3.21887,3.21881c0,.2265-.1095.89606-.31042,1.31592Z"/></svg>