<svg id="Layer_2" data-name="Layer 2" xmlns="http://www.w3.org/2000/svg" viewBox="0 0 21.6 21.6">
  <path d="M10.8,1.8A6.67922,6.67922,0,0,0,4.14259,8.5a8.62191,8.62191,0,0,0,.49683,2.7C5.63307,13.4,10.8,19.8,10.8,19.8s4.6701-5.8,5.96185-8.5a8.82351,8.82351,0,0,0,.69556-2.8A6.67922,6.67922,0,0,0,10.8,1.8Zm0,10.92877a4.372,4.372,0,0,1,0-8.744,4.41824,4.41824,0,0,1,4.372,4.372A4.33593,4.33593,0,0,1,10.8,12.72877Zm-2.96582-3.192A1.46118,1.46118,0,0,1,7.969,9.20674a1.4405,1.4405,0,0,1,.20019-.27246,2.98913,2.98913,0,0,1,.24512-.23242c.083-.07325.17138-.14454.26465-.21485.09375-.07031.186-.13965.27783-.208.09131-.06738.17969-.13574.26514-.20214a3.04831,3.04831,0,0,0,.23242-.2002.74749.74749,0,0,0,.14746-.1875.4504.4504,0,0,0,.05224-.2168.48453.48453,0,0,0-.11474-.33789A.44207.44207,0,0,0,9.194,7.00654a.49225.49225,0,0,0-.38476.15039.59555.59555,0,0,0-.125.22266,1.06662,1.06662,0,0,0-.04.31738H7.82393a2.00386,2.00386,0,0,1,.05517-.50976,1.23341,1.23341,0,0,1,.17481-.37989,1.083,1.083,0,0,1,.44287-.36816,1.907,1.907,0,0,1,1.2876-.04687,1.204,1.204,0,0,1,.40966.24218.97637.97637,0,0,1,.24756.36035,1.19242,1.19242,0,0,1,.08252.44727,1.04372,1.04372,0,0,1-.17724.60742,1.34878,1.34878,0,0,1-.19043.22461,2.39262,2.39262,0,0,1-.22754.19238c-.07959.06739-.16309.13086-.25.19336q-.12965.09229-.25733.1875c-.085.0625-.1665.126-.24512.18946a1.8931,1.8931,0,0,0-.2124.20019v.00488h1.56006V9.947H7.779A1.68373,1.68373,0,0,1,7.83418,9.53682ZM10.77412,9.152V8.36689L12.42939,6.3415h.85987V8.49678h.51513V9.152h-.51513V9.947h-.8501V9.152Zm1.665-1.89551h-.00977L11.43428,8.487v.00977h1.00488Z"/>
</svg>
