<?xml version="1.0" encoding="utf-8"?>
<!-- Generator: Adobe Illustrator 24.0.1, SVG Export Plug-In . SVG Version: 6.00 Build 0)  -->
<svg version="1.1" id="Ebene_1" xmlns="http://www.w3.org/2000/svg" xmlns:xlink="http://www.w3.org/1999/xlink" x="0px" y="0px"
	 viewBox="0 0 21.6000004 21.6000004" style="enable-background:new 0 0 21.6000004 21.6000004;" xml:space="preserve">
<path d="M9.6750002,13.7256899c0-0.6213207,0.5036802-1.125,1.125-1.125c0.6213207,0,1.125,0.5036802,1.125,1.125
	c-0.0042677,0.3950777-0.2183313,0.7580729-0.5620003,0.9530001v2.421999h-1.125V14.678689
	C9.8937769,14.48419,9.6792402,14.1210394,9.6750002,13.7256899z M17.5499992,9.7886896v10.124999H4.0500002V9.7886801h2.25v-3.375
	c0-2.4852815,2.014719-4.5,4.5-4.5s4.5,2.0147185,4.5,4.5v3.375L17.5499992,9.7886896z M7.4249992,9.7886896h6.75v-3.375
	c0-1.8639612-1.5110388-3.375-3.375-3.375s-3.375,1.5110388-3.375,3.375V9.7886896z M16.4249992,10.9136896H5.1750002v7.874999
	h11.249999V10.9136896z"/>
</svg>
