<?xml version="1.0" encoding="utf-8"?>
<!-- Generator: Adobe Illustrator 24.0.1, SVG Export Plug-In . SVG Version: 6.00 Build 0)  -->
<svg version="1.1" id="Ebene_1" xmlns="http://www.w3.org/2000/svg" xmlns:xlink="http://www.w3.org/1999/xlink" x="0px" y="0px"
	 viewBox="0 0 21.6000004 21.6000004" style="enable-background:new 0 0 21.6000004 21.6000004;" xml:space="preserve">
<path d="M7.4250002,9.7886801v-3.375c0-1.8639612,1.5110388-3.375,3.375-3.375s3.375,1.5110388,3.375,3.375h1.125
	c0-2.4852815-2.014719-4.5-4.5-4.5s-4.5,2.0147185-4.5,4.5v3.375h-2.25v10.125001h13.499999V9.7886801H7.4250002z
	 M16.4249992,18.788681H5.1750002v-7.875h11.249999V18.788681z M9.6749992,13.7256813c0-0.6213207,0.5036793-1.125,1.125-1.125
	s1.125,0.5036793,1.125,1.125c-0.0042677,0.3950777-0.2183313,0.7580729-0.5620003,0.9530001v2.4219999h-1.124999v-2.4219999
	C9.8937788,14.4841833,9.6792431,14.1210375,9.6749992,13.7256813z"/>
</svg>
