<?xml version="1.0" encoding="utf-8"?>
<!-- Generator: Adobe Illustrator 24.0.1, SVG Export Plug-In . SVG Version: 6.00 Build 0)  -->
<svg version="1.1" id="Layer_1" xmlns="http://www.w3.org/2000/svg" xmlns:xlink="http://www.w3.org/1999/xlink" x="0px" y="0px"
	 viewBox="0 0 21.6000004 21.6000004" style="enable-background:new 0 0 21.6000004 21.6000004;" xml:space="preserve">
<path d="M19.7824192,11.0353498c0.0023766,4.8284979-3.9099684,8.7446947-8.7384663,8.7470713
	c-2.6025028,0.0012817-5.0702863-1.1569347-6.732234-3.1596718v2.5493202h-1.125v-4.5341797h4.5136709v1.125H5.0584798
	c2.6102147,3.3016624,7.4027381,3.8621922,10.704401,1.2519779c1.8285475-1.4456053,2.8949442-3.6485615,2.8945379-5.9795179
	H19.7824192z M10.5646496,2.94258c2.3587503,0.0009971,4.5832396,1.097533,6.0205708,2.9677699h-2.6856108v1.125h4.5136709V2.5002
	h-1.125v2.4771698C14.2049294,1.2615972,8.6931496,0.7489187,4.9773769,3.8322701
	c-2.00283,1.6619501-3.1610999,4.1298027-3.1597967,6.7323794h1.125C2.9471219,6.3569794,6.3569794,2.9471216,10.5646496,2.94258z
	 M12.6502199,7.8400002C13.986165,7.8398995,15.0737934,8.914156,15.0902195,10.25
	c-0.0231495,0.6915045-0.3307009,1.3427887-0.8500004,1.8000002l-3.2399998,3.1099997l-3.3499999-3.1900005
	c-0.4837255-0.4393911-0.7535915-1.0666475-0.7400002-1.7200003c0.0164256-1.335845,1.1040554-2.4101009,2.4400005-2.4099998
	c0.6157722,0.0024467,1.2068424,0.2424564,1.6499996,0.6700001C11.4433699,8.0824451,12.0344448,7.8424339,12.6502199,7.8400002z
	 M12.6502199,8.8400002c-0.4117231,0.0033569-0.8004408,0.190382-1.0600004,0.5100002l-0.5900002,0.6599998l-0.5799999-0.6499996
	c-0.4672756-0.6021051-1.3341799-0.7114058-1.936285-0.2441301c-0.3434801,0.2665653-0.5412521,0.6794128-0.5337152,1.11413
	c-0.0240345,0.3806639,0.1313629,0.750658,0.4200001,1l2.6300001,2.4899998l2.5199499-2.4200001
	c0.3092394-0.2698479,0.4996662-0.6507006,0.5299997-1.0600004C14.050169,9.4668207,13.423399,8.8400278,12.6502199,8.8400002z"/>
</svg>
