<svg id="Layer_1" data-name="Layer 1" xmlns="http://www.w3.org/2000/svg" viewBox="0 0 21.6 21.6">
  <path d="M10.66411,17.679a4.45663,4.45663,0,0,0-2.0586-3.22687V9.20884l6.51856-2.0993V8.832L13.13188,10.8239a.55731.55731,0,0,0-.16309.3944v1.12079a.55587.55587,0,0,0,.09375.30976l1.12158,1.68188.92823-.61944L14.08452,12.17v-.72034L15.39506,10.139H15.981L17.28569,11.449v.7221L16.26518,13.713l.93115.616,1.11279-1.68182a.55722.55722,0,0,0,.09229-.308V11.2183a.55615.55615,0,0,0-.1626-.39373L16.24028,8.81828v-2.068l.06494-.02094v-.002A2.00827,2.00827,0,0,0,15.68943,2.808L15.689,2.80516H6.19145l.00049.00445a3.49192,3.49192,0,0,0-2.30225,6.117v5.52557A4.30663,4.30663,0,0,0,1.8311,17.679l-.00556,1.11584H19.77446V17.679ZM3.81736,6.30162a2.35716,2.35716,0,0,1,2.37848-2.376L6.836,3.92112h7.93018l.00048.00165.92188.0011A.89231.89231,0,0,1,15.962,5.66533l-.55909.18206L7.95952,8.24424l-1.0337.3285a2.37609,2.37609,0,0,1-.35449.088,2.42959,2.42959,0,0,1-.374.02936A2.38422,2.38422,0,0,1,3.81736,6.30162ZM7.4893,9.56816v4.39319A4.41178,4.41178,0,0,0,6.24711,13.764a4.41027,4.41027,0,0,0-1.2417.19733V9.5933a3.47273,3.47273,0,0,0,1.1919.21283,3.35793,3.35793,0,0,0,1.0664-.1698l.001.00428ZM2.94682,17.679a3.34544,3.34544,0,0,1,6.60107,0Z"/>
</svg>
