<?xml version="1.0" encoding="UTF-8"?><svg id="Layer_3" xmlns="http://www.w3.org/2000/svg" viewBox="0 0 38 38"><path d="m19,22.22684l.99364,2.03556.46027.94291,1.03811.1525,2.26643.33295-1.65461,1.6306-.73824.72753.17335,1.02189.38589,2.27477-1.99125-1.05838-.93356-.4962-.93355.4962-1.99133,1.05841.38589-2.27479.17335-1.02189-.73824-.72753-1.65461-1.6306,2.26643-.33295,1.03809-.1525.46027-.9429.99367-2.03557M10.17936,3l-.03638,12.35252,8.36783,3.34218-2.29195,4.69515-6.21886.91359,4.49998,4.43466-1.06226,6.2619,5.56232-2.95644,5.56227,2.95644-1.06228-6.2619,4.49998-4.43466-6.21886-.91359-2.29917-4.71007,8.37506-3.3655V3.00798l-17.67767-.00798h0Zm3.68848,11.69497l-1.74736-.69792.0265-9.0009,1.72086.00079v9.69803h0Zm4.14217,1.65444l-2.16866-.86622V4.99779l2.16866.00098v11.35064h0Zm1.97353-.01821V4.99968l2.22889.00097v10.43486l-2.22889.89569h0Zm4.2024-1.68878V5.00157l1.69756.00073v8.95798l-1.69756.68214h0Z"/></svg>