<svg id="Medium_Plan" data-name="Medium Plan" xmlns="http://www.w3.org/2000/svg" viewBox="0 0 21.6 21.6">
  <path d="M8.50891,14.7193H6.7655V6.88068H9.37482l.95337,3.43145c.14282.49366.45,1.78711.45,1.78711h.02142s.30707-1.29345.43921-1.78711l.964-3.43145h2.63165V14.7193H13.058V10.77277c0-.31781.033-1.56757.033-1.56757h-.02233s-.27405,1.173-.36152,1.45776L11.57794,14.7193H9.97736L8.85883,10.67365c-.08747-.28473-.36152-1.46845-.36152-1.46845H8.47589s.033,1.26044.033,1.57825ZM19.8,1.8v18H1.8V1.8ZM18.675,2.925H2.925v15.75h15.75Z"/>
</svg>
