<?xml version="1.0" encoding="utf-8"?>
<!-- Generator: Adobe Illustrator 25.2.0, SVG Export Plug-In . SVG Version: 6.00 Build 0)  -->
<svg version="1.1" id="Layer_1" xmlns="http://www.w3.org/2000/svg" xmlns:xlink="http://www.w3.org/1999/xlink" x="0px" y="0px"
	 viewBox="0 0 21.6 21.6" style="enable-background:new 0 0 21.6 21.6;" xml:space="preserve">
<path d="M16.6,18.7v-5.7l0,0v-1.1l0,0v-10H4.9v10l0,0v1.1l0,0v5.7H3.7v1.2h14.1v-1.1H16.6z M10.2,18.7H8.5v-3.2h1.7V18.7z M13,18.7
	h-1.7v-3.2H13L13,18.7z M15.4,18.7h-1.3v-4.4H7.4v4.4H6.1v-5.7h9.4V18.7z M15.4,11.8H6.1V2.9h9.4V11.8z M8.6,5.5H7.5V4.3h1.1V5.5z
	 M11.3,5.5h-1.1V4.3h1.1L11.3,5.5z M14,5.5h-1.1V4.3H14L14,5.5z M8.6,8H7.5V6.8h1.1V8z M11.3,8h-1.1V6.8h1.1L11.3,8z M14,8h-1.1V6.8
	H14L14,8z M8.6,10.5H7.5V9.3h1.1V10.5z M11.3,10.5h-1.1V9.3h1.1L11.3,10.5z M14,10.5h-1.1V9.3H14L14,10.5z"/>
</svg>
