<?xml version="1.0" encoding="UTF-8"?><svg id="Layer_1" xmlns="http://www.w3.org/2000/svg" viewBox="0 0 38 38"><path d="m21,28H5V5h16v7.72723c.57227-.65039,1.24658-1.20654,2-1.64417V3H3v32h20v-10.08307c-.75342-.43762-1.42773-.99377-2-1.64417v4.72723Zm0,5H5v-3h6v2h4v-2h6v3Zm11.91016-16c-.42212-2.51074-2.39941-4.48785-4.91016-4.91003v-2.08997h-2v2.08997c-2.51074.42218-4.48779,2.39929-4.90991,4.91003h-2.09009v2h2.09009c.42212,2.51074,2.39917,4.48785,4.90991,4.91003v2.08997h2v-2.08997c2.51074-.42218,4.48804-2.39929,4.91016-4.91003h2.08984v-2h-2.08984Zm-6.91016,4.85797c-1.39868-.36365-2.49414-1.45923-2.85791-2.85797h2.85791v2.85797Zm0-4.85797h-2.85791c.36377-1.39874,1.45923-2.49432,2.85791-2.85797v2.85797Zm2,4.85797v-2.85797h2.85815c-.36377,1.39874-1.45923,2.49432-2.85815,2.85797Zm0-4.85797v-2.85797c1.39893.36365,2.49438,1.45923,2.85815,2.85797h-2.85815Z"/></svg>