<svg id="Layer_1" data-name="Layer 1" xmlns="http://www.w3.org/2000/svg" viewBox="0 0 21.6 21.6">
  <path d="M12.78883,8.80415l-.50879.509a2.09361,2.09361,0,0,0-2.96,0l-.50879-.509h.00006A2.81261,2.81261,0,0,1,12.78883,8.80415Zm-3.01721.95972h.00006l.5083.50976a.75323.75323,0,0,1,1.04,0l.5083-.50976A1.45469,1.45469,0,0,0,9.77162,9.76387ZM7.851,7.84419l-.00025.0003.50928.509a3.45037,3.45037,0,0,1,4.87988,0l.50928-.509A4.17063,4.17063,0,0,0,7.851,7.84419Zm6.74585,10.02295v.81714h2.5708V19.8H4.43232V18.68428H7.00264v-.81714H4.43232V1.8H17.16768V17.86714ZM5.54854,13.4156H16.05146V2.91615L5.54854,2.91609Zm7.93261,4.45154H8.11885v.81714h5.3623Zm2.57031-1.116V14.53145H14.93135v1.10363h-2.4585V14.53145H5.54854v2.21972Z"/>
</svg>
