<svg id="Layer_1" data-name="Layer 1" xmlns="http://www.w3.org/2000/svg" viewBox="0 0 21.6 21.6"><path d="M18.54585,9.51753a4.48313,4.48313,0,0,0-4.2417-4.46472V1.8h-11.25v18h11.25V13.98408a4.50292,4.50292,0,0,0,1.32275-.26587l1.84278,3.59143,1-.51635-1.84619-3.59778A4.48468,4.48468,0,0,0,18.54585,9.51753ZM4.17915,4.6125m9,.125v.37891a4.48713,4.48713,0,0,0,0,8.80224V15.8625h-9V2.925h9V4.7375Zm0,13.9375h-9V16.9875h3.375v1.125h2.25v-1.125h3.375Zm.877-5.78369a3.37369,3.37369,0,1,1,.00062,0Z"/></svg>