<svg id="Layer_1" data-name="Layer 1" xmlns="http://www.w3.org/2000/svg" viewBox="0 0 21.6 21.6"><path d="M8.15629,11.22327A3.31562,3.31562,0,1,0,4.84038,7.90759,3.31561,3.31561,0,0,0,8.15629,11.22327Zm0-5.51148A2.1958,2.1958,0,1,1,5.96,7.90759,2.1958,2.1958,0,0,1,8.15629,5.71179Zm6.87842,2.80859a2.58594,2.58594,0,1,0-2.58594-2.58593A2.586,2.586,0,0,0,15.03471,8.52038Zm0-4.05212A1.46625,1.46625,0,1,1,13.5684,5.93445,1.46617,1.46617,0,0,1,15.03471,4.46826Zm4.79785,9.44324H18.71293a3.67033,3.67033,0,0,0-7.20459-.99768,6.31858,6.31858,0,0,1,2.9712,5.35193H13.35991a5.20386,5.20386,0,0,0-10.40772,0H1.83256a6.31257,6.31257,0,0,1,8.65918-5.8711,4.79279,4.79279,0,0,1,9.34082,1.51685Zm-9.974.473.792.792-3.108,3.108-1.699-1.701.791-.792.908.909Z"/></svg>