<svg id="Layer_1" data-name="Layer 1" xmlns="http://www.w3.org/2000/svg" viewBox="0 0 21.6 21.6"><path d="M19.8,12.10127V2.09313H3.79978V7.68467H1.8v11.8222H8.91272V14.91916a7.59543,7.59543,0,0,1,.868-.3278,6.85787,6.85787,0,0,1,4.02812,0A9.36,9.36,0,0,1,15.171,15.098l.47328-1.0125a9.3752,9.3752,0,0,0-3.28287-.8849V12.10127ZM7.79547,18.38963H2.91724V17.3073H4.71v.7264H5.964v-.7264H7.79547Zm0-7.80372v5.60415H2.91724V8.80191H7.79547v1.784Zm3.44871,2.61041a7.99027,7.99027,0,0,0-2.33146.50292v-1.598h2.33146ZM8.91272,10.98451V7.68467H4.917V3.21037H18.68276v7.77414Z"/></svg>