<svg id="Layer_1" data-name="Layer 1" xmlns="http://www.w3.org/2000/svg" viewBox="0 0 21.6 21.6"><path d="M14.18,6.27H9.3a2.71,2.71,0,0,0,.78-1l.23-.51-2-.94.75-1.58-1-.48L7.33,3.38l-2-.94L5.11,3a2.73,2.73,0,0,0,.77,3.32H1.8V17.55H2.92a2.25,2.25,0,0,0,4.5,0h6.76a2.25,2.25,0,1,0,4.5,0H19.8V13Zm-5.44-1A1.63,1.63,0,0,1,6,4ZM5.17,18.67A1.13,1.13,0,1,1,6.3,17.55,1.12,1.12,0,0,1,5.17,18.67Zm11.26,0a1.13,1.13,0,1,1,1.12-1.12A1.12,1.12,0,0,1,16.43,18.67Zm2.25-2.25h-.32a2.22,2.22,0,0,0-3-.83,2.07,2.07,0,0,0-.83.83H7.11a2.22,2.22,0,0,0-3-.83,2.07,2.07,0,0,0-.83.83H2.92v-9H13.65l5,6Z"/></svg>