<svg id="Ebene_1" data-name="Ebene 1" xmlns="http://www.w3.org/2000/svg" viewBox="0 0 21.6 21.6">
  <path d="M5.175,1.8v18h11.25V1.8ZM15.3,18.675h-9V16.987H9.675v1.125h2.25V16.987H15.3Zm0-2.813h-9V2.925h9ZM8.147,10.775H9.534a.7153.7153,0,0,0,.713-.713V8.675a.71662.71662,0,0,0-.713-.713H8.147a.71531.71531,0,0,0-.713.713v1.387A.714.714,0,0,0,8.147,10.775Zm.187-1.913H9.345V9.874H8.334Zm3.732,1.913h1.387a.71526.71526,0,0,0,.71295-.713V8.675a.71526.71526,0,0,0-.71295-.713H12.066a.71531.71531,0,0,0-.713.713v1.387A.714.714,0,0,0,12.066,10.775Zm.187-1.913h1.012V9.874H12.253ZM8.147,6.812H9.534a.71535.71535,0,0,0,.713-.713V4.712a.71667.71667,0,0,0-.713-.713H8.147a.71536.71536,0,0,0-.713.713V6.099A.71406.71406,0,0,0,8.147,6.812Zm.187-1.913H9.345V5.912H8.334Zm3.732,1.913h1.387a.7153.7153,0,0,0,.71295-.713V4.712a.71531.71531,0,0,0-.71295-.713H12.066a.71535.71535,0,0,0-.713.713V6.099A.714.714,0,0,0,12.066,6.812Zm.187-1.913h1.012V5.912H12.253ZM8.147,14.738H9.534a.71531.71531,0,0,0,.713-.713V12.638a.716.716,0,0,0-.713-.713H8.147a.71531.71531,0,0,0-.713.713v1.387A.714.714,0,0,0,8.147,14.738Zm.187-1.913H9.345v1.012H8.334Z"/>
</svg>
