<svg id="Layer_1" data-name="Layer 1" xmlns="http://www.w3.org/2000/svg" viewBox="0 0 21.6 21.6"><path d="M14.18,4.05H1.8V15.3H2.93a2.25,2.25,0,0,0,4.5,0h6.75a2.25,2.25,0,0,0,4.5,0H19.8V10.8ZM2.93,5.18H13.65a3.81,3.81,0,0,1-.09.78,1.09,1.09,0,0,1-.81.84,1.58,1.58,0,0,1-1.52-.36L10.81,6l-.41.46a1.44,1.44,0,0,1-1,.41,1.36,1.36,0,0,1-1-.41L7.91,6l-.42.46a1.4,1.4,0,0,1-1,.41,1.4,1.4,0,0,1-1-.41L5,6l-.42.46a1.42,1.42,0,0,1-1,.41,1.49,1.49,0,0,1-.63-.14Zm0,2.71A2.59,2.59,0,0,0,3.56,8,2.61,2.61,0,0,0,5,7.54a2.66,2.66,0,0,0,2.9,0,2.67,2.67,0,0,0,2.9,0,2.62,2.62,0,0,0,.88.37,2.69,2.69,0,0,0,.57.06h0a2.73,2.73,0,0,0,1.37-.34l0,0v3.09H2.93Zm2.25,8.54A1.13,1.13,0,1,1,6.3,15.3,1.13,1.13,0,0,1,5.18,16.43Zm11.25,0a1.13,1.13,0,1,1,1.12-1.13A1.13,1.13,0,0,1,16.43,16.43Zm2.25-2.25h-.32a2.22,2.22,0,0,0-3-.84,2.16,2.16,0,0,0-.83.84H7.11a2.22,2.22,0,0,0-3-.84,2.16,2.16,0,0,0-.83.84H2.93V11.81H14.82V6.58l3.86,4.63Z"/></svg>