<svg id="Layer_2" data-name="Layer 2" xmlns="http://www.w3.org/2000/svg" viewBox="0 0 21.6 21.6">
  <path d="M18.21016,12.14292h-1.0175a1.592,1.592,0,0,1-1.58984-1.58984v-2.035a1.592,1.592,0,0,1,1.58984-1.58984h1.0175A1.592,1.592,0,0,1,19.8,8.51808v2.035A1.592,1.592,0,0,1,18.21016,12.14292Zm-1.0175-4.07a.44571.44571,0,0,0-.44516.44516v2.035a.4457.4457,0,0,0,.44516.44515h1.0175a.44569.44569,0,0,0,.44515-.44515v-2.035a.4457.4457,0,0,0-.44515-.44516ZM4.94689,7.0743A1.94408,1.94408,0,1,1,6.89147,5.13072,1.94519,1.94519,0,0,1,4.94689,7.0743Zm0-2.74347a.7994.7994,0,1,0,.79989.79989A.80043.80043,0,0,0,4.94689,4.33083ZM6.40359,18.6424H3.44052l-.30207-4.21209A1.58182,1.58182,0,0,1,2.0663,13.05112L1.8,9.316l.14507-.17588A3.942,3.942,0,0,1,4.98068,7.67149a3.93782,3.93782,0,0,1,2.9581,1.37819l.158.18085-.306,3.8345a1.58829,1.58829,0,0,1-1.03936,1.35931ZM4.50571,17.49771h.84461l.33983-4.12366h.52663A.43734.43734,0,0,0,6.65,12.97361L6.91731,9.632a2.78162,2.78162,0,0,0-3.94182.07055L3.209,12.96964a.43647.43647,0,0,0,.43323.40441h.5326l.07452.53161ZM15.574,13.45156a5.54625,5.54625,0,0,1,0-7.832l-.80883-.80884a6.6893,6.6893,0,0,0,0,9.44963Zm-1.85714,1.85316a8.16974,8.16974,0,0,1,0-11.53828L12.908,2.9576a9.3137,9.3137,0,0,0,0,13.156Z"/>
</svg>
