<svg id="Layer_2" data-name="Layer 2" xmlns="http://www.w3.org/2000/svg" viewBox="0 0 21.6 21.6"><path d="M17.267,8.1474l.89844.67774-3.49024,4.62793-2.25293-1.834.71094-.87305,1.34668,1.09766Zm2.53418-4.16674V19.79854H10.767V15.27021H1.79878V1.80146H18.63325v2.1792ZM4.55806,2.90205H2.89937V14.17061H4.55806V9.71748L3.45894,9.70869l.019-2.30078,1.08008.00861Zm6.209,1.07861h6.7666V2.90205H5.65864V14.17061H10.767Zm7.90918,13.00928h-2.2774L16.393,18.1042l-2.24121-.01172.00573-1.10254H11.892v1.6836h6.78418Zm0-11.88428H11.892V6.85713h.00159v1.125H11.892v7.88281h6.78418V7.98213h-.00165v-1.125h.00165Z"/></svg>