<svg id="Layer_1" data-name="Layer 1" xmlns="http://www.w3.org/2000/svg" viewBox="0 0 21.6 21.6">
  <path d="M15.34,15.2124l-.8022-.8022a4.9644,4.9644,0,0,0,0-7.12l.8022-.8022A6.3646,6.3646,0,0,1,15.34,15.2124Zm1.9053-10.83-.8023.8022a7.808,7.808,0,0,1,0,11.1309l.8023.8023A9.0181,9.0181,0,0,0,17.2457,4.3823ZM5.3125,5.1845,4.51,4.3823a9.0181,9.0181,0,0,0,0,12.7354l.8022-.8023A7.9921,7.9921,0,0,1,5.3125,5.1845ZM6.6162,6.4882a6.1733,6.1733,0,0,0,0,8.7242l.8022-.8022a4.9643,4.9643,0,0,1,0-7.12Zm7.12,4.3119a2.8078,2.8078,0,1,1-2.8078-2.8078A2.8078,2.8078,0,0,1,13.7359,10.8Zm-1.125,0a1.6828,1.6828,0,1,0-1.6828,1.6828A1.6848,1.6848,0,0,0,12.6109,10.8Z"/>
</svg>
