<?xml version="1.0" encoding="utf-8"?>
<!-- Generator: Adobe Illustrator 24.0.1, SVG Export Plug-In . SVG Version: 6.00 Build 0)  -->
<svg version="1.1" id="Layer_1" xmlns="http://www.w3.org/2000/svg" xmlns:xlink="http://www.w3.org/1999/xlink" x="0px" y="0px"
	 viewBox="0 0 21.6 21.6" style="enable-background:new 0 0 21.6 21.6;" xml:space="preserve">
<path d="M9.2,10.7L7.9,9.4l0.8-0.8l0.5,0.5l1.4-1.4l0.8,0.8L9.2,10.7z M17.2,8.5h-4.7v1.1h4.7V8.5z M11.4,11.9l-0.8-0.8l-1.4,1.4
	L8.7,12l-0.8,0.8L9.2,14L11.4,11.9z M17.2,11.9h-4.7V13h4.7V11.9z M11.4,15.3l-0.8-0.8l-1.4,1.4l-0.5-0.5l-0.8,0.8l1.3,1.3
	L11.4,15.3z M17.2,15.3h-4.7v1.1h4.7V15.3z M19.8,5.4v14.4H5.4v-3.6H1.8V1.8h14.4v3.6C16.2,5.4,19.8,5.4,19.8,5.4z M5.4,5.4h9.7V2.9
	H2.9V15h2.5V5.4z M18.7,6.5H6.5v12.1h12.2V6.5z"/>
</svg>
