<?xml version="1.0" encoding="utf-8"?>
<!-- Generator: Adobe Illustrator 24.0.1, SVG Export Plug-In . SVG Version: 6.00 Build 0)  -->
<svg version="1.1" id="Layer_1" xmlns="http://www.w3.org/2000/svg" xmlns:xlink="http://www.w3.org/1999/xlink" x="0px" y="0px"
	 viewBox="0 0 21.6 21.6" enable-background="new 0 0 21.6 21.6" xml:space="preserve">
<path d="M17.0903,7.42131l0.792-0.792l-4.84754-4.84759h-1.35218V12.517c-0.71044-0.54967-1.58845-0.83802-2.48645-0.81659
	c-0.99643,0.01164-1.97245,0.28393-2.831,0.78979C4.07,13.81523,3.04989,16.34489,4.08645,18.1403
	c0.69303,1.08458,1.9165,1.71182,3.20166,1.64142c0.99642-0.01167,1.97243-0.28394,2.831-0.78974
	c1.54578-0.80466,2.56114-2.35604,2.67989-4.09466h0.004V6.36869l2.67,2.67005l0.792-0.792l-3.462-3.462V3.13426L17.0903,7.42131z
	 M11.46872,15.92424c-0.38689,0.89131-1.05864,1.62902-1.90992,2.09747c-0.68792,0.40821-1.47091,0.62877-2.27075,0.63965
	c-0.8845,0.06923-1.73754-0.34416-2.23126-1.0813c-0.32782-0.63085-0.34308-1.3784-0.04126-2.0221
	c0.38688-0.89131,1.0586-1.62904,1.90985-2.09753c0.68797-0.4082,1.471-0.62878,2.27088-0.63971
	c0.88448-0.0692,1.73748,0.34419,2.2312,1.0813C11.75522,14.53293,11.77047,15.28049,11.46872,15.92424z"/>
</svg>
