<?xml version="1.0" encoding="utf-8"?>
<!-- Generator: Adobe Illustrator 24.0.1, SVG Export Plug-In . SVG Version: 6.00 Build 0)  -->
<svg version="1.1" id="Ebene_1" xmlns="http://www.w3.org/2000/svg" xmlns:xlink="http://www.w3.org/1999/xlink" x="0px" y="0px"
	 viewBox="0 0 21.6000004 21.6000004" style="enable-background:new 0 0 21.6000004 21.6000004;" xml:space="preserve">
<path d="M18.9650002,1.84l-4.79,4.79V5.1750002c0-1.863961-1.5110388-3.375-3.375-3.375s-3.375,1.511039-3.375,3.375v6.75
	C7.4260559,12.3416719,7.5075469,12.7542219,7.665,13.1400003l-0.836,0.8360004
	c-0.3425808-0.6296568-0.5242972-1.334197-0.5289998-2.0510006h-1.125c0.0006084,1.0205412,0.2807441,2.0214214,0.8099999,2.8940001
	L1.835,18.9689999l0.7950001,0.7950001L19.7600002,2.6340001L18.9650002,1.84z M8.5500002,11.9250002v-6.75
	c0-1.2426407,1.0073595-2.25,2.25-2.25s2.25,1.0073593,2.25,2.25v2.5799999l-4.4730005,4.4729996
	C8.5603504,12.1278276,8.5513248,12.0265379,8.5500002,11.9250002z M15.3000002,11.9250002h1.1239996
	c-0.0003262,2.88832-2.1881781,5.3069715-5.0620003,5.5959997v1.1539993h2.8129997v1.125h-6.749999v-1.125h2.8129997v-1.1539993
	c-1.0025749-0.1013851-1.9590387-0.4721527-2.7680001-1.073l0.803-0.8029995
	c2.0523386,1.3977833,4.8492155,0.8671627,6.2469997-1.1851768C15.0289574,13.7125301,15.300786,12.8291483,15.3000002,11.9250002z
	 M13.0500002,11.9250002V10.868l1.125-1.125v2.1820002c-0.0056286,1.8616247-1.5133753,3.3693714-3.375,3.375
	c-0.6005888-0.0033331-1.1890726-0.1691999-1.7030001-0.4799995l0.8249998-0.8240004
	c1.1431074,0.4855804,2.463419-0.047451,2.9489994-1.1905575C12.9892826,12.5269899,13.0501642,12.2275343,13.0500002,11.9250002z"
	/>
</svg>
