<svg id="Layer_2" data-name="Layer 2" xmlns="http://www.w3.org/2000/svg" viewBox="0 0 21.6 21.6"><path d="M16.425,2.925v15.75H5.175V2.925h11.25M17.55,1.8H4.05v18h13.5V1.8Zm-4.5,3.383a.5625.5625,0,0,1,0,1.125H8.55a.5625.5625,0,1,1,0-1.125h4.5m0-1.125H8.55a1.6875,1.6875,0,0,0,0,3.375h4.5a1.6875,1.6875,0,0,0,0-3.375ZM7.47482,11.59724l.72934,1.235c.00924.01848.02352.0448.04312.07923s.03836.06888.05684.10332q.03444.06173.06887.13075h.00672c-.00224-.05516-.00336-.10779-.00336-.15847-.00224-.0434-.00336-.086-.00336-.12711V11.59724h.595v2.4599H8.35563l-.72234-1.21791a.7778.7778,0,0,1-.04648-.07728q-.0294-.05333-.05684-.112-.03444-.06508-.07223-.14111h-.007c0,.05992.00112.11591.00364.16883,0,.04564.00056.091.00168.13579s.00168.07728.00168.098v1.14568H6.8625v-2.4599Zm3.79821,0v.50228H10.01732v.44041h1.0768v.47485h-1.0768v.52636h1.27642v.516H9.40836v-2.4599Zm.84638,0,.2475,1.032c.01372.05992.02688.1246.03976.19459q.01888.105.03611.19767.01722.11044.0378.2167h.00672q.01722-.09617.03808-.19934.0168-.0861.03947-.18927c.01484-.06888.02912-.13411.04284-.19627l.2307-1.05608h.56416L13.633,12.6466c.01372.06412.02772.13019.04144.19767.01371.06775.02631.13159.03779.191q.01722.1033.0378.203h.007q.02058-.10625.04116-.2167.01722-.09282.03947-.19935.02268-.10667.04312-.19963l.24414-1.02528h.6126l-.67447,2.4599h-.59524L13.20993,12.877q-.01722-.07224-.03108-.15315c-.00924-.05376-.0182-.1036-.02744-.14951l-.02744-.15483h-.007c-.00924.0504-.01848.10219-.02744.15483q-.01386.06886-.02576.14951-.01218.081-.0294.15315l-.25786,1.18011h-.59888l-.67419-2.4599Z"/></svg>