<svg id="Ebene_1" data-name="Ebene 1" xmlns="http://www.w3.org/2000/svg" viewBox="0 0 21.6 21.6"><path d="M10.8,1.8a9,9,0,1,0,9,9A9,9,0,0,0,10.8,1.8Zm0,16.88a7.88,7.88,0,1,1,7.87-7.88A7.9,7.9,0,0,1,10.8,18.68ZM17.51,9.5,17,9.8a.13.13,0,0,0-.07.1l-.06.42a.13.13,0,0,1-.09.11l-.51.19s-.07,0-.08.08l-.52,1.19a.14.14,0,0,0,0,.11l.1.25a.14.14,0,0,1,0,.17l-1.25,1a.15.15,0,0,0-.06.09l-.06.39a.12.12,0,0,0,0,.08l.36.87a.13.13,0,0,1,0,.12l-.11.22a.15.15,0,0,1-.25,0l-.33-.45a.08.08,0,0,1,0-.05L13.86,14a.14.14,0,0,0-.23-.07l-.16.12a.15.15,0,0,1-.16,0L13,13.84a.1.1,0,0,0-.07,0h-.23a.14.14,0,0,0-.14.14v0a.14.14,0,0,1-.14.14h-.53L11.42,14a.11.11,0,0,0-.11,0l-.46.26a.14.14,0,0,0-.07.1l-.11.45a.14.14,0,0,1-.22.09l-.35-.25a.13.13,0,0,1-.06-.07l-.13-.39a.1.1,0,0,0-.07-.08L9.65,14a.16.16,0,0,0-.15,0l-.16.12a.14.14,0,0,1-.18,0l-.31-.31,0,0-.19-.32a.17.17,0,0,0-.13-.07H7.86a3.13,3.13,0,0,1-.81,0l-.65-.32-1-.56a.1.1,0,0,1,0,0l-.54-.78h0l-.46-.8a.17.17,0,0,1,0-.1L4.53,10l.15-.85a.11.11,0,0,0,0-.08l-.24-.65a.13.13,0,0,1,.09-.18l.06,0h6.62l1,.14a.13.13,0,0,1,.12.16l0,.25a.14.14,0,0,0,.06.15l.13.08a.14.14,0,0,0,.09,0L13.38,9a.14.14,0,0,1,.13.21l-.38.71a.14.14,0,1,0,.25.13l.24-.47a.15.15,0,0,1,.24,0l.22.27a.19.19,0,0,1,0,.11l0,.39a.14.14,0,0,0,.18.15l.11,0h0l2-.88,0,0,.66-.66a.15.15,0,0,1,.23,0l.25.45A.16.16,0,0,1,17.51,9.5Z"/></svg>