<svg id="Layer_1" data-name="Layer 1" xmlns="http://www.w3.org/2000/svg" viewBox="0 0 21.6 21.6"><path d="M5.54848,8.72185,6.7809,10.80877c.02881.06347.1045.1914.16846.30762.04053.07031.07568.1455.11621.2207h.01172c-.00586-.09278-.00586-.17969-.00586-.2666-.00586-.14551-.00586-.30274-.00586-.37793V8.72185H8.07143V12.8781H7.03676L5.81557,10.82049a2.3745,2.3745,0,0,1-.17431-.32032c-.04053-.07519-.08106-.15136-.12207-.23828H5.50747c0,.09864,0,.19825.00586.28516,0,.15723.00586.32519.00586.39551V12.8781H4.51333V8.72185Zm6.2417,0v.84864H9.66811v.74414h1.81934v.80176H9.66811V12.006h2.15674v.87207h-3.186V8.72185Zm1.25391,0,.41845,1.74317c.04688.2041.08741.4541.12793.66308.01758.12207.041.24414.064.36621h.01172c.01758-.11035.041-.2207.064-.33691l.13965-.65137.38965-1.78418h.95312l.38965,1.77246.13379.65723c.01758.11621.04053.23242.064.34277h.01172l.06933-.36621c.041-.209.09326-.46484.13965-.67382l.41309-1.73243H17.4684L16.32876,12.8781H15.3229l-.436-1.99414c-.04053-.16308-.06934-.35449-.09863-.51172l-.04639-.26171h-.01172l-.04638.26171c-.0293.15723-.05225.34864-.09327.51172l-.436,1.99414H13.14321L12.00356,8.72185ZM17.55,5.175A1.12629,1.12629,0,0,1,18.675,6.3v9a1.12629,1.12629,0,0,1-1.125,1.125H4.05A1.12629,1.12629,0,0,1,2.925,15.3v-9A1.12629,1.12629,0,0,1,4.05,5.175h13.5m0-1.125H4.05A2.25,2.25,0,0,0,1.8,6.3v9a2.25,2.25,0,0,0,2.25,2.25h13.5A2.25,2.25,0,0,0,19.8,15.3v-9a2.25,2.25,0,0,0-2.25-2.25Z"/></svg>