<svg id="Ebene_1" data-name="Ebene 1" xmlns="http://www.w3.org/2000/svg" viewBox="0 0 21.6 21.6"><path d="M18.14668,10.8a7.29508,7.29508,0,0,1-2.15234,5.19434l-.707-.707a6.345,6.345,0,0,0,0-8.97509l.707-.707A7.29869,7.29869,0,0,1,18.14668,10.8ZM14.88105,6.719l-.707.707a4.77715,4.77715,0,0,1,0,6.748l.707.707a5.77147,5.77147,0,0,0,0-8.1621ZM7.426,7.426l-.707-.707a5.77147,5.77147,0,0,0,0,8.1621l.707-.707A4.77714,4.77714,0,0,1,7.426,7.426ZM6.31221,6.31221l-.707-.707a7.34578,7.34578,0,0,0,0,10.38916l.707-.707a6.34613,6.34613,0,0,1,0-8.97509Zm2.452,3.11059v1.081c0,.236.0188.61517.03339.83654H8.7903c-.09406-.19891-.26325-.54412-.38648-.75042L7.702,9.4228H7.0262v2.7923h.634V11.14143c0-.23608-.02295-.61938-.0376-.84082H7.6299c.094.20685.2705.55566.39477.762l.69354,1.15253h.67993V9.4228Zm1.23115,2.7923h.62688V11.11165h.92736v-.54049H10.6222V9.98575h1.165V9.4228H9.99532Zm3.42151.07292a1.211,1.211,0,0,0,.89894-.319,1.14014,1.14014,0,0,0,.34225-.73257h-.66866a.54611.54611,0,0,1-.57253.50123c-.4331,0-.70669-.38715-.70669-.91479,0-.52394.23133-.91479.70246-.91479a.52681.52681,0,0,1,.55458.45529h.6676a1.10624,1.10624,0,0,0-.44366-.79331,1.30033,1.30033,0,0,0-.77429-.22025,1.37087,1.37087,0,0,0-1.39015,1.47306A1.37527,1.37527,0,0,0,13.41683,12.288ZM10.8,2.925A7.875,7.875,0,1,0,18.675,10.8,7.88392,7.88392,0,0,0,10.8,2.925m0-1.125a9,9,0,1,1-9,9,9,9,0,0,1,9-9Z"/></svg>