<svg id="Ebene_1" data-name="Ebene 1" xmlns="http://www.w3.org/2000/svg" viewBox="0 0 21.6 21.6">
  <path d="M10.8,1.8a9,9,0,1,0,9,9A8.99943,8.99943,0,0,0,10.8,1.8Zm0,16.875a7.83236,7.83236,0,0,1-5.149-1.93l1.882-1.881-.795-.796L4.856,15.95A7.86369,7.86369,0,0,1,15.95,4.856L14.155,6.65l.795.795,1.794-1.794A7.86281,7.86281,0,0,1,10.8,18.675Zm.45764-8.60535V7.02131A1.66278,1.66278,0,0,1,12.94026,8.4886h1.02441c-.18945-1.36621-.999-2.17578-2.707-2.31494v-.6958h-.70849v.6958c-1.61915.063-2.71924.96142-2.71924,2.36523,0,1.60645,1.16357,2.03662,2.71924,2.37842v3.27588a2.02877,2.02877,0,0,1-2.06153-2.06152h-1.063a2.95836,2.95836,0,0,0,3.12452,2.92187v1.0752h.70849v-1.0625c1.65723-.10157,2.90918-.999,2.90918-2.53028C14.16682,10.81575,12.91487,10.411,11.25764,10.06965Zm-.70849-.13916C9.37288,9.66487,8.82893,9.29817,8.82893,8.4886c0-.89844.6958-1.3916,1.72022-1.48Zm.70849,4.27539V11.08137c1.21485.26563,1.87207.55664,1.87207,1.49268A1.77179,1.77179,0,0,1,11.25764,14.20588Z"/>
</svg>
