<svg id="Layer_2" data-name="Layer 2" xmlns="http://www.w3.org/2000/svg" viewBox="0 0 21.6 21.6"><path d="M10.3406,17.517a4.73967,4.73967,0,0,0,.63562,1.01587c-.60038.764-1.00774,1.26428-1.00774,1.26428S4.77378,13.363,3.7534,11.16665A6.70913,6.70913,0,1,1,16.6241,8.51127a7.65893,7.65893,0,0,1-.5415,2.52149,4.72567,4.72567,0,0,0-1.12551-.20518l.00074-.00135a6.40694,6.40694,0,0,0,.54039-2.315,5.58258,5.58258,0,1,0-10.711,2.20941,63.13413,63.13413,0,0,0,5.1823,7.27084C10.08167,17.84926,10.21361,17.6797,10.3406,17.517Zm8.0522-1.94863a3.70875,3.70875,0,1,1-3.70874-3.70881A3.70874,3.70874,0,0,1,18.3928,15.5684Zm-1.192.56318-5.03406-.00153a2.57805,2.57805,0,0,0,5.03406.00153ZM17.201,15.0057a2.57794,2.57794,0,0,0-5.03344-.00152ZM9.91565,5.18045A3.37762,3.37762,0,1,1,6.538,8.55807,3.37759,3.37759,0,0,1,9.91565,5.18045Zm0,1.12588a2.25175,2.25175,0,1,0,2.25174,2.25174A2.25428,2.25428,0,0,0,9.91565,6.30633Z"/></svg>