<svg id="Ebene_1" data-name="Ebene 1" xmlns="http://www.w3.org/2000/svg" viewBox="0 0 21.6 21.6">
  <path d="M11.6313,18.63014A7.92454,7.92454,0,0,1,10.8,18.675a7.83386,7.83386,0,0,1-5.1944-1.9715L16.7317,5.63661a7.79059,7.79059,0,0,1,1.894,6.02344,5.05477,5.05477,0,0,1,.99768.91284,9.01382,9.01382,0,1,0-7.08862,7.05633A5.05275,5.05275,0,0,1,11.6313,18.63014ZM2.925,10.8a7.864,7.864,0,0,1,13.01-5.95752L4.81477,15.90449A7.83493,7.83493,0,0,1,2.925,10.8Zm12.89911,1.10608a3.9375,3.9375,0,1,0,3.938,3.937A3.93786,3.93786,0,0,0,15.82411,11.90608Zm0,6.75a2.81825,2.81825,0,0,1-2.756-2.25h5.511A2.81477,2.81477,0,0,1,15.82411,18.65608Zm-2.755-3.375a2.81228,2.81228,0,0,1,5.511,0Z"/>
</svg>
