<svg id="Ebene_1" data-name="Ebene 1" xmlns="http://www.w3.org/2000/svg" viewBox="0 0 21.6 21.6"><path d="M15.89,13.06H17v3.39H15.89Zm2.25,3.39h1.13V13.06H18.14ZM9.62,14.19h4v1.13H8.49L7.36,16.45h7.4V13.06h-4Zm6.09-6.11a.45.45,0,0,1,.18.36V10.8H17V8.44a1.59,1.59,0,0,0-.51-1.16Zm1.71-1.71A2.26,2.26,0,0,1,18.14,8V10.8h1.13V8a3.41,3.41,0,0,0-1.05-2.45ZM19.8,2.6,2.63,19.8,1.84,19l2.54-2.55H1.8V13.06h6L12.84,8H10.35A3.49,3.49,0,0,1,6.87,4.49V2.89H8v1.6a2.36,2.36,0,0,0,2.35,2.36H14l1.09-1.1H12.9a1.52,1.52,0,0,1-1.52-1.52V2.89h1.13V4.23a.38.38,0,0,0,.39.39h3c.1,0,.18,0,.27,0L19,1.8ZM6.64,14.19H2.93v1.13H5.51Z"/></svg>