<svg id="Ebene_1" data-name="Ebene 1" xmlns="http://www.w3.org/2000/svg" viewBox="0 0 21.6 21.6">
  <path d="M10.934,16.425H1.8V15.3l3.375-2.259V7.425a5.625,5.625,0,0,1,11.25,0v3.424a4.858,4.858,0,0,0-.485-.049,5.00094,5.00094,0,0,0-.64.064V7.425a4.5,4.5,0,0,0-9,0v6.217L3.823,15.3h7.111a4.9544,4.9544,0,0,0-.05694.562A4.97166,4.97166,0,0,0,10.934,16.425ZM8.55,17.55a2.23826,2.23826,0,0,0,3.675,1.728,5.02137,5.02137,0,0,1-1.038-1.728ZM19.8,15.862a3.938,3.938,0,1,1-3.938-3.937A3.93849,3.93849,0,0,1,19.8,15.862Zm-1.183.563H13.106a2.81228,2.81228,0,0,0,5.511,0Zm.001-1.125a2.81227,2.81227,0,0,0-5.511,0Z"/>
</svg>
