<?xml version="1.0" encoding="UTF-8"?><svg id="Layer_1" xmlns="http://www.w3.org/2000/svg" viewBox="0 0 38 38"><path d="m19,3C10.16357,3,3,10.16345,3,19c0,3.34851,1.03223,6.4541,2.79077,9.02344l-2.79077,6.97656,6.97656-2.79065c2.56934,1.75854,5.67505,2.79065,9.02344,2.79065,8.83667,0,16-7.16345,16-16S27.83667,3,19,3Zm0,30c-2.83081,0-5.56055-.84412-7.8938-2.4411l-.8811-.60303-.99121.39655-2.64355,1.05743,1.05737-2.64362.39648-.99133-.60303-.8811c-1.59692-2.33337-2.44116-5.06305-2.44116-7.8938,0-7.7196,6.28027-14,14-14s14,6.2804,14,14-6.28027,14-14,14Zm-1.75-20c0-.96655.78369-1.75,1.75-1.75.96655,0,1.75.78345,1.75,1.75,0,.96643-.78345,1.75-1.75,1.75-.96631,0-1.75-.78357-1.75-1.75Zm2.3501,5l1.3999,10h-4l1.3999-10h1.2002Z"/></svg>