<?xml version="1.0" encoding="utf-8"?>
<!-- Generator: Adobe Illustrator 24.0.1, SVG Export Plug-In . SVG Version: 6.00 Build 0)  -->
<svg version="1.1" id="Layer_1" xmlns="http://www.w3.org/2000/svg" xmlns:xlink="http://www.w3.org/1999/xlink" x="0px" y="0px"
	 viewBox="0 0 21.6000004 21.6000004" style="enable-background:new 0 0 21.6000004 21.6000004;" xml:space="preserve">
<path d="M18.9013195,2.8188701H7.5661702L7.5660501,18.6421108h11.3352699
	c0.4956913-0.0014229,0.897192-0.4028702,0.8986797-0.8985615V3.7174301
	C19.7985764,3.2217131,19.3970375,2.8202269,18.9013195,2.8188701z M18.684,17.5261497H8.6820803L8.6822004,3.93484H18.684
	V17.5261497z M5.81636,2.8188701H2.6986799C2.2029626,2.8202267,1.8014228,3.2217128,1.8,3.7174301v14.0258808
	c0.0014336,0.4957314,0.4029479,0.8972454,0.89868,0.8986797H5.81636c0.4957209-0.001461,0.8972192-0.4029579,0.8986802-0.8986797
	V3.7174301C6.7135901,3.221724,6.3120661,2.8202541,5.81636,2.8188701z M5.599,17.5259991H2.9159999V3.93484H5.599V17.5259991z
	 M17.7793007,4.7167988h-7.956111v3.5882816h7.9561205L17.7793007,4.7167988z M16.6633015,7.1891489h-5.724V5.8327298h5.724
	V7.1891489z M11.72651,9.8923597v0.0001202c-0.0000334,0.4628916-0.375308,0.8381128-0.8382006,0.8380795
	c-0.4628916-0.0000324-0.8381128-0.375308-0.8380795-0.8381996s0.375308-0.8381128,0.8381996-0.8380795
	C11.3512754,9.0543127,11.7264767,9.4295149,11.72651,9.8923597z M11.72651,13.9142094v0.0000601
	c-0.0000162,0.4628754-0.3752651,0.8380966-0.8381405,0.8380804c-0.4628754-0.0000172-0.8380966-0.3752651-0.8380795-0.8381405
	c0.0000162-0.4628754,0.3752642-0.8380966,0.8381395-0.8380804C11.3512821,13.0761461,11.7264938,13.4513578,11.72651,13.9142094z
	 M11.72651,15.9251289v0.0001297c-0.0000362,0.4628925-0.3753128,0.8381119-0.8382053,0.8380756
	c-0.4628916-0.0000362-0.8381109-0.3753128-0.8380747-0.8382053c0.0000362-0.4628916,0.3753128-0.8381109,0.8382044-0.8380747
	C11.3512764,15.0870895,11.7264738,15.4622879,11.72651,15.9251289z M14.6394196,15.9251289
	c0.0000219,0.4628754-0.3751945,0.8381271-0.8380699,0.83815s-0.8381281-0.3751945-0.83815-0.8380699
	s0.3751945-0.8381281,0.8380699-0.83815c0.0000029,0,0.0000067,0,0.0000095,0h0.0000601
	c0.4628534-0.0000057,0.8380747,0.375206,0.8380804,0.8380594C14.6394196,15.9251223,14.6394196,15.9251261,14.6394196,15.9251289z
	 M14.6394196,13.9142094c0,0.4628592-0.3752213,0.8380795-0.8380804,0.8380795s-0.8380795-0.3752213-0.8380795-0.8380804
	c0-0.4628353,0.3751841-0.8380461,0.8380194-0.8380795h0.0000601
	C14.2641897,13.0761509,14.6393986,13.4513597,14.6394196,13.9142094z M12.96315,9.8924198
	c-0.0000114-0.4628696,0.3752003-0.8381128,0.8380699-0.8381405H13.80128
	c0.4628754,0.0000114,0.8381014,0.3752546,0.8380899,0.83813c-0.0000105,0.4628754-0.3752546,0.8381014-0.83813,0.8380899
	C13.3383846,10.7304888,12.9631672,10.3552752,12.96315,9.8924198z M17.552,9.8923597v0.0001202
	c-0.0000324,0.4628916-0.375309,0.8381128-0.8381996,0.8380795c-0.4628925-0.0000324-0.8381138-0.375308-0.8380804-0.8381996
	s0.375308-0.8381128,0.8382006-0.8380795C17.1767654,9.0543127,17.5519676,9.4295149,17.552,9.8923597z M17.552,13.9142094
	v0.0000601c-0.0000172,0.4628754-0.3752651,0.8380966-0.8381405,0.8380804
	c-0.4628754-0.0000172-0.8380966-0.3752651-0.8380795-0.8381405c0.0000162-0.4628754,0.3752651-0.8380966,0.8381405-0.8380804
	C17.1767712,13.0761461,17.5519829,13.4513578,17.552,13.9142094z M11.7264996,11.9032793v0.0001202
	c-0.0000334,0.4628868-0.3753033,0.8381033-0.8381901,0.8380699s-0.8381033-0.3753033-0.8380699-0.8381901
	s0.3753033-0.8381033,0.8381901-0.8380699C11.3512688,11.0652428,11.7264662,11.4404402,11.7264996,11.9032793z
	 M14.63941,11.9032793c0.0000057,0.4628592-0.3752108,0.8380842-0.8380699,0.8380899s-0.8380842-0.3752108-0.8380899-0.8380699
	c-0.0000057-0.4628391,0.3751802-0.8380566,0.8380194-0.8380899h0.0000601
	C14.2641821,11.0652208,14.6393976,11.4404278,14.63941,11.9032793z M17.552,11.9032793v0.0001202
	c-0.0000324,0.4628868-0.3753033,0.8381033-0.8381901,0.8380699s-0.8381033-0.3753033-0.8380699-0.8381901
	s0.3753033-0.8381033,0.8381901-0.8380699C17.1767693,11.0652428,17.5519676,11.4404402,17.552,11.9032793z M17.552,15.9251289
	v0.0001297c-0.0000362,0.4628925-0.3753128,0.8381119-0.8382053,0.8380756
	c-0.4628906-0.0000362-0.8381109-0.3753128-0.8380747-0.8382053c0.0000362-0.4628916,0.3753138-0.8381109,0.8382044-0.8380747
	C17.1767654,15.0870895,17.5519638,15.4622879,17.552,15.9251289z"/>
</svg>
