<svg id="Layer_1" data-name="Layer 1" xmlns="http://www.w3.org/2000/svg" viewBox="0 0 21.6 21.6">
  <path d="M11.28814,8.12665l-.48828-.86409-.48827.86409c-.10856.19278-1.28422,2.27392-1.645,2.96812a2.3203,2.3203,0,0,0-.20641,1.5802A2.42226,2.42226,0,0,0,10.64262,14.556c.05306.0039.10564.00585.15724.00585.05209,0,.10515-.002.14653-.00487a2.42835,2.42835,0,0,0,2.19408-1.883,2.32034,2.32034,0,0,0-.20836-1.57923C12.57674,10.40738,11.4186,8.3574,11.28814,8.12665Zm.756,4.30881a1.3041,1.3041,0,0,1-1.16008,1.00186l-.1626-.001-.00584.001a1.30354,1.30354,0,0,1-1.15959-1.00186,1.17735,1.17735,0,0,1,.10612-.82418c.21907-.4211.74191-1.35968,1.13769-2.06556.39578.70588.91862,1.64446,1.1372,2.06507v.00049A1.178,1.178,0,0,1,12.04416,12.43546Zm4.02931-1.18881v-.00048c-1.07-2.05923-4.63448-8.3669-4.78539-8.63465L10.76962,1.8l-.48828.86458C9.15972,4.65225,6.45108,9.46637,5.52613,11.24665a5.63034,5.63034,0,0,0-.50775,3.88966,5.99544,5.99544,0,0,0,5.41534,4.653c.12121.00682.24194.00974.371.01071.11927-.001.23951-.00389.36462-.01071a5.996,5.996,0,0,0,5.41242-4.653A5.63012,5.63012,0,0,0,16.07347,11.24665ZM15.4854,14.8968a4.85478,4.85478,0,0,1-4.37647,3.77281c-.222.00974-.41964.00974-.61485,0A4.85631,4.85631,0,0,1,6.11372,14.8968a4.53994,4.53994,0,0,1,.408-3.13364c.81006-1.55878,3.08251-5.611,4.27813-7.734,1.04227,1.84941,3.43935,6.11878,4.27862,7.73355A4.54134,4.54134,0,0,1,15.4854,14.8968Z"/>
</svg>
