<svg id="Ebene_1" data-name="Ebene 1" xmlns="http://www.w3.org/2000/svg" viewBox="0 0 21.6 21.6">
  <path d="M10.8462,17.55s4.12006-5.05109,5.25617-7.42688a6.59017,6.59017,0,0,0,.5694-2.45135A5.87177,5.87177,0,1,0,5.40632,9.99592C6.29945,11.91829,10.8462,17.55,10.8462,17.55ZM10.8,2.925a4.75215,4.75215,0,0,1,4.74677,4.74677,5.53044,5.53044,0,0,1-.45936,1.966A46.12249,46.12249,0,0,1,10.84712,15.744,53.74822,53.74822,0,0,1,6.43928,9.55031,4.74963,4.74963,0,0,1,10.8,2.925Zm0,7.73438A2.95313,2.95313,0,1,0,7.84688,7.70625,2.95312,2.95312,0,0,0,10.8,10.65938Zm0-4.78125A1.82813,1.82813,0,1,1,8.97188,7.70625,1.83016,1.83016,0,0,1,10.8,5.87813ZM18.675,16.425c0,1.86395-3.52576,3.375-7.875,3.375-4.34918,0-7.875-1.51105-7.875-3.375,0-1.12109,1.28076-2.11163,3.24371-2.72546.23688.32348.47333.64349.71363.965C5.0757,15.16072,4.05,15.92421,4.05,16.425c0,.79321,2.56268,2.25,6.75,2.25s6.75-1.45679,6.75-2.25c0-.49231-.99011-1.2392-2.73987-1.73578q.35157-.47946.69782-.96515C17.42714,14.33961,18.675,15.31862,18.675,16.425Z"/>
</svg>
