<svg id="Ebene_1" data-name="Ebene 1" xmlns="http://www.w3.org/2000/svg" viewBox="0 0 21.6 21.6">
  <path d="M6.76344,10.8a1,1,0,1,1-1-1A1,1,0,0,1,6.76344,10.8Zm8,0a1,1,0,1,0,1-1A1,1,0,0,0,14.76344,10.8Zm5-1a1.00036,1.00036,0,0,1-1,1h-.044l.044.195V18.8h-4V16.458h-8V18.8h-4V10.995l.044-.195h-.044a1,1,0,0,1,0-2h.495l.919-4.083A2.524,2.524,0,0,1,6.67042,2.8h8.186a2.52205,2.52205,0,0,1,2.492,1.917l.92,4.083h.495A1.00036,1.00036,0,0,1,19.76344,9.8Zm-14.125,6.656h-1.75v1.219h1.75V16.456Zm12,0h-1.75v1.219h1.75Zm0-5.336-1.387-6.156a1.40475,1.40475,0,0,0-1.395-1.039h-8.186a1.40477,1.40477,0,0,0-1.395,1.039l-1.387,6.156v4.211h13.75Z"/>
</svg>
