<svg id="Ebene_1" data-name="Ebene 1" xmlns="http://www.w3.org/2000/svg" viewBox="0 0 21.6 21.6"><path d="M18.87,11.76a1.38,1.38,0,0,1,0-1.92l.62-.63a.73.73,0,0,0-.35-1.33l-.87-.24a1.38,1.38,0,0,1-1-1.67l.21-.84c.16-.61-.13-1-.66-1a1.15,1.15,0,0,0-.31,0l-.88.22a1.24,1.24,0,0,1-.33,0A1.43,1.43,0,0,1,14,3.4l-.24-.84c-.12-.43-.39-.66-.7-.66a1,1,0,0,0-.64.3l-.64.62a1.4,1.4,0,0,1-1.94,0L9.19,2.2a1,1,0,0,0-.64-.3c-.31,0-.58.23-.7.67l-.24.83a1.41,1.41,0,0,1-1.35,1,1.24,1.24,0,0,1-.33,0l-.88-.22a1.77,1.77,0,0,0-.3,0c-.54,0-.83.41-.67,1L4.29,6a1.38,1.38,0,0,1-1,1.66l-.87.24A.74.74,0,0,0,2.1,9.21l.63.63a1.38,1.38,0,0,1,0,1.92l-.63.64a.73.73,0,0,0,.36,1.32l.87.24a1.38,1.38,0,0,1,1,1.67l-.21.84c-.16.61.13,1,.66,1a1.15,1.15,0,0,0,.31,0l.88-.22a1.24,1.24,0,0,1,.33,0,1.42,1.42,0,0,1,1.35,1l.24.84c.12.43.39.66.7.66a1,1,0,0,0,.64-.3l.64-.62a1.43,1.43,0,0,1,1.94,0l.64.62a1,1,0,0,0,.64.3c.31,0,.58-.23.7-.66L14,18.2a1.41,1.41,0,0,1,1.35-1,1.24,1.24,0,0,1,.33,0l.88.22a1.13,1.13,0,0,0,.3,0c.54,0,.83-.41.67-1l-.21-.84a1.38,1.38,0,0,1,1-1.67l.87-.24a.73.73,0,0,0,.35-1.33Zm-.8.79.23.23-.34.1a2.53,2.53,0,0,0-1.75,3l.09.32-.36-.09a2.47,2.47,0,0,0-.6-.08,2.54,2.54,0,0,0-2.43,1.83l-.1.33L12.55,18a2.54,2.54,0,0,0-3.5,0l-.27.25-.09-.33a2.54,2.54,0,0,0-2.43-1.83,2.49,2.49,0,0,0-.61.08l-.35.09.08-.32a2.51,2.51,0,0,0-1.75-3l-.33-.1.23-.23a2.51,2.51,0,0,0,0-3.5L3.3,8.82l.33-.1a2.51,2.51,0,0,0,1.75-3L5.3,5.37l.36.09a2.41,2.41,0,0,0,.6.08A2.54,2.54,0,0,0,8.69,3.71l.1-.33.26.25a2.54,2.54,0,0,0,3.5,0l.27-.25.09.33a2.54,2.54,0,0,0,2.43,1.83,2.41,2.41,0,0,0,.6-.08l.36-.08-.08.32a2.5,2.5,0,0,0,1.75,3l.33.1-.23.23A2.51,2.51,0,0,0,18.07,12.55ZM10.49,7.9h1.08v6.25H10.33V9.82H8.93V9C9.69,9,10.37,8.7,10.49,7.9Z"/></svg>