<svg id="Layer_1" data-name="Layer 1" xmlns="http://www.w3.org/2000/svg" viewBox="0 0 21.6 21.6">
  <path d="M17.55,4.05H4.05A2.25,2.25,0,0,0,1.8,6.3v9a2.25,2.25,0,0,0,2.25,2.25h13.5A2.25,2.25,0,0,0,19.8,15.3v-9A2.25,2.25,0,0,0,17.55,4.05ZM18.8,15.3a1.2514,1.2514,0,0,1-1.25,1.25H4.05A1.2514,1.2514,0,0,1,2.8,15.3v-9A1.2514,1.2514,0,0,1,4.05,5.05h13.5A1.2514,1.2514,0,0,1,18.8,6.3ZM9.6475,8.7771a2.5784,2.5784,0,0,0-.891-.5989,2.9945,2.9945,0,0,0-1.1574-.2171,3.0208,3.0208,0,0,0-1.1681.2171,2.6276,2.6276,0,0,0-.8964.5989,2.6677,2.6677,0,0,0-.5738.9008,3.2336,3.2336,0,0,0,0,2.2451,2.6682,2.6682,0,0,0,.5738.9009,2.64,2.64,0,0,0,.8964.5988,3.0375,3.0375,0,0,0,1.1681.2162,3.0111,3.0111,0,0,0,1.1574-.2162,2.5907,2.5907,0,0,0,.891-.5988,2.6832,2.6832,0,0,0,.5685-.9009,3.2336,3.2336,0,0,0,0-2.2451A2.6827,2.6827,0,0,0,9.6475,8.7771ZM8.5,12.0231a1.0339,1.0339,0,0,1-.9116.4683,1.03,1.03,0,0,1-.9161-.4683A2.1654,2.1654,0,0,1,6.36,10.8a2.2133,2.2133,0,0,1,.3119-1.2387,1.0282,1.0282,0,0,1,.9161-.4728A1.0318,1.0318,0,0,1,8.5,9.5617,2.1914,2.1914,0,0,1,8.8173,10.8,2.1442,2.1442,0,0,1,8.5,12.0231Zm6.82-.5488h1.52a2.2122,2.2122,0,0,1-.2065.8508,2.1577,2.1577,0,0,1-.5085.69,2.3185,2.3185,0,0,1-.78.4576,2.9477,2.9477,0,0,1-1.0116.1662,3.0007,3.0007,0,0,1-1.1628-.2162,2.5954,2.5954,0,0,1-.8857-.5988,2.7008,2.7008,0,0,1-.5693-.9009A3.0822,3.0822,0,0,1,11.5145,10.8a3.1348,3.1348,0,0,1,.1966-1.1225,2.6608,2.6608,0,0,1,.5586-.9008,2.5436,2.5436,0,0,1,.8759-.5989,2.92,2.92,0,0,1,1.1476-.2171,3.0081,3.0081,0,0,1,.9661.1465,2.3515,2.3515,0,0,1,.7507.4076,2.1585,2.1585,0,0,1,.5183.6292,2.4972,2.4972,0,0,1,.2718.8H15.27a1.0785,1.0785,0,0,0-.3227-.5889.9156.9156,0,0,0-.6336-.2163,1.0056,1.0056,0,0,0-.9018.4531A2.1809,2.1809,0,0,0,13.1152,10.8a2.1381,2.1381,0,0,0,.2967,1.1878,1.0054,1.0054,0,0,0,.9018.4532.9535.9535,0,0,0,.6989-.2521A1.1342,1.1342,0,0,0,15.32,11.4743Z"/>
</svg>
