<?xml version="1.0" encoding="utf-8"?>
<!-- Generator: Adobe Illustrator 24.0.1, SVG Export Plug-In . SVG Version: 6.00 Build 0)  -->
<svg version="1.1" id="Layer_1" xmlns="http://www.w3.org/2000/svg" xmlns:xlink="http://www.w3.org/1999/xlink" x="0px" y="0px"
	 viewBox="0 0 21.6000004 21.6000004" style="enable-background:new 0 0 21.6000004 21.6000004;" xml:space="preserve">
<path d="M17.7891903,11.3263798c0.0279121-0.3748598,0.0267696-0.751317-0.0034199-1.1260004l2.04883-1.5173798L18.6705303,5.87289
	l-2.522459,0.375c-0.2431288-0.2872677-0.5094881-0.554038-0.79638-0.7976098l0.375-2.52124L12.9175997,1.765l-1.5185499,2.0487003
	c-0.3747597-0.0297201-0.7512989-0.0293519-1.1260004,0.0011001L8.75354,1.765L5.94348,2.9289999l0.3759999,2.5222197
	C6.0320826,5.6942143,5.765378,5.9606748,5.52212,6.2478495l-2.52-0.3759999L1.83655,8.6829996l2.0478499,1.5174007
	c-0.0299423,0.3751106-0.029608,0.7520237,0.0009999,1.12708L1.83655,12.8448095l1.1640599,2.8100595l2.52246-0.3758688
	c0.2432923,0.2870836,0.5096426,0.5538015,0.7963901,0.7974901l-0.375,2.5209999l2.8101196,1.1644897l1.5184898-2.0478592
	c0.3747158,0.030798,0.7513399,0.0304642,1.1260004-0.0009995l1.5194702,2.04883l2.8101206-1.1644306l-0.3760004-2.5219994
	c0.2875042-0.2433481,0.5546675-0.5097551,0.7988291-0.7965698l2.5209999,0.3749399l1.1641197-2.8100595L17.7891903,11.3263798z
	 M17.94104,14.3684902l-2.29-0.3407001l-0.2080002,0.2724705c-0.3089628,0.4014692-0.6691141,0.7607975-1.07129,1.06884
	l-0.2734404,0.2093496l0.3417997,2.2909994l-1.1289101,0.4682598l-1.37994-1.8614502l-0.3398504,0.0455303
	c-0.5024862,0.0667553-1.0115671,0.0671654-1.5141602,0.0012207l-0.3398399-0.0456505l-1.3784084,1.8603706l-1.1289001-0.4682598
	l0.3408198-2.29L7.2974901,15.370121c-0.401588-0.3088837-0.7610798-0.6689329-1.0693398-1.0710001l-0.2080002-0.2724695
	l-2.29,0.3419199l-0.4682701-1.1288996l1.8612697-1.3789997l-0.0454102-0.34058
	c-0.066247-0.5019522-0.0665832-1.0104113-0.0009999-1.5124502l0.0454102-0.3405704L3.2618401,8.2881699l0.4682598-1.1289101
	l2.2899997,0.3408198l0.2080002-0.27246c0.3090925-0.4013715,0.6692476-0.7606859,1.0713401-1.0688396L7.5728798,5.94943
	L7.2310796,3.65731l1.1289201-0.46826l1.3798704,1.8613303l0.3393602-0.04456
	c0.5022116-0.0659752,1.0108728-0.0663447,1.5131798-0.0011001L11.93225,5.0494003l1.3789101-1.8603501l1.1289101,0.46826
	l-0.3408203,2.2900002l0.2734299,0.2094698C14.7742271,6.46562,15.133709,6.825592,15.4420004,7.22756L15.6499996,7.5
	L17.941,7.1591802l0.4682598,1.1289096l-1.8612595,1.3789902l0.0444298,0.3405704
	c0.066246,0.5022802,0.0665836,1.0110626,0.0009995,1.5134296l-0.0454102,0.3408203l1.8613205,1.3786602L17.94104,14.3684902z
	 M10.3853798,11.0930996l-1.4492197,3.1357403l-3.1357403-1.4497004L6.26966,11.7644892l1.4033198,0.6485596l-0.1567402-0.4259005
	C6.839602,10.1585226,7.7734728,8.1276064,9.6020985,7.4509687c0.6090994-0.2253823,1.2685661-0.2783794,1.9058409-0.1531606
	l-0.4892597,1.0580001c-1.3297129-0.103919-2.4919014,0.8897839-2.5958204,2.2194967
	c-0.0272226,0.3483295,0.0214615,0.6984177,0.1426907,1.026103L8.72229,12.0271883l0.6489296-1.4031887L10.3853798,11.0930996z
	 M12.7369404,7.3034296L15.8726797,8.7535l-0.46875,1.0146503l-1.4038095-0.6486797l0.1567402,0.4257803
	c0.6768818,1.8282871-0.2565174,3.859129-2.0848045,4.5360098c-0.6092529,0.2255621-1.2689362,0.278616-1.9064054,0.1533203
	l0.4887705-1.0579996c1.3297138,0.1039143,2.4918985-0.8897915,2.5958128-2.2195053
	c0.0272207-0.34832-0.0214605-0.6983986-0.142684-1.0260763l-0.1567402-0.4257803l-0.6484404,1.4034395l-1.0146503-0.4689999
	L12.7369404,7.3034296z"/>
</svg>
