<svg id="Ebene_1" data-name="Ebene 1" xmlns="http://www.w3.org/2000/svg" viewBox="0 0 21.6 21.6"><path d="M14.696,6.3V4.722A2.92574,2.92574,0,0,0,11.773,1.8H9.827A2.92574,2.92574,0,0,0,6.904,4.722V6.3H4.05V19.8h13.5V6.3ZM7.946,4.722A1.88336,1.88336,0,0,1,9.827,2.841h1.947a1.88336,1.88336,0,0,1,1.881,1.881V6.3H7.946Zm8.479,13.953H5.175V7.425H6.904v1.293H7.946V7.425h5.708v1.293h1.042V7.425h1.729Zm-9-7.875H8.55v1.125H7.425Zm0,2.25H8.55v1.125H7.425Zm0,2.25H8.55v1.125H7.425Zm2.25-4.5h4.5v1.125h-4.5Zm3.375,3.375H9.675V13.05H13.05ZM9.675,15.3h4.5v1.125h-4.5Z"/></svg>