<?xml version="1.0" encoding="utf-8"?>
<!-- Generator: Adobe Illustrator 24.0.1, SVG Export Plug-In . SVG Version: 6.00 Build 0)  -->
<svg version="1.1" id="Ebene_1" xmlns="http://www.w3.org/2000/svg" xmlns:xlink="http://www.w3.org/1999/xlink" x="0px" y="0px"
	 viewBox="0 0 21.6 21.6" style="enable-background:new 0 0 21.6 21.6;" xml:space="preserve">
<path d="M13.8,5.9h-0.9V3.3c0-0.8-0.7-1.5-1.5-1.5h-1.2c-0.8,0-1.5,0.7-1.5,1.5v2.5H7.8c-1.1,0-2,0.9-2,2c0,0,0,0,0,0v12h1.1v-1.2
	c0.3,0.1,0.6,0.2,0.9,0.2h6c0.3,0,0.6-0.1,0.9-0.2v1.2h1.1v-12C15.8,6.8,14.9,5.9,13.8,5.9C13.8,5.9,13.8,5.9,13.8,5.9z M9.9,3.3
	C9.9,3.2,10,3,10.2,3c0,0,0,0,0,0h1.2c0.2,0,0.3,0.2,0.3,0.3c0,0,0,0,0,0v2.5H9.9V3.3z M13.8,17.8h-6c-0.5,0-0.9-0.4-0.9-0.9v-9
	C6.9,7.4,7.3,7,7.8,7h0.9v4h1.1V7h1.9v4h1.1V7h0.9c0.5,0,0.9,0.4,0.9,0.9v9C14.7,17.4,14.3,17.7,13.8,17.8z"/>
</svg>
