<?xml version="1.0" encoding="utf-8"?>
<!-- Generator: Adobe Illustrator 24.0.1, SVG Export Plug-In . SVG Version: 6.00 Build 0)  -->
<svg version="1.1" id="Ebene_1" xmlns="http://www.w3.org/2000/svg" xmlns:xlink="http://www.w3.org/1999/xlink" x="0px" y="0px"
	 viewBox="0 0 21.6 21.6" style="enable-background:new 0 0 21.6 21.6;" xml:space="preserve">
<path d="M11.9,15.7c0,0.6-0.5,1-1,1s-1-0.5-1-1c0-0.6,0.5-1,1-1C11.4,14.7,11.9,15.1,11.9,15.7z M17,9.4v8.9c0,0.9-0.7,1.6-1.6,1.6
	c0,0,0,0,0,0H6.3c-0.9,0-1.6-0.7-1.6-1.6V9.4l1.6-3.8c0.3-0.7,0.9-1.1,1.6-1.1h0.3c0-1.5,1.2-2.6,2.6-2.6s2.6,1.2,2.6,2.6
	c0,0,0,0,0,0h0.3c0.7,0,1.4,0.4,1.6,1.1L17,9.4z M9.4,4.5h2.9c0-0.8-0.7-1.5-1.5-1.5C10,3,9.4,3.7,9.4,4.5C9.4,4.5,9.4,4.5,9.4,4.5z
	 M5.8,9.7l1.1,2c0.3,0.5,0.9,0.9,1.5,0.9h4.9c0.6,0,1.2-0.3,1.5-0.9l1.1-2v0L14.3,6c-0.1-0.2-0.3-0.4-0.6-0.4H7.9
	C7.7,5.6,7.4,5.8,7.3,6L5.8,9.7L5.8,9.7z M15.8,12.1l-0.1,0.2c-0.5,0.9-1.4,1.5-2.5,1.5H8.4c-1,0-2-0.6-2.5-1.5l-0.1-0.2v6.2
	c0,0.2,0.2,0.4,0.4,0.4h9.1c0.2,0,0.4-0.2,0.4-0.4V12.1z"/>
</svg>
