<?xml version="1.0" encoding="utf-8"?>
<!-- Generator: Adobe Illustrator 24.0.1, SVG Export Plug-In . SVG Version: 6.00 Build 0)  -->
<svg version="1.1" id="Ebene_1" xmlns="http://www.w3.org/2000/svg" xmlns:xlink="http://www.w3.org/1999/xlink" x="0px" y="0px"
	 viewBox="0 0 21.6 21.6" style="enable-background:new 0 0 21.6 21.6;" xml:space="preserve">
<path d="M18.5,10c-0.2-1.2-1.3-2.2-2.5-2.2h-2.1v-1c0-1.7-1.4-3.1-3.1-3.1c-1.7,0-3.1,1.4-3.1,3.1v1H5.7c-1.3,0-2.3,0.9-2.5,2.2
	l-1.3,7.8h18L18.5,10z M8.9,6.8c0-1.1,0.9-1.9,1.9-1.9s1.9,0.9,1.9,1.9v1H8.9V6.8z M4.3,10.2C4.4,9.5,5,9,5.7,9h2.1v3.7h1.1V9h3.9
	v3.7h1.1V9h2.1c0.7,0,1.3,0.5,1.4,1.2l1.1,6.5H3.1L4.3,10.2z"/>
</svg>
