<svg id="Ebene_1" data-name="Ebene 1" xmlns="http://www.w3.org/2000/svg" viewBox="0 0 21.6 21.6">
  <path d="M16.35673,1.8H6.2321V7.87086h1.125V2.925h7.31244V6.8625H18.6071V18.675H7.3571v-.559H6.2321V19.8h13.5V5.175ZM18.6071,5.7375H15.79454V2.925h.09625L18.6071,5.64106Zm-1.96185,5.51172A17.362,17.362,0,0,0,11.25267,8.591,7.37581,7.37581,0,0,0,7.467,8.697a5.18635,5.18635,0,0,0-3.729,6.10987l.00915.02209A12.909,12.909,0,0,0,1.8679,16.92012l.94287.61328A11.468,11.468,0,0,1,4.411,15.708a4.647,4.647,0,0,0,2.48474,1.29517,4.3288,4.3288,0,0,0,.68116.05468,4.89631,4.89631,0,0,0,3.35644-1.35449,19.06454,19.06454,0,0,1,5.584-3.47461l.96191-.373ZM7.79515,9.77314a6.25924,6.25924,0,0,1,3.20752-.08544,13.54191,13.54191,0,0,1,3.04107,1.259A14.52178,14.52178,0,0,0,4.7642,13.97285,3.9297,3.9297,0,0,1,7.79515,9.77314Zm2.42724,5.05909a3.72475,3.72475,0,0,1-3.1455,1.05957,3.48844,3.48844,0,0,1-1.80365-.9303,13.29328,13.29328,0,0,1,9.0094-2.89136A34.6851,34.6851,0,0,0,10.22239,14.83223Z"/>
</svg>
