<?xml version="1.0" encoding="utf-8"?>
<!-- Generator: Adobe Illustrator 24.0.1, SVG Export Plug-In . SVG Version: 6.00 Build 0)  -->
<svg version="1.1" id="Layer_1" xmlns="http://www.w3.org/2000/svg" xmlns:xlink="http://www.w3.org/1999/xlink" x="0px" y="0px"
	 viewBox="0 0 21.6 21.6" style="enable-background:new 0 0 21.6 21.6;" xml:space="preserve">
<path d="M10.8,10.7c2.2,0,4.1-1.8,4.1-4.1S13,2.6,10.8,2.6c-2.2,0-4.1,1.8-4.1,4.1c0,0,0,0,0,0C6.7,8.9,8.6,10.7,10.8,10.7
	C10.8,10.7,10.8,10.7,10.8,10.7z M10.8,3.8c1.6,0,2.9,1.3,2.9,2.9c0,1.6-1.3,2.9-2.9,2.9c-1.6,0-2.9-1.3-2.9-2.9c0,0,0,0,0,0
	C7.9,5.1,9.2,3.8,10.8,3.8z M10.8,11.2c-0.9,0-1.9,0.2-2.8,0.6L4.1,9.3v1.3l2.8,1.8c-2.1,1.3-3.3,3.6-3.3,6.1V19H18v-0.6
	C18,14.4,14.8,11.2,10.8,11.2z M10.8,12.3c2.9,0,5.5,2.1,6,5l-7.5-4.8C9.8,12.4,10.3,12.3,10.8,12.3z M8,13l7.6,4.8H4.7
	C4.9,15.8,6.1,14,8,13z"/>
</svg>
