<svg id="Layer_1" data-name="Layer 1" xmlns="http://www.w3.org/2000/svg" viewBox="0 0 21.6 21.6"><path d="M11.89192,14.72548l-.93305.933-.933-.933A1.31955,1.31955,0,0,1,11.89192,14.72548Zm-5.82758-6.651A8.84148,8.84148,0,0,0,4.60273,9.22969l.79493.79492A7.91991,7.91991,0,0,1,6.86207,8.88014ZM19.8,10.8a9,9,0,1,1-9-9A9,9,0,0,1,19.8,10.8Zm-3.70081,5.80829-3.02252-3.05274-.00165.00165L11.40345,11.869l-1.473-1.48773-.91522-.92432L7.903,8.33363l-.83869-.847.00226-.00134L5.04438,5.44288A7.86194,7.86194,0,0,0,16.09919,16.60829ZM18.675,10.8A7.86678,7.86678,0,0,0,5.864,4.67286L8.19526,7.02742l.00391-.0011.9057.91479,1.23126,1.24366,1.13062,1.142-.00592-.001L16.88,15.799A7.83836,7.83836,0,0,0,18.675,10.8ZM7.9076,9.93611A6.46542,6.46542,0,0,0,6.382,11.05781l.79492.79492a5.34911,5.34911,0,0,1,1.56488-1.07409Zm5.93494,1.19244a5.16627,5.16627,0,0,1,.93695.72418l.79492-.79492a6.44221,6.44221,0,0,0-3.60571-1.8219ZM11.0002,6.5793a8.95767,8.95767,0,0,0-1.52814.13488L10.4853,7.73756c.17151-.012.34119-.03326.5149-.03326a7.87389,7.87389,0,0,1,5.60253,2.32031l.79493-.79492A8.9819,8.9819,0,0,0,11.0002,6.5793ZM9.94288,11.99165a3.6423,3.6423,0,0,0-1.69464.93237l.79492.79493a2.71525,2.71525,0,0,1,1.84967-.76789Z"/></svg>