<?xml version="1.0" encoding="UTF-8"?><svg id="Layer_1" xmlns="http://www.w3.org/2000/svg" viewBox="0 0 38 38"><path d="m8.00146,20.00348h6v2h-6v-2Zm26.99854-12.74347v18.23999c-.07007,4.09003-3.40991,7.5-7.5,7.5-3.62988,0-6.6499-2.56995-7.34985-6H5.26025c-1.25,0-2.26025-1.00995-2.26025-2.25995V7.26001c0-1.25,1.01025-2.26001,2.26025-2.26001h27.47998c1.25,0,2.25977,1.01001,2.25977,2.26001Zm-2,4.74347H5v2h28v-2ZM5,7.26001v2.74347h28v-2.74347c0-.13995-.10986-.26001-.25977-.26001H5.26025c-.14014,0-.26025.12006-.26025.26001Zm28,18.23999c0-.16998-.00977-.33997-.02979-.5-.25-2.79999-2.61011-5-5.47021-5-2.85986,0-5.21997,2.20001-5.46997,5-.01978.16003-.03003.33002-.03003.5,0,.52002.07007,1.02002.21021,1.5.6499,2.31006,2.78003,4,5.28979,4,2.51025,0,4.64014-1.68994,5.29004-4,.14014-.47998.20996-.97998.20996-1.5Zm0-5.07996v-4.41656H5v8.73657c0,.14996.12012.25995.26025.25995h14.76978c.23999-3.90997,3.5-7,7.46997-7,2.18018,0,4.14014.93005,5.5,2.42004Zm-6.34473,5.64105l-1.43311-1.49121-1.44141,1.38672,2.87451,2.98926,4.56689-4.74902-1.44141-1.38672-3.12549,3.25098Z"/></svg>