<svg id="Ebene_1" data-name="Ebene 1" xmlns="http://www.w3.org/2000/svg" viewBox="0 0 21.6 21.6">
  <path d="M10.79667,9.08951c-3.74495,0-6.78478,4.59187-6.78478,7.58966a1.9883,1.9883,0,0,0,.61049,1.62977c.725.60311,1.81677.40451,3.2006.15027a16.41022,16.41022,0,0,1,2.97369-.34783,16.41034,16.41034,0,0,1,2.9737.34783,11.23319,11.23319,0,0,0,1.8945.24588,1.95666,1.95666,0,0,0,1.3061-.39615,1.9883,1.9883,0,0,0,.61049-1.62977C17.58146,13.68138,14.54163,9.08951,10.79667,9.08951ZM16.21337,17.4c-.315.229-1.28089.06931-2.23074-.10512a17.31919,17.31919,0,0,0-3.186-.36772,17.31918,17.31918,0,0,0-3.186.36772C6.65978,17.46934,5.67943,17.649,5.38,17.4a1.0477,1.0477,0,0,1-.186-.7219c0-2.41359,2.61848-6.4076,5.60266-6.4076s5.60267,3.994,5.60267,6.4076C16.39934,16.93664,16.39135,17.27063,16.21337,17.4ZM6.092,9.90067a2.146,2.146,0,1,0-2.146,2.146A2.14594,2.14594,0,0,0,6.092,9.90067ZM3.946,10.92208A1.02138,1.02138,0,1,1,4.96741,9.90067,1.02257,1.02257,0,0,1,3.946,10.92208ZM17.654,7.75473A2.146,2.146,0,1,0,19.8,9.90067,2.14594,2.14594,0,0,0,17.654,7.75473Zm0,3.16735a1.02138,1.02138,0,1,1,1.02142-1.02141A1.02257,1.02257,0,0,1,17.654,10.92208ZM13.89331,8.501a2.80344,2.80344,0,1,0-2.80347-2.80347A2.80341,2.80341,0,0,0,13.89331,8.501Zm0-4.48229a1.67886,1.67886,0,1,1-1.67889,1.67882A1.68075,1.68075,0,0,1,13.89331,4.01875ZM7.7001,8.501A2.80344,2.80344,0,1,0,4.89663,5.69757,2.80341,2.80341,0,0,0,7.7001,8.501Zm0-4.48229A1.67886,1.67886,0,1,1,6.02122,5.69757,1.68075,1.68075,0,0,1,7.7001,4.01875Z"/>
</svg>
