<svg id="Layer_1" data-name="Layer 1" xmlns="http://www.w3.org/2000/svg" viewBox="0 0 21.6 21.6"><path d="M15.44479,11.7348l4.28184,4.3389L16.59934,19.8A18.36617,18.36617,0,0,1,6.861,14.68283,18.36671,18.36671,0,0,1,1.87337,4.87768L5.64074,1.8,9.92258,6.13891,8.67522,8.62323a15.39166,15.39166,0,0,0,1.91632,2.37811,15.3965,15.3965,0,0,0,2.35275,1.9479Zm2.68334,4.40334-2.92954-2.96863-1.73751.84385-.61345.29793-.56517-.38149a16.65458,16.65458,0,0,1-2.533-2.09751A16.64364,16.64364,0,0,1,7.68593,9.27191L7.312,8.70179l.306-.60934.86676-1.72628L5.55512,3.39747,3.17028,5.34575a17.1667,17.1667,0,0,0,4.53266,8.50613,17.16632,17.16632,0,0,0,8.44553,4.64518Z"/></svg>