<svg id="Layer_1" data-name="Layer 1" xmlns="http://www.w3.org/2000/svg" viewBox="0 0 21.6 21.6"><path d="M5.175,1.8v18h11.25V1.8ZM15.3,18.675h-9V16.9875H9.675v1.125h2.25v-1.125H15.3Zm0-14.0625v11.25h-9V2.925h9Z"/><path d="M10.41316,13.19923l.38281.36945.387-.36487c1.34722-1.26917,2.84942-2.97919,3.0263-3.97058a2.58076,2.58076,0,0,0-.02106-.983,2.06747,2.06747,0,0,0-.65075-1.10151,2.13873,2.13873,0,0,0-.84552-.4331,2.35987,2.35987,0,0,0-1.82953.38641,2.30032,2.30032,0,0,0-1.54932-.489,2.03075,2.03075,0,0,0-1.29272.53613,2.00874,2.00874,0,0,0-.54877.91089,2.57439,2.57439,0,0,0-.03729,1.14642C7.59785,10.05378,8.73933,11.58345,10.41316,13.19923ZM9.2375,7.7021a1.50662,1.50662,0,0,1,1.58875.76251,1.50854,1.50854,0,0,1,1.59021-.76251,1.01217,1.01217,0,0,1,.69775,1.374A11.17268,11.17268,0,0,1,10.828,12.09059V12.093l-.001-.00122-.0011.00122v-.00238A11.17246,11.17246,0,0,1,8.53969,9.07606,1.01219,1.01219,0,0,1,9.2375,7.7021Z"/></svg>