<?xml version="1.0" encoding="utf-8"?>
<!-- Generator: Adobe Illustrator 24.0.1, SVG Export Plug-In . SVG Version: 6.00 Build 0)  -->
<svg version="1.1" id="Layer_1" xmlns="http://www.w3.org/2000/svg" xmlns:xlink="http://www.w3.org/1999/xlink" x="0px" y="0px"
	 viewBox="0 0 21.6000004 21.6000004" enable-background="new 0 0 21.6000004 21.6000004" xml:space="preserve">
<path d="M12.8639097,12.4827499L10.552,13.1754398c-0.5611706-0.5174637-1.0639353-1.0948744-1.4992905-1.7218895
	c-0.3896503-0.6147804-0.9499502-1.7027102-1.2406797-2.2773094L9.1554403,7.296L6.0703301,2.875L2.0327899,5.13623
	l0.02229,0.4415798c0.2557855,3.0801959,1.3326416,6.035501,3.1184402,8.5581894
	c1.9688134,2.3623543,4.4521866,4.2427654,7.2599096,5.4972095l0.4058504,0.1374092l0.3970003-0.3910007l2.6644802-2.4672203
	L12.8639097,12.4827499z M12.5200005,18.1054802c-2.3889256-1.1422272-4.5038853-2.78547-6.2010798-4.8179998
	C4.7904143,11.1074772,3.8280349,8.5815763,3.51842,5.93717l2.1214402-1.1881099l1.77141,2.5370002l-1.25561,1.7578001
	L6.34373,9.4261503c0.0370698,0.0754204,0.9203,1.86658,1.5054398,2.79
	c0.5890446,0.8429585,1.2762804,1.6128483,2.0472202,2.2934399l0.2956104,0.2609997l2.0855598-0.6241302l1.7528801,2.5575008
	L12.5200005,18.1054802z M12.5255203,8.6117601c0.2884703,0.430069,0.488863,0.9130373,0.5895996,1.4210005l-0.9484701,0.0475502
	c-0.1794481-0.7772179-0.673234-1.4451866-1.3636494-1.8446808l0.2826605-0.8927097
	c0.5782166,0.2963271,1.0731869,0.7324944,1.4398994,1.2688398H12.5255203z M11.9400902,4.6447601l-0.28372,0.8959999
	c1.6287327,0.6420989,2.8507967,2.026257,3.28613,3.7220001c0.0476265,0.2221165,0.0811605,0.4470215,0.1004,0.6733704
	l0.948-0.0476198c-0.2488728-2.3737602-1.8168631-4.4034753-4.0508499-5.2437L11.9400902,4.6447601z M17.5620899,5.2398801
	C16.4461861,3.5744562,14.758584,2.3757772,12.8185596,1.87062l-0.2801104,0.8843601
	c3.2161036,0.8247628,5.4744844,3.7106099,5.5019999,7.0306702l0.9195499-0.0461302
	c-0.0162697-1.6042461-0.5022392-3.1685681-1.39785-4.49964H17.5620899z"/>
</svg>
