<svg id="Layer_2" data-name="Layer 2" xmlns="http://www.w3.org/2000/svg" viewBox="0 0 21.6 21.6"><path d="M8.94478,12.44022H9.875l.25037-1.54736H11.046l-.25036,1.54736h.93017l.25037-1.54736h.82318l.18774-1.12671H12.164l.14337-.89453h.832l.19648-1.12671h-.84064l.24164-1.44037h-.93018L11.565,7.74491h-.92144l.24163-1.44037H9.955L9.71333,7.74491H8.89088L8.69435,8.87162h.83124l-.1427.89453H8.5597l-.19647,1.12671h.83191Zm1.511-3.5686h.92145l-.14343.89453h-.92072ZM5.75929,1.8v18H15.84071V1.8Zm8.95642,16.875H6.88429V16.66483H9.7458v1.09668h2.10889V16.66483h2.861Zm0-14.43786V15.53983H6.88429V2.925h7.83142Z"/></svg>