<svg id="Layer_2" data-name="Layer 2" xmlns="http://www.w3.org/2000/svg" viewBox="0 0 21.6 21.6"><path d="M18.65291,16.427c0,1.8628-3.51587,3.373-7.85291,3.373s-7.85291-1.51019-7.85291-3.373c0-1.13934,1.319-2.14477,3.33283-2.75543l.63794.9892c-1.8158.49554-2.84577,1.26367-2.84577,1.76623,0,.79248,2.55439,2.248,6.72791,2.248s6.72791-1.45551,6.72791-2.248c0-.532-1.15516-1.361-3.17389-1.84967l.68176-.98773C17.20924,14.18953,18.65291,15.23488,18.65291,16.427ZM10.79972,2.925a.75.75,0,1,0,.75023.75023.7508.7508,0,0,0-.75023-.75023m0-1.125A1.875,1.875,0,1,1,8.92505,3.67522,1.87591,1.87591,0,0,1,10.79972,1.8Zm1.87235,11.31014A1.64226,1.64226,0,0,0,13.77266,11.698l.32519-3.96777-.15625-.17872A4.23652,4.23652,0,0,0,10.8,6.02126a4.0508,4.0508,0,0,0-3.15137,1.542l-.14355.17383.28222,3.94629A1.63194,1.63194,0,0,0,8.924,13.116l.31836,4.46h3.0625Zm-2.65723-.51465L9.9377,12.073H9.41426a.50692.50692,0,0,1-.50391-.46973l-.25-3.4873A2.90611,2.90611,0,0,1,10.8,7.14626a3.09725,3.09725,0,0,1,2.13672.97656l-.28516,3.48438a.503.503,0,0,1-.50488.46582h-.51856L11.26777,16.451h-.97851Z"/></svg>