<?xml version="1.0" encoding="utf-8"?>
<!-- Generator: Adobe Illustrator 24.0.1, SVG Export Plug-In . SVG Version: 6.00 Build 0)  -->
<svg version="1.1" id="Layer_1" xmlns="http://www.w3.org/2000/svg" xmlns:xlink="http://www.w3.org/1999/xlink" x="0px" y="0px"
	 viewBox="0 0 21.6 21.6" style="enable-background:new 0 0 21.6 21.6;" xml:space="preserve">
<path d="M16.4,9l3.3-1.8l-9-4.7L1.8,7.3l3.3,1.8l-3.3,1.7l3.3,1.8l-3.3,1.7l8.8,4.8l9.1-4.8l-3.3-1.7l3.3-1.8L16.4,9z M4.2,7.3
	l6.6-3.5l6.6,3.4l-2.1,1.1l-0.6,0.3L14,9l-2.1,1.1l-0.6,0.3l-0.6,0.3l-0.5-0.3l-0.6-0.3l-2.1-1L6.9,8.7L6.3,8.4L4.2,7.3z M17.4,14.2
	l-6.7,3.5l-6.5-3.5l2.1-1.1l4.4,2.4l4.6-2.4L17.4,14.2z M15.2,11.9l-0.6,0.3L14,12.5l-3.4,1.8l-3.2-1.7l-0.6-0.3L6.2,12l-2.1-1.1
	l2.1-1.1l2.1,1.1l0.6,0.3l0.6,0.3l1.1,0.6l1.2-0.7l0.6-0.3l0.6-0.3l2.1-1.1l2.1,1.1L15.2,11.9z"/>
</svg>
