<svg id="Layer_1" data-name="Layer 1" xmlns="http://www.w3.org/2000/svg" viewBox="0 0 21.6 21.6"><path d="M11.26,3.38h-1.1V1.8h1.1Zm2.65.05-.77-.77L12,3.78l.77.78ZM9.4,3.78,8.28,2.66l-.78.77L8.62,4.56ZM6.3,11.71h0a.9.9,0,1,0,.9.9h0A.9.9,0,0,0,6.3,11.71Zm9,0a.9.9,0,0,0-.9.9h0a.9.9,0,1,0,.9-.9Zm3.59,0a.9.9,0,0,1-.9.9h0l0,.17v7H14.4V17.69H7.2V19.8H3.61v-7l0-.17h0a.9.9,0,1,1,0-1.8h.44l.83-3.67A2.27,2.27,0,0,1,7.12,5.41H9.76v-1h1.9v1h2.82a2.26,2.26,0,0,1,2.24,1.73l.83,3.67H18A.9.9,0,0,1,18.89,11.71Zm-12.7,6H4.62v1.1H6.19v-1.1Zm10.79,0H15.41v1.1H17Zm0-4.8L15.73,7.36a1.28,1.28,0,0,0-1.25-.94H7.12a1.28,1.28,0,0,0-1.25.94L4.62,12.89v3.79H17Z"/></svg>