<?xml version="1.0" encoding="utf-8"?>
<!-- Generator: Adobe Illustrator 25.2.0, SVG Export Plug-In . SVG Version: 6.00 Build 0)  -->
<svg version="1.1" id="Ebene_1" xmlns="http://www.w3.org/2000/svg" xmlns:xlink="http://www.w3.org/1999/xlink" x="0px" y="0px"
	 viewBox="0 0 21.6 21.6" style="enable-background:new 0 0 21.6 21.6;" xml:space="preserve">
<path d="M16.4,7.5c0.3-2.8-1.6-5.3-4.4-5.6c-2.4-0.3-4.6,1-5.4,3.3c-2.8,0.1-4.9,2.5-4.8,5.3c0.1,2.3,1.7,4.2,4,4.7
	C6,18,8.5,20,11.3,19.8c2.4-0.2,4.3-2.1,4.6-4.5l0,0c2.2,0,3.9-1.8,3.9-3.9C19.8,9.4,18.3,7.7,16.4,7.5z M10.8,18.7
	c-2.2,0-3.9-1.8-3.9-3.9s1.7-4,3.9-4s3.9,1.8,3.9,3.9C14.7,16.9,13,18.7,10.8,18.7z M15.9,14.2L15.9,14.2c-0.3-2.8-2.8-4.8-5.6-4.5
	C8,10,6.2,11.7,5.9,14c-2.1-0.6-3.3-2.7-2.7-4.8c0.5-1.7,2.1-2.9,3.9-2.9h0.4c0-0.1,0.6-3.4,3.9-3.4c2.2,0,3.9,1.8,3.9,3.9
	c0,0.6-0.2,1.2-0.3,1.7c0.8-0.1,0.8-0.1,0.9-0.1c1.6,0,2.8,1.3,2.8,2.9S17.4,14.2,15.9,14.2z M12.6,12.3c0.2,0.1,0.2,0.3,0.1,0.5
	c0,0-0.8,1.8-1.2,2.4c-0.2,0.3-0.7,0.4-1,0.2l0,0c-0.3-0.2-0.4-0.7-0.2-1c0.3-0.4,1.8-1.9,1.8-1.9C12.3,12.2,12.5,12.2,12.6,12.3z"
	/>
</svg>
