<?xml version="1.0" encoding="utf-8"?>
<!-- Generator: Adobe Illustrator 25.2.0, SVG Export Plug-In . SVG Version: 6.00 Build 0)  -->
<svg version="1.1" id="Layer_1" xmlns="http://www.w3.org/2000/svg" xmlns:xlink="http://www.w3.org/1999/xlink" x="0px" y="0px"
	 viewBox="0 0 21.6 21.6" style="enable-background:new 0 0 21.6 21.6;" xml:space="preserve">
<path d="M10.8,1.8c-5,0-9,4-9,9s4,9,9,9s9-4,9-9l0,0C19.8,5.9,15.8,1.8,10.8,1.8L10.8,1.8z M10.8,18.7c-4.3,0-7.9-3.5-7.9-7.8v-0.1
	c0-4.3,3.5-7.9,7.8-7.9h0.1c4.3,0,7.9,3.5,7.9,7.8v0.1C18.7,15.1,15.1,18.7,10.8,18.7L10.8,18.7z M6.9,7.6H8V14H6.9V7.6z M14.7,14.1
	V7.5L9,10.8L14.7,14.1z M13.6,12.2l-2.3-1.4l2.3-1.3V12.2z"/>
</svg>
