<svg id="Layer_1" data-name="Layer 1" xmlns="http://www.w3.org/2000/svg" viewBox="0 0 21.6 21.6"><path d="M15.9,3.25A7.8,7.8,0,0,0,12,2.2h-.58v8.14l7.05,4.07.29-.5A7.8,7.8,0,0,0,15.9,3.25Zm-3.33.13a6.21,6.21,0,0,1,1.89.45L12.57,5.72Zm0,6.3V7.35l3-3a6.79,6.79,0,0,1,1.31,1.08L12.61,9.7Zm1.07.62,3.92-3.92A6.51,6.51,0,0,1,18.33,8l-3.17,3.17ZM18,12.83l-1.83-1.06,2.42-2.42a4.78,4.78,0,0,1,0,.66A6.74,6.74,0,0,1,18,12.83Zm-7.83-9H9.61A7.77,7.77,0,0,0,1.8,11.53a7.91,7.91,0,0,0,10,7.58,8,8,0,0,0,2.21-1,7.64,7.64,0,0,0,2.39-2.57l.29-.5-6.47-3.74ZM6.79,5.56A6.77,6.77,0,0,1,9,5v6.3L4.3,14l-.72.41A6.66,6.66,0,0,1,6.79,5.56Zm8.28,9.85a6.67,6.67,0,0,1-10.92,0l5.46-3.15Z"/></svg>