<?xml version="1.0" encoding="utf-8"?>
<!-- Generator: Adobe Illustrator 24.0.1, SVG Export Plug-In . SVG Version: 6.00 Build 0)  -->
<svg version="1.1" id="Layer_1" xmlns="http://www.w3.org/2000/svg" xmlns:xlink="http://www.w3.org/1999/xlink" x="0px" y="0px"
	 viewBox="0 0 21.6000004 21.6000004" style="enable-background:new 0 0 21.6000004 21.6000004;" xml:space="preserve">
<title>icon</title>
<path d="M14.4132814,5.5217738V5.4307094c0.0033569-2.00354-1.6181641-3.6303711-3.6216431-3.633728
	c-2.00354-0.0032959-3.6303711,1.6181642-3.633728,3.6217041c0,0.0039673,0,0.0079956,0,0.0120239v0.0910645H1.8v14.28125h18
	v-14.28125H14.4132814z M8.2741213,5.4307094c0-1.387085,1.1244507-2.5114746,2.5114746-2.5114746
	c1.387085,0,2.5115356,1.1243896,2.5115356,2.5114746v0.0910645H8.2741213V5.4307094z M18.6837883,18.6871185L2.9162109,18.6869965
	v-6.9808969h5.9013672v1.7549438h3.9359741v-1.7549438h5.9302359V18.6871185z M9.9337893,12.3451986v-2.394165h1.7036133v2.394165
	H9.9337893z M18.6837883,10.5901327h-5.9301748V8.8352499H8.8176394v1.7548828H2.9162109V6.6377406h4.2416992h11.525878V10.5901327z
	"/>
</svg>
