<svg id="Layer_1" data-name="Layer 1" xmlns="http://www.w3.org/2000/svg" viewBox="0 0 21.6 21.6">
  <path d="M10.79933,9.55873A2.35566,2.35566,0,1,0,8.44386,7.20289,2.35843,2.35843,0,0,0,10.79933,9.55873Zm0-3.59546a1.23981,1.23981,0,1,1-1.23956,1.24A1.2413,1.2413,0,0,1,10.79933,5.96327ZM7.75618,13.292l-1.061-.34521a4.31563,4.31563,0,0,1,8.21.0003l-1.0617.34455a3.19958,3.19958,0,0,0-6.08728.00036ZM2.925,1.8V7.76136c0,4.88477,3.09937,9.24079,7.875,12.03864,4.77563-2.79785,7.875-7.15387,7.875-12.03864V1.8ZM17.55,7.76136c0,4.13105-2.45135,8.00776-6.75,10.72242C6.50135,15.76912,4.05,11.89125,4.05,7.76136V2.925h13.5Z"/>
</svg>
