<svg id="Layer_1" data-name="Layer 1" xmlns="http://www.w3.org/2000/svg" viewBox="0 0 21.6 21.6"><path d="M9,16.87H6.77V15.71H9Zm5.86-1.16h-2.2v1.16h2.2Zm4.23-8.79v4.42H17.9V8.08h-1v9.68a1.29,1.29,0,0,1-.73,1.16v.88H13.52v-.73H8.09v.73H5.46v-.88a1.31,1.31,0,0,1-.73-1.16V8.08h-1v3.26H2.54V6.92H4.73v-2A3.15,3.15,0,0,1,7.87,1.8h5.86a3.14,3.14,0,0,1,3.14,3.14v2h2.19Zm-3.35,7H5.89v3.82a.15.15,0,0,0,.15.15h9.52a.15.15,0,0,0,.15-.15Zm0-6.59H5.89v5.43h9.82Zm0-2.41a2,2,0,0,0-2-2H7.87a2,2,0,0,0-2,2V6.19h9.82ZM8.6,5.22H13V4.06H8.6Z"/></svg>