<svg id="Ebene_1" data-name="Ebene 1" xmlns="http://www.w3.org/2000/svg" viewBox="0 0 21.6 21.6"><path d="M14.2,19.45l-.4-1a7.83,7.83,0,0,0,4.3-10.3c-.1-.2-.1-.3-.2-.4l1-.5c.1.2.1.3.2.5A9,9,0,0,1,14.2,19.45ZM3.5,14.15A8,8,0,0,1,7.8,3.85a8,8,0,0,1,8.4,1.5l.7-.8a9,9,0,0,0-14.4,10,9,9,0,0,0,4.9,4.9l.4-1A8.21,8.21,0,0,1,3.5,14.15Zm9.6-6.5v.6h1.7v7.8H6.9V8.15H8.5v-.5a1.79,1.79,0,0,1,1.8-1.8h1A1.79,1.79,0,0,1,13.1,7.65Zm-3.5.5H12v-.5a.68.68,0,0,0-.7-.7h-1a.68.68,0,0,0-.7.7Zm3.5,1.2v.7H12v-.7H9.6v.7H8.5v-.7H8V15h5.6V9.35Z"/></svg>