<svg id="Layer_1" data-name="Layer 1" xmlns="http://www.w3.org/2000/svg" viewBox="0 0 21.6 21.6"><path d="M16.425,2.08466v18H5.175v-18ZM15.3,17.27216H11.925v1.125H9.675v-1.125H6.3v1.6875h9Zm0-12.375V3.20966h-9V4.45624H6.299v2.314H6.3v9.377h9v-11.25ZM13.25508,10.388l-.71289.71228a2.464,2.464,0,0,0-3.48413,0L8.34517,10.388l.002-.00195A3.47042,3.47042,0,0,1,13.25508,10.388ZM9.507,11.54884l-.00043.00043.71314.71289a.84068.84068,0,0,1,1.16089,0l.71289-.71289A1.82893,1.82893,0,0,0,9.507,11.54884ZM10.8,8.736a4.08035,4.08035,0,0,1,2.904,1.20264l.71289-.71289a5.11491,5.11491,0,0,0-7.2334,0l.71216.71289A4.08306,4.08306,0,0,1,10.8,8.736Z"/></svg>