<?xml version="1.0" encoding="utf-8"?>
<!-- Generator: Adobe Illustrator 24.0.1, SVG Export Plug-In . SVG Version: 6.00 Build 0)  -->
<svg version="1.1" id="Ebene_1" xmlns="http://www.w3.org/2000/svg" xmlns:xlink="http://www.w3.org/1999/xlink" x="0px" y="0px"
	 viewBox="0 0 21.6 21.6" enable-background="new 0 0 21.6 21.6" xml:space="preserve">
<path d="M10.8,2.925c4.34924,0,7.875,3.52576,7.875,7.875s-3.52576,7.875-7.875,7.875S2.925,15.14924,2.925,10.8
	C2.925,6.45076,6.45076,2.925,10.8,2.925L10.8,2.925 M10.8,1.8c-4.97056,0-9,4.02944-9,9s4.02944,9,9,9s9-4.02944,9-9l0,0l0,0
	c0.00031-4.97025-4.02863-8.99969-8.99888-9c0,0,0,0,0,0L10.8,1.8z M8.034,9.333C8.00035,8.5453,8.2805,7.77642,8.813,7.195
	c0.56785-0.5459,1.33281-0.83818,2.12-0.81c0.67816-0.01983,1.34071,0.20563,1.866,0.635
	c0.51068,0.45858,0.79161,1.12008,0.767,1.806c0.03859,0.6273-0.21015,1.23812-0.676,1.66c-0.402,0.365-0.528,0.456-0.809,0.718
	c-0.27502,0.24814-0.47054,0.57205-0.562,0.931c-0.05649,0.24114-0.08269,0.48838-0.078,0.736h-1.305
	c-0.02552-0.52535,0.05228-1.0506,0.229-1.546c0.2521-0.49104,0.62388-0.91062,1.081-1.22
	c0.3945-0.28457,0.62284-0.74574,0.61-1.232c0.04594-0.69436-0.4797-1.29449-1.17406-1.34044L10.873,7.532
	c-1.046,0-1.462,0.767-1.462,1.8H8.034V9.333z M9.955,13.705h1.618v1.51H9.955V13.705z"/>
</svg>
