<svg id="Ebene_1" data-name="Ebene 1" xmlns="http://www.w3.org/2000/svg" viewBox="0 0 21.6 21.6">
  <path d="M16.435,2.34651a3.36215,3.36215,0,0,0-3.082,4.71A44.55468,44.55468,0,0,0,16.455,11.31752a37.275,37.275,0,0,0,3.019-4.195,3.72364,3.72364,0,0,0,.326-1.412A3.3692,3.3692,0,0,0,16.435,2.34651Zm2.03,4.295a21.919,21.919,0,0,1-2.007,2.892,25.4167,25.4167,0,0,1-2.086-2.934,2.21784,2.21784,0,0,1-.183-.889,2.24652,2.24652,0,0,1,4.493.001A2.61572,2.61572,0,0,1,18.465,6.64149Zm-2.029-2.413a1.499,1.499,0,1,0,1.499,1.499A1.50078,1.50078,0,0,0,16.436,4.22847Zm0,2.091a.591.591,0,1,1,.591-.591A.5915.5915,0,0,1,16.436,6.31947Zm-9.049-2.123a5.58994,5.58994,0,0,0-5.132,7.799c.85,1.829,5.176,7.188,5.176,7.188s3.92005-4.806,5.001-7.067a6.26413,6.26413,0,0,0,.542-2.333A5.58719,5.58719,0,0,0,7.387,4.19648Zm4.038,7.438a43.5116,43.5116,0,0,1-3.992,5.755,50.52514,50.52514,0,0,1-4.152-5.837,4.4702,4.4702,0,1,1,8.576-1.768A5.20244,5.20244,0,0,1,11.425,11.63447Zm-4.038-4.504a2.654,2.654,0,1,0,2.654,2.654A2.65755,2.65755,0,0,0,7.387,7.13051Zm0,4.19a1.5365,1.5365,0,1,1,1.536-1.536A1.53851,1.53851,0,0,1,7.387,11.32051Zm2.708,7.37695a.556.556,0,1,1-.556-.556A.556.556,0,0,1,10.095,18.69746Zm2.016-.15594a.556.556,0,1,1-.556-.556A.556.556,0,0,1,12.111,18.54152Zm1.86-.794a.556.556,0,1,1-.556-.556A.556.556,0,0,1,13.971,17.74751Zm1.519-1.333a.556.556,0,1,1-.556-.556A.556.556,0,0,1,15.49,16.4145Zm1.049-1.716a.556.556,0,1,1-.556-.556A.556.556,0,0,1,16.539,14.6985Zm.461-1.967a.556.556,0,1,1-.556-.556A.556.556,0,0,1,17,12.73146Z"/>
</svg>
