<?xml version="1.0" encoding="utf-8"?>
<!-- Generator: Adobe Illustrator 24.0.1, SVG Export Plug-In . SVG Version: 6.00 Build 0)  -->
<svg version="1.1" id="Layer_1" xmlns="http://www.w3.org/2000/svg" xmlns:xlink="http://www.w3.org/1999/xlink" x="0px" y="0px"
	 viewBox="0 0 21.6 21.6" enable-background="new 0 0 21.6 21.6" xml:space="preserve">
<path d="M18.44618,6.57667l-0.8349,0.8393c0.43458,0.86944,0.69708,1.81466,0.77307,2.78369h-2.23621v1.125h2.24006
	c-0.2624,3.74648-3.21641,6.74257-6.95881,7.05792v-2.23077h-1.12548v2.23761c-3.78174-0.25022-6.80376-3.24358-7.09-7.02277
	h2.12955v-1.125h-2.13c0.28106-3.7668,3.28084-6.75829,7.0484-7.02893v2.13489h1.12452V3.21522
	c1.54542,0.11674,3.01785,0.70471,4.21862,1.68457l0.7959-0.80017c-3.70661-3.096-9.22122-2.601-12.31722,1.10562
	s-2.601,9.22122,1.10562,12.31723s9.22122,2.601,12.31722-1.10562c2.31488-2.77143,2.68817-6.68073,0.93961-9.84017
	L18.44618,6.57667z M16.3578,5.61189l0.79315-0.7973l1.58216-1.59052l0.79687,0.793l-1.65875,1.66776l-0.8006,0.805L10.841,12.75337
	L7.27314,9.11079l0.80372-0.78711l2.77,2.82813L16.3578,5.61189z"/>
</svg>
