<?xml version="1.0" encoding="utf-8"?>
<!-- Generator: Adobe Illustrator 25.2.0, SVG Export Plug-In . SVG Version: 6.00 Build 0)  -->
<svg version="1.1" id="Ebene_1" xmlns="http://www.w3.org/2000/svg" xmlns:xlink="http://www.w3.org/1999/xlink" x="0px" y="0px"
	 viewBox="0 0 21.6 21.6" style="enable-background:new 0 0 21.6 21.6;" xml:space="preserve">
<path d="M7.8,11.7l-1-2.8L3.9,9.5l-2,3.6L5,18.6h4.9v-4.5H6.4L7.8,11.7z M4.4,15.3l-1.3-2.2l1.5-2.6l1.5-0.3l0.5,1.4L4.4,15.3z
	 M8.7,15.2v2.3H5.6l-0.6-1l0.8-1.3H8.7z M10.8,6.5l1.4,2.3l2.9,0.5l1-2.8L13.9,3H7.6L5.1,7.2L9,9.5L10.8,6.5z M13.2,4.1l1.6,2.5
	L14.3,8l-1.5-0.2l-2.1-3.7H13.2z M6.7,6.8l1.6-2.7h1.1l0.8,1.3L8.6,7.9L6.7,6.8z M17.3,8.8l-3.9,2.3l1.7,2.9h-2.7l-1.9,2.3l2,2.3
	h4.1l3.1-5.5L17.3,8.8z M16,17.4h-3l-1-1.1l1-1.2h4.3L16,17.4z M16.4,14l-1.5-2.5l2-1.1l1.6,2.7L18,14H16.4z"/>
</svg>
