<svg id="Ebene_1" data-name="Ebene 1" xmlns="http://www.w3.org/2000/svg" viewBox="0 0 21.6 21.6"><path d="M19.8,10.8a9,9,0,1,0-9,9,8.88,8.88,0,0,0,3.06-.55,4,4,0,0,0,1.86.47,4.08,4.08,0,0,0,4.08-4.08,4,4,0,0,0-.5-1.92A8.78,8.78,0,0,0,19.8,10.8Zm-9,7.87a7.82,7.82,0,0,1-5.2-2,7.06,7.06,0,0,1,5.27-2.46,6.77,6.77,0,0,1,1,.09,3.81,3.81,0,0,0-.24,1.31,4.06,4.06,0,0,0,1.11,2.78A7.84,7.84,0,0,1,10.8,18.67Zm4.92-.08a3,3,0,1,1,3-2.95A2.95,2.95,0,0,1,15.72,18.59Zm2.71-6a4,4,0,0,0-2.71-1,4.08,4.08,0,0,0-3.33,1.73,7.69,7.69,0,0,0-1.52-.17A8.15,8.15,0,0,0,4.81,15.9a7.87,7.87,0,1,1,13.87-5.1A7.19,7.19,0,0,1,18.43,12.61ZM17,14.31l.66.66-2.33,2.34-1.45-1.46.66-.66.79.79ZM10.8,5.17a3.38,3.38,0,1,0,3.38,3.38A3.38,3.38,0,0,0,10.8,5.17Zm0,5.63a2.25,2.25,0,1,1,2.25-2.25A2.25,2.25,0,0,1,10.8,10.8Z"/></svg>