<svg id="Layer_9" data-name="Layer 9" xmlns="http://www.w3.org/2000/svg" viewBox="0 0 38 38"><path d="M18.96152,21.07248a6.04154,6.04154,0,1,1,6.02436-6.04195A6.04,6.04,0,0,1,18.96152,21.07248Zm0-10.09153a4.0496,4.0496,0,1,0,4.03836,4.04958A4.04892,4.04892,0,0,0,18.96152,10.981ZM34.07616,24.09049a15.59,15.59,0,0,0,.83273-5.0816A15.93582,15.93582,0,1,0,8.50806,31.07326a15.8457,15.8457,0,0,0,15.82281,2.985,7.18848,7.18848,0,0,0,3.4197.87061,7.04278,7.04278,0,0,0,2.87042-.60405,6.66829,6.66829,0,0,0,1.78961-1.1016,7.25284,7.25284,0,0,0,2.6046-5.57915A7.0908,7.0908,0,0,0,34.07616,24.09049ZM4.89338,19.00889a14.06878,14.06878,0,1,1,28.13733,0,13.32128,13.32128,0,0,1-.38976,3.26924,7.20086,7.20086,0,0,0-10.6667.97732,13.04879,13.04879,0,0,0-3.01221-.3376A13.93074,13.93074,0,0,0,8.1714,28.035,13.98909,13.98909,0,0,1,4.89338,19.00889ZM18.962,33.11661a13.93833,13.93833,0,0,1-9.3909-3.62472,11.89925,11.89925,0,0,1,9.3909-4.584,10.43841,10.43841,0,0,1,1.98449.17763,7.20238,7.20238,0,0,0-.4607,2.55858,7.28865,7.28865,0,0,0,2.00222,5.02835A14.30911,14.30911,0,0,1,18.962,33.11661Zm12.722-1.93675a5.06208,5.06208,0,0,1-1.64783,1.226,4.97533,4.97533,0,0,1-2.28567.533,4.45133,4.45133,0,0,1-.85047-.071,4.97628,4.97628,0,0,1-2.268-.95943,5.23722,5.23722,0,0,1-2.16163-4.26434,5.34351,5.34351,0,0,1,.4075-2.061,5.90069,5.90069,0,0,1,1.15165-1.70576,5.27263,5.27263,0,0,1,8.91257,2.82514,5.46678,5.46678,0,0,1,.08857.94164A5.21633,5.21633,0,0,1,31.68407,31.17986Zm-1.01236-4.5282H24.82488v2.00162h5.84683Z"/></svg>