<svg id="Layer_1" data-name="Layer 1" xmlns="http://www.w3.org/2000/svg" viewBox="0 0 21.6 21.6">
  <path d="M19.8,11.03578A8.75986,8.75986,0,0,1,4.299,16.63411v2.55432H3.17183v-4.543H7.69435v1.1272H5.04725A7.63566,7.63566,0,0,0,18.6728,11.03578ZM10.56416,2.9272a7.61194,7.61194,0,0,1,6.03235,2.97357H13.90565V7.028h4.52252V2.484H17.301V4.966A8.75983,8.75983,0,0,0,1.8,10.56416H2.9272A7.64523,7.64523,0,0,1,10.56416,2.9272Zm-.09668,13.21655v-1.0625a2.92148,2.92148,0,0,1-3.08643-2.88672H8.43037a2.00579,2.00579,0,0,0,2.03711,2.03711v-3.2373c-1.53711-.33692-2.687-.76172-2.687-2.34864,0-1.38769,1.0874-2.27441,2.687-2.33691v-.6875h.69971v.6875c1.6875.13672,2.4873.93652,2.6748,2.28613H12.8293A1.64176,1.64176,0,0,0,11.16719,7.1457v3.01172c1.63769.33789,2.874.73731,2.874,2.43653,0,1.51269-1.23633,2.39941-2.874,2.5v1.0498Zm.69971-1.89941A1.75085,1.75085,0,0,0,13.0168,12.632c0-.9248-.64942-1.21191-1.84961-1.47461Zm-.69971-4.22461V7.133c-1.01221.08789-1.69971.57519-1.69971,1.46191C8.76777,9.39473,9.30537,9.758,10.46748,10.01973Z"/>
</svg>
