<svg id="Layer_1" data-name="Layer 1" xmlns="http://www.w3.org/2000/svg" viewBox="0 0 21.6 21.6">
  <path d="M19.91713,10.42313,11.5657,2.00734V7.22761c-3.2183-.06832-5.66482.83366-7.31481,2.64355-2.77523,3.04354-2.42771,7.83757-2.151,9.74548a.63684.63684,0,0,0,.63415.56732.69523.69523,0,0,0,.6396-.56633c1.58266-6.1465,6.4262-6.3,7.97817-6.1861v5.54254ZM3.05635,17.13547a9.57391,9.57391,0,0,1,2.03711-6.496c1.37772-1.51039,3.45939-2.27375,6.197-2.27375q.398,0,.81584.02129l.6.03119V4.77564l5.601,5.64353-5.81481,5.80442v-3.7772l-.4703-.08416C11.95382,12.35134,5.82663,11.33649,3.05635,17.13547Z"/>
</svg>
