<?xml version="1.0" encoding="UTF-8"?><svg id="Layer_2" xmlns="http://www.w3.org/2000/svg" viewBox="0 0 38 38"><path d="m27.07522,17.14423V7.01252h-4.01254V3H3v24.07512h4.01254v4.01252h14.14423l3.91219,3.91235,9.93105-9.93114-7.92478-7.92463Zm-20.06268,7.92463h-2.00627V5.00626h16.05014v2.00626H7.01254v18.05634Zm2.00627,4.01252V9.01878h16.05014v6.11919l-9.93099,9.93089,4.01254,4.01252h-10.13169Zm8.95804-4.01252l7.0921-7.0922,7.09216,7.0922-7.09216,7.0922-7.0921-7.0922Zm5.08945-12.04124h-12.03761v-2.00626h12.03761v2.00626Zm-2.00627,4.01252h-10.03134v-2.00626h10.03134v2.00626Zm5.01585,11.03468c0,.55422-.44922,1.00313-1.00313,1.00313-.55404,0-1.00313-.44891-1.00313-1.00313,0-.55397.4491-1.00313,1.00313-1.00313.55392,0,1.00313.44916,1.00313,1.00313Zm-1.30412-2.00626l-.70214-4.01252h2.00627l-.70214,4.01252h-.60198Z"/></svg>