<?xml version="1.0" encoding="UTF-8"?><svg id="Layer_1" xmlns="http://www.w3.org/2000/svg" viewBox="0 0 38 38"><path d="m34.99998,26.09092c-.00428,3.1583-2.56406,5.71725-5.72236,5.72051-.26371.00001-.52712-.01792-.78839-.05367l.25909-1.8766c2.14893.35734,4.18066-1.09503,4.53799-3.24396s-1.09503-4.18066-3.24396-4.53799c-2.14893-.35734-4.18066,1.09503-4.53799,3.24396-.11277.67817-.04633,1.37404.19273,2.01862l1.34489-1.34489,1.33991,1.33991-3.64033,3.64033-3.64023-3.64034,1.33989-1.33991,1.28082,1.2808c-.67516-3.07773,1.27251-6.12005,4.35024-6.79522,3.07773-.67516,6.12005,1.27251,6.79522,4.35024.08921.40667.13364.82187.13249,1.2382Zm-13.46452-.95125H3V6.18857h26.53154v12.07418c-.08155-.00254-.15778-.02429-.23989-.02429-.55668.00203-1.11155.06342-1.65522.18311v-9.36101l-11.37109,9.746L4.89511,9.05998v14.18458h17.0977c-.23124.61005-.38489,1.24674-.45735,1.89511ZM6.66809,8.08368l9.59726,8.22815,9.59877-8.22821-19.19602.00005Z"/></svg>