<svg id="Layer_1" data-name="Layer 1" xmlns="http://www.w3.org/2000/svg" viewBox="0 0 21.6 21.6">
  <path d="M9.86281,9.00215H4.07234v-1.125h6.903A5.15454,5.15454,0,0,0,9.86281,9.00215ZM4.07234,15.24336h6.02777a5.11134,5.11134,0,0,1-.72369-1.125H4.07234Zm9.3291-10.48682H4.07234v1.125h9.3291Zm-9.3291,6.2417v1.125H8.9087c-.0014-.04913-.01458-.095-.01458-.14453a5.12,5.12,0,0,1,.09918-.98047Zm10.67773,6.03943v1.58655H3.00251V2.97578H14.75007v3.947a5.42139,5.42139,0,0,1,1.125.28565V1.85078H1.87751V19.74922H15.87507V16.755a6.00647,6.00647,0,0,1-1.125.28265Zm4.17945.59729-2.322-2.31207a4.27356,4.27356,0,1,1,.79156-.79822l2.32337,2.31342Zm-1.78589-5.6604a3.12427,3.12427,0,1,0-3.12427,3.12427A3.12782,3.12782,0,0,0,17.14363,11.97456Z"/>
</svg>
