<?xml version="1.0" encoding="UTF-8"?><svg id="Layer_4" xmlns="http://www.w3.org/2000/svg" viewBox="0 0 38 38"><path d="m32.66551,8.2306c-2.76045-2.98777-7.28158-4.93523-11.68965-1.44811l-1.65757,1.67092c-1.26054-1.29243-2.40403-2.32919-3.27158-2.87175-3.11534-1.94746-8.18403-.22079-10.46475,2.55598-2.4616,2.95105-2.73293,5.76748-2.52648,7.61067.25363,2.26959,1.39792,4.38644,3.05537,5.65537l1.4413,1.12366c-.37873.50871-.57018,1.12507-.52213,1.76669.05309.70692.37848,1.35118.91327,1.81038l.10126.08714c.26936.23107.59082.38871.90737.49739-.05898.91058.35882,1.83682.88673,2.36946.52103.52579,1.2249.81365,1.98579.81365h.05112c.12847-.0022.25308-.02595.37867-.0443.11834.63808.44177,1.21049.94946,1.62166.83167.67363,1.8983.70007,2.78601.33388.18777.29569.42174.59236.69994.81658.52594.42494,1.13643.65013,1.74888.65013.10617,0,.21234-.00685.31851-.02056.85035-.10966,1.62894-.63936,2.31512-1.57344.19612-.26742.35433-.52113.48355-.76371.21849.05624.44207.09204.66861.09204.71469,0,1.44019-.27709,1.99759-.8156.36865-.35738.62228-.78721.75893-1.23858.82971.38479,1.94647.55516,2.98754-.49739.41092-.41417,1.09317-1.3267.75106-2.56528.44336-.12729.8651-.36325,1.21802-.70496.6538-.63404.93692-1.49438.85435-2.30753,2.27494-1.89716,3.89743-4.90292,4.16722-7.82785.23692-2.56479-.55642-4.91467-2.29349-6.79653ZM9.56338,25.00389c-.23495,0-.46991-.08127-.66062-.24576-.09997-.08671-.17542-.18885-.23071-.29888-.03945-.07619-.05481-.15849-.07342-.24092-.00645-.03133-.02138-.06022-.02476-.09198-.0298-.23297.02949-.46698.16657-.67247.00006-.00006,0-.00006.00006-.00012.0239-.03586.03392-.07711.06298-.11046l1.84915-2.11685c.36668-.41808,1.00174-.46018,1.42053-.09889.41977.36423.46401.99674.09929,1.41482l-.54069.61898-1.30846,1.49786c-.19956.22813-.47875.34465-.75991.34465Zm3.0072,2.66809c-.19956.23107-.48072.34954-.76384.34954-.23299,0-.46597-.07931-.65571-.24184-.42174-.36129-.46991-.9938-.10814-1.41384l2.63658-3.0568c.36472-.42102,1.00076-.46704,1.41955-.1077.42174.36129.46991.9938.10814,1.41384l-.68766.79731-1.94893,2.25949Zm3.72337,1.57889l-.60508.72302c-.19956.23793-.48563.36031-.77466.36031-.22709,0-.45516-.07637-.64391-.23205-.42665-.35444-.48465-.98695-.12878-1.41286l.519-.62021,1.64572-1.96661c.35685-.42494.98995-.48172,1.41857-.12826.42665.35444.48465.98695.12878,1.41286l-1.55964,1.86381Zm3.78561.80006c-.00958.01261-.01167.02815-.02193.04045l-.78744.94093c-.19956.23793-.48563.36031-.77466.36031-.22709,0-.45516-.07637-.64391-.23205-.42665-.35542-.48465-.98695-.12878-1.41286l.05573-.06664h.00006l.73165-.87429c.35685-.42494.98995-.4827,1.41857-.12826.41436.34514.47316.94766.15072,1.37241Zm8.45505-6.32674c-.26641.25751-.65374.32507-.90934.16547l-6.37617-6.33928-1.43429,1.4065,6.36437,6.56007c.91818.93995.59377,1.26795.35587,1.50784-.2438.2487-.44435.36423-1.37433-.33975l-6.59146-6.47391-1.43921,1.40209,5.80599,6.12437c.23889.24478.18482.70007-.11698.99282-.2438.23603-.58474.30169-.85183.17857-.12577-.7355-.57872-1.30277-1.05041-1.76278-.31851-.31136-.6675-.4925-1.01256-.58355-.05505-.60118-.35587-1.25816-1.045-1.90144l-.09536-.07833c-.00098-.00098-.00197-.00196-.00295-.00196-.43298-.35322-.94559-.54408-1.4652-.586-.05991-.69817-.36539-1.34157-.88433-1.81773h-.00098l-.15238-.13708c-.85134-.68049-1.65352-.87043-2.33675-.76763-.1396-.375-.36177-.75098-.71272-1.05353l-.09437-.07931c-.53675-.46214-1.22294-.69223-1.93566-.63643-.71076.05189-1.35762.375-1.82162.91058l-.5037.58166-1.50864-1.17598c-1.23866-.94876-2.09393-2.55402-2.28858-4.29293-.16221-1.45643.06488-3.69812,2.08017-6.11311,1.68301-2.04831,5.71162-3.46411,7.83897-2.13398.75966.47505,1.78666,1.41188,2.93507,2.59337l-5.89699,5.94446.71666.70447c.89164.87631,2.08902,1.33649,3.32473,1.34628,1.25243-.00881,2.42719-.50229,3.30605-1.38985l1.46182-1.46867c.37553-.36643.67684-.64677.92328-.86646,3.47797,4.0916,6.767,8.41733,6.8242,8.49236l.08159.09497c.2438.24967.19071.69615-.11698.9938Zm1.31682-2.72274c-.85066-1.11001-3.21758-4.16571-5.85343-7.30384.81379.09822,1.81179.15097,2.75142.00575,1.07216-.16645,1.78765-.53417,2.26068-.88995.52459-.39452.74904-.77436.78781-.84846l-1.76166-.96883c-.01475.02154-.36767.53509-1.5965.72552-1.59453.24674-3.58721-.258-3.62358-.26681-.75991-.18456-1.5503.31528-3.40239,2.12174l-1.4864,1.49315c-.50136.50669-1.17083.78819-1.88552.79259h-.01868c-.35784,0-.70486-.06952-1.02534-.20219l7.27666-7.34386c4.17017-3.25262,7.87142.14883,8.90855,1.27187,1.36155,1.47406,1.95729,3.24185,1.77149,5.25491-.24257,2.62507-1.57547,4.79539-3.10561,6.15813"/></svg>