<?xml version="1.0" encoding="utf-8"?>
<!-- Generator: Adobe Illustrator 24.0.1, SVG Export Plug-In . SVG Version: 6.00 Build 0)  -->
<svg version="1.1" id="Layer_1" xmlns="http://www.w3.org/2000/svg" xmlns:xlink="http://www.w3.org/1999/xlink" x="0px" y="0px"
	 viewBox="0 0 21.6 21.6" style="enable-background:new 0 0 21.6 21.6;" xml:space="preserve">
<path d="M19.8,11c0,4.8-3.9,8.7-8.7,8.7c-2.6,0-5.1-1.2-6.7-3.2v2.5H3.2v-4.5h4.5v1.1H5.1c2.6,3.3,7.4,3.9,10.7,1.3
	c1.8-1.4,2.9-3.6,2.9-6H19.8z M10.6,2.9c2.4,0,4.6,1.1,6,3h-2.7V7h4.5V2.5h-1.1V5C14.2,1.3,8.7,0.7,5,3.8C3,5.5,1.8,8,1.8,10.6h1.1
	C2.9,6.4,6.4,2.9,10.6,2.9z M10.2,15.3v-1.1c-1.4-0.2-2.6-1.4-2.8-2.8H6.3v-1.1h1.1c0.2-1.4,1.4-2.6,2.8-2.8V6.3h1.1v1.1
	c1.4,0.2,2.6,1.4,2.8,2.8h1.1v1.1h-1.1c-0.2,1.4-1.4,2.6-2.8,2.8v1.1H10.2z M13,11.4h-1.7V13C12.2,12.8,12.8,12.2,13,11.4z
	 M11.4,8.6v1.7H13C12.8,9.4,12.2,8.8,11.4,8.6z M8.6,10.2h1.7V8.6C9.4,8.8,8.8,9.4,8.6,10.2z M10.2,13v-1.7H8.6
	C8.8,12.2,9.4,12.8,10.2,13z"/>
</svg>
