<svg id="Layer_1" data-name="Layer 1" xmlns="http://www.w3.org/2000/svg" viewBox="0 0 21.6 21.6"><path d="M14.696,6.3V4.722A2.9258,2.9258,0,0,0,11.773,1.8H9.827A2.9258,2.9258,0,0,0,6.904,4.722V6.3H4.05V19.8h13.5V6.3ZM7.946,4.722A1.8834,1.8834,0,0,1,9.827,2.841h1.947a1.8834,1.8834,0,0,1,1.881,1.881V6.3H7.946Zm8.479,13.953H5.175V7.425H6.904V8.718H7.946V7.425h5.708V8.718h1.042V7.425h1.729Zm-1.571-4.101a2.8152,2.8152,0,0,1-2.812,2.812h-1.5V16.261h1.5a1.688,1.688,0,0,0,0-3.376H8.9l1.289,1.29-.795.796L6.746,12.323,9.394,9.675l.795.795L8.9,11.76h3.142A2.8176,2.8176,0,0,1,14.854,14.574Z"/></svg>