<svg id="Layer_2" data-name="Layer 2" xmlns="http://www.w3.org/2000/svg" viewBox="0 0 21.6 21.6"><path d="M5.10762,9.29666,4.10469,10.79373l1.00293,1.5L4.10371,13.79666l.79492,1.19043-.93554.625L2.75215,13.79666l1.002-1.50293-1.00293-1.5L3.7541,9.29666l-1.00293-1.499L3.96309,5.98709l.93554.625L4.10469,7.79764Zm12.73828,0,1.00293-1.499L17.63691,5.98709l-.93554.625.79394,1.18555-1.00293,1.499,1.00293,1.49707-1.00293,1.5,1.00391,1.50293-.79492,1.19043.93554.625,1.21094-1.81543-1.002-1.50293,1.00293-1.5ZM5.85817,1.8H15.93953v18H5.85817Zm1.125,3.56207V15.53982h7.83136V2.925H6.98317V5.36209Zm0,13.31293h7.83136v-2.0102H11.92012V17.7615H9.81172V16.66482H6.98317Z"/></svg>