<?xml version="1.0" encoding="utf-8"?>
<!-- Generator: Adobe Illustrator 24.0.1, SVG Export Plug-In . SVG Version: 6.00 Build 0)  -->
<svg version="1.1" id="Ebene_1" xmlns="http://www.w3.org/2000/svg" xmlns:xlink="http://www.w3.org/1999/xlink" x="0px" y="0px"
	 viewBox="0 0 21.6 21.6" style="enable-background:new 0 0 21.6 21.6;" xml:space="preserve">
<path d="M12,13.3c-0.7-0.5-1.4-1-2-1.7c-0.6-0.6-1.2-1.3-1.7-2l1.1-2.1L5.7,3.7L2.5,6.4c0.6,3.2,2.1,6.1,4.3,8.4
	c2.3,2.3,5.2,3.8,8.4,4.3l2.7-3.2l-3.7-3.7L12,13.3z M14.8,17.9c-2.7-0.6-5.2-1.9-7.2-3.9c-2-2-3.3-4.5-3.9-7.2l1.9-1.6L8,7.6
	c-0.1,0.1-1,2.1-1,2c0.6,1,1.3,1.9,2.2,2.7c0.8,0.8,1.8,1.5,2.7,2.2c0.1-0.1,2.1-1,2-1l2.4,2.4L14.8,17.9z M11.1,6.9V5.8
	c2.6,0,4.7,2.1,4.7,4.7h-1.1C14.7,8.5,13.1,6.9,11.1,6.9z M19.1,10.5H18c0-3.8-3.1-6.9-6.9-6.9V2.5C15.5,2.5,19.1,6.1,19.1,10.5z"/>
</svg>
