<svg id="Layer_1" data-name="Layer 1" xmlns="http://www.w3.org/2000/svg" viewBox="0 0 21.6 21.6"><path d="M18.33829,6.16381l.79436-.79435L15.59244,1.83l-1.1352-.03V8.87383a3.11775,3.11775,0,0,0-2.08353-.37825V3.9361H2.46735V19.8h9.90636V14.83475a4.57471,4.57471,0,0,0,1.491-.742,4.04787,4.04787,0,0,0,1.716-3.14668V6.62316l1.21859,1.2164.79289-.79582L15.58074,5.03592V3.40772ZM11.26218,7.95513m0,0v.8557a4.65648,4.65648,0,0,0-.96834.55087A4.19345,4.19345,0,0,0,8.59761,12.052a2.6013,2.6013,0,0,0,.46667,1.94858,2.70126,2.70126,0,0,0,2.1979,1.00464v.83861H3.59086V7.95513c-.021,0,0-1.12351,0-1.12351V5.0596h7.67132V7.95513ZM3.59086,18.6765V16.96729H6.12971v.90114H8.71684v-.90114h2.54534V18.6765ZM13.18744,13.196c-1.144.86457-2.62443.92455-3.22787.12581a1.48452,1.48452,0,0,1-.24869-1.11327,3.10861,3.10861,0,0,1,1.25882-1.9493,3.25907,3.25907,0,0,1,1.91346-.689,1.59414,1.59414,0,0,1,1.31222.561,1.3618,1.3618,0,0,1,.26186.76949l.00146.04535A2.95341,2.95341,0,0,1,13.18744,13.196Z"/></svg>