<svg id="Ebene_1" data-name="Ebene 1" xmlns="http://www.w3.org/2000/svg" viewBox="0 0 21.6 21.6"><path d="M19.8,12.382a8.86871,8.86871,0,0,1-.08,1.2l-1.114-.149a7.98055,7.98055,0,0,0,.069-1.051,7.81507,7.81507,0,0,0-3.15-6.3l.677-.9A8.93549,8.93549,0,0,1,19.8,12.382ZM17.105,17.093H4.495A7.78139,7.78139,0,0,1,2.925,12.382,7.88046,7.88046,0,0,1,13.639,5.034l.406-1.049A9.00509,9.00509,0,0,0,1.8,12.382a8.89783,8.89783,0,0,0,1.981,5.626l.168.21H17.651l.168-.21a8.96754,8.96754,0,0,0,1.228-2.025l-1.031-.452A7.7938,7.7938,0,0,1,17.105,17.093Zm.048-6.97406L12.58,12.684a1.711,1.711,0,1,1-.606-.95l4.629-2.596Zm-5.655,2.936a.562.562,0,1,0-.562.562A.56315.56315,0,0,0,11.498,13.055Z"/></svg>