<svg id="Layer_1" data-name="Layer 1" xmlns="http://www.w3.org/2000/svg" viewBox="0 0 21.6 21.6"><path d="M19.8,8.14882l-.7613.7613a11.66669,11.66669,0,0,0-16.4774,0L1.8,8.14882A12.74257,12.74257,0,0,1,19.8,8.14882ZM8.87711,8.32611a9.003,9.003,0,0,0-4.521,2.44892l.7613.7613A7.93252,7.93252,0,0,1,8.87711,9.434Zm.11907,3.90722a5.23846,5.23846,0,0,0-1.95966,1.22215l.7613.7613a4.1984,4.1984,0,0,1,1.34391-.90247Zm3.34624,1.0607a4.18566,4.18566,0,0,1,1.39616.92275l.76131-.7613a5.228,5.228,0,0,0-2.01262-1.23834Zm.2617-3.87373a7.93308,7.93308,0,0,1,3.81585,2.116l.7613-.7613a9.00992,9.00992,0,0,0-4.57715-2.46242ZM9.82428,15.36145V17.173h1.83358V15.36145Zm.01076-4.0768.45313,3.36507h.9058l.45266-3.36507V7.72331H9.835Z"/></svg>