<svg id="Layer_1" data-name="Layer 1" xmlns="http://www.w3.org/2000/svg" viewBox="0 0 21.6 21.6"><path d="M3.07847,1.8,3.072,8.0179C3.072,12.819,6.10307,17.09,10.79191,19.8c4.68878-2.74921,7.72962-7.02014,7.72962-11.7821L18.528,1.8ZM17.39653,8.0179c0,4.0213-2.399,7.80639-6.60846,10.46746C6.58989,15.86311,4.197,12.07826,4.197,8.01906L4.20231,2.925H17.40184Zm-6.596-2.51545a4.15821,4.15821,0,1,0,4.15723,4.15821A4.16275,4.16275,0,0,0,10.8005,5.50245Zm2.9754,3.59571H12.77309a7.26614,7.26614,0,0,0-.39257-2.0141A3.02858,3.02858,0,0,1,13.7759,9.09816ZM10.894,12.6844c-.0318.001-.06146.00946-.0935.00946s-.06177-.00848-.09357-.00946a3.65039,3.65039,0,0,1-.81586-2.46124H11.709A3.65194,3.65194,0,0,1,10.894,12.6844ZM9.89107,9.09816a3.65043,3.65043,0,0,1,.81586-2.46125c.0318-.001.06152-.00946.09357-.00946s.0617.00849.0935.00946a3.652,3.652,0,0,1,.815,2.46125Zm-.6715-2.014a7.26531,7.26531,0,0,0-.39264,2.014H7.82412A3.02815,3.02815,0,0,1,9.21957,7.08418Zm-1.39545,3.139H8.82693a7.26523,7.26523,0,0,0,.39264,2.014A3.02815,3.02815,0,0,1,7.82412,10.22316Zm4.5564,2.0141a7.26621,7.26621,0,0,0,.39257-2.0141H13.7759A3.02861,3.02861,0,0,1,12.38052,12.23726Z"/></svg>