<svg id="Layer_1" data-name="Layer 1" xmlns="http://www.w3.org/2000/svg" viewBox="0 0 21.6 21.6">
  <path d="M15.12687,14.42l-.64-.64,1.68005-1.68-.34-.35a2.80985,2.80985,0,0,0-2-.75,2.85993,2.85993,0,0,0-2.83026,2.88941l.00025.02057a2.81,2.81,0,0,0,.75,1.92l.35.39,1.73-1.73.59.64Zm-2.94.25a1.75069,1.75069,0,0,1-.19-.76A1.86,1.86,0,0,1,13.806,12.00047L13.82688,12a1.7489,1.7489,0,0,1,.81.19Zm6.56-.68a4.78971,4.78971,0,0,1-1.42,3.41,4.6,4.6,0,0,1-3.2,1.27h-.18v-1a3.63021,3.63021,0,0,0,2.65-1,3.7599,3.7599,0,0,0,1.12-2.69h1Zm-2.72-.02h1a3.08,3.08,0,0,1-3.07,3.06v-1A2.08,2.08,0,0,0,16.0269,13.97Zm-4-5.32,2.99-3-2.73-2.74-3,3-.35-.35a2.38994,2.38994,0,0,0-3-.31l-.69-.7-.71.71.7.69a2.39011,2.39011,0,0,0,.31,3l.35.35-2.36,2.36a4.43981,4.43981,0,0,1,2.37-1l.69-.68.78.78a4.40009,4.40009,0,0,1,2.13,1.22,4.27931,4.27931,0,0,1,.69.91l3-3Zm.26-4.33,1.32,1.33-2.29,2.26-1.32-1.29Zm-2.46,7.5-3.56-3.58a1.41421,1.41421,0,0,1,2-2l.35.35,2.7,2.76.5.5Zm-3.46374-.15a3.51,3.51,0,1,0,3.51,3.51A3.51,3.51,0,0,0,6.36314,11.67Zm0,1a2.51391,2.51391,0,0,1,2.45941,2.00952H3.90373A2.51391,2.51391,0,0,1,6.36314,12.67Zm0,5.02a2.51376,2.51376,0,0,1-2.45953-2.0105H8.82267A2.51377,2.51377,0,0,1,6.36314,17.69005Z"/>
</svg>
