<svg id="Layer_1" data-name="Layer 1" xmlns="http://www.w3.org/2000/svg" viewBox="0 0 21.6 21.6"><path d="M15.66,14.87l-.72-.72,1.88-1.88-.44-.4a3.2,3.2,0,0,0-4.52,4.52l.4.44,1.88-1.89.72.72Zm-3.3.27a2,2,0,0,1-.21-.9,2.09,2.09,0,0,1,2.08-2.09,2.12,2.12,0,0,1,.9.21ZM12.18,8.4,15.54,5,12.47,2,9.11,5.33l-.54-.55a2.52,2.52,0,0,0-3.21-.21L4.6,3.81l-.8.8.76.75a2.45,2.45,0,0,0,.22,3.21l.54.55-3.4,3.4L5,15.59l3.4-3.4,1.35,1.35,3.79-3.79Zm.29-4.84L14,5,11.38,7.6,9.91,6.13ZM5,14,3.51,12.52,6.1,9.94l1.47,1.47ZM9.74,12,5.57,7.78a1.35,1.35,0,0,1,0-1.88l.32-.32a1.37,1.37,0,0,1,1.88,0l.55.55h0L11.38,9.2h0l.55.56Zm6.91,2.41h1.13a3.43,3.43,0,0,1-3.43,3.42V16.66A2.3,2.3,0,0,0,16.65,14.36Zm2.88,0h.15a5.32,5.32,0,0,1-1.6,3.82,5.11,5.11,0,0,1-3.59,1.43H14.3l0-1.13a4,4,0,0,0,3-1.11,4.19,4.19,0,0,0,1.25-3l1.13,0Z"/></svg>