<?xml version="1.0" encoding="UTF-8"?><svg id="Layer_1" xmlns="http://www.w3.org/2000/svg" viewBox="0 0 38 38"><path d="m32.99468,18.99426c.00073,1.19965-.13721,2.41656-.46216,3.62921-1.6377,6.11188-7.19434,10.38049-13.51294,10.38049-1.21997,0-2.44238-.1618-3.63354-.48096-7.45654-1.99805-11.89746-9.68994-9.89941-17.14648,1.6377-6.11157,7.19458-10.38019,13.51392-10.38049,1.21924,0,2.44141.16187,3.63257.48096,2.40063.64325,4.47266,1.89087,6.13281,3.51752h-3.74365v2h7V3.99451h-2v3.42859c-1.87134-1.79053-4.19287-3.16016-6.87158-3.87793-1.38721-.3717-2.78003-.54919-4.15112-.54913-7.06421.00037-13.52954,4.71472-15.44482,11.86285-2.28711,8.53546,2.77832,17.30884,11.31372,19.59595,1.38721.3717,2.78003.54913,4.15112.54913,7.06421,0,13.52954-4.71472,15.44482-11.86285.37134-1.38641.53003-2.77673.53003-4.14685h-1.99976Zm-20.47217,9h13v-10h-2.01318c.00269-.04388.01318-.08545.01318-.13v-3.37c0-2.48523-2.01465-4.5-4.5-4.5s-4.5,2.01477-4.5,4.5v3.37c0,.04456.0105.08612.01318.13h-2.01318v10Zm4-10.13v-3.37c0-1.37848,1.12158-2.5,2.5-2.5s2.5,1.12152,2.5,2.5v3.37c0,.07166-.05835.13-.13013.13h-4.73975c-.07178,0-.13013-.05835-.13013-.13Zm-2,2.13h9v6h-9v-6Z"/></svg>