<?xml version="1.0" encoding="UTF-8"?><svg id="a" xmlns="http://www.w3.org/2000/svg" viewBox="0 0 21.6 21.6"><path d="M16.64333,12.25105c.36295-1.68262,.10027-3.41522-.76746-4.91644-.9267-1.60327-2.42294-2.75012-4.21315-3.22931-.59044-.15802-1.19628-.23816-1.80054-.23816-3.13174,.00018-5.88591,2.1134-6.69749,5.13904-.47972,1.78821-.23354,3.65594,.69316,5.25922s2.42294,2.75012,4.21315,3.22931c.5905,.15802,1.19641,.23816,1.8009,.23816,1.64851,0,3.18276-.59698,4.39371-1.59308l.79471,.79382c-1.43495,1.20996-3.26005,1.92426-5.18842,1.92426-.69108,0-1.3931-.08936-2.09237-.27649C3.47719,17.42982,.92398,13.01252,2.07682,8.71498c.96543-3.599,4.22427-5.97266,7.78501-5.97284,.69102,0,1.3931,.08936,2.09237,.27649,4.18699,1.12067,6.7069,5.33423,5.77703,9.52039l1.50565-.8681,.56313,.97461-3.17249,1.8291-1.83115-3.16846,.9757-.5625,.87127,1.50739Zm-3.2204-2.69153v5.3324H6.30512v-5.3324h1.18632v-1.72888c0-1.3089,1.06222-2.36993,2.37259-2.36993s2.37259,1.06104,2.37259,2.36993v.60101h-1.12626v-.60101c0-.68646-.5591-1.24493-1.24633-1.24493s-1.24633,.55847-1.24633,1.24493v1.72888h4.80524Zm-1.12626,1.125H7.43138v3.0824h4.8653v-3.0824Z"/></svg>