<svg id="Layer_1" data-name="Layer 1" xmlns="http://www.w3.org/2000/svg" viewBox="0 0 21.6 21.6">
  <path d="M1.80005,1.8V7.056h18V1.8ZM18.684,5.94H2.91608V2.916H18.684Zm-1.12048-.954H11.597V3.87h5.96656ZM4.032,4.428a.558.558,0,1,1,.558.558A.558.558,0,0,1,4.032,4.428Zm1.62,0a.558.558,0,1,1,.558.558A.558.558,0,0,1,5.652,4.428Zm-3.852,9h18V8.172h-18Zm1.116-4.14H18.684V12.312H2.91608Zm8.6809.954h5.96656v1.116H11.597ZM5.148,10.8a.558.558,0,1,1-.558-.558A.558.558,0,0,1,5.148,10.8Zm1.62006,0a.558.558,0,1,1-.558-.558A.558.558,0,0,1,6.76807,10.8Zm-4.968,9h18V14.544h-18Zm1.116-4.14H18.684v3.024H2.91608Zm8.6809.954h5.96656V17.73H11.597ZM5.148,17.172A.558.558,0,1,1,4.59,16.614.558.558,0,0,1,5.148,17.172Zm1.62006,0A.558.558,0,1,1,6.21,16.614.558.558,0,0,1,6.76807,17.172Z"/>
</svg>
