<?xml version="1.0" encoding="UTF-8"?><svg id="Layer_2" xmlns="http://www.w3.org/2000/svg" viewBox="0 0 38 38"><path d="m29.99717,3.5H3v8.00117h26.99717V3.5Zm-1.99979,6.00087H4.99979v-4.00058h22.99759v4.00058Zm1.99979,8.75701v-5.75658H3v8.00117h17.03081c-.26743.31511-.51923.64353-.73918.99563H3.00336v8.00117h15.75836c1.31987,2.9505,4.28953,5.00073,7.73918,5.00073,4.68951,0,8.49911-3.80048,8.49911-8.50124,0-3.44301-2.05636-6.40523-5.00283-7.74087Zm-24.99738-3.75628h22.99759v3.13583c-.4867-.0868-.98507-.13991-1.49649-.13991-1.44687,0-2.80043.36968-3.98957,1.00466H4.99979v-4.00058Zm.00336,12.99738v-4.00058h13.36859c-.23997.79015-.36996,1.63036-.36996,2.50036,0,.51008.04998,1.01016.12999,1.50022H5.00315Zm21.49774,5.00073c-2.29975,0-4.31955-1.20013-5.47947-3.00044-.38991-.60995-.66991-1.28022-.83988-2.00029-.11998-.48005-.17997-.98012-.17997-1.50022,0-.89002.17997-1.73023.49995-2.50036.31997-.75011.75993-1.43014,1.31987-2.00029,1.17987-1.23016,2.83967-2.00029,4.6795-2.00029,3.57964,0,6.49932,2.92047,6.49932,6.50095,0,3.59061-2.91968,6.50095-6.49932,6.50095Zm-1.5032-24.99913c0-.55245.44765-1.00015.9999-1.00015.55219,0,.9999.4477.9999,1.00015s-.44771,1.00015-.9999,1.00015c-.55225,0-.9999-.4477-.9999-1.00015Zm4.29264,15.29532l1.41391,1.41427-4.70654,4.70772v-8.41529h1.99979v3.58646l1.29283-1.29316Z"/></svg>