<svg id="Layer_1" data-name="Layer 1" xmlns="http://www.w3.org/2000/svg" viewBox="0 0 21.6 21.6"><path d="M1.8,18.54681H15.61348V14.72333H1.8Zm1.144-2.67968h11.5257v1.53576H2.944Zm10.97223.76782a.43286.43286,0,1,1-.43286-.43286A.43285.43285,0,0,1,13.91621,16.635ZM16.57,9.47638a4.13852,4.13852,0,0,0,.62646-2.17224A4.21491,4.21491,0,1,0,15.83955,10.366l3.13916,3.24109L19.8,12.81146Zm-3.552.86243a3.03455,3.03455,0,1,1,3.03467-3.03467A3.03456,3.03456,0,0,1,13.018,10.33881ZM8.02266,9.13788H1.8V5.31433H8.07979a5.213,5.213,0,0,0-.32032,1.14819H2.94307v1.476H7.72969A5.2722,5.2722,0,0,0,8.02266,9.13788Zm6.48584,3.13574a5.26825,5.26825,0,0,0,1.105-.50415v2.147H1.8V10.093H8.497a5.26588,5.26588,0,0,0,.95581,1.12042H2.94307v1.545H14.5085Z"/></svg>