<svg id="Layer_2" data-name="Layer 2" xmlns="http://www.w3.org/2000/svg" viewBox="0 0 21.6 21.6"><path d="M1.8,1.8V16.425L5.17543,19.8H19.8V1.8ZM2.925,6.28792H5.74141V9.6678H2.925Zm0,9.67108v-.65937H5.74141V18.675h-.1Zm7.3125-1.78437h-2.23v1.125h2.23V18.675H6.86641V14.17463H2.925V10.7928H5.74141v2.374h1.125v-2.374H10.2375Zm0-4.50683H6.86641V6.28792H10.2375Zm4.499,9.0072h-3.374V15.29963h3.374Zm0-4.50037h-3.374V10.7928h3.374Zm0-4.50683h-3.374V6.28792h3.374ZM18.675,18.675H15.86152V15.29963H18.675Zm0-4.50037H15.86152V10.7928H18.675Zm0-4.50683H15.86152V6.28792H18.675Zm0-4.50488H2.925V2.925h15.75Z"/></svg>