<svg id="Layer_1" data-name="Layer 1" xmlns="http://www.w3.org/2000/svg" viewBox="0 0 21.6 21.6">
  <path d="M4.661,1.74092v8.6l4.2-2.7,4.3,5.8,5.5-3.2v5.6h-8.1l-.4,1.1h9.7v-15.2Zm14.1,7-5.2,3.1-4.5-5.8-3.3,2.2v-5.3h13Zm-4.11713.36352a2.28934,2.28934,0,1,0-2.28936-2.28936A2.28937,2.28937,0,0,0,14.64393,9.10444Zm0-3.45367a1.16434,1.16434,0,1,1-1.16436,1.16431A1.16568,1.16568,0,0,1,14.64393,5.65077ZM9.65449,13.26533l-3.895-2.35254L1.739,13.30244l.03174.35254A7.31335,7.31335,0,0,0,5.52363,19.7292l.27783.12988.25879-.16308c4.01661-2.52735,3.645-6.01172,3.62745-6.15821ZM5.737,18.56318A6.29314,6.29314,0,0,1,2.92939,13.904l2.8252-1.67968,2.8252,1.706A5.75371,5.75371,0,0,1,5.737,18.56318Z"/>
</svg>
