<svg id="Ebene_1" data-name="Ebene 1" xmlns="http://www.w3.org/2000/svg" viewBox="0 0 21.6 21.6">
  <path d="M17.512,11.34352a7.05091,7.05091,0,0,0-.003-1.087l1.978-1.465-1.124-2.713-2.435.362a6.65944,6.65944,0,0,0-.769-.77l.362-2.434-2.712-1.124-1.466,1.978a6.80373,6.80373,0,0,0-1.087.001L8.789,2.1125l-2.713,1.124.363,2.435a6.58284,6.58284,0,0,0-.77.769l-2.433-.363L2.111,8.79152l1.977,1.465a6.81685,6.81685,0,0,0,.001,1.088l-1.978,1.465,1.124,2.713,2.435-.363a6.65944,6.65944,0,0,0,.769.77l-.362,2.434,2.713,1.124,1.46594-1.977a6.57621,6.57621,0,0,0,1.087-.001l1.467,1.978,2.713-1.124-.363-2.435a6.67208,6.67208,0,0,0,.771-.769l2.434.362,1.124-2.713Zm.147,2.93695-2.211-.329-.201.263a5.615,5.615,0,0,1-1.034,1.032l-.264.202.33,2.212-1.09.452-1.332-1.797-.328.044a5.591,5.591,0,0,1-1.462.001l-.328-.044-1.331,1.796-1.09-.452.329-2.211-.264-.202a5.61476,5.61476,0,0,1-1.032-1.034l-.201-.263-2.211.33-.452-1.09,1.797-1.331-.044-.329a5.6206,5.6206,0,0,1-.001-1.46l.044-.329-1.796-1.331.452-1.09,2.211.329.201-.263a5.61531,5.61531,0,0,1,1.034-1.032l.264-.202-.33-2.213,1.09-.452,1.332,1.797.328-.043a5.62811,5.62811,0,0,1,1.461-.001l.328.043,1.331-1.796,1.09.452-.329,2.211.264.202a5.61323,5.61323,0,0,1,1.032,1.034l.201.263,2.212-.329.452,1.09-1.797,1.331.043.329a5.626,5.626,0,0,1,.001,1.461l-.044.329,1.797,1.331Zm-6.777-7.195a3.673,3.673,0,1,0,3.673,3.673A3.673,3.673,0,0,0,10.882,7.08546Zm0,6.221a2.548,2.548,0,1,1,2.548-2.548A2.55087,2.55087,0,0,1,10.882,13.30647Z"/>
</svg>
