<svg id="Ebene_1" data-name="Ebene 1" xmlns="http://www.w3.org/2000/svg" viewBox="0 0 21.6 21.6">
  <path d="M16.425,13.05a3.36091,3.36091,0,0,0-2.716,1.388l-5.32-2.66a3.05077,3.05077,0,0,0,0-1.956l5.32-2.66a3.36259,3.36259,0,1,0-.659-1.987,3.32889,3.32889,0,0,0,.16095.978l-5.32,2.66a3.375,3.375,0,1,0,0,3.974l5.32,2.66a3.33989,3.33989,0,0,0-.16095.978,3.375,3.375,0,1,0,3.375-3.375Zm0-10.125a2.25,2.25,0,1,1-2.25,2.25A2.25214,2.25214,0,0,1,16.425,2.925ZM5.175,13.05a2.25,2.25,0,1,1,2.25-2.25A2.25207,2.25207,0,0,1,5.175,13.05Zm11.25,5.625a2.25,2.25,0,1,1,2.25-2.25A2.25207,2.25207,0,0,1,16.425,18.675Z"/>
</svg>
