<svg id="Ebene_1" data-name="Ebene 1" xmlns="http://www.w3.org/2000/svg" viewBox="0 0 21.6 21.6"><path d="M9,14.46l3.31,1.89-.53.93-1.7-1v3.5L7.76,17.11,5.42,19.8V16.18H1.8l2.69-2.34L1.8,11.49H5.42V9.3H6.49v3.26H4.66l1.47,1.28L4.66,15.11H6.49v1.83l1.27-1.47L9,16.94ZM19.8,5.34v7.07L13.61,16,9,13.33v-.88H8.14v-.92H7.43V5.34L13.61,1.8ZM9.12,5.66l1.67,1,4.49-2.57-1.67-1ZM13.05,9.2,8.55,6.63v3.78h.71v.92h.89v1.35l2.9,1.66Zm.56-1L18.1,5.66l-1.69-1L11.92,7.26Zm5.07-1.6L14.18,9.2v5.14l4.5-2.58Z"/></svg>