<svg id="Layer_1" data-name="Layer 1" xmlns="http://www.w3.org/2000/svg" viewBox="0 0 21.6 21.6"><path d="M17.26289,7.86543a5.4739,5.4739,0,0,1-1.48047,3.70312l-.82812-.76171a4.35087,4.35087,0,0,0,1.18359-2.94141A4.2983,4.2983,0,0,0,14.95527,4.925l.82813-.76172A5.477,5.477,0,0,1,17.26289,7.86543ZM6.64277,4.92793l-.82812-.76172A5.4724,5.4724,0,0,0,4.33711,7.86543,5.483,5.483,0,0,0,5.8166,11.56855l.82813-.76171a4.24692,4.24692,0,0,1-.002-5.87891ZM17.552,2.38594l-.81445.77539a6.81821,6.81821,0,0,1,1.9248,4.7041,6.82694,6.82694,0,0,1-1.92675,4.708l.81445.77539a7.94559,7.94559,0,0,0,2.2373-5.4834A7.93688,7.93688,0,0,0,17.552,2.38594Zm-12.6875.77343L4.05,2.384A7.93392,7.93392,0,0,0,1.8127,7.86543,7.94559,7.94559,0,0,0,4.05,13.34883l.81445-.77539a6.82694,6.82694,0,0,1-1.92675-4.708A6.817,6.817,0,0,1,4.86445,3.15937ZM13.177,6.676A1.76618,1.76618,0,0,1,13.175,9.05781l.85742.72852a2.89028,2.89028,0,0,0,.00391-3.83692ZM7.56367,5.94941A2.88845,2.88845,0,0,0,7.549,9.76387l.86328-.72071A1.76538,1.76538,0,0,1,8.42305,6.676ZM10.8,6.54084a1.31869,1.31869,0,0,0-.5625,2.51435V19.216h1.125V9.05519A1.31869,1.31869,0,0,0,10.8,6.54084Z"/></svg>