<?xml version="1.0" encoding="UTF-8"?><svg id="a" xmlns="http://www.w3.org/2000/svg" viewBox="0 0 21.6 21.6"><path d="M17.17015,17.16395c-1.75812,1.75739-4.06232,2.63605-6.36652,2.63605s-4.60846-.87866-6.36652-2.63605C.92094,13.64924,.92094,7.95076,4.43712,4.43605c1.75806-1.75739,4.06226-2.63605,6.36652-2.63605,2.20758,0,4.40979,.81573,6.13708,2.42877v-1.99731h1.125V6.25245h-4.02246v-1.125h2.21625c-1.47455-1.41827-3.40356-2.20245-5.45587-2.20245-2.10437,0-4.08276,.81915-5.57068,2.30652-3.07178,3.0705-3.07178,8.06647,0,11.13696,1.48792,1.48737,3.46631,2.30652,5.57068,2.30652s4.0827-.81915,5.57062-2.30652c1.91803-1.91724,2.63812-4.58521,2.16089-7.06641h1.13916c.46619,2.77332-.36328,5.72186-2.50415,7.86188Zm-9.07162-7.86185v4.80792h.83247V7.46246h-.64738c-.0307,.24017-.09571,.44242-.19412,.60539-.09842,.16342-.22031,.29615-.36477,.39773-.14537,.10158-.30969,.17426-.49479,.21715-.18509,.04334-.37922,.06817-.58237,.07404v.54535h1.45095Zm4.29959,4.94652c.41262,0,.7783-.07991,1.09521-.24017,.31782-.16026,.58417-.39141,.79997-.69342s.38102-.66408,.49479-1.08664c.11376-.4221,.17155-.89793,.17155-1.42838,0-.54219-.06049-1.02614-.18058-1.45141s-.29164-.78597-.51285-1.08167c-.22211-.29615-.49027-.52233-.80448-.67988-.31511-.1571-.66634-.23566-1.05458-.23566s-.74128,.07855-1.05819,.23566c-.31782,.15756-.58869,.38554-.81351,.6844-.22572,.29886-.39908,.66092-.52278,1.08618s-.18509,.90606-.18509,1.44238c0,.53045,.05688,1.00628,.17155,1.42838,.11376,.42256,.2799,.78462,.4993,1.08664,.2185,.30202,.48847,.53316,.809,.69342s.68349,.24017,1.0907,.24017Zm.00903-.72096c-.29525,0-.55167-.0632-.76746-.18961s-.39457-.30653-.53632-.54083-.24739-.52097-.31872-.86001c-.07043-.33904-.10654-.7178-.10654-1.1372,0-.8564,.14175-1.5268,.42526-2.01075s.71871-.72593,1.30378-.72593c.28351,0,.53361,.0632,.7494,.18961s.39276,.30834,.53181,.54535c.13814,.23746,.24288,.52549,.31421,.86452,.07043,.33904,.10564,.71825,.10564,1.1372,0,.85685-.13724,1.52544-.41082,2.00624-.27448,.48079-.70426,.72141-1.29024,.72141Z"/></svg>