<svg id="Ebene_1" data-name="Ebene 1" xmlns="http://www.w3.org/2000/svg" viewBox="0 0 21.6 21.6">
  <path d="M12.19257,12.52643c0-.62488-.63556-.75611-1.71039-1.01947-1.35956-.31775-2.7959-.73468-2.7959-2.379,0-1.67737,1.35956-2.41205,3.11371-2.41205,1.69964,0,3.0155.7677,3.09228,2.41205h-1.897c-.07678-.6026-.53741-.94269-1.2605-.94269-.68017,0-1.12921.29639-1.12921.73468,0,.5481.60254.67932,1.77551.94269,1.45868.34009,2.77356.78912,2.77356,2.46649,0,1.64429-1.40326,2.55481-3.21185,2.55481-2.0835,0-3.4538-.9212-3.4975-2.653H9.39667c.08838.78912.60345,1.11761,1.53546,1.11761C11.56769,13.34857,12.19257,13.11914,12.19257,12.52643ZM19.8,1.8v18H1.8V1.8ZM18.675,2.925H2.925v15.75h15.75Z"/>
</svg>
