<svg id="Layer_1" data-name="Layer 1" xmlns="http://www.w3.org/2000/svg" viewBox="0 0 21.6 21.6">
  <path d="M19.79365,6.95051a.72378.72378,0,0,0-.0625-.31848l-1.27-3.01367H3.08223L1.86055,6.6501a.71165.71165,0,0,0-.05078.30115L1.8,6.94917V8.03828A2.21723,2.21723,0,0,0,2.90645,9.95063v8.031H18.64277V9.9781A2.21766,2.21766,0,0,0,19.8,8.03828V6.94917ZM3.8127,4.6999H17.74287l.793,1.88111H3.05439ZM15.3293,7.66316v.37512a1.13941,1.13941,0,1,1-2.27881.0069v-.382Zm-3.38282,0v.37512a1.1394,1.1394,0,1,1-2.2788,0V7.66316Zm-3.39941,0v.37512a1.13941,1.13941,0,0,1-2.27881.00678v-.3819Zm-5.66162.3819v-.3819H5.16426v.37512a1.13941,1.13941,0,0,1-2.27881.00678Zm12.50348,8.855H13.78346V12.43525h1.60547Zm2.1723,0H16.47047V11.35383H12.70186V16.9001H3.988V10.25959c.01269.00013.02441.00379.03711.00379a2.21173,2.21173,0,0,0,1.6914-.79663A2.19362,2.19362,0,0,0,9.10713,9.457a2.19488,2.19488,0,0,0,3.3916.01,2.19392,2.19392,0,0,0,3.38379-.00158,2.21062,2.21062,0,0,0,1.67871.7965Zm1.15338-8.86182a1.13941,1.13941,0,1,1-2.27881.00659V7.66316h2.27881ZM5.05977,15.71846h6.55859V11.36677H5.05977Zm1.08154-3.27027h4.39551V14.637H6.14131Z"/>
</svg>
