<?xml version="1.0" encoding="utf-8"?>
<!-- Generator: Adobe Illustrator 25.4.1, SVG Export Plug-In . SVG Version: 6.00 Build 0)  -->
<svg version="1.1" id="Layer_2_00000103964272299165175710000004676413688441617842_"
	 xmlns="http://www.w3.org/2000/svg" xmlns:xlink="http://www.w3.org/1999/xlink" x="0px" y="0px" viewBox="0 0 21.6 21.6"
	 style="enable-background:new 0 0 21.6 21.6;" xml:space="preserve">
<path d="M4.7,4.4v12.9c0,1.7,3.1,2.6,6.1,2.6s6.1-0.9,6.1-2.6V4.4C16.9,0.9,4.7,0.9,4.7,4.4z M10.8,2.9c3.1,0,5,0.9,5,1.5
	c0,0.5-1.9,1.5-5,1.5s-5-0.9-5-1.5S7.7,2.9,10.8,2.9z M10.8,18.7c-3.1,0-5-0.9-5-1.5v-2.1c1.6,0.7,3.3,1,5,1c1.7,0,3.4-0.3,5-1v2.1
	C15.8,17.7,13.9,18.7,10.8,18.7z M10.8,15c-3.1,0-5-0.9-5-1.5V5.9c1.6,0.7,3.3,1,5,1c1.7,0,3.4-0.3,5-1v7.6
	C15.8,14.1,13.9,15,10.8,15z"/>
</svg>
