<svg id="Layer_2" data-name="Layer 2" xmlns="http://www.w3.org/2000/svg" viewBox="0 0 21.6 21.6">
  <path d="M3.195,1.8v18H6.53888V17.58744H15.0621V19.8H18.405V1.8ZM17.27368,2.93132V6.89684H14.32532a3.56817,3.56817,0,0,0-7.05064,0H4.32632V2.93132ZM13.2512,7.4625A2.4512,2.4512,0,1,1,10.8,5.0113,2.45436,2.45436,0,0,1,13.2512,7.4625ZM5.40756,18.66868H4.32632V17.58744H5.40756Zm11.86612,0H16.19342V17.58744h1.08026ZM15.0621,16.45612H4.32632v-8.428H7.27468a3.56817,3.56817,0,0,0,7.05064,0h2.94836v8.428ZM10.10765,7.35546l1.27962-1.27961.79939.79939L10.907,8.15485ZM9.103,12.12135h3.394v1.13132H9.103Zm0,2.26264h3.394v1.13132H9.103Z"/>
</svg>
