<svg id="Layer_1" data-name="Layer 1" xmlns="http://www.w3.org/2000/svg" viewBox="0 0 21.6 21.6">
  <path d="M3.4875,1.8V4.7668H2.3625v.8164h1.125V8.1418H2.3625v.8164h1.125v2.5586H2.3625v.8164h1.125v2.5586H2.3625v.8164h1.125V19.8h15.75V1.8Zm1.0444,17a8.3139,8.3139,0,0,1,6.8828-4.2158A8.1836,8.1836,0,0,1,18.2074,18.8Zm13.7056-1.6968a8.8732,8.8732,0,0,0-6.8228-3.519A9.1274,9.1274,0,0,0,4.4875,17.13V15.7082h.125v-.8164h-.125V12.3332h.125v-.8164h-.125V8.9582h.125V8.1418h-.125V5.5832h.125V4.7668h-.125V2.8h13.75ZM7.3121,8.6489A4.3219,4.3219,0,1,0,9.0644,5.0375,8.4274,8.4274,0,0,0,6.48,5.0847c-.9068.167-1.4756.64-1.522,1.2661A1.498,1.498,0,0,0,5.45,7.4763,4.3959,4.3959,0,0,0,7.3121,8.6489ZM11.606,5.1923a3.3026,3.3026,0,0,1,2.7034,1.4123c-.0777-.03-.1541-.0585-.2321-.0888a31.6107,31.6107,0,0,0-3.4155-1.17A3.2631,3.2631,0,0,1,11.606,5.1923ZM9.6094,5.88A24.2038,24.2038,0,0,1,13.8059,7.215c.3242.1259.6443.2487.9633.3686a3.2633,3.2633,0,0,1,.1455.9175A3.3087,3.3087,0,1,1,9.6094,5.88ZM6.6154,5.822a7.3275,7.3275,0,0,1,1.7232-.1A4.2636,4.2636,0,0,0,7.36,7.88a3.6481,3.6481,0,0,1-1.3607-.9146.8355.8355,0,0,1-.2934-.5595C5.7287,6.0944,6.21,5.8967,6.6154,5.822Z"/>
</svg>
