<?xml version="1.0" encoding="utf-8"?>
<!-- Generator: Adobe Illustrator 24.0.1, SVG Export Plug-In . SVG Version: 6.00 Build 0)  -->
<svg version="1.1" id="Layer_1" xmlns="http://www.w3.org/2000/svg" xmlns:xlink="http://www.w3.org/1999/xlink" x="0px" y="0px"
	 viewBox="0 0 21.6000004 21.6000004" style="enable-background:new 0 0 21.6000004 21.6000004;" xml:space="preserve">
<path d="M8.5568304,15.40242h4.48633v1.1159992h-4.48633V15.40242z M8.5568304,18.1626701h4.48633v-1.1159992h-4.48633V18.1626701z
	 M10.3245296,19.7999992h0.9510002l0.7069998-1.0960007H9.6175003L10.3245296,19.7999992z M15.4591799,10.0949993
	c-0.4252996,0.9218798-2.4159994,4.3197098-2.4159994,4.76758H8.5568304c0-0.4478703-1.9907198-3.8457003-2.4159999-4.76758
	c-1.5693216-2.573194-0.7555223-5.9313664,1.8176718-7.5006876s5.9313664-0.7555223,7.5006881,1.817672
	c1.0641594,1.7448883,1.0641594,3.9381275,0,5.6830158H15.4591799z M13.6125002,11.2110004h-5.625l0.03613,0.0654297
	c0.65625,1.1999998,1.0595703,1.9556904,1.3027296,2.4700899h2.9472704
	c0.2431602-0.5142803,0.6464796-1.2701397,1.3027296-2.4700899L13.6125002,11.2110004z M15.1437502,7.2595806
	c0.0021887-2.3967438-1.9389811-4.3414631-4.3357248-4.3436518C8.4112816,2.9137397,6.4665623,4.8549099,6.4643736,7.2516537
	c-0.0009537,1.0441761,0.3746099,2.053688,1.0577965,2.8433466h6.5556593
	C14.7642345,9.3098059,15.142909,8.3025093,15.1437502,7.2595806z M9.0489998,7.0542698L9.55828,7.5632696
	c0.686017-0.6851811,1.7973833-0.6851811,2.4834003,0l0.5092697-0.5089998
	C11.5836878,6.0877776,10.0162621,6.0877776,9.0489998,7.0542698z M9.8776102,7.8826399l0.50879,0.5089998
	c0.2315283-0.2207584,0.5956221-0.2207584,0.8271503,0l0.50879-0.5089998c-0.5161247-0.492908-1.3285856-0.492908-1.8447104,0
	H9.8776102z M8.2222996,6.2254801L8.2213793,6.2263899l0.50879,0.5089998
	c1.1430149-1.1430969,2.9962626-1.1432042,4.13941-0.0002398l0.0002403,0.0002398l0.50879-0.5089998
	c-1.4235764-1.4241271-3.7320957-1.4245734-5.1562223-0.0009975C8.2223577,6.2254214,8.2223291,6.225451,8.2222996,6.2254801z"/>
</svg>
