<svg id="Layer_2" data-name="Layer 2" xmlns="http://www.w3.org/2000/svg" viewBox="0 0 21.6 21.6">
  <path d="M18.14009,14.65032,16.04624,2.68019H12.17032V3.86267h2.8823l1.44282,8.24459a4.78251,4.78251,0,0,0-3.59915,4.05343H6.04358a2.1679,2.1679,0,1,0,0,1.18248h9.51284a2.16272,2.16272,0,1,0,2.58367-2.69285Zm-14.17221,3.087a.9854.9854,0,1,1,.9854-.9854A.987.987,0,0,1,3.96788,17.73733Zm11.58854-1.57664H14.07877A3.60513,3.60513,0,0,1,16.7,13.27608l.25,1.42844A2.16143,2.16143,0,0,0,15.55642,16.16069Zm2.0757,1.57664a.9854.9854,0,1,1,.9854-.9854A.987.987,0,0,1,17.63212,17.73733ZM10.0784,10.43715l-.83554.83553a3.16825,3.16825,0,0,0-4.47536,0L3.932,10.43715A4.349,4.349,0,0,1,10.0784,10.43715ZM3.62813,9.58108l-.83554-.83554a5.96231,5.96231,0,0,1,8.42518,0l-.83554.83554A4.78148,4.78148,0,0,0,3.62813,9.58108Z"/>
</svg>
