<svg id="Layer_2" data-name="Layer 2" xmlns="http://www.w3.org/2000/svg" viewBox="0 0 21.6 21.6">
  <path d="M13.58478,6.91451a3.94226,3.94226,0,0,0-5.56933,0l-.79493-.79492a5.06656,5.06656,0,0,1,7.15918,0Zm2.16016-2.16308a7.00011,7.00011,0,0,0-9.88965,0l.79492.79492a5.8776,5.8776,0,0,1,8.29981,0ZM18.675,9.68282H2.925v8.086h15.75v-8.086m1.125-1.125v10.336H1.8V8.55782ZM6.94749,11.5307a2.19514,2.19514,0,1,0,2.19515,2.19514A2.19763,2.19763,0,0,0,6.94749,11.5307m0-1.125a3.32014,3.32014,0,1,1-3.32014,3.32014A3.32015,3.32015,0,0,1,6.94749,10.4057Zm1.125,2.75764a.5625.5625,0,1,0,.5625.5625.5625.5625,0,0,0-.5625-.5625Zm-2.25,0a.5625.5625,0,1,0,.5625.5625.5625.5625,0,0,0-.5625-.5625Zm8.83-1.63264a2.19514,2.19514,0,1,0,2.19514,2.19514A2.19763,2.19763,0,0,0,14.6525,11.5307m0-1.125a3.32014,3.32014,0,1,1-3.32014,3.32014A3.32014,3.32014,0,0,1,14.6525,10.4057Zm1.125,2.75764a.5625.5625,0,1,0,.5625.5625.5625.5625,0,0,0-.5625-.5625Zm-2.25,0a.5625.5625,0,1,0,.5625.5625.5625.5625,0,0,0-.5625-.5625Z"/>
</svg>
