<svg id="Layer_2" data-name="Layer 2" xmlns="http://www.w3.org/2000/svg" viewBox="0 0 21.6 21.6">
  <path d="M8.48908,14.11855a1.41256,1.41256,0,0,0,0,1.59063,2.536,2.536,0,0,1,0,2.75271,1.29019,1.29019,0,0,0-.24517.7963H7.11419a2.39171,2.39171,0,0,1,.406-1.37685,1.4142,1.4142,0,0,0,0-1.59161,2.53429,2.53429,0,0,1,0-2.75173,1.2883,1.2883,0,0,0,.24516-.79433H8.89507A2.3819,2.3819,0,0,1,8.48908,14.11855Zm3.20185-1.37488H10.56121a1.28931,1.28931,0,0,1-.24517.79335,2.53253,2.53253,0,0,0,0,2.75369,1.41256,1.41256,0,0,1,0,1.59063,2.37855,2.37855,0,0,0-.407,1.37685h1.12972a1.30065,1.30065,0,0,1,.24517-.7963,2.53087,2.53087,0,0,0,0-2.75271,1.411,1.411,0,0,1,0-1.58965A2.38006,2.38006,0,0,0,11.69093,12.74367Zm2.79488,0H13.35609a1.28824,1.28824,0,0,1-.24517.79433,2.53434,2.53434,0,0,0,0,2.75173,1.41415,1.41415,0,0,1,0,1.59161,2.39179,2.39179,0,0,0-.406,1.37685h1.12972a1.29025,1.29025,0,0,1,.24516-.7963,2.53595,2.53595,0,0,0,0-2.75271,1.41261,1.41261,0,0,1,0-1.59063A2.38181,2.38181,0,0,0,14.48581,12.74367ZM19.8,2.34181v.56486A3.57311,3.57311,0,0,1,16.78741,6.427V9.07992a2.576,2.576,0,0,1-2.57324,2.57325H7.38583A2.576,2.576,0,0,1,4.81259,9.07992V6.427A3.57311,3.57311,0,0,1,1.8,2.90667V2.34181ZM15.6577,6.48412H5.9423v2.5958a1.44474,1.44474,0,0,0,1.44353,1.44353h6.82834A1.44474,1.44474,0,0,0,15.6577,9.07992Zm2.94688-3.01259H2.99542a2.452,2.452,0,0,0,2.382,1.88287H16.22256A2.452,2.452,0,0,0,18.60458,3.47153ZM8.56949,7.60207H7.43977V9.37118H8.56949Zm2.79488,0H10.23465V9.37118h1.12972Zm2.79586,0H13.03051V9.37118h1.12972Z"/>
</svg>
