<?xml version="1.0" encoding="UTF-8"?><svg id="a" xmlns="http://www.w3.org/2000/svg" viewBox="0 0 21.6 21.6"><path d="M6.85762,12.58467c-.19482-.05078-.36182-.12793-.5-.22949s-.24658-.22852-.3252-.37988c-.07812-.15137-.11914-.32617-.12207-.52246h.88965c.02002,.17969,.08838,.30957,.20508,.38965s.28174,.12012,.49512,.12012c.07324,0,.14453-.00684,.21289-.01953,.06836-.01367,.12891-.03516,.18262-.06543,.05273-.03027,.09668-.06934,.12988-.11719,.0332-.04883,.0498-.10645,.0498-.17285,0-.07031-.01758-.12793-.05273-.1748s-.08594-.08691-.15234-.12012-.14844-.0625-.24512-.08789c-.09668-.02441-.20654-.05176-.33008-.08203-.15674-.03711-.31104-.07812-.4624-.125-.15186-.04688-.2876-.11035-.40771-.19043-.11963-.08008-.21729-.18164-.29248-.30469-.07471-.12305-.1123-.27832-.1123-.46484,0-.19043,.03662-.35449,.10986-.49316,.07324-.1377,.17334-.25195,.30029-.3418,.12646-.08984,.27637-.15723,.44971-.2002s.35986-.06543,.56006-.06543c.19385,0,.37451,.02246,.54248,.06836,.16895,.04492,.31543,.1123,.44043,.20215s.22559,.2041,.2998,.34277c.0752,.1377,.11719,.30078,.12695,.4873h-.86426c-.0166-.14062-.0752-.24707-.1748-.32031-.10059-.07324-.2334-.11035-.40039-.11035-.15674,0-.28174,.03125-.375,.09277-.09375,.06152-.14014,.14258-.14014,.24316,0,.0625,.01758,.11523,.05225,.15723,.03516,.04199,.08594,.07715,.15283,.10742,.06641,.03027,.15088,.05762,.25244,.08203,.10156,.02539,.21973,.05273,.35254,.08301,.16699,.04004,.32617,.08496,.47754,.13477s.28613,.11719,.40332,.2002c.11621,.08301,.20898,.18848,.2793,.31445,.07031,.12695,.10547,.28516,.10547,.47559,0,.18652-.03711,.35254-.11328,.49707-.07422,.14551-.17773,.2666-.30957,.36523s-.28711,.17383-.46484,.22461c-.17871,.05176-.37109,.07812-.57812,.07812-.23682,0-.45264-.02637-.64746-.07812Zm3.2998,0c-.19531-.05078-.36133-.12793-.5-.22949s-.24707-.22852-.3252-.37988-.11914-.32617-.12207-.52246h.88965c.02051,.17969,.08887,.30957,.20508,.38965,.11719,.08008,.28125,.12012,.49512,.12012,.07324,0,.14453-.00684,.21289-.01953,.06738-.01367,.12891-.03516,.18164-.06543,.05371-.03027,.09668-.06934,.13086-.11719,.0332-.04883,.0498-.10645,.0498-.17285,0-.07031-.01758-.12793-.05273-.1748s-.08594-.08691-.15234-.12012-.14844-.0625-.24512-.08789c-.09668-.02441-.20703-.05176-.33008-.08203-.15625-.03711-.31055-.07812-.46289-.125-.15137-.04688-.28711-.11035-.40723-.19043s-.21777-.18164-.29199-.30469c-.0752-.12305-.11328-.27832-.11328-.46484,0-.19043,.03711-.35449,.11035-.49316,.07324-.1377,.17383-.25195,.2998-.3418,.12695-.08984,.27734-.15723,.4502-.2002,.17383-.04297,.36035-.06543,.56055-.06543,.19238,0,.37402,.02246,.54199,.06836,.16797,.04492,.31543,.1123,.44043,.20215s.22461,.2041,.2998,.34277c.0752,.1377,.11719,.30078,.12695,.4873h-.86426c-.01758-.14062-.0752-.24707-.17578-.32031-.09961-.07324-.2334-.11035-.39941-.11035-.15723,0-.28223,.03125-.375,.09277-.09375,.06152-.14062,.14258-.14062,.24316,0,.0625,.01758,.11523,.05273,.15723s.08594,.07715,.15234,.10742c.06738,.03027,.15137,.05762,.25293,.08203,.10156,.02539,.21875,.05273,.35254,.08301,.16699,.04004,.3252,.08496,.47754,.13477,.15137,.0498,.28516,.11719,.40234,.2002,.11621,.08301,.20996,.18848,.28027,.31445,.06934,.12695,.10449,.28516,.10449,.47559,0,.18652-.03711,.35254-.1123,.49707-.0752,.14551-.17871,.2666-.30957,.36523-.13184,.09863-.28711,.17383-.46582,.22461-.17773,.05176-.37012,.07812-.57715,.07812-.23633,0-.45215-.02637-.64746-.07812Zm3.3623-3.58203l1.06055,1.79492c.0127,.02637,.03418,.06543,.0625,.11523s.05566,.09961,.08203,.14941c.0332,.06055,.06641,.12402,.10059,.19043h.00977c-.00391-.08008-.00488-.15625-.00488-.23047-.00391-.0625-.00488-.125-.00488-.18457v-1.83496h.86426v3.5752h-.88965l-1.0498-1.77051c-.0166-.02344-.03906-.06055-.06738-.1123s-.05664-.10547-.08301-.16211c-.0332-.06348-.06836-.13184-.10449-.20508h-.01074c0,.08691,.00195,.16797,.00586,.24512,0,.06641,0,.13184,.00195,.19727,.00195,.06445,.00293,.1123,.00293,.14258v1.66504h-.86523v-3.5752h.88965Zm5.15527-3.57764v10.75H2.925V5.425h15.75m1.125-1.125H1.8v13H19.8V4.3h0Z"/></svg>