<svg id="Layer_1" data-name="Layer 1" xmlns="http://www.w3.org/2000/svg" viewBox="0 0 21.6 21.6"><path d="M12.40645,10.09687a1.68149,1.68149,0,0,0,.58105.44532,1.87445,1.87445,0,0,0,.80566.16211,1.9596,1.9596,0,0,0,.68457-.11524,1.63277,1.63277,0,0,0,.54-.32129,1.49013,1.49013,0,0,0,.35645-.49316,1.61386,1.61386,0,0,0,.00293-1.26172,1.52721,1.52721,0,0,0-.33887-.49023,1.499,1.499,0,0,0-.49609-.31543,1.59471,1.59471,0,0,0-.59571-.11231,1.25726,1.25726,0,0,0-.62793.14453,1.40087,1.40087,0,0,0-.44628.4043h-.01172Q12.93233,6.84,13.81074,6.84A.74351.74351,0,0,1,14.05,6.8752a.56551.56551,0,0,1,.17676.09472.48861.48861,0,0,1,.11816.13281.66426.66426,0,0,1,.06738.15039h.96192a1.34758,1.34758,0,0,0-.17383-.44824,1.36977,1.36977,0,0,0-.32422-.36035,1.52971,1.52971,0,0,0-.47265-.24219,2.01543,2.01543,0,0,0-.61622-.08789,1.97928,1.97928,0,0,0-.79687.14453,1.59352,1.59352,0,0,0-.57227.42188,2.00509,2.00509,0,0,0-.39257.7666,3.582,3.582,0,0,0-.11426.97949,3.423,3.423,0,0,0,.12109.94727A1.92726,1.92726,0,0,0,12.40645,10.09687Zm.752-1.52539a.89185.89185,0,0,1,.90918-.16211.74335.74335,0,0,1,.251.165.77838.77838,0,0,1,.168.25391.83032.83032,0,0,1,.06153.32422.8149.8149,0,0,1-.06153.31836.77823.77823,0,0,1-.168.2539.7432.7432,0,0,1-.251.165.80182.80182,0,0,1-.30957.05957.87908.87908,0,0,1-.32813-.05957.75764.75764,0,0,1-.25879-.165.7908.7908,0,0,1-.23925-.57812A.76645.76645,0,0,1,13.1584,8.57148Zm3.28418-.56836h-.31641V7.59883h.31641V7.42109a.63332.63332,0,0,1,.17773-.49316.59925.59925,0,0,1,.2627-.12988,1.34084,1.34084,0,0,1,.36133-.03614c.042,0,.084.001.12695.00391.042.00293.085.00684.12988.01172v.44238c-.0791-.00195-.14648-.00195-.20117,0a.37377.37377,0,0,0-.13672.0293.158.158,0,0,0-.07715.07812.333.333,0,0,0-.02343.1377v.13379h.43847v.40429H17.0627V9.70234h-.62012Zm1.58008-.00781h-.31641V7.59883h.31641v-.6709H18.631v.6709h.41114v.39648H18.631v1.043a.18228.18228,0,0,0,.06153.16016.30413.30413,0,0,0,.17187.041c.02051,0,.04395,0,.07032-.00195l.07128-.00586h.03223v.46289c-.03418.00488-.082.01172-.14258.01953a1.73,1.73,0,0,1-.21777.01172,1.329,1.329,0,0,1-.2666-.02539.52041.52041,0,0,1-.207-.0918.42337.42337,0,0,1-.13477-.16992.65048.65048,0,0,1-.04687-.26562Zm.30639,6.61518v-.89838H13.09694v.89838l-1.46119-1.46125,1.46119-1.46118v.899h5.23211v-.899l1.46125,1.46118ZM6.718,10.91523a4.5845,4.5845,0,0,0-3.38867,1.29,6.07246,6.07246,0,0,0-1.51953,3.9502l.0039.55859h9.84766v-.5625C11.66133,14.34,10.62812,10.91523,6.718,10.91523ZM2.98066,15.58906A4.60091,4.60091,0,0,1,4.133,12.99336a3.49919,3.49919,0,0,1,2.585-.95313,3.70716,3.70716,0,0,1,3.77246,3.54883Zm3.75489-5.082A2.81055,2.81055,0,1,0,3.925,7.69648,2.81364,2.81364,0,0,0,6.73555,10.507Zm0-4.49609A1.68555,1.68555,0,1,1,5.05,7.69648,1.6871,1.6871,0,0,1,6.73555,6.01094Z"/></svg>