<svg id="Layer_2" data-name="Layer 2" xmlns="http://www.w3.org/2000/svg" viewBox="0 0 21.6 21.6">
  <path d="M1.8,1.8V14.998H9.04753v1.683H5.54361V19.8H16.05639V16.681H12.55247V14.998H19.8V1.8ZM18.63,8.498H14.18966V6.301H18.63ZM8.58034,11.847V9.65h4.43932v2.197Zm0-3.349V6.301h4.43932V8.498Zm-1.17,0H2.97V6.301H7.41034Zm1.17-3.349V2.952h4.43932V5.149Zm10.04965,0H14.18966V2.952H18.63ZM7.41034,2.952V5.149H2.97V2.952ZM2.97,9.65H7.41034v2.197H2.97Zm11.91637,8.183v.815H6.71362v-.815h8.17276Zm-3.50392-1.152H10.21754V14.998h1.16492ZM18.63,13.846H2.97v-.847H18.63Zm-4.44033-1.999V9.65H18.63v2.197Z"/>
</svg>
