<svg id="Layer_2" data-name="Layer 2" xmlns="http://www.w3.org/2000/svg" viewBox="0 0 21.6 21.6"><path d="M3.49784,14.00283a2.62065,2.62065,0,0,1-.89613-.412,1.93729,1.93729,0,0,1-.58224-.681A2.08533,2.08533,0,0,1,1.8,11.97358H3.39467a.91748.91748,0,0,0,.36749.69926,1.56006,1.56006,0,0,0,.887.21511,1.97054,1.97054,0,0,0,.38062-.03646,1.08493,1.08493,0,0,0,.327-.11594.69.69,0,0,0,.233-.21073.5308.5308,0,0,0,.08968-.30916.50839.50839,0,0,0-.09406-.31354A.75317.75317,0,0,0,5.312,11.687a2.22647,2.22647,0,0,0-.439-.15677q-.25977-.06672-.59135-.148-.4211-.09843-.82869-.22385a2.77911,2.77911,0,0,1-.73025-.34052,1.72667,1.72667,0,0,1-.52427-.54686,1.57742,1.57742,0,0,1-.20161-.8327,1.859,1.859,0,0,1,.19724-.883,1.73921,1.73921,0,0,1,.53775-.61323A2.36179,2.36179,0,0,1,3.538,7.58332a4.14791,4.14791,0,0,1,1.00368-.11667,3.76959,3.76959,0,0,1,.972.121,2.39934,2.39934,0,0,1,.78859.36312,1.80876,1.80876,0,0,1,.53775.614,2.042,2.042,0,0,1,.22823.87354H5.51834a.79307.79307,0,0,0-.31354-.57385,1.18743,1.18743,0,0,0-.71713-.19687,1.20671,1.20671,0,0,0-.67191.16551.50141.50141,0,0,0-.25084.43458.4227.4227,0,0,0,.09407.28219.74158.74158,0,0,0,.27343.1925,2.62345,2.62345,0,0,0,.45244.148c.18193.04521.39266.09407.63145.148q.4479.10719.85567.24208a2.69,2.69,0,0,1,.7215.358,1.6922,1.6922,0,0,1,.50167.56437,1.74586,1.74586,0,0,1,.18812.85166,1.90777,1.90777,0,0,1-.20161.891,1.87688,1.87688,0,0,1-.55562.654,2.55664,2.55664,0,0,1-.83307.40323,3.70559,3.70559,0,0,1-1.035.13927A4.524,4.524,0,0,1,3.49784,14.00283Zm6.02066-.11156a2.819,2.819,0,0,1-.9942-.69927,3.16451,3.16451,0,0,1-.63182-1.06165,4.06509,4.06509,0,0,1,0-2.6607A3.16451,3.16451,0,0,1,8.5243,8.408a2.82827,2.82827,0,0,1,.9942-.69927,3.56022,3.56022,0,0,1,2.62534,0,2.87377,2.87377,0,0,1,.99895.69927A3.12719,3.12719,0,0,1,13.779,9.46965a4.05892,4.05892,0,0,1,0,2.6607,3.12719,3.12719,0,0,1-.63619,1.06165,2.86419,2.86419,0,0,1-.99895.69927,3.56022,3.56022,0,0,1-2.62534,0Zm1.99826-1.19655a1.42784,1.42784,0,0,0,.48817-.42948,1.87985,1.87985,0,0,0,.2913-.64968,3.58274,3.58274,0,0,0,0-1.63112,1.92784,1.92784,0,0,0-.2913-.65406,1.42251,1.42251,0,0,0-2.32929,0A1.98445,1.98445,0,0,0,9.38,9.98444a3.41548,3.41548,0,0,0,0,1.63112,1.93409,1.93409,0,0,0,.29568.64968,1.42464,1.42464,0,0,0,.48817.42948,1.53791,1.53791,0,0,0,1.35295,0Zm4.49782,1.30811a2.62079,2.62079,0,0,1-.89614-.412,1.93726,1.93726,0,0,1-.58223-.681,2.08533,2.08533,0,0,1-.21948-.93624H15.9114a.91751.91751,0,0,0,.3675.69926,1.56,1.56,0,0,0,.887.21511,1.97061,1.97061,0,0,0,.38062-.03646,1.08493,1.08493,0,0,0,.327-.11594.69.69,0,0,0,.233-.21073.53081.53081,0,0,0,.08969-.30916.50839.50839,0,0,0-.09406-.31354.75321.75321,0,0,0-.27344-.2151,2.22624,2.22624,0,0,0-.439-.15677q-.25977-.06672-.59135-.148-.42108-.09843-.82869-.22385a2.77926,2.77926,0,0,1-.73025-.34052,1.72674,1.72674,0,0,1-.52426-.54686,1.57732,1.57732,0,0,1-.20162-.8327,1.85907,1.85907,0,0,1,.19724-.883,1.73914,1.73914,0,0,1,.53776-.61323,2.36173,2.36173,0,0,1,.80608-.35874,4.148,4.148,0,0,1,1.00369-.11667,3.76959,3.76959,0,0,1,.972.121,2.39919,2.39919,0,0,1,.78858.36312,1.80879,1.80879,0,0,1,.53776.614,2.042,2.042,0,0,1,.22822.87354H18.03508a.79307.79307,0,0,0-.31354-.57385,1.18747,1.18747,0,0,0-.71713-.19687,1.20672,1.20672,0,0,0-.67192.16551.50142.50142,0,0,0-.25083.43458.4227.4227,0,0,0,.09406.28219.74163.74163,0,0,0,.27344.1925,2.62316,2.62316,0,0,0,.45244.148c.18192.04521.39265.09407.63145.148q.44789.10719.85567.24208a2.69025,2.69025,0,0,1,.7215.358,1.69217,1.69217,0,0,1,.50166.56437,1.74575,1.74575,0,0,1,.18812.85166,1.90777,1.90777,0,0,1-.20161.891,1.87667,1.87667,0,0,1-.55562.654,2.55659,2.55659,0,0,1-.83306.40323,3.7057,3.7057,0,0,1-1.035.13927A4.52389,4.52389,0,0,1,16.01458,14.00283Z"/></svg>