<?xml version="1.0" encoding="utf-8"?>
<!-- Generator: Adobe Illustrator 24.0.1, SVG Export Plug-In . SVG Version: 6.00 Build 0)  -->
<svg version="1.1" id="Ebene_1" xmlns="http://www.w3.org/2000/svg" xmlns:xlink="http://www.w3.org/1999/xlink" x="0px" y="0px"
	 viewBox="0 0 21.6 21.6" style="enable-background:new 0 0 21.6 21.6;" xml:space="preserve">
<path d="M15.1,7.4c1.8,1.8,1.8,4.8,0,6.6l-0.8-0.8c1.4-1.4,1.4-3.7,0-5.1L15.1,7.4z M17.4,5.1l-0.8,0.8c2.7,2.7,2.7,7,0,9.7l0.8,0.8
	C20.5,13.3,20.5,8.2,17.4,5.1z M6.3,7.4l6.8-4.5v15.7l-6.8-4.5H1.8V7.4H6.3z M6.3,13.1V8.6H3v4.5H6.3z M12,5L7.5,8v5.5l4.5,3V5z"/>
</svg>
