<svg id="Layer_1" data-name="Layer 1" xmlns="http://www.w3.org/2000/svg" viewBox="0 0 21.6 21.6"><path d="M18.67,11.07a7,7,0,0,0-2-4.92l.81-.79a8.12,8.12,0,0,1,.7,10.55l-.8-.8A7,7,0,0,0,18.67,11.07Zm.1,7.05h0l-.8.79L13.11,14v5l-6.8-4.53H1.81V7.69h4.5l.34-.23-4-4.09.8-.79L18.77,18.12ZM6.31,8.82H2.93v4.55H6.31Zm5.67,4L7.46,8.28h0v5.63l4.52,3Zm3-.19.83.84a4.7,4.7,0,0,0,.69-2.43A4.77,4.77,0,0,0,15.1,7.72l-.8.79a3.65,3.65,0,0,1,1,2.56A3.5,3.5,0,0,1,15,12.66ZM12,5.28V9.66l1.13,1.13V3.18l-4.55,3L9.37,7Z"/></svg>