<svg id="Layer_1" data-name="Layer 1" xmlns="http://www.w3.org/2000/svg" viewBox="0 0 21.6 21.6"><path d="M15.60261,8.78468a6.55344,6.55344,0,0,0-4.2041-2.067V6.25355a2.24983,2.24983,0,1,0-.93555-.00018v.4505A6.51681,6.51681,0,0,0,7.21882,7.75209V7.752l-.48-.6153.59522-.46393-.68653-.88031L4.57722,7.40687l.686.88031L5.8589,7.823l.48193.61829a6.55355,6.55355,0,1,0,9.26178.34344ZM9.61726,4.054a1.3135,1.3135,0,1,1,1.78125,1.21905V4.15138H10.463V5.273A1.30831,1.30831,0,0,1,9.61726,4.054ZM10.795,18.68837a5.4426,5.4426,0,1,1,5.44239-5.44275v.00012A5.44856,5.44856,0,0,1,10.795,18.68837Zm3.04529-8.24762.63867.9154-3.3645,2.34729-.63867-.91546Z"/></svg>