<?xml version="1.0" encoding="utf-8"?>
<!-- Generator: Adobe Illustrator 25.2.3, SVG Export Plug-In . SVG Version: 6.00 Build 0)  -->
<svg version="1.1" id="Layer_1" xmlns="http://www.w3.org/2000/svg" xmlns:xlink="http://www.w3.org/1999/xlink" x="0px" y="0px"
	 viewBox="0 0 21.6 21.6" style="enable-background:new 0 0 21.6 21.6;" xml:space="preserve">
<path d="M19.7,13.9c0-4.9-4-8.9-8.9-8.9s-8.9,4-8.9,8.9v0.6h17.8V13.9z M9.3,13.3c0-0.9,0.7-1.5,1.6-1.5c0.8,0,1.5,0.7,1.5,1.5H9.3z
	 M13.5,13.3c0-0.3-0.1-0.5-0.2-0.8l3.2-2.1l-0.6-0.9l-3.2,2.1c-1-1.1-2.7-1.1-3.8-0.1c-0.5,0.5-0.8,1.2-0.8,1.9H3
	c0.3-4.3,4-7.5,8.3-7.2c3.9,0.3,6.9,3.4,7.2,7.2L13.5,13.3z M19.8,15.5v1.1h-18v-1.1H19.8z"/>
</svg>
