<?xml version="1.0" encoding="utf-8"?>
<!-- Generator: Adobe Illustrator 24.0.1, SVG Export Plug-In . SVG Version: 6.00 Build 0)  -->
<svg version="1.1" id="Ebene_1" xmlns="http://www.w3.org/2000/svg" xmlns:xlink="http://www.w3.org/1999/xlink" x="0px" y="0px"
	 viewBox="0 0 21.6 21.6" style="enable-background:new 0 0 21.6 21.6;" xml:space="preserve">
<path d="M7.8,2.5C8.4,3.2,8.7,4,8.7,4.9v3.7C8.2,8.4,7.7,8.6,7.5,9l-1.4,1.8L3.1,10l0,0.7C3.1,12,3,13.4,3,13.7l-0.2,0.6l5.5,1.2
	l0.1,0c0.1,0,0.2,0,0.4-0.1v4.5h1.1V4.9c0-1.1-0.4-2.2-1.1-3.1L7.8,2.5z M8.3,14.3l-4.1-0.9c0-0.4,0-1,0.1-1.9L6.5,12l1.8-2.3
	L8.3,14.3z M18.6,13.7c0-0.3-0.1-1.7-0.1-2.9l0-0.7l-3,0.7l-1.4-1.7c-0.2-0.3-0.5-0.6-0.9-0.6c-0.1,0-0.2,0-0.3,0.1V4.9
	c0-0.9,0.3-1.7,0.8-2.4l-0.9-0.7c-0.7,0.9-1.1,2-1.1,3.1v14.9h1.1v-4.5c0.1,0,0.2,0.1,0.4,0.1l0.1,0l5.5-1.2L18.6,13.7z M13.3,14.3
	l0-4.5l1.8,2.3l2.3-0.5c0,1,0,1.6,0.1,1.9L13.3,14.3z"/>
</svg>
