<?xml version="1.0" encoding="utf-8"?>
<!-- Generator: Adobe Illustrator 24.0.1, SVG Export Plug-In . SVG Version: 6.00 Build 0)  -->
<svg version="1.1" id="Layer_1" xmlns="http://www.w3.org/2000/svg" xmlns:xlink="http://www.w3.org/1999/xlink" x="0px" y="0px"
	 viewBox="0 0 21.6 21.6" style="enable-background:new 0 0 21.6 21.6;" xml:space="preserve">
<path d="M10.8,1.8c-5,0-9,4-9,9s4,9,9,9s9-4,9-9l0,0C19.8,5.8,15.8,1.8,10.8,1.8z M17.6,6.8c0.6,1,0.9,2.1,1.1,3.2l-1.2-1.4
	L17.6,6.8z M16.6,5.5l-0.3,3l-1.7,0.9l-3.3-2.4V4.7L14,3.6C15,4,15.9,4.7,16.6,5.5z M13.9,10.1l-1.2,3.7H8.9l-1.2-3.7l3.1-2.3
	L13.9,10.1z M12.5,3.1L12.5,3.1l-1.7,0.7L9.1,3.1C10.2,2.8,11.4,2.8,12.5,3.1z M7.6,3.6l2.7,1.1v2.2L7,9.3L5.2,8.4L5,5.5
	C5.7,4.7,6.6,4,7.6,3.6L7.6,3.6z M4,6.8l0.2,1.9L2.9,10C3,8.9,3.4,7.8,4,6.8z M3.9,14.7c-0.5-0.9-0.9-2-1-3l1.9-2.2l1.7,0.9l1.3,3.9
	l-1,1.1L3.9,14.7z M4.9,16l1.8,0.4l1,1.6C6.6,17.6,5.6,16.9,4.9,16z M12.4,18.6c-1,0.2-2.1,0.2-3.2,0l0,0L7.7,16l1-1.1h4.2l1,1.1
	L12.4,18.6z M14,18L14,18l1-1.6l1.8-0.4C16,16.9,15,17.6,14,18z M17.7,14.7l-2.9,0.7l-1-1.1l1.2-3.8l1.8-1l1.9,2.2
	C18.5,12.7,18.2,13.8,17.7,14.7L17.7,14.7z"/>
</svg>
