<?xml version="1.0" encoding="utf-8"?>
<!-- Generator: Adobe Illustrator 24.0.1, SVG Export Plug-In . SVG Version: 6.00 Build 0)  -->
<svg version="1.1" id="Ebene_1" xmlns="http://www.w3.org/2000/svg" xmlns:xlink="http://www.w3.org/1999/xlink" x="0px" y="0px"
	 viewBox="0 0 21.6 21.6" enable-background="new 0 0 21.6 21.6" xml:space="preserve">
<path d="M18.556,3.11979c-0.86059-0.82916-2.01843-1.27745-3.213-1.244c-1.98462,0.07304-3.86198,0.91931-5.231,2.358
	c-1.50465,1.42272-2.35561,3.40323-2.352,5.474c0.071,1.618-0.411,3.153-2.1,3.74l-3.86,3.859l2.586,2.413l3.86-3.86
	c0.534-1.438,1.916-1.951,3.42-1.951c0.1,0,0.201,0.002,0.303,0.007c0.081,0.004,0.162,0.005,0.244,0.005
	c1.98432-0.07307,3.86136-0.91935,5.23-2.358C20.082,8.92479,20.58,5.14379,18.556,3.11979z M7.29,15.22479l-2.931,2.931
	l-0.94-0.877l2.866-2.866c0.49691-0.20495,0.94802-0.50682,1.327-0.888l0.51,0.51C7.77158,14.37499,7.48921,14.77886,7.29,15.22479z
	 M16.647,10.76779c-1.16192,1.22204-2.75063,1.94851-4.435,2.028c-0.065,0-0.13-0.001-0.194-0.004
	c-0.118-0.005-0.235-0.008-0.352-0.008c-0.90815-0.02153-1.80795,0.17785-2.622,0.581l-0.744-0.744
	c0.46029-0.91627,0.66252-1.94055,0.585-2.963c0.01209-1.7547,0.7429-3.42775,2.022-4.629
	c1.16218-1.22224,2.75128-1.94873,4.436-2.028c0.89521-0.0292,1.76511,0.29975,2.417,0.914
	C19.343,5.49779,18.843,8.57179,16.647,10.76779z"/>
</svg>
