<?xml version="1.0" encoding="utf-8"?>
<!-- Generator: Adobe Illustrator 24.0.1, SVG Export Plug-In . SVG Version: 6.00 Build 0)  -->
<svg version="1.1" id="Ebene_1" xmlns="http://www.w3.org/2000/svg" xmlns:xlink="http://www.w3.org/1999/xlink" x="0px" y="0px"
	 viewBox="0 0 21.6 21.6" style="enable-background:new 0 0 21.6 21.6;" xml:space="preserve">
<path d="M9,6.7H5.2V5.5H9V6.7z M19.8,13.6c0,2.2-1.8,4-4,4s-4-1.8-4-4c0-1.6,0.9-3,2.3-3.6l-0.6-2L9.9,8.9l1.4,4.2v1.1H9.7
	c-0.3,2.2-2.3,3.7-4.5,3.4C3,17.2,1.5,15.2,1.8,13s2.3-3.7,4.5-3.4c1.8,0.2,3.1,1.6,3.4,3.4h0.4L8.4,8.1l4.7-1.2L12.5,5L16.3,4
	l0.3,1.1l-2.6,0.7l1.2,3.9c0.2,0,0.4-0.1,0.6-0.1C18,9.6,19.8,11.4,19.8,13.6z M5.2,14.1V13h3.4c-0.3-1.6-1.8-2.6-3.4-2.3
	c-1.6,0.3-2.6,1.8-2.3,3.4s1.8,2.6,3.4,2.3c1.1-0.2,2-1.1,2.3-2.3H5.2z M18.7,13.6c0-1.6-1.3-2.9-2.9-2.9c-0.1,0-0.2,0-0.3,0
	l0.9,2.8l-1.1,0.3l-0.9-2.8c-1.4,0.7-1.9,2.5-1.2,3.9s2.5,1.9,3.9,1.2C18.1,15.6,18.7,14.6,18.7,13.6z"/>
</svg>
