<svg id="Layer_2" data-name="Layer 2" xmlns="http://www.w3.org/2000/svg" viewBox="0 0 21.6 21.6">
  <path d="M10.79164,5.836a19.30594,19.30594,0,0,0-4.90082.60218V4.95462l2.50732-1.0642L4.76973,1.80155V2.7742H4.76582v4.019C2.95045,7.45859,1.8,8.4014,1.8,9.40488l-.00055,6.97888c0,1.88672,4.04285,3.4162,8.99219,3.4162,4.9494,0,9.00824-1.52948,9.00824-3.4162L19.8,9.40506V9.40488C19.8,7.51822,15.741,5.836,10.79164,5.836Zm.57086,1.13727a17.38613,17.38613,0,0,1,4.16815.59064L14.58021,9.331a20.30918,20.30918,0,0,0-3.21771-.32386Zm5.305,4.10321a12.15662,12.15662,0,0,1-2.07568.60718l.57819-1.075A11.17576,11.17576,0,0,1,16.66755,11.07645Zm-5.305-.94446a19.60042,19.60042,0,0,1,2.65662.24225l-.82569,1.53516c-.573.06848-1.18585.11175-1.83093.12927Zm-1.125-3.1593V9.00876a20.39286,20.39286,0,0,0-3.14673.32453l-.928-1.80646A17.44646,17.44646,0,0,1,10.2375,6.97269Zm0,3.161v1.90625c-.64905-.01562-1.24994-.06524-1.82349-.13092l-.782-1.52228A19.58181,19.58181,0,0,1,10.2375,10.1337ZM7.04084,11.69828a12.02566,12.02566,0,0,1-2.11853-.603,11.59789,11.59789,0,0,1,1.56482-.47485ZM2.925,9.40488c0-.36542.74054-1.00073,2.15082-1.5318l.87872,1.71057a10.49381,10.49381,0,0,0-2.27722.85163c-.48157-.3479-.743-.70752-.743-1.03022H2.925Zm10.06055,9.15979a21.84922,21.84922,0,0,1-2.19391.11029,21.76328,21.76328,0,0,1-2.17621-.109V16.30448a23.16871,23.16871,0,0,0,4.37012,0Zm5.68933-2.18091c0,.50269-1.5813,1.55371-4.56433,2.03723V15.0369l-.63379.08105a21.86176,21.86176,0,0,1-5.35254,0l-.63379-.082v3.38672c-2.98383-.48272-4.566-1.53558-4.566-2.03876l.00043-5.09112c1.63025,1.23151,4.8042,1.88281,7.85022,1.88281,3.09985,0,6.26867-.69049,7.89984-1.9107Zm.00012-6.9787c0,.31348-.26691.66779-.7536,1.01319a10.26279,10.26279,0,0,0-2.20068-.83344l.895-1.66412C17.94465,8.43461,18.675,9.0358,18.675,9.40488Z"/>
</svg>
