<svg id="Layer_1" data-name="Layer 1" xmlns="http://www.w3.org/2000/svg" viewBox="0 0 21.6 21.6">
  <path d="M17.86342,7.30494c-.07569.10224-.7284.92981-2.74976.92981-2,0-3.626-1.43475-5.19995-2.82605-1.966-1.87817-3.73859-2.94329-6.15454-2.02862V1.8h-1.125v18h1.125V12.24348c1.22961-2.94116,4.63092-1.87012,6.45025-.87823,3.72126,2.04913,8.231,1.81976,8.75641-3.69568Zm-.5467,2.27051c-1.07367,2.93323-4.98425,1.71607-6.60754.7818-1.51141-.85547-5.17462-2.09387-6.95-.0434V4.58064a5.10509,5.10509,0,0,1,2.03277-.4035c1.01874,0,2.15271.99762,3.37665,2.07446,2.14209,2.131,5.39929,4.07605,8.41358,2.62805A6.09735,6.09735,0,0,1,17.31672,9.57545Z"/>
</svg>
