<?xml version="1.0" encoding="UTF-8"?><svg id="Layer_1" xmlns="http://www.w3.org/2000/svg" viewBox="0 0 38 38"><path d="m19,3C10.16333,3,3,10.16345,3,19s7.16333,16,16,16,16-7.16345,16-16S27.83643,3,19,3Zm0,30c-7.71973,0-14-6.2804-14-14s6.28027-14,14-14,14,6.2804,14,14-6.28027,14-14,14Zm0-24c-5.52295,0-10,4.47717-10,10s4.47705,10,10,10,10-4.47717,10-10-4.47729-10-10-10Zm0,18c-4.41113,0-8-3.58881-8-8s3.58887-8,8-8,8,3.58881,8,8-3.58887,8-8,8Zm0-12c-2.20923,0-4,1.79083-4,4s1.79077,4,4,4c2.20898,0,4-1.79089,4-4s-1.79102-4-4-4Zm0,6c-1.10278,0-2-.89722-2-2s.89722-2,2-2,2,.89722,2,2-.89722,2-2,2Z"/></svg>