<svg id="Layer_1" data-name="Layer 1" xmlns="http://www.w3.org/2000/svg" viewBox="0 0 21.6 21.6">
  <path d="M12.13432,17.21179a2.58524,2.58524,0,1,0,5.17048,0v-1.959H12.13432Zm1.13976-.8192h2.891v.8192a1.44548,1.44548,0,1,1-2.891,0ZM4.31627,13.80438a2.58487,2.58487,0,1,0,5.16974,0v-1.959H4.31627Zm1.13976-.8192H8.34624v.8192a1.44511,1.44511,0,1,1-2.89021,0ZM5.09753,2.63383a5.59732,5.59732,0,0,0-1.21544,4.079,25.71741,25.71741,0,0,0,.45635,3.722l.112.42519H9.44733l.08162-.47342a33.60546,33.60546,0,0,0,.38957-3.93351A5.49773,5.49773,0,0,0,8.65484,2.58114,2.36361,2.36361,0,0,0,5.09753,2.63383Zm3.38,7.0864H5.36021c-.08014-.489-.21073-1.44325-.34133-3.098a4.48346,4.48346,0,0,1,.91567-3.21449,1.20459,1.20459,0,0,1,1.89812-.0371,4.38787,4.38787,0,0,1,.94757,3.0364C8.72236,7.831,8.5695,9.07392,8.47749,9.72023Zm7.98872-3.73242a2.3604,2.3604,0,0,0-3.5573.05343,5.59261,5.59261,0,0,0-1.214,4.07821,26.20072,26.20072,0,0,0,.45413,3.722l.1113.42593h4.99982l.08014-.47342a33.52755,33.52755,0,0,0,.39179-3.93425A5.5057,5.5057,0,0,0,16.46621,5.98781Zm-.1766,7.13984H13.17307c-.08162-.48975-.21074-1.444-.34133-3.09873a4.483,4.483,0,0,1,.91418-3.21448A1.20506,1.20506,0,0,1,15.644,6.77733a4.38813,4.38813,0,0,1,.94832,3.0364C16.53448,11.23843,16.38162,12.48059,16.28961,13.12765Z"/>
</svg>
