<?xml version="1.0" encoding="UTF-8"?><svg id="Layer_3" xmlns="http://www.w3.org/2000/svg" viewBox="0 0 38 38"><path d="m30.3976,14.94754c-2.46931,0-4.47849,2.005-4.47849,4.46917,0,2.25691,1.69194,4.10925,3.87333,4.40757-.28324,4.98935-3.84851,8.95253-8.21033,8.95253-3.38171,0-6.28261-2.38521-7.55106-5.78031,2.12985-.5328,4.89525-2.35352,6.09415-3.53629,1.40007-1.38122,2.24278-2.49362,2.24278-4.58085l.67281-8.11198c0-3.12236-1.25866-5.34683-3.65896-6.29295-.2712-.83186-1.16239-1.44906-2.23958-1.47444v3.9912c.57334-.0135,1.08971-.20028,1.49471-.49134,1.17632.48436,2.15399,1.61176,2.17561,4.18015,0,0-.67607,8.28024-.67695,8.3221l-14.25805.03989-.52459-8.34164c.01231-2.48664.70782-3.66377,1.70241-4.20437.41235.31596.95244.51848,1.55318.53259v-3.99113c-1.02172.02402-1.87565.5809-2.19315,1.3477-2.27045.98106-3.2904,3.26653-3.2904,6.38224l.53826,8.55963c0,1.98837.91287,2.63977,2.19791,4.00151,1.23731,1.31113,3.72274,3.22379,5.83287,3.71092,1.41605,4.62943,5.30128,7.96055,9.88807,7.96055,5.67154,0,10.27628-5.08766,10.45352-11.43435,1.6591-.65499,2.83937-2.26335,2.83937-4.14894,0-2.46418-2.00809-4.46917-4.4774-4.46917Zm-23.43653,6.31466l12.2193-.03419c.00748.01438-3.64543,3.59538-6.34795,3.67368-3.07264-.14546-5.85986-3.62768-5.87135-3.63948Zm23.43653.39995c-1.24118,0-2.25067-1.00738-2.25067-2.24544,0-1.2386,1.00948-2.24599,2.25067-2.24599,1.2401,0,2.24958,1.00738,2.24958,2.24599,0,1.23806-1.00948,2.24544-2.24958,2.24544Z"/></svg>