<?xml version="1.0" encoding="utf-8"?>
<!-- Generator: Adobe Illustrator 24.0.1, SVG Export Plug-In . SVG Version: 6.00 Build 0)  -->
<svg version="1.1" id="Layer_1" xmlns="http://www.w3.org/2000/svg" xmlns:xlink="http://www.w3.org/1999/xlink" x="0px" y="0px"
	 viewBox="0 0 21.6000004 21.6000004" style="enable-background:new 0 0 21.6000004 21.6000004;" xml:space="preserve">
<path d="M7.64924,6.9764299c1.1045699,0,2.0000005-0.8954306,2.0000005-2s-0.8954306-2-2.0000005-2s-2,0.8954306-2,2
	S6.5446706,6.9764299,7.64924,6.9764299z M7.64924,4.1014299c0.4832492,0,0.8750005,0.3917508,0.8750005,0.875
	s-0.3917513,0.875-0.8750005,0.875s-0.875-0.3917508-0.875-0.875C6.7747912,4.4934092,7.1662192,4.1019812,7.64924,4.1014299z
	 M12.7046003,7.9874802c1.1045694,0,2-0.8954306,2-2s-0.8954306-2-2-2s-2,0.8954306-2,2S11.6000309,7.9874802,12.7046003,7.9874802z
	 M12.7046003,5.1124802c0.4832487,0,0.875,0.3917508,0.875,0.875s-0.3917513,0.875-0.875,0.875s-0.875-0.3917508-0.875-0.875l0,0
	C11.8301516,5.5044594,12.2215796,5.1130314,12.7046003,5.1124802z M5.6842799,10.6808395
	C5.6818833,9.5955534,6.5597391,8.7138119,7.6450257,8.7114153s1.9670281,0.8754587,1.9694247,1.9607458
	c0.0000067,0.0028925,0.0000067,0.0057859,0,0.0086784v2.5457096l1.0611601,1.0353403h0.0638399v-2.5703096
	c-0.0019875-1.0831718,0.874485-1.9628677,1.9576578-1.9648561c0.8629875-0.0015841,1.6256056,0.5611191,1.8786516,1.3861761
	l0.8612003-0.84027c-0.7748766-1.5105362-2.6275692-2.1069059-4.1381054-1.3320293
	c-0.2925215,0.1500578-0.5590763,0.3460712-0.789505,0.5805693C9.8704576,7.9402099,8.0709124,7.1765127,6.4899526,7.8154044
	c-1.167789,0.4719224-1.9318371,1.6058955-1.9306726,2.8654351v3.5504103l1.125-1.0983305V10.6808395z M15.7399998,8.5430002v1.125
	h1.9659996l-6.697999,6.5349989L7.5970001,12.875l-3.848,3.757l-1.595,1.5939999l0.7949998,0.7950001l4.6480002-4.5740004
	l3.4110003,3.3289995l7.4779997-7.296999v1.9169998h1.125V8.5430002H15.7399998z"/>
</svg>
