<?xml version="1.0" encoding="utf-8"?>
<!-- Generator: Adobe Illustrator 24.0.1, SVG Export Plug-In . SVG Version: 6.00 Build 0)  -->
<svg version="1.1" id="Ebene_1" xmlns="http://www.w3.org/2000/svg" xmlns:xlink="http://www.w3.org/1999/xlink" x="0px" y="0px"
	 viewBox="0 0 21.6 21.6" style="enable-background:new 0 0 21.6 21.6;" xml:space="preserve">
<path d="M9.7,10.8h3.4V7.4H9.7V10.8z M10.8,8.6h1.1v1.1h-1.1V8.6z M9.7,15.3h3.4v-3.4H9.7V15.3z M10.8,13.1h1.1v1.1h-1.1V13.1z
	 M11.9,2.9h-1.1V1.8H6.3v1.1H5.2V4H1.8v15.7h13.5V4.1h-3.4V2.9z M6.3,4.1h1.1V2.9h2.2V4h1.1v1.1H6.3V4.1z M14.2,5.2v13.5H2.9V5.2
	h2.3v1.1H12V5.2H14.2z M16.4,4.1v9l1.6,3.2l1.7-3.2v-9C19.7,4.1,16.4,4.1,16.4,4.1z M18.7,12.8l-0.6,1.1l-0.5-1.1V5.2h1.1V12.8z
	 M4.1,7.4h4.5v1.1H4.1V7.4z M4.1,11.9h4.5V13H4.1V11.9z"/>
</svg>
