<svg id="Layer_1" data-name="Layer 1" xmlns="http://www.w3.org/2000/svg" viewBox="0 0 21.6 21.6">
  <path d="M4.63944,7.59712,1.8,4.75767,4.63944,1.91823l.85362.85257L4.10947,4.15438H8.936V5.361H4.10947L5.49306,6.74455Zm10.58194,12.0438C18.68088,19.23873,19.8,15.80961,19.8,14.21131V11.91546a2.27589,2.27589,0,0,0-2.27019-2.27281l-2.984-.0021L13.90064,4.7671a1.50535,1.50535,0,0,0-2.9976.19795l-.00419,8.18946c-.00209.14139-.044.1393-.22833.11521l-.76144-.76145a2.7699,2.7699,0,0,0-3.82922,0l-.42628.42629,5.11278,5.11225a5.21057,5.21057,0,0,0,3.79256,1.635A5.44,5.44,0,0,0,15.22138,19.64092ZM9.056,13.36084l.77925.77925a1.35054,1.35054,0,0,0,.91436.36239,1.32117,1.32117,0,0,0,.9704-.37391,1.42021,1.42021,0,0,0,.38543-.97825l.00419-8.18527c0-.31316.55249-.35087.59491-.03875l.78344,5.92083,4.04079.0021a1.06754,1.06754,0,0,1,1.06466,1.06623v2.29585c0,.80753-.596,3.89206-3.516,4.23141a4.018,4.018,0,0,1-3.44745-1.238L7.44879,13.02358A1.52947,1.52947,0,0,1,9.056,13.36084Z"/>
</svg>
