<svg id="Layer_1" data-name="Layer 1" xmlns="http://www.w3.org/2000/svg" viewBox="0 0 21.6 21.6"><path d="M19.54,4.68,16.66,7.55l-.86-.86,1.4-1.4H12.31V4.07H17.2L15.8,2.66l.86-.86Zm-3.15,7.25v2.33c0,1.62-1.13,5.09-4.63,5.5a5.17,5.17,0,0,1-.68,0,5.25,5.25,0,0,1-3.84-1.66L2.06,13l.43-.43a2.8,2.8,0,0,1,3.88,0l.77.77c.19,0,.23,0,.24-.11V4.89a1.53,1.53,0,0,1,3-.2l.65,4.94h3A2.3,2.3,0,0,1,16.39,11.93Zm-1.22,0a1.08,1.08,0,0,0-1.08-1.08H10l-.79-6c-.05-.32-.61-.28-.61,0v8.29a1.47,1.47,0,0,1-.39,1,1.4,1.4,0,0,1-1.91,0l-.79-.79a1.57,1.57,0,0,0-1.63-.34l4.24,4.24a4,4,0,0,0,3.49,1.25c3-.34,3.56-3.47,3.56-4.28Z"/></svg>