<svg id="Layer_1" data-name="Layer 1" xmlns="http://www.w3.org/2000/svg" viewBox="0 0 21.6 21.6"><path d="M15.65,10H12.58L12,5.18A1.48,1.48,0,0,0,9,5.38v8c0,.14,0,.14-.23.12L8,12.77a2.72,2.72,0,0,0-3.75,0l-.42.42,5,5a5.14,5.14,0,0,0,3.72,1.6,4.58,4.58,0,0,0,.64,0c3.4-.39,4.49-3.75,4.49-5.32V12.05A2.09,2.09,0,0,0,15.65,10Zm.9,4.48c0,.79-.58,3.81-3.45,4.15a3.93,3.93,0,0,1-3.37-1.22l-4.1-4.1a1.5,1.5,0,0,1,1.57.34l.77.76a1.3,1.3,0,0,0,.89.35,1.26,1.26,0,0,0,1-.36,1.38,1.38,0,0,0,.38-1v-8c0-.31.54-.35.58,0l.77,5.8h4.1a.9.9,0,0,1,.9.91Zm-8-7.18a2.53,2.53,0,0,1-.66-1.72,2.56,2.56,0,0,1,5.12,0,2.46,2.46,0,0,1-.14.86L14,6.79A3.74,3.74,0,1,0,7.65,8.05Z"/></svg>