<svg id="Ebene_1" data-name="Ebene 1" xmlns="http://www.w3.org/2000/svg" width="21.6" height="21.6" viewBox="0 0 21.6 21.6"><title>talking-blk</title><path d="M9.043,11.801A3.3145,3.3145,0,1,0,5.729,8.486,3.31392,3.31392,0,0,0,9.043,11.801Zm0-5.504a2.1895,2.1895,0,1,1-2.19,2.189A2.1915,2.1915,0,0,1,9.043,6.297Zm-6.85,9.116v3.282H15.45V15.413a9.80492,9.80492,0,0,0-13.257,0ZM14.325,17.57H3.318V15.931a8.66026,8.66026,0,0,1,11.008,0V17.57Zm.397-12.325a4.70592,4.70592,0,0,1,0,6.648l-.795-.795a3.58029,3.58029,0,0,0,0-5.057Zm2.342,8.989-.795-.795a6.89441,6.89441,0,0,0,0-9.739l.795-.795A8.01882,8.01882,0,0,1,17.064,14.234Z"/></svg>