<svg id="Layer_1" data-name="Layer 1" xmlns="http://www.w3.org/2000/svg" viewBox="0 0 21.6 21.6"><path d="M17.65,10.26A6.87,6.87,0,0,0,11.36,3.9V1.8H10.27V3.9A6.87,6.87,0,0,0,4,10.26H1.8v1.08H4a6.88,6.88,0,0,0,6.29,6.24V19.8h1.09V17.58a6.88,6.88,0,0,0,6.29-6.24H19.8V10.26ZM10.27,5V6.8a4,4,0,0,0-3.4,3.46H5.06A5.78,5.78,0,0,1,10.27,5Zm0,11.5a5.78,5.78,0,0,1-5.2-5.15H6.88a4,4,0,0,0,3.39,3.34Zm0-4.36V13.6A2.91,2.91,0,0,1,8,11.34h1.5V10.26H8a2.93,2.93,0,0,1,2.32-2.38V9.47h1.09V7.88a2.92,2.92,0,0,1,2.32,2.38H12.13v1.08h1.53a2.91,2.91,0,0,1-2.3,2.26V12.13Zm1.09,4.36V14.68a4,4,0,0,0,3.39-3.34h1.81A5.78,5.78,0,0,1,11.36,16.49Zm3.4-6.23a4,4,0,0,0-3.4-3.46V5a5.78,5.78,0,0,1,5.21,5.27Z"/></svg>