<svg id="Ebene_1" data-name="Ebene 1" xmlns="http://www.w3.org/2000/svg" viewBox="0 0 21.6 21.6"><path d="M10.906,10.428A1.99649,1.99649,0,1,0,8.91,8.432,1.9958,1.9958,0,0,0,10.906,10.428Zm0-2.868a.87149.87149,0,1,1-.871.872A.8719.8719,0,0,1,10.906,7.56ZM7.194,12.426v1.838H14.619V12.426a5.49162,5.49162,0,0,0-7.425,0Zm6.299.714H8.319v-.18a4.34538,4.34538,0,0,1,5.174,0ZM18.68,10.8a7.84874,7.84874,0,0,0-.389-2.435,1.68031,1.68031,0,0,0-1.648-2.829,7.84937,7.84937,0,0,0-4.202-2.427,1.68331,1.68331,0,0,0-3.283.003A7.84355,7.84355,0,0,0,4.964,5.539,1.668,1.668,0,0,0,3.006,6.3a1.68575,1.68575,0,0,0,.311,2.074,7.79687,7.79687,0,0,0,0,4.852A1.68586,1.68586,0,0,0,3.006,15.3a1.66826,1.66826,0,0,0,1.958.761,7.84393,7.84393,0,0,0,4.194,2.427,1.68331,1.68331,0,0,0,3.283.003,7.84327,7.84327,0,0,0,4.202-2.427,1.68031,1.68031,0,0,0,1.648-2.829A7.87978,7.87978,0,0,0,18.68,10.8ZM10.8,2.925a.5625.5625,0,1,1-.562.563A.56251.56251,0,0,1,10.8,2.925ZM3.98,6.862a.56226.56226,0,1,1,.206.768A.56068.56068,0,0,1,3.98,6.862Zm.768,8.082a.56226.56226,0,1,1,.206-.768A.56227.56227,0,0,1,4.748,14.944ZM10.8,18.675a.5625.5625,0,1,1,.562-.563A.56251.56251,0,0,1,10.8,18.675Zm4.936-3.282a6.74116,6.74116,0,0,1-3.427,1.978,1.6765,1.6765,0,0,0-3.017-.002,6.73621,6.73621,0,0,1-3.425-1.983,1.68159,1.68159,0,0,0,.061-1.773,1.65492,1.65492,0,0,0-1.571-.83,6.6612,6.6612,0,0,1,0-3.966,1.655,1.655,0,0,0,1.571-.83,1.67936,1.67936,0,0,0-.06-1.773A6.7401,6.7401,0,0,1,9.293,4.231,1.6757,1.6757,0,0,0,12.309,4.229a6.73385,6.73385,0,0,1,3.427,1.978,1.6834,1.6834,0,0,0-.065,1.78,1.65522,1.65522,0,0,0,1.58106.829,6.64767,6.64767,0,0,1,0,3.968,1.65441,1.65441,0,0,0-1.58106.829A1.6834,1.6834,0,0,0,15.736,15.393Zm1.884-.655a.56226.56226,0,1,1-.206-.768A.56051.56051,0,0,1,17.62,14.738ZM17.414,7.63a.56226.56226,0,1,1,.206-.768A.56027.56027,0,0,1,17.414,7.63Z"/></svg>