<svg id="Layer_1" data-name="Layer 1" xmlns="http://www.w3.org/2000/svg" viewBox="0 0 21.6 21.6"><path d="M12.15,4.31a1.9,1.9,0,0,0-2.7,0L9,3.82H9a2.62,2.62,0,0,1,3.7,0Zm-2.31.4.49.49a.68.68,0,0,1,.94,0l.49-.49A1.38,1.38,0,0,0,9.84,4.71Zm1-2.21A3.14,3.14,0,0,1,13,3.43l.49-.5a3.86,3.86,0,0,0-5.46,0l.49.5A3.14,3.14,0,0,1,10.8,2.5ZM6.36,11.81a.89.89,0,1,0,.89.89h0A.89.89,0,0,0,6.36,11.81Zm8.88,0a.89.89,0,1,0,.89.89.89.89,0,0,0-.89-.89Zm3.55,0a.89.89,0,0,1-.89.89h0l0,.17V19.8H14.35V17.72H7.25V19.8H3.7V12.87l0-.17h0a.89.89,0,1,1,0-1.78h.44L5,7.3A2.25,2.25,0,0,1,7.17,5.59h7.26A2.25,2.25,0,0,1,16.65,7.3l.81,3.62h.44A.89.89,0,0,1,18.79,11.81ZM6.25,17.72H4.7V18.8H6.25V17.72Zm10.65,0H15.35V18.8H16.9Zm0-4.74L15.67,7.52a1.26,1.26,0,0,0-1.24-.93H7.17a1.26,1.26,0,0,0-1.24.93L4.7,13v3.74H16.9Z"/></svg>