<svg id="Layer_1" data-name="Layer 1" xmlns="http://www.w3.org/2000/svg" viewBox="0 0 21.6 21.6"><path d="M4.68,14.23H2.33V11.81H4.68ZM8.3,11.81H6v2.42H8.3Zm3.57,0H9.52v2.42h2.35Zm3.62,0H13.14v2.42h2.35Zm1.27,2.42h2.35V11.77H16.76ZM3.77,18H6.13V15.53H3.77Zm3.62,0H9.75V15.53H7.39Zm3.58,0h2.35V15.49H11Zm3.62,0h2.35V15.49H14.59ZM19.75,6.19l-.44,4.35H14.18l-.77-2.19A14.86,14.86,0,0,0,10.72,8a19.36,19.36,0,0,0-2.49.28l-.75,2.27-5.11-.05L1.89,7l0-.37s4.33-3.08,9-3A20.42,20.42,0,0,1,19.75,6.19Zm-1.12.57A18.17,18.17,0,0,0,10.81,4.7,15.43,15.43,0,0,0,3,7.13L3.29,9.5l3.43,0,.71-2.13.3-.06a20.87,20.87,0,0,1,3-.36,17.59,17.59,0,0,1,3.22.38l.29.06.73,2.05h3.43Z"/></svg>