<svg id="Layer_1" data-name="Layer 1" xmlns="http://www.w3.org/2000/svg" viewBox="0 0 21.6 21.6">
  <path d="M13.41021,5.47738v.00044L11.90572,3.97334l-3.05021,3.048L7.01481,5.17567l.325-.325L4.28961,1.8,1.807,4.28267,4.85716,7.33332l.33757-.33756L7.03453,8.8405,3.97312,11.89922,5.48163,13.4064,5.47805,13.41l6.39,6.39,7.925-7.93216Zm-8.553.39539L3.2675,4.28267,4.28961,3.26055,5.87927,4.85066ZM5.925,6.26548,6.28453,5.906,8.12479,7.75114l-.35953.35953Zm-.49044,5.63374L7.76391,9.57167l.00538.00538L9.58938,7.757l-.00449-.00448,2.32083-2.31859.77376.77421L6.20832,12.673ZM6.9386,13.41l6.47161-6.47116,4.92319,4.929-.99931,1.0001-1.74158-1.74158-.72982.72983L16.6046,13.5981l-1.08028,1.08118-3.12457-3.12614-.72983.72982,3.12485,3.12648-1.08589,1.08673L11.48074,14.268l-.73028.72983,2.22888,2.22848-1.11127,1.11222Z"/>
</svg>
