<svg id="Ebene_1" data-name="Ebene 1" xmlns="http://www.w3.org/2000/svg" viewBox="0 0 21.6 21.6">
  <path d="M10.8,1.8a9,9,0,1,0,9,9A8.99943,8.99943,0,0,0,10.8,1.8Zm0,16.875A7.875,7.875,0,1,1,18.675,10.8,7.88432,7.88432,0,0,1,10.8,18.675ZM14.544,5.919l-.631.839A5.0707,5.0707,0,0,0,10.8,5.676a5.12367,5.12367,0,0,0-3.623,8.747l.001.001-.744.74395-.001-.001a6.16146,6.16146,0,0,1,8.111-9.248Zm2.432,4.881a6.15735,6.15735,0,0,1-1.823,4.379l-.746-.746a5.06783,5.06783,0,0,0,.359-6.838l.808-.668A6.11679,6.11679,0,0,1,16.97605,10.8ZM7.95371,8.95214h2.58838v.63624A4.30762,4.30762,0,0,0,9.30674,12.46H8.43418A4.17978,4.17978,0,0,1,9.73106,9.63574c-.36432.00641-1.32373.02948-1.77735.019ZM13.776,11.77148V12.46H11.07383a1.34716,1.34716,0,0,1,.37256-.97608c.36334-.509,1.468-.85687,1.4859-1.457a.43374.43374,0,0,0-.45807-.47613c-.38214-.00354-.56128.27972-.55664.66015h-.78711a1.434,1.434,0,0,1,.22168-.82519c.56506-.89063,2.52112-.567,2.42377.61774.05456.884-1.13068,1.25878-1.585,1.75433C12.1627,11.79449,13.77665,11.76,13.776,11.77148Z"/>
</svg>
