<?xml version="1.0" encoding="utf-8"?>
<!-- Generator: Adobe Illustrator 27.5.0, SVG Export Plug-In . SVG Version: 6.00 Build 0)  -->
<svg version="1.1" id="Vector" xmlns="http://www.w3.org/2000/svg" xmlns:xlink="http://www.w3.org/1999/xlink" x="0px" y="0px"
	 viewBox="0 0 21.6 21.6" style="enable-background:new 0 0 21.6 21.6;" xml:space="preserve">
<path d="M13.86152,2.904v10.30597h-0.0025v4.74402c0,0.72504-0.409,1.36401-1.07001,1.66998
	c-0.255,0.11804-0.52399,0.17603-0.789,0.17603c-0.42999,0-0.85199-0.15198-1.19904-0.44598
	c-0.41296-0.35101-0.64899-0.86102-0.64899-1.40002v-4.44H4.589c-1.12903,0-2.047-0.91199-2.047-2.034v-0.31h4.52002v-1.10797H2.542
	V8.68098h4.52002V7.57301H2.542v-1.203h4.52002V5.261H2.542V4.938c0-1.12201,0.91797-2.034,2.047-2.034H13.86152z
	 M14.98652,13.20997h4.07049V1.8h-4.07049V13.20997z"/>
</svg>
