<?xml version="1.0" encoding="utf-8"?>
<!-- Generator: Adobe Illustrator 27.5.0, SVG Export Plug-In . SVG Version: 6.00 Build 0)  -->
<svg version="1.1" id="Ebene_1" xmlns="http://www.w3.org/2000/svg" xmlns:xlink="http://www.w3.org/1999/xlink" x="0px" y="0px"
	 viewBox="0 0 21.6 21.6" style="enable-background:new 0 0 21.6 21.6;" xml:space="preserve">
<path d="M19.058,1.8h-6.306v1.104H4.589c-1.129,0-2.047,0.912-2.047,2.034v6.542c0,1.122,0.918,2.034,2.047,2.034h5.563v4.44
	c0,0.539,0.236,1.049,0.649,1.4C11.148,19.648,11.57,19.8,12,19.8c0.265,0,0.534-0.058,0.789-0.176
	c0.661-0.306,1.07-0.945,1.07-1.67V13.21h5.198V1.8H19.058z M12.752,17.955c0,0.291-0.161,0.539-0.428,0.663
	c-0.275,0.127-0.576,0.086-0.804-0.108c-0.164-0.139-0.259-0.342-0.259-0.555v-5.548H4.589c-0.517,0-0.939-0.416-0.939-0.926V11.17
	h3.412v-1.108H3.65V8.681h3.412V7.573H3.65V6.37h3.412V5.261H3.65V4.938c0-0.51,0.421-0.926,0.939-0.926h8.162
	C12.752,9.026,12.752,12.919,12.752,17.955z M17.95,12.102h-4.09c0-0.203,0-9.341,0-9.194h4.09V12.102z"/>
</svg>
