<svg id="Layer_1" data-name="Layer 1" xmlns="http://www.w3.org/2000/svg" viewBox="0 0 21.6 21.6">
  <path d="M19.8,9.24614V5.4965l-.007-.007H8.8882l.00244.00947a.84208.84208,0,1,1-1.68415.0014V5.499L7.209,5.48954H1.8v3.7566a1.5485,1.5485,0,0,1,1.54565,1.55133V10.8A1.55006,1.55006,0,0,1,1.8,12.3538v3.75666H7.209l-.00244-.01423a.84207.84207,0,0,1,1.68414,0l-.00244.01423H19.8V12.3538a1.55385,1.55385,0,0,1,0-3.10766Zm-1.116-.87a2.67264,2.67264,0,0,0,0,4.84772v1.77063H9.667a1.95577,1.95577,0,0,0-3.23663,0H2.916V13.22361a2.673,2.673,0,0,0,0-4.84729V6.60551H6.43251a1.95464,1.95464,0,0,0,3.23211,0H18.684ZM8.52028,8.9174v.00006a.558.558,0,1,1,0-.00006Zm0,1.882v.00006a.558.558,0,1,1,0-.00006Zm0,1.882v.00006a.558.558,0,1,1,0-.00006Z"/>
</svg>
