<svg id="Layer_1" data-name="Layer 1" xmlns="http://www.w3.org/2000/svg" viewBox="0 0 21.6 21.6">
  <path d="M17.16277,17.16278A8.99871,8.99871,0,0,1,1.8,10.79988H2.925A7.87373,7.87373,0,1,0,10.79986,2.925V5.98345h-1.125V1.8h1.125a8.99866,8.99866,0,0,1,6.36291,15.36277ZM12.796,10.67967a2.25285,2.25285,0,1,1-4.5057,0c0-.01364.00375-.02619.004-.03973L2.925,9.13044,3.22948,8.052l5.3683,1.5106A2.24594,2.24594,0,0,1,12.796,10.67967Zm-1.05,0a1.20285,1.20285,0,1,0-1.20289,1.20289A1.20421,1.20421,0,0,0,11.746,10.67967Z"/>
</svg>
