<?xml version="1.0" encoding="UTF-8"?><svg id="Layer_2" xmlns="http://www.w3.org/2000/svg" viewBox="0 0 38 38"><path d="m22.61318,30.33645l-1.65653-1.23948c.96033-2.64485,1.4507-6.04217,1.4507-9.33792,0-6.9069-2.1454-14.24094-6.12978-14.24094,0,0-7.13638-.00397-7.14779-.00397-3.38539,0-6.12978,6.37569-6.12978,14.24094,0,7.86227,2.74251,14.23597,6.12616,14.24045l12.25955.00447c1.12377,0,2.04326-.91564,2.04326-2.03442v-.00273c0-.63973-.30217-1.24221-.81579-1.62639ZM5.04326,19.75508c0-7.56625,2.64131-12.19833,4.0829-12.20578v.00323h.02451c1.44508.04247,4.06563,4.66511,4.06563,12.20255,0,7.57221-2.64586,12.20652-4.08652,12.20652s-4.08652-4.63432-4.08652-12.20652Zm7.22916,12.21049c1.7871-2.48814,2.98713-7.01791,2.98713-12.21049,0-5.18713-1.1976-9.71267-2.98146-12.20255h3.99947c1.70617,0,4.08652,4.63854,4.08652,12.20652,0,3.35684-.46991,6.14399-1.13399,8.19877-.25541.75273-.92454,1.61224-.92454,1.61224l3.08017,2.39551h-9.11329Zm-.07801-12.21074c0-3.54434-.9478-7.12047-3.06489-7.12047s-3.06489,3.57613-3.06489,7.12047.9478,7.12047,3.06489,7.12047,3.06489-3.57613,3.06489-7.12047Zm-3.06489,4.99367c-.37762-.47781-1.02163-2.18243-1.02163-4.99367s.64401-4.51586,1.02163-4.99367c.37762.47682,1.02163,2.18144,1.02163,4.99367s-.64401,4.51685-1.02163,4.99367Zm19.64242-11.89361l2.97709,5.92942-7.71011-3.41123.83007-1.85959,2.50618,1.1086-1.10943-2.20826,1.94499-1.82979-2.61543.57913-.21101-2.10098-1.1638,1.40462-1.57634-1.29535,4.28556-5.17148.46941,4.67976,7.60086-1.67979-6.22805,5.85492Z"/></svg>