<svg id="Ebene_1" data-name="Ebene 1" xmlns="http://www.w3.org/2000/svg" viewBox="0 0 21.6 21.6"><path d="M15.4,7,18,6.14l1.78-2.91-1.4-1.4L15.45,3.61,14.6,6.22,8,12.79,6.84,11.6l-5,5L5,19.78l5-5-1.19-1.2Zm1-2.63,1.79-1.22.27.28L17.2,5.24l-1.26.42ZM5,18.19,3.43,16.6l3.41-3.41,1.59,1.59ZM3.12,9.48A4.49,4.49,0,0,1,2.43,4L5.5,7.09,7.09,5.5,4,2.43a4.62,4.62,0,0,1,2.3-.62A4.43,4.43,0,0,1,9.48,3.12a4.48,4.48,0,0,1,1.15,4.33l.66.66-.79.8L9.38,7.79a3.7,3.7,0,0,0-.7-3.88,3.3,3.3,0,0,0-2.56-1L8.68,5.5c.11-.1-3,3-3.18,3.19C5.67,8.85,3,6.22,2.94,6.12a3.36,3.36,0,0,0,1,2.57c1.43,1.42,2.79.94,3.88.69L8.91,10.5l-.8.79-.66-.66a4.71,4.71,0,0,1-1.18.15A4.44,4.44,0,0,1,3.12,9.48Zm16.67,7.13-3.18,3.18-6.29-6.28.8-.8,5.49,5.49,1.59-1.59-5.49-5.49.8-.79Z"/></svg>