<svg id="Layer_1" data-name="Layer 1" xmlns="http://www.w3.org/2000/svg" viewBox="0 0 21.6 21.6"><path d="M16.31,11.12V8.42H15.2v2.7H1.8v6.75h18V11.12Zm2.37,5.64H2.92V12.24H18.68Zm-3.6-2.26a.68.68,0,1,1,.68.67A.67.67,0,0,1,15.08,14.5Zm-4.7.56H4.58V13.94h5.8Zm6.86-8.64a2.09,2.09,0,0,0-3,0l-.51-.51h0a2.81,2.81,0,0,1,4,0l-.51.51Zm-2.51.45a1.45,1.45,0,0,1,2.06,0l-.51.51a.75.75,0,0,0-1,0l-.51-.51ZM13.32,5.46,12.81,5h0a4.17,4.17,0,0,1,5.9,0l-.51.51a3.45,3.45,0,0,0-2.44-1A3.42,3.42,0,0,0,13.32,5.46Z"/></svg>