<?xml version="1.0" encoding="UTF-8"?><svg id="Layer_2" xmlns="http://www.w3.org/2000/svg" viewBox="0 0 38 38"><path d="m35,30.0293l-.02-9.05029-2.2483-6.77002c-.43967-1.31982-1.67872-2.21973-3.06768-2.20996l-6.70488.02002.02696,10.98096h-2.99889v-6.5c0-.10205-.02147-.19824-.03007-.29834l.02915.01562-.03196-.04346c-.12393-1.32007-.9646-2.42847-2.14248-2.91089l-6.81784-9.26294H3.9993l1.95823,3.04858v8.10425l-1.19929-1.59961-1.5984,1.19922,4.79617,6.40039v-10.99316l5.03647,7.84033v5H3v7h3.21003c.65307,2.30762,2.76866,4,5.2836,4s4.63053-1.69238,5.2836-4h4.54167c.65307,2.30762,2.76866,4,5.2836,4,2.50134,0,4.60857-1.67383,5.27384-3.96191l3.12367-.00879Zm-13.86816-2.0293h-4.16756c-.10228-1.13403-.54591-2.16968-1.23112-3h6.62981c-.68521.83032-1.12884,1.86597-1.23112,3ZM7.65986,6h2.32411l5.31562,7.22192c-.83396.30347-1.51216.91187-1.91219,1.69434L7.65986,6Zm7.33112,10.5c0-.82715.6724-1.5,1.49887-1.5s1.49887.67285,1.49887,1.5v6.5h-2.99773v-6.5Zm-9.99249,8.5h2.25562c-.68521.83032-1.12884,1.86597-1.23112,3h-1.02449v-3Zm6.49514,7c-1.92847,0-3.49735-1.56982-3.49735-3.5,0-1.92969,1.56888-3.5,3.49735-3.5s3.49735,1.57031,3.49735,3.5c0,1.93018-1.56894,3.5-3.49735,3.5Zm15.10886,0c-1.92841,0-3.49735-1.56982-3.49735-3.5,0-1.92969,1.56894-3.5,3.49735-3.5s3.49735,1.57031,3.49735,3.5c0,1.93018-1.56888,3.5-3.49735,3.5Zm0-9c-.55957,0-1.09908.08496-1.60779.24048l-.02714-9.2312,4.70646-.01025c.52963,0,.98924.33008,1.15916.83984l2.14834,6.47021.02,6.72021h-.92691c-.23914-2.81689-2.59569-5.0293-5.47211-5.0293Z"/></svg>