<?xml version="1.0" encoding="utf-8"?>
<!-- Generator: Adobe Illustrator 24.0.1, SVG Export Plug-In . SVG Version: 6.00 Build 0)  -->
<svg version="1.1" id="Layer_1" xmlns="http://www.w3.org/2000/svg" xmlns:xlink="http://www.w3.org/1999/xlink" x="0px" y="0px"
	 viewBox="0 0 21.6 21.6" style="enable-background:new 0 0 21.6 21.6;" xml:space="preserve">
<path d="M6.8,10.8c0,0.6-0.4,1-1,1s-1-0.4-1-1s0.4-1,1-1S6.8,10.2,6.8,10.8z M14.8,10.8c0,0.6,0.4,1,1,1c0.6,0,1-0.4,1-1s-0.4-1-1-1
	S14.8,10.2,14.8,10.8z M19.8,9.8c0,0.5-0.4,1-0.9,1h-0.1v8h-4v-2.3h-8v2.3h-4v-8c-0.5,0-1-0.4-1-0.9V9.8c0-0.5,0.4-1,0.9-1h0.1h0.5
	l0.9-4.1c0.3-1.1,1.3-1.9,2.5-1.9h8.2c1.2,0,2.2,0.8,2.5,1.9l0.9,4.1h0.5c0.5,0,1,0.4,1,0.9C19.8,9.7,19.8,9.8,19.8,9.8z M5.7,16.5
	H3.9v1.2h1.8V16.5z M17.7,16.5h-1.8v1.2h1.8V16.5z M17.7,11.1l-1.4-6.2c-0.2-0.6-0.8-1.1-1.4-1H6.7c-0.6-0.1-1.2,0.4-1.4,1l-1.4,6.2
	v4.2h13.8V11.1z"/>
</svg>
