<svg id="Layer_1" data-name="Layer 1" xmlns="http://www.w3.org/2000/svg" viewBox="0 0 21.6 21.6"><path d="M10.8,8.22A2.15,2.15,0,1,0,8.66,6.08h0A2.15,2.15,0,0,0,10.8,8.22ZM9.65,6.08A1.15,1.15,0,1,1,10.8,7.23,1.16,1.16,0,0,1,9.65,6.08ZM10.8,17.67a2.15,2.15,0,1,0-2.14-2.15h0A2.15,2.15,0,0,0,10.8,17.67ZM9.65,15.52a1.15,1.15,0,1,1,1.15,1.16,1.15,1.15,0,0,1-1.15-1.16Zm1.15-2.58A2.14,2.14,0,1,0,8.66,10.8h0A2.14,2.14,0,0,0,10.8,12.94ZM9.65,10.8A1.15,1.15,0,1,1,10.8,12,1.14,1.14,0,0,1,9.65,10.8Zm7.5-2H15.74V6.52A2.78,2.78,0,0,0,17.15,4.1H15.74V1.8H5.86V4.1H4.45A2.78,2.78,0,0,0,5.86,6.52V8.79H4.45a2.81,2.81,0,0,0,1.41,2.43v2.3H4.45a2.79,2.79,0,0,0,1.41,2.42V19.8h9.88V15.94a2.79,2.79,0,0,0,1.41-2.42H15.74v-2.3A2.81,2.81,0,0,0,17.15,8.79Zm-2.52,9.89H7V2.92h7.66Z"/></svg>