<?xml version="1.0" encoding="UTF-8"?><svg id="Layer_2" xmlns="http://www.w3.org/2000/svg" viewBox="0 0 38 38"><path d="m7,9v3.99995H3v10.99987h2.34973c-.21777.45629-.34973.96068-.34973,1.49998,0,1.93284,1.56702,3.49996,3.5,3.49996s3.5-1.56712,3.5-3.49996c0-.5393-.13196-1.04369-.34973-1.49998h2.69946c-.21777.45629-.34973.96068-.34973,1.49998,0,1.93284,1.56702,3.49996,3.5,3.49996s3.5-1.56712,3.5-3.49996c0-.5393-.13196-1.04369-.34973-1.49998h6.34985v5.00018h2v-5.00018h1.99988v-3.99995h4v-10.99987H7Zm-2,5.99993h24v6.99991H5v-6.99991Zm5,10.49987c0,.82714-.67291,1.49998-1.5,1.49998s-1.5-.67284-1.5-1.49998.67291-1.49998,1.5-1.49998,1.5.67284,1.5,1.49998Zm9,0c0,.82714-.67291,1.49998-1.5,1.49998s-1.5-.67284-1.5-1.49998.67291-1.49998,1.5-1.49998,1.5.67284,1.5,1.49998Zm14-7.49991h-2v-4.99994H9v-1.99998h24v6.99991Z"/></svg>