<?xml version="1.0" encoding="UTF-8"?><svg id="Layer_2" xmlns="http://www.w3.org/2000/svg" viewBox="0 0 38 38"><path d="m26.50001,9.9992c0-1.92947-1.57031-3.4996-3.5-3.4996s-3.5,1.57013-3.5,3.4996,1.57031,3.4996,3.5,3.4996,3.5-1.57013,3.5-3.4996Zm-5.00001,0c0-.82705.67285-1.49983,1.5-1.49983s1.5.67277,1.5,1.49983-.67285,1.49983-1.5,1.49983-1.5-.67277-1.5-1.49983Zm13.50002-6.9992v15.99817h-4v-1.99977h2V4.99977H4.99998v11.99863h10.00001v1.99977H2.99998V3h32.00004Zm-12.00001,10.99874c2.96711,0,5.43116,2.16626,5.90961,4.99894h-2.0517c-.44739-1.72002-1.99976-2.99917-3.85791-2.99917s-3.41053,1.27915-3.85791,2.99917h-2.0517c.47846-2.83268,2.94251-4.99894,5.90961-4.99894Zm-10.50001,10.99874c0-1.92947-1.57031-3.4996-3.5-3.4996s-3.5,1.57013-3.5,3.4996,1.57031,3.4996,3.5,3.4996,3.5-1.57013,3.5-3.4996Zm-5.00001,0c0-.82705.67285-1.49983,1.5-1.49983s1.5.67277,1.5,1.49983-.67285,1.49983-1.5,1.49983-1.5-.67277-1.5-1.49983Zm8.00001,0c0,1.92947,1.57031,3.4996,3.5,3.4996s3.5-1.57013,3.5-3.4996-1.57031-3.4996-3.5-3.4996-3.5,1.57013-3.5,3.4996Zm3.5-1.49983c.82715,0,1.5.67277,1.5,1.49983s-.67285,1.49983-1.5,1.49983-1.5-.67277-1.5-1.49983.67285-1.49983,1.5-1.49983Zm6.50001,1.49983c0,1.92947,1.57031,3.4996,3.5,3.4996s3.5-1.57013,3.5-3.4996-1.57031-3.4996-3.5-3.4996-3.5,1.57013-3.5,3.4996Zm3.5-1.49983c.82715,0,1.5.67277,1.5,1.49983s-.67285,1.49983-1.5,1.49983-1.5-.67277-1.5-1.49983.67285-1.49983,1.5-1.49983Zm6.00001,11.49868c0,.00122-.00018.00244-.00018.00366v-.00415h-1.99988c-.00024-2.20556-1.7945-3.99905-3.99994-3.99905s-3.9997,1.7935-3.99994,3.99905h-2.00012c-.00024-2.20556-1.7945-3.99905-3.99994-3.99905s-3.9997,1.7935-3.99994,3.99905h-2.00012c-.00024-2.20556-1.7945-3.99905-3.99994-3.99905s-3.9997,1.7935-3.99994,3.99905h-2.00006c.00024-3.30797,2.69153-5.99883,6.00001-5.99883,2.08582,0,3.9245,1.07068,5.00001,2.69012,1.0755-1.61944,2.91419-2.69012,5.00001-2.69012s3.9245,1.07068,5.00001,2.69012c1.0755-1.61944,2.91419-2.69012,5.00001-2.69012,3.3086,0,6.00001,2.6911,6.00001,5.99931Z"/></svg>