<?xml version="1.0" encoding="utf-8"?>
<!-- Generator: Adobe Illustrator 24.0.1, SVG Export Plug-In . SVG Version: 6.00 Build 0)  -->
<svg version="1.1" id="Layer_1" xmlns="http://www.w3.org/2000/svg" xmlns:xlink="http://www.w3.org/1999/xlink" x="0px" y="0px"
	 viewBox="0 0 21.6000004 21.6000004" style="enable-background:new 0 0 21.6000004 21.6000004;" xml:space="preserve">
<path d="M16.7133102,9.8199997l-1.5808496-2.9015999h-3.5419998V5.5976701
	c-0.0066061-0.5016356-0.1991272-0.9829731-0.5402803-1.3508c-0.3543558-0.3387048-0.8309231-0.5192215-1.3207502-0.5002799V4.86728
	c0.3736839-0.0347891,0.7048168,0.2399392,0.7396059,0.6136227c0.0036144,0.0388274,0.0038805,0.0778942,0.0007944,0.1167674
	v5.3730006l-0.0100002,3.6520805H9.5492897c-0.6429415-0.9142885-1.9035182-1.1377935-2.8216-0.5002804
	c-0.190846,0.1407967-0.3594837,0.3094339-0.5002799,0.5002804H5.487c-0.6492939-0.914547-1.917037-1.1295776-2.831584-0.4802837
	s-1.1295772,1.917038-0.4802835,2.8315849s1.9170372,1.1295757,2.8315842,0.4802837
	c0.000011-0.0000095,0.0000224-0.0000172,0.0000334-0.0000248c0.532115-0.3863487,0.8480392-1.003334,0.8504601-1.6609097
	v-0.0500002h0.0100002c0,0.0200005-0.0100002,0.0299997-0.0100002,0.0500002
	c0.0024929,1.1217709,0.9138885,2.0291233,2.0356588,2.0266304c1.118247-0.0024834,2.0241461-0.9083843,2.0266314-2.0266304
	v-0.0500002h4.7827206v0.0500002c0.0005474,1.1217785,0.9103727,2.0307159,2.0321522,2.0301685
	c1.1171017-0.0005455,2.0240917-0.9030838,2.030138-2.0201683v-0.0600004h1.0405693V9.8199997H16.7133102z M3.8260901,16.7039108
	c-0.5028663,0.0000172-0.9105337-0.4076233-0.9105504-0.91049c-0.0000167-0.5028658,0.4076235-0.910533,0.9104898-0.9105501
	c0.5028665-0.0000162,0.9105337,0.4076233,0.9105504,0.91049c0,0.0000229,0,0.0000467,0,0.0000696
	C4.7347374,16.2955132,4.3281732,16.7020741,3.8260901,16.7039108z M7.8883801,16.7039108
	c-0.5028663,0.0000172-0.9105334-0.4076233-0.9105501-0.91049s0.4076238-0.9105339,0.91049-0.9105501
	s0.9105339,0.4076242,0.9105501,0.91049c0,0.0000229,0,0.0000467,0,0.0000696
	C8.7970276,16.2955132,8.3904629,16.7020741,7.8883801,16.7039108z M16.7333794,16.7039108
	c-0.5028667-0.0000153-0.9105072-0.4076824-0.910491-0.9105492s0.4076834-0.9105072,0.9105501-0.910491
	c0.5028648,0.0000162,0.9105053,0.4076834,0.91049,0.9105492c0,0.0000038,0,0.0000067,0,0.0000105
	c-0.0018158,0.5021324-0.4084568,0.9087257-0.9105892,0.9104805H16.7333794z M18.6844902,14.6227808h-0.2901402
	c-0.647644-0.9173117-1.9162922-1.1359205-2.8336039-0.4882765c-0.1894093,0.1337271-0.3545494,0.2988672-0.4882765,0.4882765
	h-3.4820004V8.0390501h2.8816299l1.2607203,2.3213205l0.3201895,0.5802803h2.6314907L18.6844902,14.6227808z"/>
</svg>
