<svg id="Ebene_1" data-name="Ebene 1" xmlns="http://www.w3.org/2000/svg" viewBox="0 0 21.6 21.6"><path d="M15.13,1.8H3.8v18H15.13a2.68,2.68,0,0,0,2.67-2.67V4.47A2.68,2.68,0,0,0,15.13,1.8Zm1.55,15.33a1.56,1.56,0,0,1-1.55,1.55H4.93V2.93h10.2a1.55,1.55,0,0,1,1.55,1.54ZM10.8,4.2A4.8,4.8,0,1,0,15.6,9,4.8,4.8,0,0,0,10.8,4.2ZM6.89,9.42H8.64a7.61,7.61,0,0,0,.78,3.28A4,4,0,0,1,6.89,9.42Zm1.75-.84H6.89A3.93,3.93,0,0,1,9.42,5.31,7.53,7.53,0,0,0,8.64,8.58ZM10.8,13c-.37,0-1.22-1.25-1.32-3.54h2.64C12,11.71,11.17,13,10.8,13ZM9.48,8.58C9.58,6.29,10.43,5,10.8,5S12,6.29,12.12,8.58Zm2.7,4.12A7.61,7.61,0,0,0,13,9.42h1.75A4,4,0,0,1,12.18,12.7ZM13,8.58a7.53,7.53,0,0,0-.78-3.27,3.93,3.93,0,0,1,2.53,3.27ZM8.2,16h5.2v1.12H8.2Z"/></svg>