<?xml version="1.0" encoding="utf-8"?>
<!-- Generator: Adobe Illustrator 24.0.1, SVG Export Plug-In . SVG Version: 6.00 Build 0)  -->
<svg version="1.1" id="Ebene_1" xmlns="http://www.w3.org/2000/svg" xmlns:xlink="http://www.w3.org/1999/xlink" x="0px" y="0px"
	 viewBox="0 0 21.6 21.6" style="enable-background:new 0 0 21.6 21.6;" xml:space="preserve">
<path d="M5.8,10.8c0,0.6-0.4,1-1,1s-1-0.4-1-1s0.4-1,1-1S5.8,10.2,5.8,10.8z M19.8,10.8l-2,2h-1l-1-0.7l-1,0.7l-1-0.7l-1,0.7h-2.5
	c-1.1,2.2-3.8,3.1-6,2s-3.1-3.8-2-6s3.8-3.1,6-2c0.9,0.4,1.6,1.1,2,2h7.5L19.8,10.8z M18.2,10.8l-0.9-0.9H9.6L9.3,9.3
	C8.5,7.6,6.5,6.9,4.8,7.8s-2.4,2.9-1.5,4.5s2.9,2.4,4.5,1.5C8.5,13.5,9,13,9.3,12.3l0.3-0.6h2.9l1.3-0.9l1,0.7l1-0.7l1.3,0.9h0.3
	L18.2,10.8z"/>
</svg>
