<svg id="Layer_2" data-name="Layer 2" xmlns="http://www.w3.org/2000/svg" viewBox="0 0 21.6 21.6"><path d="M10.86873,15.38374c-.39838.6842-.829,1.07257-1.19373,1.07257-.92993,0-2.29773-2.45434-2.42926-6.1875H9.96119a5.56345,5.56345,0,0,1,.494-1.125H7.24574c.13153-3.73315,1.49933-6.1875,2.42926-6.1875.78088,0,1.86163,1.74475,2.26874,4.51a5.59159,5.59159,0,0,1,1.05615-.63293A9.95618,9.95618,0,0,0,11.741,3.2826,6.7709,6.7709,0,0,1,15.522,6.35365a5.57338,5.57338,0,0,1,1.38593.23914,7.87308,7.87308,0,1,0-4.144,10.35833A5.6149,5.6149,0,0,1,10.86873,15.38374ZM7.609,3.2826A12.02944,12.02944,0,0,0,6.10835,9.14381H2.9535A6.76087,6.76087,0,0,1,7.609,3.2826ZM2.9535,10.26881H6.10835A12.02963,12.02963,0,0,0,7.609,16.13,6.761,6.761,0,0,1,2.9535,10.26881ZM19.812,11.95643a4.5607,4.5607,0,1,0-2.96814,4.2179l1.84089,3.60614,1.002-.51172-1.8363-3.59723A4.49716,4.49716,0,0,0,19.812,11.95643Zm-7.884,0A3.37952,3.37952,0,1,1,15.30751,15.336,3.38335,3.38335,0,0,1,11.928,11.95643Z"/></svg>