<?xml version="1.0" encoding="utf-8"?>
<!-- Generator: Adobe Illustrator 24.0.1, SVG Export Plug-In . SVG Version: 6.00 Build 0)  -->
<svg version="1.1" id="Ebene_1" xmlns="http://www.w3.org/2000/svg" xmlns:xlink="http://www.w3.org/1999/xlink" x="0px" y="0px"
	 viewBox="0 0 21.6 21.6" style="enable-background:new 0 0 21.6 21.6;" xml:space="preserve">
<path d="M19.8,5.6c-1.7,1.8-3.9,3.1-6.3,3.6c0,0-8.4,0-8.5,0C4.1,9.2,3.3,8.7,2.8,8C2.7,7.8,2.3,7.7,2.1,7.9C1.9,8,1.8,8.1,1.8,8.3
	v3c0,0.2,0.2,0.5,0.4,0.5c0.1,0,0.1,0,0.2,0c0.2,0,0.4-0.1,0.5-0.3c0.5-0.7,1.3-1.2,2.2-1.2h0c0.1,0,1.1,0,1.1,0
	c-1.2,1.4-1.1,3.5,0.2,4.7C6.9,15.7,7.8,16,8.6,16H12c1.9,0,3.4-1.5,3.4-3.3c0-0.7-0.2-1.3-0.6-1.8c1.9,0.7,3.6,1.8,5,3.2L19.8,5.6
	L19.8,5.6z M12,14.9H8.6c-1.2,0-2.2-1-2.2-2.2c0-1.2,1-2.2,2.2-2.2c0,0,0,0,0,0H12c1.2,0,2.2,1,2.2,2.2C14.2,13.9,13.2,14.9,12,14.9
	z M18.7,11.5c-1-0.7-2.1-1.3-3.2-1.7c1.1-0.4,2.2-1,3.2-1.7V11.5z"/>
</svg>
