<?xml version="1.0" encoding="UTF-8"?><svg id="Layer_1" xmlns="http://www.w3.org/2000/svg" viewBox="0 0 38 38"><path d="m34.98871,3l-31.98871.01294.01135,31.98706,31.98865-.01294-.01129-31.98706Zm-1.99933,2.00079l.0014,4.01093H5.00214l-.0014-3.99957,27.98865-.01135ZM5.01062,32.99921l-.00775-21.98749h27.98865l.00781,21.97614-27.98871.01135Zm1.98938-25.99921c0-.55231.44775-1,1-1,.55231,0,1,.44769,1,1,0,.55225-.44769,1-1,1-.55225,0-1-.44775-1-1Zm4,0c0-.55231.44775-1,1-1,.55231,0,1,.44769,1,1,0,.55225-.44769,1-1,1-.55225,0-1-.44775-1-1Zm4,0c0-.55231.44775-1,1-1,.55231,0,1,.44769,1,1,0,.55225-.44769,1-1,1-.55225,0-1-.44775-1-1Zm11.74072,10.67188l-9.8042,10.80664-5.66943-6.10352,1.46582-1.36133,4.18604,4.50781,8.34033-9.19336,1.48145,1.34375Z"/></svg>