<svg id="Layer_1" data-name="Layer 1" xmlns="http://www.w3.org/2000/svg" viewBox="0 0 21.6 21.6"><path d="M19.8,5.25A8.13,8.13,0,0,1,18,7.15v.5A10.36,10.36,0,0,1,7.6,18.05a10.29,10.29,0,0,1-5.8-1.9,2.77,2.77,0,0,0,.9.1,7.27,7.27,0,0,0,4.5-1.6,3.54,3.54,0,0,1-3.4-2.5,1.7,1.7,0,0,0,.7.1,3.08,3.08,0,0,0,1-.1,3.75,3.75,0,0,1-2.9-3.6,3.37,3.37,0,0,0,1.7.5,3.4,3.4,0,0,1-1.6-3,3.45,3.45,0,0,1,.5-1.8,10.56,10.56,0,0,0,7.5,3.8,2,2,0,0,1-.1-.8A3.75,3.75,0,0,1,17,4.65a6.31,6.31,0,0,0,2.3-.8,3.89,3.89,0,0,1-1.6,2A8.3,8.3,0,0,0,19.8,5.25Z"/></svg>