<svg id="_2x" data-name="2x" xmlns="http://www.w3.org/2000/svg" viewBox="0 0 38 38"><path d="M31,7V31H7V7H31m2-2H5V33H33V5ZM9.80293,23.6125a4.87713,4.87713,0,0,1,.45215-1.10547A4.69866,4.69866,0,0,1,10.925,21.594a9.8606,9.8606,0,0,1,.82129-.7793q.41748-.36768.88769-.71973c.3125-.23535.62207-.46582.92969-.69531q.46-.3435.8877-.67871.42627-.33472.77832-.66992a2.52416,2.52416,0,0,0,.49414-.62793,1.51345,1.51345,0,0,0,.17578-.72852,1.62366,1.62366,0,0,0-.38477-1.13086,1.47957,1.47957,0,0,0-1.15625-.42724,1.6428,1.6428,0,0,0-1.28906.50244,1.99,1.99,0,0,0-.41894.7456A3.585,3.585,0,0,0,12.5168,17.448H9.76973a6.70731,6.70731,0,0,1,.18359-1.7085,4.12515,4.12515,0,0,1,.58691-1.27295,3.61127,3.61127,0,0,1,1.48243-1.23095,5.55225,5.55225,0,0,1,2.40332-.46094,5.52106,5.52106,0,0,1,1.90918.30176,4.06536,4.06536,0,0,1,1.374.8125,3.27442,3.27442,0,0,1,.8291,1.20556,4.037,4.037,0,0,1,.27637,1.49952,3.702,3.702,0,0,1-.15918,1.13037,3.56479,3.56479,0,0,1-.43555.90478,4.57237,4.57237,0,0,1-.63672.75391,8.619,8.619,0,0,1-.76172.64453q-.40282.33545-.83789.64453-.43506.31055-.8623.62891-.42774.31787-.82129.63574a6.40673,6.40673,0,0,0-.71191.66992v.01758h5.22656v2.36133H9.61836A5.63324,5.63324,0,0,1,9.80293,23.6125Zm9.88281-7.20313H22.801l1.27246,2.21094h.03418l1.206-2.21094h2.86426L25.632,20.44648l2.91406,4.53907h-3.166l-1.40625-2.5625h-.03418L22.382,24.98555H19.40059L22.382,20.47969Z"/></svg>