<svg id="Layer_1" data-name="Layer 1" xmlns="http://www.w3.org/2000/svg" viewBox="0 0 21.6 21.6"><path d="M10.8,2.1125A8.6875,8.6875,0,1,0,19.4875,10.8,8.6875,8.6875,0,0,0,10.8,2.1125Zm0,16.25a7.56727,7.56727,0,0,1-7.53375-6.9953H6.85011a3.07823,3.07823,0,1,0,6.05243-1.12579H11.74183a1.9301,1.9301,0,0,1,.09247.56329,1.95795,1.95795,0,1,1-3.91589,0,1.9301,1.9301,0,0,1,.09247-.56329l-4.74512.00073a7.55425,7.55425,0,0,1,15.06854.00122H15.12574a3.07823,3.07823,0,1,0-6.05242,1.12579H10.234a1.93043,1.93043,0,0,1-.09247-.56329,1.958,1.958,0,1,1,3.9159,0,1.93043,1.93043,0,0,1-.09247.56329l4.36871-.00067A7.5673,7.5673,0,0,1,10.8,18.3625Z"/></svg>