<?xml version="1.0" encoding="utf-8"?>
<!-- Generator: Adobe Illustrator 24.0.1, SVG Export Plug-In . SVG Version: 6.00 Build 0)  -->
<svg version="1.1" id="Layer_1" xmlns="http://www.w3.org/2000/svg" xmlns:xlink="http://www.w3.org/1999/xlink" x="0px" y="0px"
	 viewBox="0 0 21.6000004 21.6000004" style="enable-background:new 0 0 21.6000004 21.6000004;" xml:space="preserve">
<path d="M10.818244,8.8418703c1.3618774-0.0014648,2.5842285-0.8359375,3.081543-2.1037598
	c1.6192017,0.9135742,2.7352915,2.5136719,3.0332041,4.3487549l1.1020508-0.1778564
	c-0.3695068-2.3005371-1.8221436-4.2833252-3.9042978-5.3292236c0.0004883-0.019165,0.0058594-0.0368652,0.0058594-0.0559692
	c0.000061-1.8325808-1.4855347-3.3181765-3.3180542-3.3181765C8.9859686,2.2055786,7.5004344,3.6911743,7.5003734,5.523694
	C7.5003734,7.3561525,8.9857855,8.8417482,10.818244,8.8418703z M10.818244,3.3216674v-0.000061
	c1.2162476,0,2.2021484,0.9859622,2.2021484,2.2021487c0,1.2162476-0.9859009,2.2021484-2.2021484,2.2021484
	c-1.2161865,0-2.2021484-0.9859009-2.2021484-2.2021484C8.6174383,4.3081179,9.6026068,3.3229492,10.818244,3.3216674z
	 M8.0106268,13.7050295c-0.6782222-1.1953125-2.030334-1.8403931-3.38623-1.6154785l-0.0004883-0.0056152
	c-0.0028687-1.8601074,0.8330688-3.6224365,2.2754517-4.7969971L6.19239,6.4226809
	c-1.7017822,1.3864746-2.6879885,3.4661865-2.6846926,5.6612549c0,0.1278076,0.0146484,0.2539062,0.0224609,0.3808594
	c-0.0170898,0.0095215-0.0351562,0.0158691-0.0522461,0.0257568c-1.5869751,0.9163208-2.1306763,2.9456787-1.2144165,4.5327139
	c0.9163208,1.5869751,2.9456789,2.1307373,4.5327148,1.2144165C8.3831854,17.3213615,8.9269476,15.2920656,8.0106268,13.7050295z
	 M7.2640452,15.9340334c-0.2579346,0.9614859-1.128479,1.6306753-2.1239624,1.6326895
	C3.9235909,17.568615,2.93592,16.5839348,2.9340279,15.367444c-0.0018311-1.2164307,0.9827881-2.2041016,2.19928-2.2059937
	c0.788208-0.0012207,1.5170288,0.4188843,1.9110718,1.1015625C7.3378367,14.7683229,7.4169383,15.3700075,7.2640452,15.9340334z
	 M18.158638,12.4905519h-0.000061c-1.5840454-0.9171143-3.6116343-0.3764038-4.5287485,1.2076416
	c-0.6834717,1.180542-0.5738525,2.6593008,0.2763062,3.7260733c-1.5997925,0.9499512-3.5458374,1.1170044-5.2841797,0.4537354
	l-0.3955078,1.043457c2.1768799,0.8267822,4.6182251,0.55896,6.5640259-0.7200928
	c0.0180664,0.0108643,0.0317383,0.0257568,0.050293,0.0362549c1.5870371,0.9161987,3.6162729,0.3724365,4.5324717-1.2145996
	S19.7456741,13.4067507,18.158638,12.4905519z M18.406868,16.4647942c-0.000061,0.0001221-0.0001221,0.0002441-0.0002441,0.0003662
	c-0.6079712,1.053772-1.9551392,1.4151001-3.0088511,0.8070679c-1.053772-0.6079712-1.4151001-1.9550772-0.8071289-3.0088491
	c0.6080322-1.053772,1.9551401-1.4151001,3.0089121-0.8071289c0.0004883,0.0003052,0.0009766,0.0005493,0.0014038,0.0008545
	C18.6540604,14.0651369,19.0149002,15.4116945,18.406868,16.4647942z"/>
</svg>
