<svg id="Layer_2" data-name="Layer 2" xmlns="http://www.w3.org/2000/svg" viewBox="0 0 21.6 21.6"><path d="M8.19624,11.85239l.82739.74987.65869-.72674L10.8,12.86777l1.10919-.976a4.7333,4.7333,0,0,0,1.67462-3.47644V7.57059l.41736-.46051-.82739-.74988Zm2.96979-.80518-.36273.31915-.36548-.32446,1.96356-2.16663A3.7362,3.7362,0,0,1,11.166,11.04721ZM8.35328,10.003a4.98406,4.98406,0,0,1-.33007-1.74841l-.007-1.52253H11.3177l-1.01959,1.125H9.14637l.00184.39234a3.95414,3.95414,0,0,0,.08813.77917ZM5.75929,1.8v18H15.84071V1.8Zm8.95642,16.875H6.88429v-2.0102h2.861v1.09668h2.10938V16.66476h2.861Zm0-14.43793V15.53976H6.88429V2.925h7.83142Z"/></svg>