<svg id="Layer_1" data-name="Layer 1" xmlns="http://www.w3.org/2000/svg" viewBox="0 0 21.6 21.6">
  <path d="M15.9152,9.4156a2.3131,2.3131,0,0,0-1.61-.6794,5.591,5.591,0,0,0-.9829-6.54L12.9265,1.8,5.0021,9.7242l.3965.3961a5.527,5.527,0,0,0,6.54.9828,2.3041,2.3041,0,0,0,.5156,1.41V19.8h3.6255V12.5133a2.3095,2.3095,0,0,0-.164-3.0977ZM12.1087,9.7a4.4834,4.4834,0,0,1-5.4967,0l6.29-6.29A4.483,4.483,0,0,1,12.1087,9.7Zm2.85,8.98H13.5744V13.28a2.1323,2.1323,0,0,0,1.3843,0Zm.1641-6.7587a1.24,1.24,0,0,1-1.7129,0,1.2108,1.2108,0,1,1,1.7124-1.7123h.0005A1.2117,1.2117,0,0,1,15.1228,11.9206Z"/>
</svg>
