<svg id="Layer_1" data-name="Layer 1" xmlns="http://www.w3.org/2000/svg" viewBox="0 0 21.6 21.6">
  <path d="M1.86274,6.7375v8.125H19.73726V6.7375Zm16.74952,7H2.98774V7.8625H18.61226Zm-13.79-1.42676L4.0019,9.65059h.79981L5.082,10.68574c.01953.08008.03906.167.05664.2627q.02929.14208.05274.2666c.01758.09766.03222.19531.04492.2959H5.246q.03076-.145.05567-.2959c.0166-.08594.03418-.17774.05273-.27441s.03907-.18555.0625-.26465l.27051-1.02539h.66406L6.63179,10.676c.02343.0791.04492.168.06543.26465.01953.09667.03711.18847.05468.27441.01661.10059.03516.20019.05469.30078h.00977c.01367-.09668.02929-.19531.04492-.29492.01758-.084.03516-.17383.05273-.27051.01856-.09668.03907-.18457.0625-.26465l.28516-1.03515h.77539l-.82519,2.66015H6.47163l-.28027-1.085c-.01953-.07715-.03907-.16211-.05957-.25488-.02051-.09375-.03809-.18164-.05567-.26563-.01562-.09668-.0332-.19433-.04883-.29492H6.01655c-.02051.10059-.04.19824-.05957.29492-.01758.084-.03515.17188-.05469.26563-.0205.09277-.041.17773-.06054.25488l-.29,1.085Zm4.334,0L8.33687,9.65059h.7998l.28027,1.03515c.01953.08008.03907.167.05762.2627q.02637.14208.05273.2666c.01563.09766.03125.19531.04493.2959H9.582c.01953-.09668.03809-.19531.05469-.2959.0166-.08594.03418-.17774.05273-.27441a2.52928,2.52928,0,0,1,.0625-.26465l.26954-1.02539h.665l.28028,1.02539c.02344.0791.04492.168.06445.26465.02051.09667.03906.18847.05567.27441.0166.10059.03417.20019.05468.30078h.01074c.0127-.09668.02735-.19531.04493-.29492.01562-.084.0332-.17383.05175-.27051s.04-.18457.0625-.26465l.28516-1.03515H12.371l-.82421,2.66015h-.74024l-.2793-1.085c-.0205-.07715-.041-.16211-.06054-.25488-.01953-.09375-.03906-.18164-.05469-.26563-.01758-.09668-.0332-.19433-.05078-.29492h-.00977c-.01953.10059-.04.19824-.05957.29492-.0166.084-.03515.17188-.05566.26563-.01953.09277-.03906.17773-.05957.25488l-.29,1.085Zm4.33594,0-.82031-2.66015h.7998l.28027,1.03515c.01954.08008.03907.167.05664.2627q.02931.14208.05274.2666c.01758.09766.03223.19531.04492.2959H13.916q.03075-.145.05566-.2959c.0166-.08594.03418-.17774.05274-.27441s.03906-.18555.0625-.26465l.2705-1.02539h.66407l.28027,1.02539c.02344.0791.04492.168.06543.26465.01953.09667.03711.18847.05469.27441.0166.10059.03515.20019.05468.30078h.00977c.01367-.09668.0293-.19531.04492-.29492.01758-.084.03516-.17383.05274-.27051.01855-.09668.03906-.18457.0625-.26465l.28515-1.03515H16.707l-.82519,2.66015h-.74024l-.28027-1.085c-.01953-.07715-.03906-.16211-.05957-.25488-.02051-.09375-.03809-.18164-.05567-.26563-.01562-.09668-.0332-.19433-.04882-.29492h-.01075c-.0205.10059-.04.19824-.05957.29492-.01757.084-.03515.17188-.05468.26563-.02051.09277-.041.17773-.06055.25488l-.29,1.085Zm4.17969,0h-.83008v-.82031h.83008Z"/>
</svg>
