<?xml version="1.0" encoding="UTF-8"?><svg id="Layer_2" xmlns="http://www.w3.org/2000/svg" viewBox="0 0 38 38"><path d="m19,9.65385v10.38462h8.29015v-10.38462h-8.29015Zm6.21762,8.30769h-4.14508v-6.23077h4.14508v6.23077Zm-14.50777,0v2.07692h6.21762v-2.07692h-6.21762Zm0-4.19543v2.07692h6.21762v-2.07692h-6.21762Zm0-4.11227v2.07692h6.21762v-2.07692h-6.21762Zm11.74095,16.61538h-6.90159l-.69428,2.07692h8.29015l-.69428-2.07692Zm0,0h-6.90159l-.69428,2.07692h8.29015l-.69428-2.07692Zm0,0h-6.90159l-.69428,2.07692h8.29015l-.69428-2.07692Zm-3.45079-16.61538v10.38462h8.29015v-10.38462h-8.29015Zm6.21762,8.30769h-4.14508v-6.23077h4.14508v6.23077Zm-14.50777,2.07692h6.21762v-2.07692h-6.21762v2.07692Zm0-4.19543h6.21762v-2.07692h-6.21762v2.07692Zm0-4.11227h6.21762v-2.07692h-6.21762v2.07692Zm8.29015-2.07692v10.38462h8.29015v-10.38462h-8.29015Zm6.21762,8.30769h-4.14508v-6.23077h4.14508v6.23077Zm-14.50777,2.07692h6.21762v-2.07692h-6.21762v2.07692Zm0-4.19543h6.21762v-2.07692h-6.21762v2.07692Zm0-4.11227h6.21762v-2.07692h-6.21762v2.07692Zm20.72539,11.24649V5.5H6.56477v17.47726l-3.56477,9.52274h32l-3.56477-9.52274ZM8.63731,7.57692h20.72539v14.53846H8.63731V7.57692Zm-.32124,16.61538h21.36787l2.33161,6.23077H5.98446l2.33161-6.23077Z"/></svg>