<svg id="Layer_1" data-name="Layer 1" xmlns="http://www.w3.org/2000/svg" viewBox="0 0 21.6 21.6">
  <path d="M8.85,10.7368a4.133,4.133,0,1,0-4.1329-4.133A4.133,4.133,0,0,0,8.85,10.7368Zm0-7.141a3.008,3.008,0,1,1-3.0079,3.008A3.0114,3.0114,0,0,1,8.85,3.5958Zm1.9976,13.79.98,1L2.0629,18.38c0-.1939.0059-.6864.0059-.6864a6.6344,6.6344,0,0,1,6.8184-6.417,6.86,6.86,0,0,1,6.1624,3.69l-.8415.8622a5.6963,5.6963,0,0,0-5.3209-3.4272,5.5359,5.5359,0,0,0-5.6756,4.967Zm3.0708,1.7436-3.2446-3.3125.8037-.7871,2.4351,2.4863,4.81-4.9766.8086.7813Z"/>
</svg>
