<svg id="Layer_1" data-name="Layer 1" xmlns="http://www.w3.org/2000/svg" viewBox="0 0 21.6 21.6"><defs><style>.cls-1{fill:#020202;}</style></defs><path class="cls-1" d="M10.75792,11.16666A4.68333,4.68333,0,1,0,6.07459,6.48333,4.68331,4.68331,0,0,0,10.75792,11.16666Zm0-8.27574A3.59241,3.59241,0,1,1,7.16551,6.48333,3.59647,3.59647,0,0,1,10.75792,2.89092Zm.04255,8.9791A7.43237,7.43237,0,0,0,3.166,19.25454V19.8h15.2681v-.54546A7.43214,7.43214,0,0,0,10.80047,11.87ZM4.2796,18.70908a6.37279,6.37279,0,0,1,6.52087-5.74814,6.37253,6.37253,0,0,1,6.51993,5.74814Z"/></svg>