<svg id="Ebene_1" data-name="Ebene 1" xmlns="http://www.w3.org/2000/svg" viewBox="0 0 21.6 21.6"><path d="M8.72749,8.42952a3.31452,3.31452,0,1,0-3.314-3.315A3.314,3.314,0,0,0,8.72749,8.42952Zm0-5.504a2.18952,2.18952,0,1,1-2.19,2.189A2.19151,2.19151,0,0,1,8.72749,2.92549Zm.61,11.273a5.56163,5.56163,0,0,0-.076.757c0,.126.029.244.037.368h-7.421v-3.282a9.87033,9.87033,0,0,1,6.629-2.58,9.70927,9.70927,0,0,1,3.527.664,5.64283,5.64283,0,0,0-1.093.821,8.57931,8.57931,0,0,0-2.434-.361,8.755,8.755,0,0,0-5.504,1.974v1.639Zm10.385-.004-.873-2.108-1.278.191.191-1.278-2.107-.872-.77,1.037-.768-1.037-2.108.872.191,1.278-1.277-.191-.873,2.108,1.038.768-1.038.769.873,2.108,1.277-.19-.191,1.277,2.108.873.769-1.038.769,1.038,2.107-.873-.191-1.278,1.278.191.873-2.108-1.038-.768Zm-2.193.553a2.65716,2.65716,0,0,1,.001.428l-.026.313.843.624-.201.484-1.037-.154-.202.238a2.59949,2.59949,0,0,1-.302.301l-.24.203.155,1.039-.483.201-.626-.844-.313.027a2.33164,2.33164,0,0,1-.426,0l-.311-.025-.624.842-.484-.201.154-1.036-.237-.203a2.74653,2.74653,0,0,1-.305-.305l-.202-.237-1.036.154-.201-.484.843-.625-.025-.312a2.53922,2.53922,0,0,1-.001-.427l.026-.311-.84295-.625.201-.484,1.037.154.202-.238a2.69113,2.69113,0,0,1,.303-.302l.239-.202-.155-1.038.484-.2.626.843.311-.025a2.79627,2.79627,0,0,1,.429-.001l.31.024.624-.84.484.2-.154,1.036.237.203a2.63338,2.63338,0,0,1,.303.304l.202.239,1.038-.155.20105.484-.842.624Zm-2.644-1.639a1.854,1.854,0,1,0,1.854,1.854A1.85394,1.85394,0,0,0,14.88551,13.10847Zm0,2.584a.729.729,0,1,1,.729-.729A.72979.72979,0,0,1,14.88551,15.69252Z"/></svg>