<svg id="Layer_1" data-name="Layer 1" xmlns="http://www.w3.org/2000/svg" viewBox="0 0 21.6 21.6"><path d="M10.89,9.16V8a2.25,2.25,0,0,1,2.25,2.25H12A1.13,1.13,0,0,0,10.89,9.16Zm3.24,1.14h1.12a4.36,4.36,0,0,0-4.36-4.36V7.06A3.24,3.24,0,0,1,14.13,10.3Zm2.09,0h1.12a6.45,6.45,0,0,0-6.45-6.45V5A5.33,5.33,0,0,1,16.22,10.29Zm-11-5.43H4.1V5.94H5.22Zm2.13,0H6.23V5.94H7.35ZM5.22,7H4.1V8.06H5.22ZM7.35,7H6.23V8.06H7.35ZM5.22,9.1H4.1v1.08H5.22Zm2.13,0H6.23v1.08H7.35ZM5.22,11.22H4.1V12.3H5.22Zm2.13,0H6.23V12.3H7.35ZM5.22,13.34H4.1v1.08H5.22Zm2.13,0H6.23v1.08H7.35ZM5.22,15.46H4.1v1.08H5.22Zm2.13,0H6.23v1.08H7.35Zm12.44.6h-1.6l-.31-.3V19.3H1.81V2.3H9.63V18.17h2V15.78l-.29.28H9.77l5-5ZM8.51,3.42H2.94V18.17H8.51Zm8.25,11.2-2-2-2,2v3.52h4Z"/></svg>