<svg id="Layer_2" data-name="Layer 2" xmlns="http://www.w3.org/2000/svg" viewBox="0 0 21.6 21.6"><path d="M12.812,15.29918c-1.03821,1.752-2.72145,1.752-3.75966,0Zm5.863-6.79892v3.47448A2.20029,2.20029,0,0,1,16.47474,14.175h-.43219l-.18438,1.15973a5.09753,5.09753,0,0,1-10.11634,0l-.145-1.15973H5.12526A2.20029,2.20029,0,0,1,2.925,11.97474V8.50026A2.19532,2.19532,0,0,1,5.02571,6.31,5.956,5.956,0,0,1,10.8,1.8c.10284,0,.205,1.46362.3064,1.46869A5.94924,5.94924,0,0,1,15.99153,6.3h.48321A2.20029,2.20029,0,0,1,18.675,8.50026ZM6.06111,6.3h8.71972c-.06408-.0871-.1109-.18274-.18115-.26648a4.968,4.968,0,0,0-3.54358-1.766c-.8034-.04053-.96246-.70471-1.065-1.401A4.95691,4.95691,0,0,0,6.06111,6.3Zm8.9693,7.875H6.60469l.12945,1.03571a4.0975,4.0975,0,0,0,8.13172,0ZM17.675,8.50026A1.20164,1.20164,0,0,0,16.47474,7.3H5.12526a1.14774,1.14774,0,0,0-.26514.05365A1.18475,1.18475,0,0,0,3.925,8.50026v3.47448A1.20164,1.20164,0,0,0,5.12526,13.175H16.47474A1.20164,1.20164,0,0,0,17.675,11.97474Z"/></svg>