<svg id="Layer_1" data-name="Layer 1" xmlns="http://www.w3.org/2000/svg" viewBox="0 0 21.6 21.6"><path d="M3.55885,4.92395,5.24711,6.61227A8.77747,8.77747,0,0,0,1.95954,9.81089L1.8,10.08912l.15954.27822a10.03026,10.03026,0,0,0,8.841,4.67924,11.42755,11.42755,0,0,0,2.578-.3026l2.72479,2.72491.79187-.79284L4.35072,4.13111ZM7.42482,8.79l4.67365,4.67383a3.49443,3.49443,0,0,1-1.29908.255A3.63368,3.63368,0,0,1,7.16982,10.0893,3.49417,3.49417,0,0,1,7.42482,8.79ZM6.59172,7.957a4.58266,4.58266,0,0,0-.54258,2.13235A4.722,4.722,0,0,0,7.3403,13.32859a8.318,8.318,0,0,1-4.23965-3.23947A7.87738,7.87738,0,0,1,6.07248,7.43771ZM12.252,10.0893a1.44868,1.44868,0,0,1-.04116.33057L10.46876,8.6778A1.44112,1.44112,0,0,1,12.252,10.0893Zm7.548-.00018-.15954.27822a8.99156,8.99156,0,0,1-3.92178,3.56056l-.86386-.86392a8.13406,8.13406,0,0,0,3.64453-2.97486,8.32128,8.32128,0,0,0-4.24142-3.23978,4.72166,4.72166,0,0,1,1.29172,3.24,4.67441,4.67441,0,0,1-.91347,2.756l-.79279-.79278A3.61908,3.61908,0,0,0,8.83625,7.04524L7.43667,5.64554a11.50311,11.50311,0,0,1,3.36382-.5134,10.03039,10.03039,0,0,1,8.84,4.67875Z"/></svg>