<?xml version="1.0" encoding="utf-8"?>
<!-- Generator: Adobe Illustrator 24.0.1, SVG Export Plug-In . SVG Version: 6.00 Build 0)  -->
<svg version="1.1" id="Layer_1" xmlns="http://www.w3.org/2000/svg" xmlns:xlink="http://www.w3.org/1999/xlink" x="0px" y="0px"
	 viewBox="0 0 21.6 21.6" style="enable-background:new 0 0 21.6 21.6;" xml:space="preserve">
<path d="M15.8,6.8c-1.2,0-2.3,0.5-3,1.4H8.8C7.4,6.5,4.9,6.3,3.2,7.7s-1.9,3.9-0.5,5.6s3.9,1.9,5.6,0.5c0.2-0.2,0.4-0.3,0.5-0.5h3.9
	c1.4,1.7,3.9,1.9,5.6,0.5s1.9-3.9,0.5-5.6C18.1,7.3,17,6.8,15.8,6.8z M5.8,13.7c-1.6,0-2.9-1.3-2.9-2.9s1.3-2.9,2.9-2.9
	s2.9,1.3,2.9,2.9C8.7,12.4,7.4,13.7,5.8,13.7z M12.1,12.2H9.5c0.4-0.9,0.4-2,0-2.9h2.6C11.7,10.3,11.7,11.3,12.1,12.2z M15.8,13.7
	c-1.6,0-2.9-1.3-2.9-2.9s1.3-2.9,2.9-2.9s2.9,1.3,2.9,2.9v0C18.7,12.4,17.4,13.7,15.8,13.7z"/>
</svg>
