<?xml version="1.0" encoding="utf-8"?>
<!-- Generator: Adobe Illustrator 24.0.1, SVG Export Plug-In . SVG Version: 6.00 Build 0)  -->
<svg version="1.1" id="Ebene_1" xmlns="http://www.w3.org/2000/svg" xmlns:xlink="http://www.w3.org/1999/xlink" x="0px" y="0px"
	 viewBox="0 0 21.6 21.6" style="enable-background:new 0 0 21.6 21.6;" xml:space="preserve">
<path d="M5.7,10.2H2.9V7.7H1.8v6.2h1.1v-2.8h2.8v2.8h1.1V7.7H5.7V10.2z M10.7,7.7H8.1v6.2h2.6c0.8,0,1.6-0.3,2.1-0.9
	c0.5-0.6,0.7-1.4,0.7-2.2s-0.2-1.6-0.7-2.2C12.3,7.9,11.6,7.7,10.7,7.7z M12,12.4c-0.4,0.5-1,0.6-1.7,0.6H9.2V8.6h1.1
	c0.6,0,1.3,0.1,1.7,0.6c0.3,0.4,0.4,1,0.4,1.6C12.4,11.3,12.3,12,12,12.4z M14.3,5.6l-0.8,0.8c2.4,2.4,2.4,6.4,0,8.8l0.8,0.8
	C17.1,13.1,17.1,8.5,14.3,5.6z M16.4,3.6l-0.8,0.8c1.7,1.7,2.7,4,2.7,6.4s-0.9,4.7-2.7,6.4l0.8,0.8c1.9-1.9,3-4.5,3-7.2
	S18.3,5.5,16.4,3.6z"/>
</svg>
