<svg id="Layer_2" data-name="Layer 2" xmlns="http://www.w3.org/2000/svg" viewBox="0 0 21.6 21.6">
  <path d="M11.07856,10.58955l4.00513-3.83826A3.04932,3.04932,0,0,0,16.085,4.63746a2.81022,2.81022,0,0,0-5.00641-1.78,2.81022,2.81022,0,0,0-5.0064,1.78A2.64423,2.64423,0,0,0,6.90657,6.64ZM8.90913,2.92549a1.697,1.697,0,0,1,1.30518.6521l.86425,1.03711.86426-1.03711a1.697,1.697,0,0,1,1.30518-.6521,1.714,1.714,0,0,1,1.71161,1.67578,1.93165,1.93165,0,0,1-.6543,1.33777L11.07374,9.036,7.65913,5.80385a1.53458,1.53458,0,0,1-.462-1.16639A1.71393,1.71393,0,0,1,8.90913,2.92549ZM19.23787,16.801a.56269.56269,0,0,1-.22364.314c-1.17627.80713-4.00781,2.68457-4.8999,2.68457H8.98939A2.87221,2.87221,0,0,1,7.76185,19.506c-.19091-.10546-1.45068-.8496-2.27392-1.33544-.24707-.146-.4541-.26807-.5791-.3418H2.29164v-1.125h2.77a.56342.56342,0,0,1,.27344.0708c.02294.01318.32226.18945.72509.42725.81348.48046,2.0586,1.21582,2.24756,1.3208a1.79177,1.79177,0,0,0,.68652.15185h5.12006a21.12127,21.12127,0,0,0,4.06543-2.35205,1.1753,1.1753,0,0,0-.0542-.4707c-.021-.05957-.19287-.14063-.3623-.17725l-4.14112,1.29541c-.082.02979-.16308.05469-.24267.07569a.53669.53669,0,0,1-.14209.0086v.00946h-3.748l-1.52832-.89892.57031-.96973,1.26465.74365h3.356l.11072-.03467a2.3873,2.3873,0,0,0,.22021-.0957c.46192-.228.45459-.31055.44483-.42529a.60153.60153,0,0,0-.32129-.502.57614.57614,0,0,0-.29883-.05273,1.76283,1.76283,0,0,0-.249.01025,2.03712,2.03712,0,0,1-.34571.04688,4.76364,4.76364,0,0,1-2.63763-.7832c-.13721-.09082-.26758-.18262-.396-.27295a3.82659,3.82659,0,0,0-1.18213-.64453,1.67643,1.67643,0,0,0-1.03857.05517l-2.20557.60156a.57936.57936,0,0,1-.14746.01954h-2.814V12.736H5.03041l2.07812-.564A2.73648,2.73648,0,0,1,8.798,12.10078a4.81761,4.81761,0,0,1,1.52978.80908c.11914.084.24024.16993.36768.25391a3.47516,3.47516,0,0,0,2.02728.59668,1.86354,1.86354,0,0,1,.21728-.04053,3.11456,3.11456,0,0,1,.397-.0166,1.65689,1.65689,0,0,1,.72021.147,1.72968,1.72968,0,0,1,.9917,1.437l.00391.05665,2.49951-.78223a.53734.53734,0,0,1,.21973-.02344,1.68988,1.68988,0,0,1,1.41406.9375A2.37861,2.37861,0,0,1,19.23787,16.801Z"/>
</svg>
