<svg id="Layer_1" data-name="Layer 1" xmlns="http://www.w3.org/2000/svg" viewBox="0 0 21.6 21.6"><path d="M17.40182,2.925l-.00528,5.09293c0,4.02133-2.399,7.80642-6.60849,10.46746-4.19818-2.62228-6.591-6.4071-6.591-10.4663L4.2023,2.925H17.40182M18.528,1.8H3.07846L3.072,8.01793c0,4.80111,3.031,9.07214,7.71988,11.78207,4.68881-2.74918,7.72964-7.02014,7.72964-11.78207L18.528,1.8ZM12.03485,12.42555l.79687-.79492a2.92609,2.92609,0,0,0-4.042,0l.79492.79492A1.7746,1.7746,0,0,1,12.03485,12.42555Zm2.09472-2.248a4.69788,4.69788,0,0,0-6.63769,0l.79492.79492a3.65855,3.65855,0,0,1,5.04785,0ZM15.3825,8.72828a6.46344,6.46344,0,0,0-9.14355,0l.79492.79493a5.34119,5.34119,0,0,1,7.55371,0Z"/></svg>