<?xml version="1.0" encoding="UTF-8"?><svg id="Layer_1" xmlns="http://www.w3.org/2000/svg" viewBox="0 0 21.6 21.6"><path d="M18.8,11.79554v-3.99542h-1.12585v-3.00006h-2.72791c-.58496-1.73907-2.21002-2.99994-4.14624-2.99994s-3.56122,1.26086-4.14618,2.99994h-2.59473c-1.24768,0-2.25909,1.01141-2.25909,2.25909v10.48163c0,1.24762,1.01141,2.25909,2.25909,2.25909h14.74091v-3.49988h1v-4.50446h-1Zm-3.60687-5.60229c0-.09186-.02148-.17773-.02704-.26819h1.38306v1.87506h-1.66925c.19666-.49878,.31323-1.03821,.31323-1.60687Zm-4.39313-3.26813c1.80206,0,3.26813,1.46606,3.26813,3.26813,0,.58685-.16791,1.13031-.43982,1.60687h-1.99731c.0376-.02466,.08514-.03754,.11896-.06665,.10535-.09033,.18848-.2038,.24927-.34033,.06079-.13635,.09119-.29663,.09119-.4809,0-.17743-.03278-.32709-.09869-.44885-.06567-.12158-.15295-.22351-.26135-.30566-.10864-.08221-.23358-.14966-.37476-.20233-.14148-.05249-.28632-.09857-.43408-.138v-1.04071c.17761,0,.30646,.04443,.38708,.13306,.08069,.08881,.12402,.21704,.13068,.38477h.56232c0-.16107-.02887-.30243-.08636-.42419-.0575-.12158-.13489-.22186-.23181-.30084-.09692-.07892-.2113-.13806-.34259-.17749-.13153-.03943-.27155-.05914-.41931-.05914v-.3847h-.21222v.3847c-.14783,0-.28931,.02136-.42419,.06409-.13489,.04279-.25378,.10431-.3573,.18488-.10358,.08069-.18604,.18091-.24689,.3009-.06079,.12006-.09119,.25903-.09119,.41675,0,.18091,.03278,.33221,.09875,.4538,.06561,.12164,.15198,.22278,.25885,.30328,.10687,.08069,.22699,.1463,.36005,.19733,.13336,.05103,.26703,.09454,.40192,.13068v1.1936c-.22668-.00659-.38959-.07227-.48828-.19733-.09845-.12494-.1463-.2959-.14301-.51294h-.56207c-.0033,.1842,.0238,.34692,.0813,.48828,.0575,.14148,.13879,.26068,.24414,.3576,.04041,.03735,.0993,.0556,.14612,.08636h-2.01575c-.27191-.47656-.43982-1.02002-.43982-1.60687,0-1.80206,1.46606-3.26813,3.26807-3.26813Zm.72809,4.06616c0,.19714-.05658,.34106-.1701,.43152-.11346,.09045-.25885,.14227-.43646,.15533v-1.14917c.07556,.01971,.1496,.04272,.22186,.06903,.0722,.02637,.13727,.06085,.19476,.10358,.0575,.04279,.10352,.09546,.13818,.15778,.03461,.06256,.05176,.13983,.05176,.23193Zm-.81879-2.2146v.98639c-.06897-.01642-.13733-.03693-.20441-.06158-.06744-.02466-.12677-.05676-.17761-.09619-.05121-.03943-.09302-.08716-.12585-.14313-.03284-.05585-.04938-.12329-.04938-.20215,0-.17432,.04846-.29834,.14539-.37238s.2345-.11096,.41187-.11096ZM2.925,7.05916c0-.62537,.50879-1.13409,1.13409-1.13409h2.37488c-.00555,.09045-.02704,.17633-.02704,.26819,0,.56866,.11658,1.10809,.31323,1.60687H2.925v-.74097Zm14.75,11.61572H4.05909c-.62531,0-1.13409-.50879-1.13409-1.13409V8.92512h14.75v2.87042h-1.53302l-.08978,.00214c-1.24384,0-2.2522,1.00836-2.2522,2.2522s1.00836,2.2522,2.2522,2.2522l.08978-.00208h1.53302v2.37488Zm1-3.49976l-.43768,.00006-2.1214,.00012-.06372,.00177c-.62152,0-1.1272-.50562-1.1272-1.1272,0-.62152,.50568-1.1272,1.15405-1.1275l.06293-.00183h2.53302v2.25458Z"/></svg>