<svg id="Ebene_1" data-name="Ebene 1" xmlns="http://www.w3.org/2000/svg" viewBox="0 0 21.6 21.6"><path d="M16.27852,11.41717c-.907-1.953-5.526-9.674-5.526-9.674s-4.185,7.131-5.339,9.545a6.6827,6.6827,0,0,0-.578,2.49,5.96448,5.96448,0,1,0,11.443-2.361Zm-5.479,7.201a4.84525,4.84525,0,0,1-4.84-4.84,5.65492,5.65492,0,0,1,.468-2.00494c.782-1.636,3.033-5.565,4.334-7.811,1.399,2.364,3.873,6.587,4.483,7.901a4.84189,4.84189,0,0,1-4.445,6.755Zm2.553-7.115-1.758,1.758,1.758,1.758-.795.795-1.758-1.758-1.758,1.758-.795-.795,1.75806-1.758-1.75806-1.758.795-.795,1.758,1.758,1.758-1.758Z"/></svg>