<svg id="Layer_1" data-name="Layer 1" xmlns="http://www.w3.org/2000/svg" viewBox="0 0 21.6 21.6">
  <path d="M15.78865,10.33119a2.322,2.322,0,0,0,.2677-.37744A2.62633,2.62633,0,0,0,15.863,7.35859L13.95155,4.1s-.44183.75317-.90045,1.53509C11.90034,3.67335,10.80153,1.8,10.80153,1.8L5.9557,10.06129a6.65816,6.65816,0,0,0-.49036,6.57923,5.99106,5.99106,0,0,0,4.769,3.14105q.23429.0185.4696.01843h.19513q.235,0,.46961-.01843a5.99086,5.99086,0,0,0,4.769-3.141A6.54393,6.54393,0,0,0,15.78865,10.33119Zm-2.778-2.40369.94086-1.604.9386,1.6001A1.72658,1.72658,0,0,1,15.136,9.18934a1.01593,1.01593,0,0,1-.07221.23481,1.2334,1.2334,0,0,1-.74383.59753,1.16093,1.16093,0,0,1-.233.0495q-.04843.00384-.097.00378h-.077c-.03235,0-.0647-.00122-.09674-.00372a1.231,1.231,0,0,1-.97705-.64709A1.561,1.561,0,0,1,13.01069,7.9275Zm2.13446,8.18341a4.86269,4.86269,0,0,1-3.865,2.54914q-.19016.015-.381.015H10.704q-.1908,0-.38116-.015A4.86279,4.86279,0,0,1,6.4579,16.11091c-1.131-2.11956-.19061-4.34607.4682-5.48047l3.87543-6.60693L12.399,6.74684c-.21082.35943-.35889.61175-.35889.61175a2.62633,2.62633,0,0,0-.19342,2.59516,2.363,2.363,0,0,0,1.88111,1.239q.09246.00732.18524.00726h.077q.09275,0,.18524-.00726a2.27953,2.27953,0,0,0,.70453-.18585A5.47234,5.47234,0,0,1,15.14515,16.11091Z"/>
</svg>
