<svg id="Layer_1" data-name="Layer 1" xmlns="http://www.w3.org/2000/svg" viewBox="0 0 21.6 21.6"><path d="M10.292,16.08956a.623.623,0,1,1-.623-.623A.62306.62306,0,0,1,10.292,16.08956Zm.60334-2.5498a.623.623,0,1,0,.623.62305A.623.623,0,0,0,10.89534,13.53976ZM8.44258,17.39334a.623.623,0,1,0,.62305.623A.623.623,0,0,0,8.44258,17.39334Zm3.6748-5.77356a.623.623,0,1,0,.623.623A.623.623,0,0,0,12.11738,11.61978Zm1.22638-.68067a.623.623,0,1,0-.623-.623A.62306.62306,0,0,0,13.34376,10.93911Zm-.141,4.52747a.623.623,0,1,0,.62305.623A.623.623,0,0,0,13.20271,15.46658Zm1.22638-1.92682a.623.623,0,1,0,.623.62305A.623.623,0,0,0,14.42909,13.53976Zm-2.45276,3.85358a.623.623,0,1,0,.623.623A.623.623,0,0,0,11.97633,17.39334ZM6.13521,15.46658a.623.623,0,1,0,.623.623A.623.623,0,0,0,6.13521,15.46658Zm1.22637-1.92682a.623.623,0,1,0,.62305.62305A.623.623,0,0,0,7.36158,13.53976ZM4.90883,17.39334a.623.623,0,1,0,.623.623A.623.623,0,0,0,4.90883,17.39334Zm3.6748-4.52747a.623.623,0,1,0-.623-.623A.623.623,0,0,0,8.58363,12.86587ZM16.40846,7.4512v.00006A4.488,4.488,0,0,0,7.85853,5.54,4.48745,4.48745,0,1,0,5.4792,14.1575L6.144,13.111A3.37232,3.37232,0,1,1,7.46821,6.58553l.96161.359.43805-.92834a3.372,3.372,0,0,1,6.42462,1.43506v1.116h1.116a2.2753,2.2753,0,0,1,.21942,4.54l-.716,1.1272h.49658a3.39163,3.39163,0,1,0,0-6.78326Z"/></svg>