<svg id="Layer_1" data-name="Layer 1" xmlns="http://www.w3.org/2000/svg" viewBox="0 0 21.6 21.6">
  <path d="M17.65954,12.76558l-.34228-.34229a1.25325,1.25325,0,0,0-.064-1.68652L16.24841,9.73335l-2.335,2.335-4.3996-4.3996,2.3371-2.33722L10.847,4.32808A1.28389,1.28389,0,0,0,9.119,4.29237l-.34076-.34076a1.289,1.289,0,0,0-1.78174,0L5.95873,4.98933a.66863.66863,0,1,0-.94549.9455L3.91833,7.02974a1.259,1.259,0,0,0,.0376,1.77246l.33362.33362a1.225,1.225,0,0,0,.06628,1.683l1.00391,1.00439L7.619,9.56386l4.39948,4.39947L9.75036,16.2314l1.0044,1.0039a1.22884,1.22884,0,0,0,1.69073.06037l.342.342a1.26253,1.26253,0,0,0,1.78223,0l1.067-1.067a.66249.66249,0,0,0,.444.17615.67.67,0,0,0,.67-.67.66222.66222,0,0,0-.17615-.444l1.085-1.085A1.26192,1.26192,0,0,0,17.65954,12.76558ZM4.64147,7.72017l3.062-3.06153a.25993.25993,0,0,1,.36767,0l.311.311L4.95983,8.392l-.30615-.30615A.26048.26048,0,0,1,4.64147,7.72017Zm.42139,2.3916a.26083.26083,0,0,1,0-.36768l4.709-4.70947a.25993.25993,0,0,1,.36767,0l.29736.29687L5.35974,10.40864ZM8.34411,8.875l.481-.481,4.38135,4.38135-.481.481Zm3.11768,7.65332-.29737-.29687,1.561-1.561.00244.00244,1.89551-1.89453-.00293-.00293,1.62793-1.62793.29687.29639a.262.262,0,0,1,.001.36865l-4.7168,4.71582A.25993.25993,0,0,1,11.46179,16.52827Zm5.49072-2.6875-3.08984,3.08985a.267.267,0,0,1-.36817,0l-.29687-.29688,3.458-3.458.29688.29688a.26052.26052,0,0,1,0,.36816Z"/>
</svg>
