<svg id="Layer_1" data-name="Layer 1" xmlns="http://www.w3.org/2000/svg" viewBox="0 0 21.6 21.6"><path d="M2.56966,8.43915,1.8,7.66949A12.86,12.86,0,0,1,14.0022,4.29893a5.65456,5.65456,0,0,0-1.87758.76422A11.76043,11.76043,0,0,0,2.56966,8.43915Zm6.91446,7.02013,1.35506,1.35511,1.35512-1.35511A1.9164,1.9164,0,0,0,9.48412,15.45928ZM9.729,11.60673a5.29164,5.29164,0,0,0-2.635,1.42768l.76966.76966A4.214,4.214,0,0,1,10.171,12.62955,5.66468,5.66468,0,0,1,9.729,11.60673Zm.16571-3.90928a9.11588,9.11588,0,0,0-5.51059,2.62708l.76965.76966a8.03017,8.03017,0,0,1,4.4038-2.24882A5.64648,5.64648,0,0,1,9.89472,7.69745Zm8.94652,9.98328L16.868,14.02078a4.589,4.589,0,1,1,.94245-.54646L19.8,17.16448Zm-3.68567-4.40615a3.39681,3.39681,0,1,0-3.39728-3.39634A3.40055,3.40055,0,0,0,15.15557,13.27458Z"/></svg>