<?xml version="1.0" encoding="UTF-8"?><svg id="Layer_2" xmlns="http://www.w3.org/2000/svg" viewBox="0 0 38 38"><path d="m33.08935,23.84599c0,.72357-.32839,1.39817-.90075,1.85006-.58122.45928-1.31311.62007-2.06365.45004-.85037-.19314-1.55241-.88899-1.74646-1.73177-.15533-.67367-.03172-1.34919.34752-1.89996.37457-.54337.96372-.91117,1.61631-1.0082.74915-.11182,1.31404-.7707,1.31404-1.53217v-1.50791c1.10961-.39182,1.91065-1.43236,1.91065-2.66443s-.80104-2.27261-1.91065-2.66443v-1.30969c0-4.27999-3.25332-8.02331-7.56454-8.30909-4.728-.3135-8.67602,3.4081-8.67602,8.02493v11.0419c-1.58168-1.69065-3.976-2.62446-6.57557-2.16125-2.84196.50641-5.15162,2.7506-5.70106,5.55849-.8888,4.54244,2.59992,8.51748,7.02577,8.51748,3.91332,0,7.08845-3.10915,7.15842-6.96868l.00309-15.98794c0-3.65784,3.24055-6.58055,7.02723-6.09863,3.12988.39806,5.39202,3.18747,5.39202,6.31302v1.37946c-1.10961.39182-1.91065,1.43236-1.91065,2.66443s.80104,2.27261,1.91065,2.66443v1.22698c-1.05049.23749-1.98482.86496-2.59776,1.75488-.68244.99064-.90728,2.19383-.63253,3.38777.35918,1.55989,1.60885,2.79819,3.18411,3.15489.33213.07578.66612.11274.99684.11274.97212,0,1.91439-.31974,2.68312-.92688,1.02996-.81321,1.62051-2.02749,1.62051-3.33047h-1.91065Zm-22.9244,8.76144c-2.89723,0-5.2543-2.33475-5.2543-5.20456s2.35706-5.20456,5.2543-5.20456,5.2543,2.33475,5.2543,5.20456-2.35706,5.20456-5.2543,5.20456ZM30.70103,14.85538c.52664,0,.95533.42416.95533.94628s-.42868.94628-.95533.94628-.95533-.42416-.95533-.94628.42868-.94628.95533-.94628Zm-20.53608,8.96705c-1.99619,0-3.61449,1.60286-3.61449,3.58044,0,1.97712,1.61829,3.57998,3.61449,3.57998s3.61449-1.60286,3.61449-3.57998c0-1.97758-1.61824-3.58044-3.61449-3.58044Zm0,5.26786c-.93947,0-1.70383-.75684-1.70383-1.68742,0-.93104.76437-1.68788,1.70383-1.68788.93953,0,1.70383.75684,1.70383,1.68788,0,.93057-.76431,1.68742-1.70383,1.68742Z"/></svg>