<svg id="Layer_1" data-name="Layer 1" xmlns="http://www.w3.org/2000/svg" viewBox="0 0 21.6 21.6"><path d="M13.31,2.85v-1A6.5,6.5,0,0,1,19.8,8.32h-1A5.47,5.47,0,0,0,13.31,2.85Zm3.48,5.47h1a4.52,4.52,0,0,0-4.5-4.5v1A3.5,3.5,0,0,1,16.79,8.32Zm-2,0h1a2.5,2.5,0,0,0-2.5-2.5v1A1.48,1.48,0,0,1,14.79,8.32Zm2.29,6.58,1.74,1.74-3.14,3.13L14,18l-1.5,1.49L8.07,15.15,6.49,16.72H3.94A2.24,2.24,0,0,1,1.8,18.31V17.16A1.1,1.1,0,1,0,1.8,15V13.82A2.26,2.26,0,0,1,4,15.57H6l1.23-1.24L2,9.07V5.46l5.5-2.08L18.05,13.94Zm-.81-.81.15-.15L7.2,4.72,3.14,6.25V8.59l9.31,9.31.68-.68Zm0,1.63-1.51,1.5.92.92,1.51-1.5Z"/></svg>