<svg id="Ebene_1" data-name="Ebene 1" xmlns="http://www.w3.org/2000/svg" viewBox="0 0 21.6 21.6">
  <path d="M16.3,7.3a5.5,5.5,0,1,0-6.063,5.472V19.8h1.125V12.772A5.501,5.501,0,0,0,16.3,7.3Zm-5.5,4.376a4.376,4.376,0,1,1,4.376-4.376A4.3809,4.3809,0,0,1,10.8,11.676ZM4.2939,12.736a4.28643,4.28643,0,0,0,5.451,5.451A4.28623,4.28623,0,0,0,4.2939,12.736Zm4.531,4.53a3.18305,3.18305,0,0,1-3.61-3.61A3.183,3.183,0,0,1,8.82491,17.266Zm8.481-4.53a4.28641,4.28641,0,0,0-5.451,5.451A4.28661,4.28661,0,0,0,17.30593,12.736Zm-4.531,4.53a3.18266,3.18266,0,0,1,3.61-3.61A3.18264,3.18264,0,0,1,12.77492,17.266ZM11.06661,6.83076v-1.96a1.06931,1.06931,0,0,1,1.082.94336h.65869a1.64311,1.64311,0,0,0-1.74072-1.48828V3.87861h-.45508v.44727c-1.041.041-1.749.61816-1.749,1.521,0,1.03271.74853,1.30957,1.749,1.5288V9.48213A1.30476,1.30476,0,0,1,9.28585,8.15645H8.60274a1.90146,1.90146,0,0,0,2.00879,1.8789v.69141h.45508v-.68311c1.06543-.06543,1.8706-.64258,1.8706-1.62695C12.93721,7.31074,12.132,7.05049,11.06661,6.83076Zm-.45508-.08935c-.75635-.1709-1.10645-.40674-1.10645-.92725,0-.57715.44727-.89453,1.10645-.95117Zm.45508,2.749V7.48164c.78076.1709,1.20361.35791,1.20361.95947A1.1389,1.1389,0,0,1,11.06661,9.49043Z"/>
</svg>
